<svg width="57" height="53" viewBox="0 0 57 53" fill="none" xmlns="http://www.w3.org/2000/svg">
<g filter="url(#filter0_d_525_1222)">
<path d="M22.8728 34.0949L28.4999 29.9881L33.991 33.9961L31.8678 27.5401L37.7036 23.2749H30.759L28.4999 16.7201L26.2407 23.2749H19.2961L24.9959 27.5401L22.8728 34.0949ZM8.41856 44.3617C7.20163 44.3617 6.16509 43.9579 5.30894 43.1502C4.45324 42.3422 4.02539 41.3638 4.02539 40.2152V34.8103C4.02539 34.4386 4.12306 34.0981 4.3184 33.7888C4.51375 33.4795 4.7909 33.2491 5.14986 33.0977C6.44655 32.3936 7.48989 31.4608 8.27987 30.2993C9.0694 29.1375 9.46416 27.8359 9.46416 26.3947C9.46416 24.9535 9.0694 23.652 8.27987 22.4901C7.48989 21.3287 6.44655 20.3959 5.14986 19.6918C4.7909 19.5403 4.51375 19.31 4.3184 19.0007C4.12306 18.6914 4.02539 18.3509 4.02539 17.9791V12.5743C4.02539 11.4257 4.45324 10.4473 5.30894 9.63922C6.16509 8.83156 7.20163 8.42773 8.41856 8.42773H48.5812C49.7981 8.42773 50.8346 8.83156 51.6908 9.63922C52.5465 10.4473 52.9743 11.4257 52.9743 12.5743V17.9791C52.9743 18.3509 52.8767 18.6914 52.6813 19.0007C52.486 19.31 52.2088 19.5403 51.8499 19.6918C50.5532 20.3959 49.5098 21.3287 48.7199 22.4901C47.9303 23.652 47.5356 24.9535 47.5356 26.3947C47.5356 27.8359 47.9303 29.1375 48.7199 30.2993C49.5098 31.4608 50.5532 32.3936 51.8499 33.0977C52.2088 33.2491 52.486 33.4795 52.6813 33.7888C52.8767 34.0981 52.9743 34.4386 52.9743 34.8103V40.2152C52.9743 41.3638 52.5465 42.3422 51.6908 43.1502C50.8346 43.9579 49.7981 44.3617 48.5812 44.3617H8.41856ZM8.41856 41.795H48.5812C49.0693 41.795 49.4704 41.647 49.7845 41.351C50.0981 41.0545 50.255 40.6759 50.255 40.2152V35.2499C48.578 34.3088 47.2523 33.0575 46.2779 31.4961C45.3034 29.9347 44.8162 28.2342 44.8162 26.3947C44.8162 24.5553 45.3034 22.8548 46.2779 21.2934C47.2523 19.732 48.578 18.4807 50.255 17.5396V12.5743C50.255 12.1135 50.0981 11.7349 49.7845 11.4385C49.4704 11.1425 49.0693 10.9944 48.5812 10.9944H8.41856C7.93043 10.9944 7.52932 11.1425 7.21523 11.4385C6.90159 11.7349 6.74478 12.1135 6.74478 12.5743V17.5396C8.42173 18.4807 9.74743 19.732 10.7219 21.2934C11.6963 22.8548 12.1835 24.5553 12.1835 26.3947C12.1835 28.2342 11.6963 29.9347 10.7219 31.4961C9.74743 33.0575 8.42173 34.3088 6.74478 35.2499V40.2152C6.74478 40.6759 6.90159 41.0545 7.21523 41.351C7.52932 41.647 7.93043 41.795 8.41856 41.795Z" fill="url(#paint0_linear_525_1222)"/>
</g>
<defs>
<filter id="filter0_d_525_1222" x="-50.7746" y="-42.3723" width="158.549" height="145.534" filterUnits="userSpaceOnUse" color-interpolation-filters="sRGB">
<feFlood flood-opacity="0" result="BackgroundImageFix"/>
<feColorMatrix in="SourceAlpha" type="matrix" values="0 0 0 0 0 0 0 0 0 0 0 0 0 0 0 0 0 0 127 0" result="hardAlpha"/>
<feOffset dy="4"/>
<feGaussianBlur stdDeviation="27.4"/>
<feComposite in2="hardAlpha" operator="out"/>
<feColorMatrix type="matrix" values="0 0 0 0 0.670588 0 0 0 0 0.227451 0 0 0 0 0.0705882 0 0 0 1 0"/>
<feBlend mode="normal" in2="BackgroundImageFix" result="effect1_dropShadow_525_1222"/>
<feBlend mode="normal" in="SourceGraphic" in2="effect1_dropShadow_525_1222" result="shape"/>
</filter>
<linearGradient id="paint0_linear_525_1222" x1="-2.95328" y1="26.7945" x2="86.7013" y2="20.9971" gradientUnits="userSpaceOnUse">
<stop stop-color="#FDA237"/>
<stop offset="0.490385" stop-color="#AB3A12"/>
<stop offset="1" stop-color="#7E0001"/>
</linearGradient>
</defs>
</svg>
