<svg width="201" height="90" viewBox="0 0 201 90" fill="none" xmlns="http://www.w3.org/2000/svg">
<ellipse cx="6.72587" cy="6.72599" rx="6.72587" ry="6.72599" transform="matrix(0.971303 0.237844 -0.237834 0.971306 47.2354 18.4502)" fill="#FFD7A1"/>
<ellipse cx="6.72587" cy="6.72599" rx="6.72587" ry="6.72599" transform="matrix(0.971303 0.237844 -0.237834 0.971306 50.1338 27.8164)" fill="#FFD7A1"/>
<ellipse cx="6.72587" cy="6.72599" rx="6.72587" ry="6.72599" transform="matrix(0.971303 0.237844 -0.237834 0.971306 57.0342 20.8506)" fill="#FFD7A1"/>
<ellipse cx="6.72587" cy="6.72599" rx="6.72587" ry="6.72599" transform="matrix(-0.971303 0.237844 0.237834 0.971306 150.658 15.9277)" fill="#FFD7A1"/>
<ellipse cx="6.72587" cy="6.72599" rx="6.72587" ry="6.72599" transform="matrix(-0.971303 0.237844 0.237834 0.971306 147.758 25.2939)" fill="#FFD7A1"/>
<ellipse cx="6.72587" cy="6.72599" rx="6.72587" ry="6.72599" transform="matrix(-0.971303 0.237844 0.237834 0.971306 140.86 18.3281)" fill="#FFD7A1"/>
<ellipse cx="6.72587" cy="6.72599" rx="6.72587" ry="6.72599" transform="matrix(0.971303 0.237844 -0.237834 0.971306 6.10254 62.2305)" fill="#FFD7A1"/>
<ellipse cx="6.72587" cy="6.72599" rx="6.72587" ry="6.72599" transform="matrix(0.971303 0.237844 -0.237834 0.971306 9.00488 71.5977)" fill="#FFD7A1"/>
<ellipse cx="6.72587" cy="6.72599" rx="6.72587" ry="6.72599" transform="matrix(0.971303 0.237844 -0.237834 0.971306 15.9033 64.6309)" fill="#FFD7A1"/>
<ellipse cx="6.72587" cy="6.72599" rx="6.72587" ry="6.72599" transform="matrix(-0.971303 0.237844 0.237834 0.971306 195.782 57.5332)" fill="#FFD7A1"/>
<ellipse cx="6.72587" cy="6.72599" rx="6.72587" ry="6.72599" transform="matrix(-0.971303 0.237844 0.237834 0.971306 192.884 66.8994)" fill="#FFD7A1"/>
<ellipse cx="6.72587" cy="6.72599" rx="6.72587" ry="6.72599" transform="matrix(-0.971303 0.237844 0.237834 0.971306 185.985 59.9326)" fill="#FFD7A1"/>
<ellipse cx="3.90447" cy="3.90454" rx="3.90447" ry="3.90454" transform="matrix(0.971303 0.237844 -0.237834 0.971306 3.01758 20.9746)" fill="#FFD7A1"/>
<ellipse cx="3.90447" cy="3.90454" rx="3.90447" ry="3.90454" transform="matrix(0.971303 0.237844 -0.237834 0.971306 4.70117 26.4102)" fill="#FFD7A1"/>
<ellipse cx="3.90447" cy="3.90454" rx="3.90447" ry="3.90454" transform="matrix(0.971303 0.237844 -0.237834 0.971306 8.70508 22.3682)" fill="#FFD7A1"/>
<ellipse cx="3.90447" cy="3.90454" rx="3.90447" ry="3.90454" transform="matrix(-0.971303 0.237844 0.237834 0.971306 194.874 18.4502)" fill="#FFD7A1"/>
<ellipse cx="3.90447" cy="3.90454" rx="3.90447" ry="3.90454" transform="matrix(-0.971303 0.237844 0.237834 0.971306 193.191 23.8867)" fill="#FFD7A1"/>
<ellipse cx="3.90447" cy="3.90454" rx="3.90447" ry="3.90454" transform="matrix(-0.971303 0.237844 0.237834 0.971306 189.186 19.8447)" fill="#FFD7A1"/>
<ellipse cx="3.90447" cy="3.90454" rx="3.90447" ry="3.90454" transform="matrix(-0.971303 0.237844 0.237834 0.971306 107.522 0)" fill="#FFD7A1"/>
<ellipse cx="3.90447" cy="3.90454" rx="3.90447" ry="3.90454" transform="matrix(-0.971303 0.237844 0.237834 0.971306 105.841 5.43652)" fill="#FFD7A1"/>
<ellipse cx="3.90447" cy="3.90454" rx="3.90447" ry="3.90454" transform="matrix(-0.971303 0.237844 0.237834 0.971306 101.835 1.39355)" fill="#FFD7A1"/>
</svg>
