<svg width="202" height="199" viewBox="0 0 202 199" fill="none" xmlns="http://www.w3.org/2000/svg">
<ellipse cx="52.2817" cy="130.775" rx="6.74028" ry="6.74028" transform="rotate(13.759 52.2817 130.775)" fill="#FFD7A1"/>
<ellipse cx="55.1879" cy="140.16" rx="6.74028" ry="6.74028" transform="rotate(13.759 55.1879 140.16)" fill="#FFD7A1"/>
<ellipse cx="62.101" cy="133.179" rx="6.74028" ry="6.74028" transform="rotate(13.759 62.101 133.179)" fill="#FFD7A1"/>
<ellipse cx="6.74028" cy="6.74028" rx="6.74028" ry="6.74028" transform="matrix(-0.971305 0.237839 0.237839 0.971304 150.979 120.097)" fill="#FFD7A1"/>
<ellipse cx="6.74028" cy="6.74028" rx="6.74028" ry="6.74028" transform="matrix(-0.971305 0.237839 0.237839 0.971304 148.072 129.481)" fill="#FFD7A1"/>
<ellipse cx="6.74028" cy="6.74028" rx="6.74028" ry="6.74028" transform="matrix(-0.971305 0.237839 0.237839 0.971304 141.158 122.502)" fill="#FFD7A1"/>
<ellipse cx="11.0609" cy="174.644" rx="6.74028" ry="6.74028" transform="rotate(13.759 11.0609 174.644)" fill="#FFD7A1"/>
<ellipse cx="13.9672" cy="184.029" rx="6.74028" ry="6.74028" transform="rotate(13.759 13.9672 184.029)" fill="#FFD7A1"/>
<ellipse cx="20.8813" cy="177.049" rx="6.74028" ry="6.74028" transform="rotate(13.759 20.8813 177.049)" fill="#FFD7A1"/>
<ellipse cx="6.74028" cy="6.74028" rx="6.74028" ry="6.74028" transform="matrix(-0.971305 0.237839 0.237839 0.971304 196.199 161.788)" fill="#FFD7A1"/>
<ellipse cx="6.74028" cy="6.74028" rx="6.74028" ry="6.74028" transform="matrix(-0.971305 0.237839 0.237839 0.971304 193.293 171.173)" fill="#FFD7A1"/>
<ellipse cx="6.74028" cy="6.74028" rx="6.74028" ry="6.74028" transform="matrix(-0.971305 0.237839 0.237839 0.971304 186.378 164.193)" fill="#FFD7A1"/>
<ellipse cx="5.89532" cy="129.882" rx="3.91283" ry="3.91283" transform="rotate(13.759 5.89532 129.882)" fill="#FFD7A1"/>
<ellipse cx="7.58184" cy="135.331" rx="3.91283" ry="3.91283" transform="rotate(13.759 7.58184 135.331)" fill="#FFD7A1"/>
<ellipse cx="11.5945" cy="131.277" rx="3.91283" ry="3.91283" transform="rotate(13.759 11.5945 131.277)" fill="#FFD7A1"/>
<ellipse cx="3.91283" cy="3.91283" rx="3.91283" ry="3.91283" transform="matrix(-0.971305 0.237839 0.237839 0.971304 195.291 122.624)" fill="#FFD7A1"/>
<ellipse cx="3.91283" cy="3.91283" rx="3.91283" ry="3.91283" transform="matrix(-0.971305 0.237839 0.237839 0.971304 193.604 128.072)" fill="#FFD7A1"/>
<ellipse cx="3.91283" cy="3.91283" rx="3.91283" ry="3.91283" transform="matrix(-0.971305 0.237839 0.237839 0.971304 189.591 124.021)" fill="#FFD7A1"/>
<ellipse cx="3.91283" cy="3.91283" rx="3.91283" ry="3.91283" transform="matrix(-0.971305 0.237839 0.23784 0.971304 107.753 104.133)" fill="#FFD7A1"/>
<ellipse cx="3.91283" cy="3.91283" rx="3.91283" ry="3.91283" transform="matrix(-0.971305 0.237839 0.237839 0.971304 106.065 109.582)" fill="#FFD7A1"/>
<ellipse cx="3.91283" cy="3.91283" rx="3.91283" ry="3.91283" transform="matrix(-0.971305 0.237839 0.23784 0.971304 102.053 105.53)" fill="#FFD7A1"/>
<ellipse cx="5.44453" cy="5.44453" rx="5.44453" ry="5.44453" transform="matrix(-0.971305 0.237839 0.237839 0.971304 110.606 48.2441)" fill="#FFD7A1"/>
<ellipse cx="5.44453" cy="5.44453" rx="5.44453" ry="5.44453" transform="matrix(-0.971305 0.237839 0.237839 0.971304 108.261 55.8242)" fill="#FFD7A1"/>
<ellipse cx="5.44453" cy="5.44453" rx="5.44453" ry="5.44453" transform="matrix(-0.971305 0.237839 0.237839 0.971304 102.675 50.1865)" fill="#FFD7A1"/>
<ellipse cx="39.5893" cy="71.2945" rx="6.74028" ry="6.74028" transform="rotate(13.759 39.5893 71.2945)" fill="#FFD7A1"/>
<ellipse cx="42.4955" cy="80.6802" rx="6.74028" ry="6.74028" transform="rotate(13.759 42.4955 80.6802)" fill="#FFD7A1"/>
<ellipse cx="49.4086" cy="73.7007" rx="6.74028" ry="6.74028" transform="rotate(13.759 49.4086 73.7007)" fill="#FFD7A1"/>
<ellipse cx="6.74028" cy="6.74028" rx="6.74028" ry="6.74028" transform="matrix(-0.971305 0.237839 0.237839 0.971304 162.854 66.4326)" fill="#FFD7A1"/>
<ellipse cx="6.74028" cy="6.74028" rx="6.74028" ry="6.74028" transform="matrix(-0.971305 0.237839 0.237839 0.971304 159.948 75.8174)" fill="#FFD7A1"/>
<ellipse cx="6.74028" cy="6.74028" rx="6.74028" ry="6.74028" transform="matrix(-0.971305 0.237839 0.237839 0.971304 153.034 68.8379)" fill="#FFD7A1"/>
<ellipse cx="55.0633" cy="27.7507" rx="3.91283" ry="3.91283" transform="rotate(13.759 55.0633 27.7507)" fill="#FFD7A1"/>
<ellipse cx="56.7498" cy="33.1999" rx="3.91283" ry="3.91283" transform="rotate(13.759 56.7498 33.1999)" fill="#FFD7A1"/>
<ellipse cx="60.7635" cy="29.1482" rx="3.91283" ry="3.91283" transform="rotate(13.759 60.7635 29.1482)" fill="#FFD7A1"/>
<ellipse cx="3.91283" cy="3.91283" rx="3.91283" ry="3.91283" transform="matrix(-0.971305 0.237839 0.237839 0.971304 161.791 24.9941)" fill="#FFD7A1"/>
<ellipse cx="3.91283" cy="3.91283" rx="3.91283" ry="3.91283" transform="matrix(-0.971305 0.237839 0.237839 0.971304 160.104 30.4443)" fill="#FFD7A1"/>
<ellipse cx="3.91283" cy="3.91283" rx="3.91283" ry="3.91283" transform="matrix(-0.971305 0.237839 0.237839 0.971304 156.091 26.3906)" fill="#FFD7A1"/>
<ellipse cx="3.91283" cy="3.91283" rx="3.91283" ry="3.91283" transform="matrix(-0.971305 0.237839 0.237839 0.971304 103.635 0)" fill="#FFD7A1"/>
<ellipse cx="3.91283" cy="3.91283" rx="3.91283" ry="3.91283" transform="matrix(-0.971305 0.237839 0.237839 0.971304 101.947 5.44629)" fill="#FFD7A1"/>
<ellipse cx="3.91283" cy="3.91283" rx="3.91283" ry="3.91283" transform="matrix(-0.971305 0.237839 0.237839 0.971304 97.9346 1.39648)" fill="#FFD7A1"/>
<ellipse cx="43.8567" cy="158.553" rx="2.94162" ry="3.23578" fill="#6D95C9"/>
<ellipse cx="65.6243" cy="54.4175" rx="1.76497" ry="2.05913" fill="#6D95C9"/>
<ellipse cx="64.4476" cy="4.41167" rx="1.76497" ry="2.05913" fill="#6D95C9"/>
<ellipse cx="164.169" cy="103.839" rx="2.05913" ry="2.05913" fill="#6D95C9"/>
<ellipse cx="129.751" cy="13.8256" rx="2.94162" ry="3.23578" fill="#6D95C9"/>
<ellipse cx="76.2131" cy="92.6606" rx="2.94162" ry="3.23578" fill="#6D95C9"/>
<ellipse cx="161.521" cy="161.495" rx="2.94162" ry="3.23578" fill="#6D95C9"/>
<ellipse cx="103.276" cy="90.3067" rx="1.17665" ry="1.47081" fill="#6D95C9"/>
<ellipse cx="7.37977" cy="155.023" rx="1.17665" ry="1.47081" fill="#6D95C9"/>
<path d="M24.767 93.2167C25.0214 92.21 26.4517 92.21 26.7061 93.2167L27.1249 94.8743C27.2776 95.4786 27.9398 95.7975 28.5074 95.5401L30.0646 94.8341C31.0102 94.4053 31.902 95.5236 31.2735 96.3501L30.2387 97.7111C29.8615 98.2072 30.0251 98.9237 30.5802 99.207L32.103 99.9843C33.0279 100.456 32.7096 101.851 31.6715 101.875L29.9623 101.914C29.3392 101.929 28.881 102.503 29.0056 103.114L29.3474 104.789C29.555 105.806 28.2663 106.427 27.6004 105.63L26.5038 104.319C26.104 103.841 25.3691 103.841 24.9693 104.319L23.8727 105.63C23.2068 106.427 21.9181 105.806 22.1257 104.789L22.4675 103.114C22.5922 102.503 22.1339 101.929 21.5108 101.914L19.8016 101.875C18.7635 101.851 18.4453 100.456 19.3701 99.9843L20.893 99.207C21.4481 98.9237 21.6116 98.2072 21.2344 97.7111L20.1996 96.3501C19.5711 95.5236 20.4629 94.4053 21.4085 94.8341L22.9657 95.5401C23.5333 95.7975 24.1955 95.4786 24.3482 94.8743L24.767 93.2167Z" fill="#BB3E42"/>
<path d="M139.753 45.3085C140.008 44.3018 141.438 44.3018 141.692 45.3085L142.111 46.9661C142.264 47.5704 142.926 47.8893 143.494 47.6319L145.051 46.9259C145.997 46.4971 146.888 47.6154 146.26 48.4419L145.225 49.8029C144.848 50.299 145.011 51.0155 145.566 51.2988L147.089 52.0761C148.014 52.5481 147.696 53.9425 146.658 53.9665L144.949 54.006C144.326 54.0204 143.867 54.595 143.992 55.2057L144.334 56.8809C144.541 57.8982 143.253 58.5188 142.587 57.7222L141.49 56.4105C141.09 55.9323 140.355 55.9323 139.956 56.4105L138.859 57.7222C138.193 58.5188 136.904 57.8982 137.112 56.8809L137.454 55.2057C137.578 54.595 137.12 54.0204 136.497 54.006L134.788 53.9665C133.75 53.9425 133.432 52.5481 134.356 52.0761L135.879 51.2988C136.434 51.0155 136.598 50.299 136.221 49.8029L135.186 48.4419C134.557 47.6154 135.449 46.4971 136.395 46.9259L137.952 47.6319C138.52 47.8893 139.182 47.5704 139.334 46.9661L139.753 45.3085Z" fill="#BB3E42"/>
<path d="M166.245 127.6C166.499 126.593 167.93 126.593 168.184 127.6L168.229 127.778C168.382 128.383 169.044 128.702 169.612 128.444L169.78 128.368C170.725 127.939 171.617 129.057 170.989 129.884L170.877 130.031C170.5 130.527 170.663 131.244 171.218 131.527L171.383 131.611C172.308 132.083 171.989 133.477 170.951 133.501L170.767 133.505C170.144 133.52 169.685 134.095 169.81 134.705L169.847 134.886C170.055 135.903 168.766 136.524 168.1 135.727L167.982 135.586C167.582 135.108 166.847 135.108 166.447 135.586L166.329 135.727C165.663 136.524 164.374 135.903 164.582 134.886L164.619 134.705C164.743 134.095 164.285 133.52 163.662 133.505L163.477 133.501C162.439 133.477 162.121 132.083 163.046 131.611L163.21 131.527C163.765 131.244 163.929 130.527 163.552 130.031L163.44 129.884C162.812 129.057 163.703 127.939 164.649 128.368L164.817 128.444C165.385 128.702 166.047 128.383 166.2 127.778L166.245 127.6Z" fill="#BB3E42"/>
<path d="M81.1335 25.0165C81.3879 24.0098 82.8182 24.0098 83.0726 25.0165L83.1178 25.1954C83.2705 25.7997 83.9327 26.1186 84.5003 25.8612L84.6683 25.785C85.614 25.3562 86.5058 26.4745 85.8773 27.301L85.7656 27.4479C85.3884 27.944 85.5519 28.6606 86.1071 28.9439L86.2714 29.0278C87.1963 29.4998 86.878 30.8942 85.84 30.9182L85.6555 30.9225C85.0324 30.9369 84.5741 31.5115 84.6988 32.1221L84.7356 32.303C84.9432 33.3203 83.6546 33.9409 82.9886 33.1443L82.8703 33.0027C82.4705 32.5245 81.7356 32.5245 81.3358 33.0027L81.2175 33.1443C80.5515 33.9409 79.2628 33.3203 79.4704 32.303L79.5073 32.1221C79.6319 31.5115 79.1737 30.9369 78.5506 30.9225L78.3661 30.9182C77.3281 30.8942 77.0098 29.4998 77.9347 29.0278L78.099 28.9439C78.6541 28.6606 78.8177 27.944 78.4405 27.4479L78.3288 27.301C77.7003 26.4745 78.5921 25.3562 79.5378 25.785L79.7058 25.8612C80.2734 26.1186 80.9356 25.7997 81.0883 25.1954L81.1335 25.0165Z" fill="#BB3E42"/>
<path d="M97.9777 130.691C98.1753 129.909 99.2864 129.909 99.484 130.691V130.691C99.6026 131.16 100.117 131.408 100.558 131.208V131.208C101.293 130.875 101.985 131.743 101.497 132.386V132.386C101.204 132.771 101.331 133.328 101.762 133.548V133.548C102.481 133.914 102.234 134.998 101.427 135.016V135.016C100.943 135.027 100.587 135.474 100.684 135.948V135.948C100.845 136.739 99.8442 137.221 99.3269 136.602V136.602C99.0163 136.23 98.4454 136.23 98.1348 136.602V136.602C97.6175 137.221 96.6164 136.739 96.7776 135.948V135.948C96.8744 135.474 96.5184 135.027 96.0344 135.016V135.016C95.228 134.998 94.9808 133.914 95.6992 133.548V133.548C96.1305 133.328 96.2575 132.771 95.9645 132.386V132.386C95.4763 131.743 96.169 130.875 96.9037 131.208V131.208C97.3446 131.408 97.8591 131.16 97.9777 130.691V130.691Z" fill="#BB3E42"/>
<path d="M183.089 188.182C183.287 187.4 184.398 187.4 184.595 188.182V188.182C184.714 188.651 185.228 188.899 185.669 188.699V188.699C186.404 188.366 187.097 189.235 186.609 189.877V189.877C186.316 190.262 186.443 190.819 186.874 191.039V191.039C187.592 191.406 187.345 192.489 186.539 192.508V192.508C186.055 192.519 185.699 192.965 185.795 193.439V193.439C185.957 194.23 184.956 194.712 184.438 194.093V194.093C184.128 193.722 183.557 193.722 183.246 194.093V194.093C182.729 194.712 181.728 194.23 181.889 193.439V193.439C181.986 192.965 181.63 192.519 181.146 192.508V192.508C180.339 192.489 180.092 191.406 180.811 191.039V191.039C181.242 190.819 181.369 190.262 181.076 189.877V189.877C180.588 189.235 181.28 188.366 182.015 188.699V188.699C182.456 188.899 182.97 188.651 183.089 188.182V188.182Z" fill="#BB3E42"/>
<path d="M20.1935 189.873C20.3911 189.091 21.5022 189.091 21.6998 189.873V189.873C21.8185 190.343 22.3329 190.59 22.7738 190.39V190.39C23.5085 190.057 24.2013 190.926 23.713 191.568V191.568C23.42 191.954 23.5471 192.51 23.9783 192.73V192.73C24.6968 193.097 24.4495 194.18 23.6431 194.199V194.199C23.1591 194.21 22.8031 194.657 22.8999 195.131V195.131C23.0611 195.921 22.06 196.403 21.5427 195.784V195.784C21.2322 195.413 20.6612 195.413 20.3507 195.784V195.784C19.8333 196.403 18.8322 195.921 18.9935 195.131V195.131C19.0903 194.657 18.7343 194.21 18.2502 194.199V194.199C17.4438 194.18 17.1966 193.097 17.915 192.73V192.73C18.3463 192.51 18.4733 191.954 18.1803 191.568V191.568C17.6921 190.926 18.3849 190.057 19.1195 190.39V190.39C19.5604 190.59 20.0749 190.343 20.1935 189.873V189.873Z" fill="#BB3E42"/>
</svg>
