<svg width="143" height="213" viewBox="0 0 143 213" fill="none" xmlns="http://www.w3.org/2000/svg">
<ellipse cx="20.3758" cy="54.8392" rx="19.7996" ry="20.0951" fill="#FFD7A1"/>
<circle cx="122.329" cy="54.8392" r="20.0951" fill="#FFD7A1"/>
<circle cx="37.8109" cy="34.7445" r="20.0951" fill="#FFD7A1"/>
<circle cx="41.3578" cy="51.2934" r="20.0951" fill="#FFD7A1"/>
<circle cx="70.3178" cy="20.56" r="20.0951" fill="#FFD7A1"/>
<circle cx="98.6879" cy="37.6996" r="20.0951" fill="#FFD7A1"/>
<circle cx="70.3178" cy="51.2934" r="20.0951" fill="#FFD7A1"/>
<path d="M16.581 47.5526L16.5757 47.5587C25.8295 42.5948 32.7278 48.1451 33.9556 49.8929C35.1246 40.5165 41.5553 36.2869 44.6246 35.3442C36.0564 35.7289 33.1933 42.5759 32.8327 45.9513C23.8476 39.1798 17.6582 46.3114 16.581 47.5526Z" fill="#FFAD3C"/>
<path d="M129.095 55.2362L129.1 55.2423C119.846 50.2784 112.948 55.8287 111.72 57.5765C110.551 48.2 104.12 43.9705 101.051 43.0278C109.619 43.4125 112.483 50.2595 112.843 53.6349C121.828 46.8634 128.018 53.995 129.095 55.2362Z" fill="#FFAD3C"/>
<path d="M102.089 27.0089L102.094 27.0133C94.4604 23.8696 89.5085 28.7607 88.6878 30.2256C87.0253 22.9859 81.6587 20.1913 79.1831 19.699C85.9146 19.3161 88.7001 24.4424 89.2514 27.0534C95.7379 21.0408 101.147 26.1242 102.089 27.0089Z" fill="#FFAD3C"/>
<path d="M58.4975 41.9229C60.8648 37.5077 67.8565 30.7434 76.8848 39.0073C73.7293 37.0064 65.634 34.7884 58.4975 41.9229Z" fill="#FFAD3C"/>
<path d="M0.576172 57.7949H142.128L117.01 212.645H27.7637L0.576172 57.7949Z" fill="white"/>
<path d="M91.0045 212.645H78.5928L81.5479 57.7949H101.643L91.0045 212.645Z" fill="#BB3E42"/>
<path d="M39.8798 212.645L20.9668 57.7949H0.576172L27.7637 212.645H39.8798Z" fill="#BB3E42"/>
<path d="M103.711 212.645L121.738 57.7949H142.424L117.009 212.645H103.711Z" fill="#BB3E42"/>
<path d="M61.1568 57.7949L65.8851 212.645H52.8824L41.0617 57.7949H61.1568Z" fill="#BB3E42"/>
<path d="M73.1467 94.3255C84.4369 95.2546 94.2688 98.7399 101.038 103.442C107.893 108.205 111.033 113.74 110.616 118.804C110.199 123.868 106.197 128.816 98.6557 132.393C91.2088 135.926 80.9395 137.757 69.6493 136.828C58.3591 135.899 48.5273 132.414 41.7581 127.711C34.9034 122.949 31.7643 117.414 32.181 112.35C32.5977 107.286 36.5995 102.338 44.1404 98.7605C51.5872 95.2277 61.8566 93.3965 73.1467 94.3255Z" fill="#FDBE0F" stroke="#BB3E42" stroke-width="7"/>
<path d="M53.4342 110.48C53.052 110.553 52.6928 110.631 52.3568 110.713C52.0208 110.795 51.724 110.878 51.4663 110.961L51.2194 108.722C51.7889 108.597 52.3411 108.491 52.8761 108.404C53.4162 108.318 53.9315 108.248 54.4219 108.194C54.9124 108.14 55.3756 108.1 55.8115 108.073C56.2475 108.046 56.6514 108.027 57.0234 108.016C57.8876 107.993 58.6832 108.009 59.4104 108.064C60.1726 108.137 60.8334 108.267 61.3928 108.454C61.9523 108.641 62.411 108.878 62.769 109.163C63.1322 109.449 63.3951 109.779 63.5577 110.153C63.7203 110.527 63.7834 110.935 63.7471 111.376C63.6997 111.952 63.5224 112.455 63.2153 112.884C62.9135 113.314 62.5276 113.685 62.0578 113.996C61.5884 114.302 61.0579 114.557 60.4664 114.759C59.8801 114.961 59.2789 115.124 58.6626 115.245C58.0464 115.367 57.4381 115.456 56.8378 115.511C56.238 115.561 55.6945 115.592 55.2075 115.604L55.0475 117.739L57.678 117.971L57.5306 119.762L50.894 119.631L51.0324 117.377L53.3592 117.584L53.4342 110.48ZM58.8115 109.911C58.635 109.897 58.4289 109.893 58.1932 109.9C57.9631 109.902 57.7114 109.912 57.438 109.932C57.1651 109.946 56.8758 109.969 56.57 110.001C56.2642 110.034 55.9503 110.071 55.6281 110.112L55.3126 114.327C55.6927 114.28 56.0951 114.216 56.5198 114.136C56.9501 114.051 57.3741 113.948 57.7918 113.825C58.2147 113.703 58.6183 113.562 59.0026 113.4C59.3874 113.233 59.7244 113.044 60.0135 112.832C60.3026 112.621 60.5308 112.389 60.6979 112.136C60.8706 111.879 60.9512 111.598 60.9397 111.294C60.9317 111.074 60.8742 110.883 60.7672 110.723C60.6606 110.557 60.5125 110.42 60.323 110.31C60.139 110.196 59.9164 110.107 59.6551 110.044C59.3989 109.981 59.1178 109.937 58.8115 109.911ZM77.2754 115.813C77.2079 116.633 77.0276 117.394 76.7347 118.096C76.4422 118.794 76.0271 119.392 75.4896 119.891C74.9525 120.385 74.2844 120.756 73.4853 121.004C72.6863 121.252 71.7469 121.331 70.6672 121.242C69.5719 121.152 68.6478 120.919 67.8948 120.544C67.147 120.169 66.5486 119.694 66.0994 119.118C65.6559 118.538 65.3494 117.881 65.18 117.146C65.011 116.405 64.9602 115.625 65.0277 114.805C65.0952 113.985 65.2832 113.224 65.5917 112.523C65.9007 111.817 66.3289 111.217 66.8764 110.724C67.4295 110.226 68.103 109.853 68.8969 109.605C69.6907 109.357 70.6068 109.275 71.6449 109.361C72.4547 109.427 73.1624 109.559 73.7682 109.755C74.3795 109.946 74.9003 110.19 75.3306 110.487C75.7612 110.778 76.1122 111.118 76.3833 111.506C76.6601 111.89 76.8712 112.309 77.0166 112.766C77.1671 113.222 77.2578 113.708 77.2886 114.223C77.3246 114.738 77.3202 115.268 77.2754 115.813ZM75.8583 115.696C75.8941 115.26 75.8578 114.844 75.7493 114.449C75.6463 114.048 75.4275 113.691 75.0929 113.376C74.7638 113.056 74.3025 112.788 73.7088 112.572C73.1152 112.356 72.3512 112.209 71.4168 112.132C70.6174 112.067 69.915 112.092 69.3096 112.21C68.7094 112.328 68.2027 112.516 67.7894 112.775C67.3766 113.028 67.0582 113.342 66.8341 113.715C66.6156 114.084 66.4884 114.486 66.4526 114.922C66.4167 115.358 66.4686 115.775 66.6083 116.174C66.7536 116.567 67.0011 116.924 67.351 117.246C67.7064 117.563 68.1732 117.828 68.7512 118.043C69.3345 118.258 70.0492 118.401 70.8953 118.47C71.7258 118.539 72.4438 118.514 73.0492 118.397C73.6546 118.279 74.1585 118.093 74.561 117.839C74.969 117.58 75.2769 117.268 75.4845 116.904C75.6978 116.535 75.8224 116.132 75.8583 115.696ZM81.6414 112.801C81.2591 112.874 80.9 112.952 80.564 113.034C80.228 113.116 79.9312 113.199 79.6735 113.282L79.4265 111.043C79.9961 110.918 80.5483 110.812 81.0832 110.725C81.6234 110.639 82.1387 110.569 82.6291 110.515C83.1195 110.462 83.5827 110.421 84.0187 110.394C84.4546 110.368 84.8586 110.349 85.2306 110.337C86.0947 110.314 86.8904 110.33 87.6175 110.385C88.3797 110.458 89.0405 110.588 89.6 110.775C90.1594 110.962 90.6182 111.199 90.9762 111.484C91.3394 111.77 91.6022 112.1 91.7648 112.474C91.9274 112.848 91.9906 113.256 91.9543 113.697C91.9068 114.273 91.7296 114.776 91.4225 115.205C91.1206 115.635 90.7348 116.006 90.2649 116.317C89.7955 116.624 89.2651 116.878 88.6736 117.08C88.0873 117.283 87.486 117.445 86.8698 117.566C86.2536 117.688 85.6453 117.777 85.045 117.832C84.4451 117.882 83.9017 117.913 83.4147 117.925L83.2547 120.06L85.8852 120.292L85.7378 122.083L79.1012 121.952L79.2396 119.698L81.5664 119.905L81.6414 112.801ZM87.0187 112.233C86.8422 112.218 86.6361 112.214 86.4003 112.221C86.1702 112.223 85.9185 112.233 85.6452 112.253C85.3723 112.267 85.0829 112.29 84.7772 112.322C84.4714 112.355 84.1574 112.392 83.8352 112.433L83.5198 116.648C83.8999 116.601 84.3023 116.537 84.727 116.457C85.1572 116.373 85.5812 116.269 85.9989 116.147C86.4218 116.025 86.8254 115.883 87.2098 115.721C87.5946 115.554 87.9315 115.365 88.2207 115.153C88.5098 114.942 88.7379 114.71 88.9051 114.457C89.0778 114.2 89.1584 113.919 89.1468 113.615C89.1388 113.395 89.0813 113.204 88.9743 113.044C88.8677 112.879 88.7197 112.741 88.5301 112.631C88.3462 112.517 88.1235 112.428 87.8622 112.365C87.6061 112.302 87.3249 112.258 87.0187 112.233Z" fill="white"/>
</svg>
