<svg width="203" height="367" viewBox="0 0 203 367" fill="none" xmlns="http://www.w3.org/2000/svg">
<ellipse cx="52.6131" cy="209.442" rx="19.7088" ry="20.003" fill="#FFD7A1"/>
<ellipse cx="154.099" cy="209.442" rx="20.003" ry="20.003" fill="#FFD7A1"/>
<ellipse cx="69.9688" cy="189.439" rx="20.003" ry="20.003" fill="#FFD7A1"/>
<ellipse cx="73.4991" cy="205.911" rx="20.003" ry="20.003" fill="#FFD7A1"/>
<ellipse cx="102.327" cy="175.319" rx="20.003" ry="20.003" fill="#FFD7A1"/>
<ellipse cx="130.566" cy="192.38" rx="20.003" ry="20.003" fill="#FFD7A1"/>
<ellipse cx="102.327" cy="205.911" rx="20.003" ry="20.003" fill="#FFD7A1"/>
<path d="M48.8352 202.189L48.8299 202.195C58.0413 197.254 64.9079 202.779 66.1301 204.519C67.2938 195.185 73.6951 190.975 76.7502 190.037C68.2213 190.42 65.3713 197.235 65.0124 200.595C56.0685 193.855 49.9075 200.954 48.8352 202.189Z" fill="#FFAD3C"/>
<path d="M160.833 209.838L160.838 209.844C151.627 204.903 144.76 210.427 143.538 212.167C142.374 202.834 135.973 198.624 132.918 197.685C141.447 198.068 144.297 204.884 144.656 208.244C153.599 201.503 159.761 208.602 160.833 209.838Z" fill="#FFAD3C"/>
<path d="M133.949 181.74L133.954 181.745C126.356 178.616 121.427 183.484 120.61 184.942C118.955 177.736 113.613 174.954 111.149 174.464C117.849 174.083 120.622 179.186 121.171 181.785C127.628 175.8 133.012 180.86 133.949 181.74Z" fill="#FFAD3C"/>
<path d="M90.5578 196.584C92.9143 192.189 99.8739 185.456 108.861 193.682C105.72 191.69 97.6617 189.482 90.5578 196.584Z" fill="#FFAD3C"/>
<ellipse cx="53.0961" cy="130.773" rx="6.74028" ry="6.74028" transform="rotate(13.759 53.0961 130.773)" fill="#FFD7A1"/>
<ellipse cx="56.0024" cy="140.158" rx="6.74028" ry="6.74028" transform="rotate(13.759 56.0024 140.158)" fill="#FFD7A1"/>
<ellipse cx="62.9154" cy="133.179" rx="6.74028" ry="6.74028" transform="rotate(13.759 62.9154 133.179)" fill="#FFD7A1"/>
<ellipse cx="6.74028" cy="6.74028" rx="6.74028" ry="6.74028" transform="matrix(-0.971305 0.237839 0.237839 0.971304 151.794 120.096)" fill="#FFD7A1"/>
<ellipse cx="6.74028" cy="6.74028" rx="6.74028" ry="6.74028" transform="matrix(-0.971305 0.237839 0.237839 0.971304 148.888 129.48)" fill="#FFD7A1"/>
<ellipse cx="6.74028" cy="6.74028" rx="6.74028" ry="6.74028" transform="matrix(-0.971305 0.237839 0.237839 0.971304 141.974 122.502)" fill="#FFD7A1"/>
<ellipse cx="11.8754" cy="174.644" rx="6.74028" ry="6.74028" transform="rotate(13.759 11.8754 174.644)" fill="#FFD7A1"/>
<ellipse cx="14.7816" cy="184.029" rx="6.74028" ry="6.74028" transform="rotate(13.759 14.7816 184.029)" fill="#FFD7A1"/>
<ellipse cx="21.6957" cy="177.05" rx="6.74028" ry="6.74028" transform="rotate(13.759 21.6957 177.05)" fill="#FFD7A1"/>
<ellipse cx="6.74028" cy="6.74028" rx="6.74028" ry="6.74028" transform="matrix(-0.971305 0.237839 0.237839 0.971304 197.014 161.787)" fill="#FFD7A1"/>
<ellipse cx="6.74028" cy="6.74028" rx="6.74028" ry="6.74028" transform="matrix(-0.971305 0.237839 0.237839 0.971304 194.107 171.172)" fill="#FFD7A1"/>
<ellipse cx="6.74028" cy="6.74028" rx="6.74028" ry="6.74028" transform="matrix(-0.971305 0.237839 0.237839 0.971304 187.192 164.193)" fill="#FFD7A1"/>
<ellipse cx="6.70977" cy="129.88" rx="3.91283" ry="3.91283" transform="rotate(13.759 6.70977 129.88)" fill="#FFD7A1"/>
<ellipse cx="8.39629" cy="135.331" rx="3.91283" ry="3.91283" transform="rotate(13.759 8.39629 135.331)" fill="#FFD7A1"/>
<ellipse cx="12.409" cy="131.276" rx="3.91283" ry="3.91283" transform="rotate(13.759 12.409 131.276)" fill="#FFD7A1"/>
<ellipse cx="3.91283" cy="3.91283" rx="3.91283" ry="3.91283" transform="matrix(-0.971305 0.237839 0.237839 0.971304 196.106 122.623)" fill="#FFD7A1"/>
<ellipse cx="3.91283" cy="3.91283" rx="3.91283" ry="3.91283" transform="matrix(-0.971305 0.237839 0.237839 0.971304 194.42 128.07)" fill="#FFD7A1"/>
<ellipse cx="3.91283" cy="3.91283" rx="3.91283" ry="3.91283" transform="matrix(-0.971305 0.237839 0.237839 0.971304 190.406 124.02)" fill="#FFD7A1"/>
<ellipse cx="3.91283" cy="3.91283" rx="3.91283" ry="3.91283" transform="matrix(-0.971305 0.237839 0.23784 0.971304 108.567 104.133)" fill="#FFD7A1"/>
<ellipse cx="3.91283" cy="3.91283" rx="3.91283" ry="3.91283" transform="matrix(-0.971305 0.237839 0.237839 0.971304 106.88 109.582)" fill="#FFD7A1"/>
<ellipse cx="3.91283" cy="3.91283" rx="3.91283" ry="3.91283" transform="matrix(-0.971305 0.237839 0.23784 0.971304 102.867 105.531)" fill="#FFD7A1"/>
<ellipse cx="5.44453" cy="5.44453" rx="5.44453" ry="5.44453" transform="matrix(-0.971305 0.237839 0.237839 0.971304 111.421 48.2422)" fill="#FFD7A1"/>
<ellipse cx="5.44453" cy="5.44453" rx="5.44453" ry="5.44453" transform="matrix(-0.971305 0.237839 0.237839 0.971304 109.075 55.8242)" fill="#FFD7A1"/>
<ellipse cx="5.44453" cy="5.44453" rx="5.44453" ry="5.44453" transform="matrix(-0.971305 0.237839 0.237839 0.971304 103.489 50.1855)" fill="#FFD7A1"/>
<ellipse cx="40.4037" cy="71.2925" rx="6.74028" ry="6.74028" transform="rotate(13.759 40.4037 71.2925)" fill="#FFD7A1"/>
<ellipse cx="43.31" cy="80.6793" rx="6.74028" ry="6.74028" transform="rotate(13.759 43.31 80.6793)" fill="#FFD7A1"/>
<ellipse cx="50.2231" cy="73.7007" rx="6.74028" ry="6.74028" transform="rotate(13.759 50.2231 73.7007)" fill="#FFD7A1"/>
<ellipse cx="6.74028" cy="6.74028" rx="6.74028" ry="6.74028" transform="matrix(-0.971305 0.237839 0.237839 0.971304 163.668 66.4316)" fill="#FFD7A1"/>
<ellipse cx="6.74028" cy="6.74028" rx="6.74028" ry="6.74028" transform="matrix(-0.971305 0.237839 0.237839 0.971304 160.763 75.8164)" fill="#FFD7A1"/>
<ellipse cx="6.74028" cy="6.74028" rx="6.74028" ry="6.74028" transform="matrix(-0.971305 0.237839 0.237839 0.971304 153.848 68.8359)" fill="#FFD7A1"/>
<ellipse cx="55.8777" cy="27.7507" rx="3.91283" ry="3.91283" transform="rotate(13.759 55.8777 27.7507)" fill="#FFD7A1"/>
<ellipse cx="57.5643" cy="33.1999" rx="3.91283" ry="3.91283" transform="rotate(13.759 57.5643 33.1999)" fill="#FFD7A1"/>
<ellipse cx="61.5779" cy="29.1491" rx="3.91283" ry="3.91283" transform="rotate(13.759 61.5779 29.1491)" fill="#FFD7A1"/>
<ellipse cx="3.91283" cy="3.91283" rx="3.91283" ry="3.91283" transform="matrix(-0.971305 0.237839 0.237839 0.971304 162.605 24.9941)" fill="#FFD7A1"/>
<ellipse cx="3.91283" cy="3.91283" rx="3.91283" ry="3.91283" transform="matrix(-0.971305 0.237839 0.237839 0.971304 160.919 30.4434)" fill="#FFD7A1"/>
<ellipse cx="3.91283" cy="3.91283" rx="3.91283" ry="3.91283" transform="matrix(-0.971305 0.237839 0.237839 0.971304 156.905 26.3906)" fill="#FFD7A1"/>
<ellipse cx="3.91283" cy="3.91283" rx="3.91283" ry="3.91283" transform="matrix(-0.971305 0.237839 0.237839 0.971304 104.449 0)" fill="#FFD7A1"/>
<ellipse cx="3.91283" cy="3.91283" rx="3.91283" ry="3.91283" transform="matrix(-0.971305 0.237839 0.237839 0.971304 102.762 5.44531)" fill="#FFD7A1"/>
<ellipse cx="3.91283" cy="3.91283" rx="3.91283" ry="3.91283" transform="matrix(-0.971305 0.237839 0.237839 0.971304 98.749 1.39648)" fill="#FFD7A1"/>
<ellipse cx="44.6711" cy="158.552" rx="2.94162" ry="3.23578" fill="#6D95C9"/>
<ellipse cx="66.4388" cy="54.4185" rx="1.76497" ry="2.05913" fill="#6D95C9"/>
<ellipse cx="65.262" cy="4.4107" rx="1.76497" ry="2.05913" fill="#6D95C9"/>
<ellipse cx="164.983" cy="103.838" rx="2.05913" ry="2.05913" fill="#6D95C9"/>
<ellipse cx="130.566" cy="13.8256" rx="2.94162" ry="3.23578" fill="#6D95C9"/>
<ellipse cx="77.0276" cy="92.6596" rx="2.94162" ry="3.23578" fill="#6D95C9"/>
<ellipse cx="162.335" cy="161.494" rx="2.94162" ry="3.23578" fill="#6D95C9"/>
<ellipse cx="104.091" cy="90.3067" rx="1.17665" ry="1.47081" fill="#6D95C9"/>
<ellipse cx="8.19423" cy="155.024" rx="1.17665" ry="1.47081" fill="#6D95C9"/>
<path d="M32.9043 212.383H173.808L148.804 366.524H59.9672L32.9043 212.383Z" fill="white"/>
<path d="M122.917 366.524H110.562L113.504 212.383H133.507L122.917 366.524Z" fill="#BB3E42"/>
<path d="M72.0278 366.524L53.2015 212.383H32.9043L59.9672 366.524H72.0278Z" fill="#BB3E42"/>
<path d="M135.566 366.524L153.51 212.383H174.102L148.804 366.524H135.566Z" fill="#BB3E42"/>
<path d="M93.207 212.383L97.9136 366.524H84.9705L73.204 212.383H93.207Z" fill="#BB3E42"/>
<path d="M32.9043 212.383C35.4537 207.677 45.2591 200.911 53.2015 212.383H32.9043Z" fill="#BB3E42"/>
<path d="M53.2012 212.383C55.7506 207.676 65.2618 200.911 73.2042 212.383L53.2012 212.383Z" fill="white"/>
<path d="M93.207 212.383C95.7564 207.677 105.562 200.911 113.504 212.383L93.207 212.383Z" fill="white"/>
<path d="M133.507 212.383C136.056 207.676 145.567 200.911 153.51 212.383L133.507 212.383Z" fill="white"/>
<path d="M73.2041 212.383C75.7535 207.677 85.2647 200.911 93.2071 212.383L73.2041 212.383Z" fill="#BB3E42"/>
<path d="M113.505 212.383C116.054 207.677 125.566 200.911 133.508 212.383L113.505 212.383Z" fill="#BB3E42"/>
<path d="M153.51 212.386C156.059 207.679 167.63 201.208 174.101 212.386H153.51Z" fill="#BB3E42"/>
<path d="M25.5815 93.2177C25.8359 92.211 27.2662 92.211 27.5205 93.2177L27.9394 94.8753C28.0921 95.4796 28.7543 95.7984 29.3219 95.5411L30.879 94.8351C31.8247 94.4063 32.7165 95.5245 32.088 96.3511L31.0532 97.7121C30.676 98.2082 30.8395 98.9247 31.3946 99.208L32.9175 99.9852C33.8423 100.457 33.524 101.852 32.486 101.876L30.7767 101.915C30.1537 101.93 29.6954 102.504 29.82 103.115L30.1619 104.79C30.3695 105.807 29.0808 106.428 28.4148 105.631L27.3182 104.32C26.9185 103.842 26.1835 103.842 25.7838 104.32L24.6872 105.631C24.0212 106.428 22.7326 105.807 22.9402 104.79L23.282 103.115C23.4066 102.504 22.9484 101.93 22.3253 101.915L20.616 101.876C19.578 101.852 19.2597 100.457 20.1845 99.9852L21.7074 99.208C22.2625 98.9247 22.4261 98.2082 22.0488 97.7121L21.014 96.3511C20.3856 95.5245 21.2773 94.4063 22.223 94.8351L23.7801 95.5411C24.3477 95.7984 25.0099 95.4796 25.1626 94.8753L25.5815 93.2177Z" fill="#BB3E42"/>
<path d="M140.568 45.3075C140.822 44.3009 142.252 44.3009 142.507 45.3075L142.926 46.9652C143.078 47.5694 143.741 47.8883 144.308 47.6309L145.865 46.9249C146.811 46.4961 147.703 47.6144 147.074 48.4409L146.04 49.8019C145.662 50.298 145.826 51.0146 146.381 51.2979L147.904 52.0751C148.829 52.5471 148.51 53.9415 147.472 53.9655L145.763 54.005C145.14 54.0194 144.682 54.5941 144.806 55.2047L145.148 56.8799C145.356 57.8973 144.067 58.5179 143.401 57.7212L142.305 56.4095C141.905 55.9314 141.17 55.9314 140.77 56.4095L139.674 57.7212C139.008 58.5179 137.719 57.8973 137.926 56.8799L138.268 55.2047C138.393 54.5941 137.935 54.0194 137.312 54.005L135.602 53.9655C134.564 53.9415 134.246 52.5471 135.171 52.0751L136.694 51.2979C137.249 51.0146 137.412 50.298 137.035 49.8019L136 48.4409C135.372 47.6144 136.264 46.4961 137.209 46.9249L138.766 47.6309C139.334 47.8883 139.996 47.5694 140.149 46.9652L140.568 45.3075Z" fill="#BB3E42"/>
<path d="M167.059 127.601C167.314 126.594 168.744 126.594 168.998 127.601L169.044 127.779C169.196 128.384 169.858 128.703 170.426 128.445L170.594 128.369C171.54 127.94 172.432 129.058 171.803 129.885L171.691 130.032C171.314 130.528 171.478 131.245 172.033 131.528L172.197 131.612C173.122 132.084 172.804 133.478 171.766 133.502L171.581 133.506C170.958 133.521 170.5 134.095 170.625 134.706L170.661 134.887C170.869 135.904 169.58 136.525 168.914 135.728L168.796 135.587C168.396 135.109 167.661 135.109 167.262 135.587L167.143 135.728C166.477 136.525 165.189 135.904 165.396 134.887L165.433 134.706C165.558 134.095 165.099 133.521 164.476 133.506L164.292 133.502C163.254 133.478 162.936 132.084 163.86 131.612L164.025 131.528C164.58 131.245 164.743 130.528 164.366 130.032L164.255 129.885C163.626 129.058 164.518 127.94 165.464 128.369L165.632 128.445C166.199 128.703 166.861 128.384 167.014 127.779L167.059 127.601Z" fill="#BB3E42"/>
<path d="M81.948 25.0165C82.2023 24.0098 83.6326 24.0098 83.887 25.0165L83.9322 25.1954C84.0849 25.7997 84.7471 26.1186 85.3147 25.8612L85.4828 25.785C86.4284 25.3562 87.3202 26.4745 86.6918 27.301L86.5801 27.4479C86.2029 27.944 86.3664 28.6606 86.9215 28.9439L87.0859 29.0278C88.0107 29.4998 87.6925 30.8942 86.6544 30.9182L86.4699 30.9225C85.8469 30.9369 85.3886 31.5115 85.5132 32.1221L85.5501 32.303C85.7577 33.3203 84.469 33.9409 83.8031 33.1443L83.6847 33.0027C83.285 32.5245 82.55 32.5245 82.1503 33.0027L82.0319 33.1443C81.3659 33.9409 80.0773 33.3203 80.2849 32.303L80.3218 32.1221C80.4464 31.5115 79.9881 30.9369 79.3651 30.9225L79.1806 30.9182C78.1425 30.8942 77.8243 29.4998 78.7491 29.0278L78.9135 28.9439C79.4686 28.6606 79.6321 27.944 79.2549 27.4479L79.1432 27.301C78.5148 26.4745 79.4065 25.3562 80.3522 25.785L80.5203 25.8612C81.0879 26.1186 81.7501 25.7997 81.9028 25.1954L81.948 25.0165Z" fill="#BB3E42"/>
<path d="M98.7921 130.69C98.9897 129.908 100.101 129.908 100.298 130.69C100.417 131.159 100.932 131.407 101.372 131.207C102.107 130.874 102.8 131.742 102.312 132.385C102.019 132.77 102.146 133.327 102.577 133.547C103.295 133.913 103.048 134.997 102.242 135.015C101.758 135.027 101.402 135.473 101.499 135.947C101.66 136.738 100.659 137.22 100.141 136.601C99.8308 136.229 99.2598 136.229 98.9493 136.601C98.4319 137.22 97.4308 136.738 97.5921 135.947C97.6889 135.473 97.3329 135.027 96.8489 135.015C96.0425 134.997 95.7952 133.913 96.5137 133.547C96.9449 133.327 97.072 132.77 96.7789 132.385C96.2907 131.742 96.9835 130.874 97.7181 131.207C98.1591 131.407 98.6735 131.159 98.7921 130.69Z" fill="#BB3E42"/>
<path d="M183.903 188.182C184.101 187.4 185.212 187.4 185.41 188.182C185.528 188.651 186.043 188.899 186.484 188.699C187.218 188.366 187.911 189.235 187.423 189.877C187.13 190.262 187.257 190.819 187.688 191.039C188.407 191.406 188.159 192.489 187.353 192.508C186.869 192.519 186.513 192.965 186.61 193.439C186.771 194.23 185.77 194.712 185.253 194.093C184.942 193.722 184.371 193.722 184.061 194.093C183.543 194.712 182.542 194.23 182.703 193.439C182.8 192.965 182.444 192.519 181.96 192.508C181.154 192.489 180.907 191.406 181.625 191.039C182.056 190.819 182.183 190.262 181.89 189.877C181.402 189.235 182.095 188.366 182.829 188.699C183.27 188.899 183.785 188.651 183.903 188.182Z" fill="#BB3E42"/>
<path d="M21.0079 189.873C21.2056 189.091 22.3167 189.091 22.5143 189.873C22.6329 190.343 23.1473 190.59 23.5883 190.39C24.3229 190.057 25.0157 190.926 24.5275 191.568C24.2345 191.954 24.3615 192.51 24.7927 192.73C25.5112 193.097 25.264 194.18 24.4575 194.199C23.9735 194.21 23.6175 194.657 23.7143 195.131C23.8756 195.921 22.8745 196.403 22.3571 195.784C22.0466 195.413 21.4756 195.413 21.1651 195.784C20.6477 196.403 19.6466 195.921 19.8079 195.131C19.9047 194.657 19.5487 194.21 19.0647 194.199C18.2583 194.18 18.011 193.097 18.7295 192.73C19.1607 192.51 19.2878 191.954 18.9947 191.568C18.5065 190.926 19.1993 190.057 19.934 190.39C20.3749 190.59 20.8893 190.343 21.0079 189.873Z" fill="#BB3E42"/>
<path d="M105.14 248.762C116.376 249.686 126.16 253.155 132.895 257.834C139.716 262.573 142.836 268.079 142.422 273.111C142.007 278.143 138.03 283.065 130.526 286.624C123.116 290.14 112.897 291.962 101.661 291.038C90.4247 290.113 80.6405 286.644 73.9051 281.965C67.0844 277.227 63.9648 271.722 64.3787 266.689C64.7929 261.657 68.7704 256.735 76.2742 253.175C83.6839 249.66 93.9034 247.837 105.14 248.762Z" fill="#FDBE0F" stroke="#BB3E42" stroke-width="7"/>
<path d="M86.5937 264.841C86.2114 264.914 85.8522 264.991 85.5163 265.073C85.1803 265.156 84.8834 265.238 84.6257 265.322L84.3788 263.083C84.9483 262.957 85.5005 262.851 86.0355 262.765C86.5756 262.678 87.0909 262.608 87.5813 262.555C88.0718 262.501 88.535 262.461 88.9709 262.434C89.4069 262.407 89.8109 262.388 90.1828 262.377C91.047 262.354 91.8426 262.37 92.5698 262.424C93.332 262.497 93.9928 262.628 94.5522 262.815C95.1117 263.002 95.5704 263.238 95.9284 263.524C96.2916 263.81 96.5545 264.14 96.7171 264.514C96.8797 264.888 96.9428 265.295 96.9065 265.736C96.8591 266.313 96.6818 266.815 96.3748 267.245C96.0729 267.675 95.687 268.045 95.2172 268.357C94.7478 268.663 94.2173 268.917 93.6258 269.119C93.0395 269.322 92.4383 269.484 91.822 269.606C91.2058 269.728 90.5976 269.816 89.9973 269.871C89.3974 269.921 88.854 269.952 88.3669 269.964L88.207 272.099L90.8374 272.331L90.69 274.122L84.0534 273.991L84.1919 271.737L86.5186 271.944L86.5937 264.841ZM91.9709 264.272C91.7944 264.257 91.5883 264.254 91.3526 264.26C91.1225 264.262 90.8708 264.273 90.5974 264.292C90.3245 264.306 90.0352 264.33 89.7294 264.362C89.4237 264.394 89.1097 264.431 88.7875 264.473L88.472 268.687C88.8522 268.64 89.2546 268.577 89.6792 268.497C90.1095 268.412 90.5335 268.308 90.9512 268.186C91.3741 268.064 91.7777 267.922 92.162 267.76C92.5468 267.593 92.8838 267.404 93.1729 267.193C93.4621 266.982 93.6902 266.749 93.8573 266.497C94.0301 266.239 94.1107 265.958 94.0991 265.654C94.0911 265.434 94.0336 265.244 93.9266 265.084C93.82 264.918 93.6719 264.78 93.4824 264.671C93.2984 264.556 93.0758 264.467 92.8145 264.404C92.5584 264.341 92.2772 264.297 91.9709 264.272ZM110.435 270.173C110.367 270.993 110.187 271.755 109.894 272.457C109.602 273.154 109.187 273.752 108.649 274.252C108.112 274.746 107.444 275.117 106.645 275.364C105.846 275.612 104.906 275.692 103.827 275.603C102.731 275.513 101.807 275.28 101.054 274.904C100.306 274.529 99.708 274.054 99.2588 273.479C98.8153 272.899 98.5089 272.241 98.3394 271.506C98.1704 270.766 98.1196 269.986 98.1871 269.165C98.2546 268.345 98.4426 267.585 98.7511 266.884C99.0601 266.178 99.4883 265.578 100.036 265.085C100.589 264.587 101.262 264.213 102.056 263.965C102.85 263.717 103.766 263.636 104.804 263.721C105.614 263.788 106.322 263.919 106.928 264.115C107.539 264.307 108.06 264.551 108.49 264.847C108.921 265.139 109.272 265.479 109.543 265.867C109.82 266.25 110.031 266.67 110.176 267.126C110.327 267.583 110.417 268.068 110.448 268.583C110.484 269.098 110.48 269.628 110.435 270.173ZM109.018 270.057C109.054 269.621 109.017 269.205 108.909 268.809C108.806 268.409 108.587 268.051 108.252 267.736C107.923 267.416 107.462 267.148 106.868 266.932C106.275 266.716 105.511 266.57 104.576 266.493C103.777 266.427 103.074 266.453 102.469 266.57C101.869 266.688 101.362 266.876 100.949 267.135C100.536 267.389 100.218 267.702 99.9935 268.076C99.775 268.444 99.6479 268.847 99.612 269.283C99.5761 269.719 99.628 270.136 99.7677 270.534C99.913 270.928 100.161 271.285 100.51 271.606C100.866 271.923 101.333 272.189 101.911 272.404C102.494 272.619 103.209 272.761 104.055 272.831C104.885 272.899 105.603 272.875 106.209 272.757C106.814 272.64 107.318 272.454 107.72 272.2C108.128 271.941 108.436 271.629 108.644 271.264C108.857 270.895 108.982 270.493 109.018 270.057ZM114.801 267.162C114.419 267.235 114.059 267.312 113.723 267.395C113.387 267.477 113.091 267.559 112.833 267.643L112.586 265.404C113.155 265.278 113.708 265.172 114.243 265.086C114.783 264.999 115.298 264.929 115.789 264.876C116.279 264.822 116.742 264.782 117.178 264.755C117.614 264.728 118.018 264.709 118.39 264.698C119.254 264.675 120.05 264.691 120.777 264.745C121.539 264.819 122.2 264.949 122.759 265.136C123.319 265.323 123.778 265.559 124.136 265.845C124.499 266.131 124.762 266.461 124.924 266.835C125.087 267.209 125.15 267.616 125.114 268.057C125.066 268.634 124.889 269.136 124.582 269.566C124.28 269.996 123.894 270.366 123.424 270.678C122.955 270.984 122.424 271.238 121.833 271.44C121.247 271.643 120.645 271.805 120.029 271.927C119.413 272.049 118.805 272.137 118.204 272.192C117.605 272.242 117.061 272.273 116.574 272.285L116.414 274.42L119.045 274.652L118.897 276.443L112.261 276.312L112.399 274.058L114.726 274.266L114.801 267.162ZM120.178 266.593C120.002 266.579 119.795 266.575 119.56 266.581C119.33 266.583 119.078 266.594 118.805 266.613C118.532 266.627 118.242 266.651 117.937 266.683C117.631 266.715 117.317 266.752 116.995 266.794L116.679 271.009C117.059 270.961 117.462 270.898 117.886 270.818C118.317 270.733 118.741 270.629 119.158 270.507C119.581 270.385 119.985 270.243 120.369 270.081C120.754 269.915 121.091 269.725 121.38 269.514C121.669 269.303 121.897 269.071 122.064 268.818C122.237 268.56 122.318 268.279 122.306 267.975C122.298 267.755 122.241 267.565 122.134 267.405C122.027 267.239 121.879 267.101 121.69 266.992C121.506 266.877 121.283 266.789 121.022 266.725C120.766 266.662 120.484 266.618 120.178 266.593Z" fill="white"/>
</svg>
