<svg width="402" height="327" viewBox="0 0 402 327" fill="none" xmlns="http://www.w3.org/2000/svg">
<ellipse cx="150.259" cy="105.087" rx="19.6667" ry="19.9606" fill="#FFD7A1"/>
<ellipse cx="251.53" cy="105.087" rx="19.9602" ry="19.9606" fill="#FFD7A1"/>
<ellipse cx="167.577" cy="85.1266" rx="19.9602" ry="19.9606" fill="#FFD7A1"/>
<ellipse cx="171.101" cy="101.563" rx="19.9602" ry="19.9606" fill="#FFD7A1"/>
<ellipse cx="199.866" cy="71.0358" rx="19.9602" ry="19.9606" fill="#FFD7A1"/>
<ellipse cx="228.047" cy="88.0612" rx="19.9602" ry="19.9606" fill="#FFD7A1"/>
<ellipse cx="199.866" cy="101.563" rx="19.9602" ry="19.9606" fill="#FFD7A1"/>
<path d="M146.49 97.8487L146.485 97.8548C155.677 92.9241 162.528 98.4373 163.748 100.173C164.909 90.8597 171.297 86.6584 174.345 85.722C165.835 86.1041 162.991 92.9053 162.633 96.2581C153.708 89.5319 147.56 96.6158 146.49 97.8487Z" fill="#FFAD3C"/>
<path d="M258.249 105.481L258.255 105.487C249.063 100.556 242.211 106.069 240.991 107.805C239.83 98.4915 233.442 94.2903 230.394 93.3539C238.905 93.736 241.748 100.537 242.107 103.89C251.031 97.1638 257.179 104.248 258.249 105.481Z" fill="#FFAD3C"/>
<path d="M231.424 77.441L231.429 77.4454C223.847 74.3228 218.928 79.1811 218.113 80.6362C216.462 73.445 211.131 70.6691 208.672 70.18C215.359 69.7998 218.125 74.8917 218.673 77.4852C225.116 71.5128 230.489 76.5622 231.424 77.441Z" fill="#FFAD3C"/>
<path d="M188.124 92.2574C190.476 87.8719 197.42 81.1528 206.388 89.3614C203.254 87.3739 195.213 85.1707 188.124 92.2574Z" fill="#FFAD3C"/>
<path d="M130.593 108.022H271.195L246.245 261.837H157.598L130.593 108.022Z" fill="white"/>
<path d="M220.415 261.837H208.087L211.022 108.022H230.982L220.415 261.837Z" fill="#BB3E42"/>
<path d="M169.633 261.837L150.847 108.022H130.593L157.598 261.837H169.633Z" fill="#BB3E42"/>
<path d="M233.035 261.837L250.941 108.022H271.488L246.244 261.837H233.035Z" fill="#BB3E42"/>
<path d="M190.767 108.022L195.463 261.837H182.548L170.807 108.022H190.767Z" fill="#BB3E42"/>
<path d="M130.593 108.022C133.137 103.325 142.921 96.574 150.847 108.022H130.593Z" fill="#BB3E42"/>
<path d="M150.846 108.022C153.39 103.325 162.881 96.574 170.806 108.022L150.846 108.022Z" fill="white"/>
<path d="M190.766 108.022C193.31 103.326 203.094 96.574 211.019 108.022L190.766 108.022Z" fill="white"/>
<path d="M230.981 108.022C233.525 103.325 243.016 96.574 250.942 108.022L230.981 108.022Z" fill="white"/>
<path d="M170.807 108.022C173.351 103.325 182.841 96.574 190.767 108.022L170.807 108.022Z" fill="#BB3E42"/>
<path d="M211.019 108.022C213.563 103.326 223.053 96.5739 230.979 108.022L211.019 108.022Z" fill="#BB3E42"/>
<path d="M250.94 108.021C253.484 103.324 265.03 96.8666 271.488 108.021H250.94Z" fill="#BB3E42"/>
<path d="M202.677 144.332C213.888 145.255 223.65 148.716 230.37 153.384C237.175 158.112 240.285 163.604 239.872 168.622C239.459 173.64 235.493 178.55 228.007 182.101C220.614 185.608 210.418 187.427 199.207 186.504C187.996 185.582 178.234 182.121 171.514 177.453C164.709 172.725 161.598 167.233 162.011 162.215C162.424 157.197 166.39 152.287 173.877 148.735C181.27 145.228 191.466 143.41 202.677 144.332Z" fill="#FDBE0F" stroke="#BB3E42" stroke-width="7"/>
<path d="M182.742 160.833C182.36 160.907 182.001 160.984 181.665 161.066C181.329 161.148 181.032 161.231 180.774 161.314L180.528 159.076C181.097 158.95 181.649 158.844 182.184 158.757C182.724 158.671 183.24 158.601 183.73 158.547C184.221 158.494 184.684 158.453 185.12 158.427C185.556 158.4 185.96 158.381 186.332 158.37C187.196 158.347 187.991 158.362 188.719 158.417C189.481 158.49 190.142 158.62 190.701 158.807C191.26 158.995 191.719 159.231 192.077 159.516C192.44 159.802 192.703 160.132 192.866 160.506C193.028 160.88 193.092 161.288 193.055 161.729C193.008 162.305 192.831 162.808 192.524 163.237C192.222 163.667 191.836 164.038 191.366 164.349C190.897 164.656 190.366 164.91 189.775 165.112C189.188 165.315 188.587 165.477 187.971 165.599C187.355 165.72 186.746 165.809 186.146 165.864C185.546 165.914 185.003 165.945 184.516 165.957L184.356 168.092L186.986 168.324L186.839 170.115L180.202 169.984L180.341 167.73L182.667 167.937L182.742 160.833ZM188.12 160.265C187.943 160.25 187.737 160.246 187.501 160.253C187.271 160.255 187.02 160.266 186.746 160.285C186.473 160.299 186.184 160.322 185.878 160.355C185.572 160.387 185.258 160.424 184.936 160.465L184.621 164.68C185.001 164.633 185.403 164.569 185.828 164.489C186.258 164.405 186.682 164.301 187.1 164.179C187.523 164.057 187.926 163.915 188.311 163.753C188.696 163.586 189.033 163.397 189.322 163.186C189.611 162.974 189.839 162.742 190.006 162.489C190.179 162.232 190.259 161.951 190.248 161.647C190.24 161.427 190.182 161.237 190.075 161.076C189.969 160.911 189.821 160.773 189.631 160.663C189.447 160.549 189.225 160.46 188.963 160.397C188.707 160.334 188.426 160.29 188.12 160.265ZM206.584 166.166C206.516 166.986 206.336 167.747 206.043 168.45C205.75 169.147 205.335 169.745 204.798 170.244C204.261 170.738 203.593 171.109 202.793 171.357C201.994 171.605 201.055 171.684 199.975 171.596C198.88 171.505 197.956 171.273 197.203 170.897C196.455 170.522 195.857 170.047 195.408 169.472C194.964 168.892 194.658 168.234 194.488 167.499C194.319 166.759 194.268 165.978 194.336 165.158C194.403 164.338 194.591 163.577 194.9 162.876C195.209 162.17 195.637 161.571 196.185 161.077C196.738 160.579 197.411 160.206 198.205 159.958C198.999 159.71 199.915 159.628 200.953 159.714C201.763 159.78 202.471 159.912 203.076 160.108C203.688 160.299 204.209 160.543 204.639 160.84C205.069 161.132 205.42 161.472 205.691 161.86C205.968 162.243 206.179 162.663 206.325 163.119C206.475 163.576 206.566 164.061 206.597 164.576C206.633 165.091 206.628 165.621 206.584 166.166ZM205.166 166.049C205.202 165.613 205.166 165.198 205.057 164.802C204.955 164.402 204.736 164.044 204.401 163.729C204.072 163.409 203.611 163.141 203.017 162.925C202.423 162.709 201.659 162.563 200.725 162.486C199.926 162.42 199.223 162.446 198.618 162.563C198.018 162.681 197.511 162.869 197.098 163.128C196.685 163.381 196.366 163.695 196.142 164.068C195.924 164.437 195.797 164.839 195.761 165.275C195.725 165.711 195.777 166.129 195.916 166.527C196.062 166.92 196.309 167.278 196.659 167.599C197.015 167.916 197.481 168.182 198.059 168.396C198.643 168.612 199.357 168.754 200.203 168.824C201.034 168.892 201.752 168.867 202.357 168.75C202.963 168.633 203.467 168.447 203.869 168.192C204.277 167.933 204.585 167.622 204.793 167.257C205.006 166.888 205.131 166.485 205.166 166.049ZM210.95 163.155C210.567 163.228 210.208 163.305 209.872 163.387C209.536 163.469 209.239 163.552 208.982 163.635L208.735 161.397C209.304 161.271 209.856 161.165 210.391 161.078C210.932 160.992 211.447 160.922 211.937 160.869C212.428 160.815 212.891 160.775 213.327 160.748C213.763 160.721 214.167 160.702 214.539 160.691C215.403 160.668 216.199 160.684 216.926 160.738C217.688 160.811 218.349 160.941 218.908 161.129C219.468 161.316 219.926 161.552 220.284 161.838C220.648 162.124 220.91 162.454 221.073 162.827C221.236 163.201 221.299 163.609 221.262 164.05C221.215 164.626 221.038 165.129 220.731 165.559C220.429 165.988 220.043 166.359 219.573 166.671C219.104 166.977 218.573 167.231 217.982 167.433C217.395 167.636 216.794 167.798 216.178 167.92C215.562 168.041 214.953 168.13 214.353 168.185C213.753 168.235 213.21 168.266 212.723 168.278L212.563 170.413L215.193 170.645L215.046 172.436L208.409 172.305L208.548 170.051L210.875 170.258L210.95 163.155ZM216.327 162.586C216.15 162.571 215.944 162.567 215.709 162.574C215.478 162.576 215.227 162.587 214.953 162.606C214.68 162.62 214.391 162.643 214.085 162.676C213.78 162.708 213.466 162.745 213.143 162.786L212.828 167.001C213.208 166.954 213.61 166.891 214.035 166.811C214.465 166.726 214.889 166.622 215.307 166.5C215.73 166.378 216.134 166.236 216.518 166.074C216.903 165.907 217.24 165.718 217.529 165.507C217.818 165.295 218.046 165.063 218.213 164.811C218.386 164.553 218.467 164.272 218.455 163.968C218.447 163.748 218.389 163.558 218.282 163.397C218.176 163.232 218.028 163.094 217.838 162.985C217.654 162.87 217.432 162.781 217.17 162.718C216.914 162.655 216.633 162.611 216.327 162.586Z" fill="white"/>
<ellipse cx="6.72587" cy="6.72599" rx="6.72587" ry="6.72599" transform="matrix(0.971303 0.237844 -0.237834 0.971306 145.809 18.4502)" fill="#FFD7A1"/>
<ellipse cx="6.72587" cy="6.72599" rx="6.72587" ry="6.72599" transform="matrix(0.971303 0.237844 -0.237834 0.971306 148.707 27.8164)" fill="#FFD7A1"/>
<ellipse cx="6.72587" cy="6.72599" rx="6.72587" ry="6.72599" transform="matrix(0.971303 0.237844 -0.237834 0.971306 155.607 20.8506)" fill="#FFD7A1"/>
<ellipse cx="6.72587" cy="6.72599" rx="6.72587" ry="6.72599" transform="matrix(-0.971303 0.237844 0.237834 0.971306 249.231 15.9277)" fill="#FFD7A1"/>
<ellipse cx="6.72587" cy="6.72599" rx="6.72587" ry="6.72599" transform="matrix(-0.971303 0.237844 0.237834 0.971306 246.331 25.2939)" fill="#FFD7A1"/>
<ellipse cx="6.72587" cy="6.72599" rx="6.72587" ry="6.72599" transform="matrix(-0.971303 0.237844 0.237834 0.971306 239.434 18.3281)" fill="#FFD7A1"/>
<ellipse cx="6.72587" cy="6.72599" rx="6.72587" ry="6.72599" transform="matrix(0.971303 0.237844 -0.237834 0.971306 104.676 62.2305)" fill="#FFD7A1"/>
<ellipse cx="6.72587" cy="6.72599" rx="6.72587" ry="6.72599" transform="matrix(0.971303 0.237844 -0.237834 0.971306 107.578 71.5977)" fill="#FFD7A1"/>
<ellipse cx="6.72587" cy="6.72599" rx="6.72587" ry="6.72599" transform="matrix(0.971303 0.237844 -0.237834 0.971306 114.477 64.6309)" fill="#FFD7A1"/>
<ellipse cx="6.72587" cy="6.72599" rx="6.72587" ry="6.72599" transform="matrix(-0.971303 0.237844 0.237834 0.971306 294.355 57.5332)" fill="#FFD7A1"/>
<ellipse cx="6.72587" cy="6.72599" rx="6.72587" ry="6.72599" transform="matrix(-0.971303 0.237844 0.237834 0.971306 291.457 66.8994)" fill="#FFD7A1"/>
<ellipse cx="6.72587" cy="6.72599" rx="6.72587" ry="6.72599" transform="matrix(-0.971303 0.237844 0.237834 0.971306 284.559 59.9326)" fill="#FFD7A1"/>
<ellipse cx="3.90447" cy="3.90454" rx="3.90447" ry="3.90454" transform="matrix(0.971303 0.237844 -0.237834 0.971306 101.591 20.9746)" fill="#FFD7A1"/>
<ellipse cx="3.90447" cy="3.90454" rx="3.90447" ry="3.90454" transform="matrix(0.971303 0.237844 -0.237834 0.971306 103.274 26.4102)" fill="#FFD7A1"/>
<ellipse cx="3.90447" cy="3.90454" rx="3.90447" ry="3.90454" transform="matrix(0.971303 0.237844 -0.237834 0.971306 107.278 22.3682)" fill="#FFD7A1"/>
<ellipse cx="3.90447" cy="3.90454" rx="3.90447" ry="3.90454" transform="matrix(-0.971303 0.237844 0.237834 0.971306 293.447 18.4502)" fill="#FFD7A1"/>
<ellipse cx="3.90447" cy="3.90454" rx="3.90447" ry="3.90454" transform="matrix(-0.971303 0.237844 0.237834 0.971306 291.765 23.8867)" fill="#FFD7A1"/>
<ellipse cx="3.90447" cy="3.90454" rx="3.90447" ry="3.90454" transform="matrix(-0.971303 0.237844 0.237834 0.971306 287.759 19.8447)" fill="#FFD7A1"/>
<ellipse cx="3.90447" cy="3.90454" rx="3.90447" ry="3.90454" transform="matrix(-0.971303 0.237844 0.237834 0.971306 206.096 0)" fill="#FFD7A1"/>
<ellipse cx="3.90447" cy="3.90454" rx="3.90447" ry="3.90454" transform="matrix(-0.971303 0.237844 0.237834 0.971306 204.414 5.43652)" fill="#FFD7A1"/>
<ellipse cx="3.90447" cy="3.90454" rx="3.90447" ry="3.90454" transform="matrix(-0.971303 0.237844 0.237834 0.971306 200.408 1.39355)" fill="#FFD7A1"/>
</svg>
