<svg width="202" height="262" viewBox="0 0 202 262" fill="none" xmlns="http://www.w3.org/2000/svg">
<ellipse cx="52.2595" cy="105.087" rx="19.6667" ry="19.9606" fill="#FFD7A1"/>
<ellipse cx="153.53" cy="105.087" rx="19.9602" ry="19.9606" fill="#FFD7A1"/>
<ellipse cx="69.5774" cy="85.1266" rx="19.9602" ry="19.9606" fill="#FFD7A1"/>
<ellipse cx="73.1009" cy="101.563" rx="19.9602" ry="19.9606" fill="#FFD7A1"/>
<ellipse cx="101.866" cy="71.0358" rx="19.9602" ry="19.9606" fill="#FFD7A1"/>
<ellipse cx="130.047" cy="88.0612" rx="19.9602" ry="19.9606" fill="#FFD7A1"/>
<ellipse cx="101.866" cy="101.563" rx="19.9602" ry="19.9606" fill="#FFD7A1"/>
<path d="M48.4901 97.8487L48.4847 97.8548C57.6765 92.9241 64.5284 98.4373 65.748 100.173C66.9092 90.8597 73.2968 86.6584 76.3454 85.722C67.8348 86.1041 64.9908 92.9053 64.6327 96.2581C55.7079 89.5319 49.56 96.6158 48.4901 97.8487Z" fill="#FFAD3C"/>
<path d="M160.249 105.481L160.255 105.487C151.063 100.556 144.211 106.069 142.991 107.805C141.83 98.4915 135.442 94.2903 132.394 93.3539C140.905 93.736 143.748 100.537 144.107 103.89C153.031 97.1638 159.179 104.248 160.249 105.481Z" fill="#FFAD3C"/>
<path d="M133.424 77.441L133.429 77.4454C125.847 74.3228 120.928 79.1811 120.113 80.6362C118.462 73.445 113.131 70.6691 110.672 70.18C117.359 69.7998 120.125 74.8917 120.673 77.4852C127.116 71.5128 132.489 76.5622 133.424 77.441Z" fill="#FFAD3C"/>
<path d="M90.1241 92.2574C92.4755 87.8719 99.4202 81.1528 108.388 89.3614C105.254 87.3739 97.2127 85.1707 90.1241 92.2574Z" fill="#FFAD3C"/>
<path d="M32.5928 108.022H173.195L148.245 261.837H59.5978L32.5928 108.022Z" fill="white"/>
<path d="M122.415 261.837H110.087L113.022 108.022H132.982L122.415 261.837Z" fill="#BB3E42"/>
<path d="M71.6326 261.837L52.8465 108.022H32.5928L59.5978 261.837H71.6326Z" fill="#BB3E42"/>
<path d="M135.035 261.837L152.941 108.022H173.488L148.244 261.837H135.035Z" fill="#BB3E42"/>
<path d="M92.7668 108.022L97.4633 261.837H84.5479L72.8065 108.022H92.7668Z" fill="#BB3E42"/>
<path d="M32.5928 108.022C35.1367 103.325 44.9212 96.574 52.8465 108.022H32.5928Z" fill="#BB3E42"/>
<path d="M52.8457 108.022C55.3897 103.325 64.8805 96.574 72.8059 108.022L52.8457 108.022Z" fill="white"/>
<path d="M92.7656 108.022C95.3096 103.326 105.094 96.574 113.019 108.022L92.7656 108.022Z" fill="white"/>
<path d="M132.981 108.022C135.525 103.325 145.016 96.574 152.942 108.022L132.981 108.022Z" fill="white"/>
<path d="M72.8066 108.022C75.3506 103.325 84.8415 96.574 92.7669 108.022L72.8066 108.022Z" fill="#BB3E42"/>
<path d="M113.019 108.022C115.563 103.326 125.053 96.5739 132.979 108.022L113.019 108.022Z" fill="#BB3E42"/>
<path d="M152.94 108.021C155.484 103.324 167.03 96.8666 173.488 108.021H152.94Z" fill="#BB3E42"/>
<path d="M104.677 144.332C115.888 145.255 125.65 148.716 132.37 153.384C139.175 158.112 142.285 163.604 141.872 168.622C141.459 173.64 137.493 178.55 130.007 182.101C122.614 185.608 112.418 187.427 101.207 186.504C89.9959 185.582 80.2339 182.121 73.5141 177.453C66.7088 172.725 63.5981 167.233 64.011 162.215C64.424 157.197 68.3905 152.287 75.8771 148.735C83.2696 145.228 93.466 143.41 104.677 144.332Z" fill="#FDBE0F" stroke="#BB3E42" stroke-width="7"/>
<path d="M84.7424 160.833C84.3601 160.907 84.001 160.984 83.665 161.066C83.329 161.148 83.0322 161.231 82.7745 161.314L82.5276 159.076C83.0971 158.95 83.6493 158.844 84.1842 158.757C84.7244 158.671 85.2397 158.601 85.7301 158.547C86.2205 158.494 86.6837 158.453 87.1197 158.427C87.5556 158.4 87.9596 158.381 88.3316 158.37C89.1957 158.347 89.9914 158.362 90.7185 158.417C91.4807 158.49 92.1415 158.62 92.701 158.807C93.2604 158.995 93.7192 159.231 94.0772 159.516C94.4404 159.802 94.7033 160.132 94.8658 160.506C95.0284 160.88 95.0916 161.288 95.0553 161.729C95.0079 162.305 94.8306 162.808 94.5235 163.237C94.2216 163.667 93.8358 164.038 93.3659 164.349C92.8965 164.656 92.3661 164.91 91.7746 165.112C91.1883 165.315 90.587 165.477 89.9708 165.599C89.3546 165.72 88.7463 165.809 88.146 165.864C87.5462 165.914 87.0027 165.945 86.5157 165.957L86.3557 168.092L88.9862 168.324L88.8388 170.115L82.2022 169.984L82.3406 167.73L84.6674 167.937L84.7424 160.833ZM90.1197 160.265C89.9432 160.25 89.7371 160.246 89.5014 160.253C89.2713 160.255 89.0195 160.266 88.7462 160.285C88.4733 160.299 88.1839 160.322 87.8782 160.355C87.5724 160.387 87.2584 160.424 86.9362 160.465L86.6208 164.68C87.0009 164.633 87.4033 164.569 87.828 164.489C88.2583 164.405 88.6823 164.301 89.0999 164.179C89.5228 164.057 89.9265 163.915 90.3108 163.753C90.6956 163.586 91.0325 163.397 91.3217 163.186C91.6108 162.974 91.839 162.742 92.0061 162.489C92.1788 162.232 92.2594 161.951 92.2479 161.647C92.2398 161.427 92.1823 161.237 92.0753 161.076C91.9688 160.911 91.8207 160.773 91.6311 160.663C91.4472 160.549 91.2245 160.46 90.9632 160.397C90.7071 160.334 90.4259 160.29 90.1197 160.265ZM108.584 166.166C108.516 166.986 108.336 167.747 108.043 168.45C107.75 169.147 107.335 169.745 106.798 170.244C106.261 170.738 105.593 171.109 104.793 171.357C103.994 171.605 103.055 171.684 101.975 171.596C100.88 171.505 99.956 171.273 99.203 170.897C98.4552 170.522 97.8568 170.047 97.4076 169.472C96.9641 168.892 96.6576 168.234 96.4882 167.499C96.3191 166.759 96.2684 165.978 96.3359 165.158C96.4034 164.338 96.5914 163.577 96.8999 162.876C97.2088 162.17 97.6371 161.571 98.1846 161.077C98.7377 160.579 99.4112 160.206 100.205 159.958C100.999 159.71 101.915 159.628 102.953 159.714C103.763 159.78 104.471 159.912 105.076 160.108C105.688 160.299 106.209 160.543 106.639 160.84C107.069 161.132 107.42 161.472 107.691 161.86C107.968 162.243 108.179 162.663 108.325 163.119C108.475 163.576 108.566 164.061 108.597 164.576C108.633 165.091 108.628 165.621 108.584 166.166ZM107.166 166.049C107.202 165.613 107.166 165.198 107.057 164.802C106.955 164.402 106.736 164.044 106.401 163.729C106.072 163.409 105.611 163.141 105.017 162.925C104.423 162.709 103.659 162.563 102.725 162.486C101.926 162.42 101.223 162.446 100.618 162.563C100.018 162.681 99.5108 162.869 99.0976 163.128C98.6848 163.381 98.3664 163.695 98.1423 164.068C97.9238 164.437 97.7966 164.839 97.7607 165.275C97.7249 165.711 97.7768 166.129 97.9165 166.527C98.0618 166.92 98.3093 167.278 98.6591 167.599C99.0146 167.916 99.4813 168.182 100.059 168.396C100.643 168.612 101.357 168.754 102.203 168.824C103.034 168.892 103.752 168.867 104.357 168.75C104.963 168.633 105.467 168.447 105.869 168.192C106.277 167.933 106.585 167.622 106.793 167.257C107.006 166.888 107.131 166.485 107.166 166.049ZM112.95 163.155C112.567 163.228 112.208 163.305 111.872 163.387C111.536 163.469 111.239 163.552 110.982 163.635L110.735 161.397C111.304 161.271 111.856 161.165 112.391 161.078C112.932 160.992 113.447 160.922 113.937 160.869C114.428 160.815 114.891 160.775 115.327 160.748C115.763 160.721 116.167 160.702 116.539 160.691C117.403 160.668 118.199 160.684 118.926 160.738C119.688 160.811 120.349 160.941 120.908 161.129C121.468 161.316 121.926 161.552 122.284 161.838C122.648 162.124 122.91 162.454 123.073 162.827C123.236 163.201 123.299 163.609 123.262 164.05C123.215 164.626 123.038 165.129 122.731 165.559C122.429 165.988 122.043 166.359 121.573 166.671C121.104 166.977 120.573 167.231 119.982 167.433C119.395 167.636 118.794 167.798 118.178 167.92C117.562 168.041 116.953 168.13 116.353 168.185C115.753 168.235 115.21 168.266 114.723 168.278L114.563 170.413L117.193 170.645L117.046 172.436L110.409 172.305L110.548 170.051L112.875 170.258L112.95 163.155ZM118.327 162.586C118.15 162.571 117.944 162.567 117.709 162.574C117.478 162.576 117.227 162.587 116.953 162.606C116.68 162.62 116.391 162.643 116.085 162.676C115.78 162.708 115.466 162.745 115.143 162.786L114.828 167.001C115.208 166.954 115.61 166.891 116.035 166.811C116.465 166.726 116.889 166.622 117.307 166.5C117.73 166.378 118.134 166.236 118.518 166.074C118.903 165.907 119.24 165.718 119.529 165.507C119.818 165.295 120.046 165.063 120.213 164.811C120.386 164.553 120.467 164.272 120.455 163.968C120.447 163.748 120.389 163.558 120.282 163.397C120.176 163.232 120.028 163.094 119.838 162.985C119.654 162.87 119.432 162.781 119.17 162.718C118.914 162.655 118.633 162.611 118.327 162.586Z" fill="white"/>
<ellipse cx="6.72587" cy="6.72599" rx="6.72587" ry="6.72599" transform="matrix(0.971303 0.237844 -0.237834 0.971306 47.8086 18.4502)" fill="#FFD7A1"/>
<ellipse cx="6.72587" cy="6.72599" rx="6.72587" ry="6.72599" transform="matrix(0.971303 0.237844 -0.237834 0.971306 50.707 27.8164)" fill="#FFD7A1"/>
<ellipse cx="6.72587" cy="6.72599" rx="6.72587" ry="6.72599" transform="matrix(0.971303 0.237844 -0.237834 0.971306 57.6074 20.8506)" fill="#FFD7A1"/>
<ellipse cx="6.72587" cy="6.72599" rx="6.72587" ry="6.72599" transform="matrix(-0.971303 0.237844 0.237834 0.971306 151.231 15.9277)" fill="#FFD7A1"/>
<ellipse cx="6.72587" cy="6.72599" rx="6.72587" ry="6.72599" transform="matrix(-0.971303 0.237844 0.237834 0.971306 148.331 25.2939)" fill="#FFD7A1"/>
<ellipse cx="6.72587" cy="6.72599" rx="6.72587" ry="6.72599" transform="matrix(-0.971303 0.237844 0.237834 0.971306 141.434 18.3281)" fill="#FFD7A1"/>
<ellipse cx="6.72587" cy="6.72599" rx="6.72587" ry="6.72599" transform="matrix(0.971303 0.237844 -0.237834 0.971306 6.67578 62.2305)" fill="#FFD7A1"/>
<ellipse cx="6.72587" cy="6.72599" rx="6.72587" ry="6.72599" transform="matrix(0.971303 0.237844 -0.237834 0.971306 9.57812 71.5977)" fill="#FFD7A1"/>
<ellipse cx="6.72587" cy="6.72599" rx="6.72587" ry="6.72599" transform="matrix(0.971303 0.237844 -0.237834 0.971306 16.4766 64.6309)" fill="#FFD7A1"/>
<ellipse cx="6.72587" cy="6.72599" rx="6.72587" ry="6.72599" transform="matrix(-0.971303 0.237844 0.237834 0.971306 196.355 57.5332)" fill="#FFD7A1"/>
<ellipse cx="6.72587" cy="6.72599" rx="6.72587" ry="6.72599" transform="matrix(-0.971303 0.237844 0.237834 0.971306 193.457 66.8994)" fill="#FFD7A1"/>
<ellipse cx="6.72587" cy="6.72599" rx="6.72587" ry="6.72599" transform="matrix(-0.971303 0.237844 0.237834 0.971306 186.559 59.9326)" fill="#FFD7A1"/>
<ellipse cx="3.90447" cy="3.90454" rx="3.90447" ry="3.90454" transform="matrix(0.971303 0.237844 -0.237834 0.971306 3.59082 20.9746)" fill="#FFD7A1"/>
<ellipse cx="3.90447" cy="3.90454" rx="3.90447" ry="3.90454" transform="matrix(0.971303 0.237844 -0.237834 0.971306 5.27441 26.4102)" fill="#FFD7A1"/>
<ellipse cx="3.90447" cy="3.90454" rx="3.90447" ry="3.90454" transform="matrix(0.971303 0.237844 -0.237834 0.971306 9.27832 22.3682)" fill="#FFD7A1"/>
<ellipse cx="3.90447" cy="3.90454" rx="3.90447" ry="3.90454" transform="matrix(-0.971303 0.237844 0.237834 0.971306 195.447 18.4502)" fill="#FFD7A1"/>
<ellipse cx="3.90447" cy="3.90454" rx="3.90447" ry="3.90454" transform="matrix(-0.971303 0.237844 0.237834 0.971306 193.765 23.8867)" fill="#FFD7A1"/>
<ellipse cx="3.90447" cy="3.90454" rx="3.90447" ry="3.90454" transform="matrix(-0.971303 0.237844 0.237834 0.971306 189.759 19.8447)" fill="#FFD7A1"/>
<ellipse cx="3.90447" cy="3.90454" rx="3.90447" ry="3.90454" transform="matrix(-0.971303 0.237844 0.237834 0.971306 108.096 0)" fill="#FFD7A1"/>
<ellipse cx="3.90447" cy="3.90454" rx="3.90447" ry="3.90454" transform="matrix(-0.971303 0.237844 0.237834 0.971306 106.414 5.43652)" fill="#FFD7A1"/>
<ellipse cx="3.90447" cy="3.90454" rx="3.90447" ry="3.90454" transform="matrix(-0.971303 0.237844 0.237834 0.971306 102.408 1.39355)" fill="#FFD7A1"/>
</svg>
