<svg width="345" height="87" viewBox="0 0 345 87" fill="none" xmlns="http://www.w3.org/2000/svg">
<g filter="url(#filter0_d_557_95)">
<path d="M321.179 7.75488C323.025 12.4916 328.004 15.8857 333.859 15.8857C334.582 15.8857 335.292 15.833 335.983 15.7334V17.4912C335.138 17.8119 334.568 18.4097 334.568 19.0957C334.569 19.7815 335.138 20.3776 335.983 20.6982V22.3486C335.138 22.6693 334.568 23.2671 334.568 23.9531C334.569 24.6389 335.138 25.235 335.983 25.5557V27.207C335.138 27.5277 334.568 28.1255 334.568 28.8115C334.569 29.4973 335.138 30.0934 335.983 30.4141V32.0645C335.138 32.3851 334.568 32.9829 334.568 33.6689C334.569 34.3547 335.138 34.9508 335.983 35.2715V36.9219C335.138 37.2426 334.568 37.8403 334.568 38.5264C334.569 39.2121 335.138 39.8082 335.983 40.1289V41.7793C335.138 42.1 334.568 42.6978 334.568 43.3838C334.569 44.0696 335.138 44.6656 335.983 44.9863V46.6377C335.138 46.9584 334.568 47.5562 334.568 48.2422C334.569 48.928 335.138 49.524 335.983 49.8447V51.4951C335.138 51.8158 334.568 52.4136 334.568 53.0996C334.569 53.7854 335.138 54.3815 335.983 54.7021V56.3535C335.138 56.6742 334.568 57.272 334.568 57.958C334.569 58.6438 335.138 59.2399 335.983 59.5605V61.2109C335.138 61.5316 334.568 62.1294 334.568 62.8154C334.569 63.5012 335.138 64.0973 335.983 64.418V66.04C329.899 66.3255 324.885 70.2798 323.576 75.5098H19.9902C18.7847 70.6921 14.4343 66.9578 9 66.1758V64.4189C9.84586 64.0984 10.4158 63.5015 10.416 62.8154C10.416 62.1291 9.84623 61.5306 9 61.21V59.5615C9.84586 59.2409 10.4158 58.6441 10.416 57.958C10.416 57.2717 9.84623 56.6731 9 56.3525V54.7031C9.84586 54.3825 10.4158 53.7857 10.416 53.0996C10.416 52.4133 9.84623 51.8147 9 51.4941V49.8457C9.84586 49.5251 10.4158 48.9283 10.416 48.2422C10.416 47.5559 9.84623 46.9573 9 46.6367V44.9873C9.84586 44.6667 10.4158 44.0699 10.416 43.3838C10.416 42.6975 9.84623 42.0989 9 41.7783V40.1299C9.84586 39.8093 10.4158 39.2125 10.416 38.5264C10.416 37.84 9.84623 37.2415 9 36.9209V35.2725C9.84586 34.9519 10.4158 34.355 10.416 33.6689C10.416 32.9826 9.84623 32.3841 9 32.0635V30.415C9.84586 30.0945 10.4158 29.4976 10.416 28.8115C10.416 28.1252 9.84623 27.5266 9 27.2061V25.5566C9.84586 25.2361 10.4158 24.6392 10.416 23.9531C10.416 23.2668 9.84623 22.6682 9 22.3477V20.6992C9.84586 20.3786 10.4158 19.7818 10.416 19.0957C10.416 18.4094 9.84623 17.8108 9 17.4902V15.8691C9.23411 15.8801 9.4699 15.8857 9.70703 15.8857C15.5619 15.8857 20.5416 12.4916 22.3877 7.75488H321.179Z" fill="url(#paint0_linear_557_95)"/>
</g>
<mask id="path-2-inside-1_557_95" fill="white">
<path d="M314.747 13.1758C316.53 17.1738 321.337 20.039 326.988 20.0391C327.686 20.0391 328.37 19.9932 329.038 19.9092V21.3926C328.221 21.6632 327.672 22.1679 327.672 22.7471C327.672 23.3263 328.221 23.8309 329.038 24.1016V25.4932C328.221 25.7638 327.672 26.2685 327.672 26.8477C327.672 27.4269 328.221 27.9315 329.038 28.2021V29.5938C328.221 29.8644 327.672 30.3699 327.672 30.9492C327.672 31.5282 328.222 32.0321 329.038 32.3027V33.6943C328.221 33.965 327.672 34.4705 327.672 35.0498C327.672 35.6288 328.222 36.1327 329.038 36.4033V37.7949C328.221 38.0656 327.672 38.5711 327.672 39.1504C327.672 39.7294 328.222 40.2333 329.038 40.5039V41.8965C328.221 42.1671 327.672 42.6727 327.672 43.252C327.672 43.831 328.222 44.3348 329.038 44.6055V45.9971C328.221 46.2677 327.672 46.7733 327.672 47.3525C327.672 47.9316 328.222 48.4354 329.038 48.7061V50.0977C328.221 50.3683 327.672 50.8738 327.672 51.4531C327.672 52.0322 328.222 52.536 329.038 52.8066V54.1973C328.221 54.4679 327.672 54.9735 327.672 55.5527C327.672 56.1318 328.222 56.6356 329.038 56.9062V58.2988C328.221 58.5695 327.672 59.075 327.672 59.6543C327.672 60.2333 328.222 60.7372 329.038 61.0078V62.377C323.164 62.6183 318.323 65.9566 317.061 70.3721H23.9893C22.826 66.3042 18.626 63.1512 13.3789 62.4912V61.0078C14.1953 60.7371 14.745 60.2334 14.7451 59.6543C14.7451 59.075 14.1956 58.5695 13.3789 58.2988V56.9062C14.1953 56.6356 14.745 56.1318 14.7451 55.5527C14.7451 54.9734 14.1956 54.4679 13.3789 54.1973V52.8066C14.1953 52.536 14.745 52.0322 14.7451 51.4531C14.7451 50.8738 14.1956 50.3683 13.3789 50.0977V48.7061C14.1953 48.4354 14.745 47.9316 14.7451 47.3525C14.7451 46.7733 14.1956 46.2677 13.3789 45.9971V44.6055C14.1953 44.3348 14.745 43.831 14.7451 43.252C14.7451 42.6727 14.1956 42.1671 13.3789 41.8965V40.5039C14.1953 40.2332 14.745 39.7295 14.7451 39.1504C14.7451 38.5711 14.1956 38.0656 13.3789 37.7949V36.4033C14.1953 36.1327 14.745 35.6289 14.7451 35.0498C14.7451 34.4705 14.1956 33.965 13.3789 33.6943V32.3027C14.1953 32.0321 14.745 31.5283 14.7451 30.9492C14.7451 30.3699 14.1956 29.8644 13.3789 29.5938V28.2021C14.1953 27.9315 14.745 27.4277 14.7451 26.8486C14.7451 26.2693 14.1956 25.7638 13.3789 25.4932V24.1016C14.1953 23.8309 14.745 23.3271 14.7451 22.748C14.7451 22.1688 14.1956 21.6632 13.3789 21.3926V20.0244C13.605 20.0337 13.8325 20.0391 14.0615 20.0391C19.7134 20.0391 24.5213 17.174 26.3037 13.1758H314.747Z"/>
</mask>
<path d="M314.747 13.1758L315.66 12.7686L315.396 12.1758H314.747V13.1758ZM326.988 20.0391V21.0391V20.0391ZM329.038 19.9092H330.038V18.7755L328.913 18.917L329.038 19.9092ZM329.038 21.3926L329.353 22.3418L330.038 22.1147V21.3926H329.038ZM327.672 22.7471L326.672 22.7467V22.7471H327.672ZM329.038 24.1016H330.038V23.3795L329.353 23.1523L329.038 24.1016ZM329.038 25.4932L329.353 26.4424L330.038 26.2153V25.4932H329.038ZM327.672 26.8477L326.672 26.8473V26.8477H327.672ZM329.038 28.2021H330.038V27.4801L329.353 27.2529L329.038 28.2021ZM329.038 29.5938L329.353 30.543L330.038 30.3158V29.5938H329.038ZM327.672 30.9492H326.672V30.9497L327.672 30.9492ZM329.038 32.3027H330.038V31.5807L329.353 31.3535L329.038 32.3027ZM329.038 33.6943L329.353 34.6436L330.038 34.4164V33.6943H329.038ZM327.672 35.0498H326.672V35.0503L327.672 35.0498ZM329.038 36.4033H330.038V35.6813L329.353 35.4541L329.038 36.4033ZM329.038 37.7949L329.353 38.7442L330.038 38.517V37.7949H329.038ZM327.672 39.1504H326.672V39.1508L327.672 39.1504ZM329.038 40.5039H330.038V39.7819L329.353 39.5547L329.038 40.5039ZM329.038 41.8965L329.353 42.8457L330.038 42.6186V41.8965H329.038ZM327.672 43.252H326.672V43.2524L327.672 43.252ZM329.038 44.6055H330.038V43.8835L329.353 43.6563L329.038 44.6055ZM329.038 45.9971L329.353 46.9463L330.038 46.7192V45.9971H329.038ZM327.672 47.3525H326.672V47.353L327.672 47.3525ZM329.038 48.7061H330.038V47.984L329.353 47.7569L329.038 48.7061ZM329.038 50.0977L329.353 51.0469L330.038 50.8197V50.0977H329.038ZM327.672 51.4531H326.672V51.4536L327.672 51.4531ZM329.038 52.8066H330.038V52.0846L329.353 51.8574L329.038 52.8066ZM329.038 54.1973L329.353 55.1465L330.038 54.9193V54.1973H329.038ZM327.672 55.5527H326.672V55.5532L327.672 55.5527ZM329.038 56.9062H330.038V56.1842L329.353 55.9571L329.038 56.9062ZM329.038 58.2988L329.353 59.2481L330.038 59.0209V58.2988H329.038ZM327.672 59.6543H326.672V59.6548L327.672 59.6543ZM329.038 61.0078H330.038V60.2858L329.353 60.0586L329.038 61.0078ZM329.038 62.377L329.079 63.3761L330.038 63.3367V62.377H329.038ZM317.061 70.3721V71.3721H317.815L318.022 70.647L317.061 70.3721ZM23.9893 70.3721L23.0278 70.647L23.2351 71.3721H23.9893V70.3721ZM13.3789 62.4912H12.3789V63.3733L13.2541 63.4834L13.3789 62.4912ZM13.3789 61.0078L13.0642 60.0586L12.3789 60.2858V61.0078H13.3789ZM14.7451 59.6543L15.7451 59.6545V59.6543H14.7451ZM13.3789 58.2988H12.3789V59.0209L13.0643 59.2481L13.3789 58.2988ZM13.3789 56.9062L13.0642 55.9571L12.3789 56.1843V56.9062H13.3789ZM14.7451 55.5527L15.7451 55.553V55.5527H14.7451ZM13.3789 54.1973H12.3789V54.9193L13.0643 55.1465L13.3789 54.1973ZM13.3789 52.8066L13.0642 51.8574L12.3789 52.0847V52.8066H13.3789ZM14.7451 51.4531L15.7451 51.4533V51.4531H14.7451ZM13.3789 50.0977H12.3789V50.8197L13.0643 51.0469L13.3789 50.0977ZM13.3789 48.7061L13.0642 47.7569L12.3789 47.9841V48.7061H13.3789ZM14.7451 47.3525L15.7451 47.3528V47.3525H14.7451ZM13.3789 45.9971H12.3789V46.7192L13.0643 46.9463L13.3789 45.9971ZM13.3789 44.6055L13.0642 43.6563L12.3789 43.8835V44.6055H13.3789ZM14.7451 43.252L15.7451 43.2522V43.252H14.7451ZM13.3789 41.8965H12.3789V42.6186L13.0643 42.8457L13.3789 41.8965ZM13.3789 40.5039L13.0642 39.5547L12.3789 39.7819V40.5039H13.3789ZM14.7451 39.1504L15.7451 39.1506V39.1504H14.7451ZM13.3789 37.7949H12.3789V38.517L13.0643 38.7442L13.3789 37.7949ZM13.3789 36.4033L13.0642 35.4541L12.3789 35.6813V36.4033H13.3789ZM14.7451 35.0498L15.7451 35.05V35.0498H14.7451ZM13.3789 33.6943H12.3789V34.4164L13.0643 34.6436L13.3789 33.6943ZM13.3789 32.3027L13.0642 31.3535L12.3789 31.5808V32.3027H13.3789ZM14.7451 30.9492L15.7451 30.9494V30.9492H14.7451ZM13.3789 29.5938H12.3789V30.3158L13.0643 30.543L13.3789 29.5938ZM13.3789 28.2021L13.0642 27.253L12.3789 27.4802V28.2021H13.3789ZM14.7451 26.8486L15.7451 26.8489V26.8486H14.7451ZM13.3789 25.4932H12.3789V26.2153L13.0643 26.4424L13.3789 25.4932ZM13.3789 24.1016L13.0642 23.1524L12.3789 23.3796V24.1016H13.3789ZM14.7451 22.748L15.7451 22.7483V22.748H14.7451ZM13.3789 21.3926H12.3789V22.1147L13.0643 22.3418L13.3789 21.3926ZM13.3789 20.0244L13.42 19.0253L12.3789 18.9825V20.0244H13.3789ZM14.0615 20.0391L14.0615 21.0391H14.0615V20.0391ZM26.3037 13.1758V12.1758H25.6546L25.3904 12.7686L26.3037 13.1758ZM314.747 13.1758L313.834 13.583C315.812 18.0209 321.037 21.039 326.988 21.0391V20.0391V19.0391C321.637 19.039 317.247 16.3268 315.66 12.7686L314.747 13.1758ZM326.988 20.0391V21.0391C327.73 21.0391 328.456 20.9903 329.163 20.9014L329.038 19.9092L328.913 18.917C328.285 18.9961 327.642 19.0391 326.988 19.0391V20.0391ZM329.038 19.9092H328.038V21.3926H329.038H330.038V19.9092H329.038ZM329.038 21.3926L328.724 20.4433C328.212 20.6128 327.727 20.8733 327.352 21.2365C326.974 21.6038 326.672 22.1188 326.672 22.7467L327.672 22.7471L328.672 22.7474C328.672 22.7962 328.645 22.7692 328.745 22.6717C328.85 22.5702 329.048 22.4429 329.353 22.3418L329.038 21.3926ZM327.672 22.7471H326.672C326.672 23.3752 326.974 23.8904 327.352 24.2577C327.727 24.6209 328.212 24.8813 328.723 25.0508L329.038 24.1016L329.353 23.1523C329.047 23.0512 328.85 22.9239 328.745 22.8224C328.645 22.7249 328.672 22.6981 328.672 22.7471H327.672ZM329.038 24.1016H328.038V25.4932H329.038H330.038V24.1016H329.038ZM329.038 25.4932L328.724 24.5439C328.212 24.7134 327.727 24.9738 327.352 25.3371C326.974 25.7044 326.672 26.2194 326.672 26.8473L327.672 26.8477L328.672 26.848C328.672 26.8967 328.645 26.8698 328.745 26.7723C328.85 26.6707 329.048 26.5435 329.353 26.4424L329.038 25.4932ZM327.672 26.8477H326.672C326.672 27.4758 326.974 27.991 327.352 28.3583C327.727 28.7215 328.212 28.9819 328.723 29.1514L329.038 28.2021L329.353 27.2529C329.047 27.1517 328.85 27.0245 328.745 26.923C328.645 26.8255 328.672 26.7987 328.672 26.8477H327.672ZM329.038 28.2021H328.038V29.5938H329.038H330.038V28.2021H329.038ZM329.038 29.5938L328.724 28.6445C328.212 28.8141 327.726 29.0749 327.352 29.4385C326.974 29.806 326.672 30.3213 326.672 30.9492H327.672H328.672C328.672 30.9979 328.645 30.9707 328.746 30.873C328.85 30.7713 329.048 30.644 329.353 30.543L329.038 29.5938ZM327.672 30.9492L326.672 30.9497C326.672 31.5778 326.974 32.0926 327.353 32.4596C327.727 32.8225 328.212 33.0825 328.723 33.2519L329.038 32.3027L329.353 31.3535C329.047 31.2523 328.85 31.1251 328.745 31.0237C328.645 30.9263 328.672 30.8997 328.672 30.9488L327.672 30.9492ZM329.038 32.3027H328.038V33.6943H329.038H330.038V32.3027H329.038ZM329.038 33.6943L328.724 32.7451C328.212 32.9147 327.726 33.1755 327.352 33.5391C326.974 33.9066 326.672 34.4219 326.672 35.0498H327.672H328.672C328.672 35.0985 328.645 35.0713 328.746 34.9736C328.85 34.8719 329.048 34.7446 329.353 34.6436L329.038 33.6943ZM327.672 35.0498L326.672 35.0503C326.672 35.6784 326.974 36.1932 327.353 36.5602C327.727 36.9231 328.212 37.1831 328.723 37.3525L329.038 36.4033L329.353 35.4541C329.047 35.3529 328.85 35.2257 328.745 35.1242C328.645 35.0269 328.672 35.0002 328.672 35.0493L327.672 35.0498ZM329.038 36.4033H328.038V37.7949H329.038H330.038V36.4033H329.038ZM329.038 37.7949L328.724 36.8457C328.212 37.0153 327.726 37.2761 327.352 37.6396C326.974 38.0072 326.672 38.5224 326.672 39.1504H327.672H328.672C328.672 39.1991 328.645 39.1719 328.746 39.0742C328.85 38.9725 329.048 38.8452 329.353 38.7442L329.038 37.7949ZM327.672 39.1504L326.672 39.1508C326.672 39.779 326.974 40.2938 327.353 40.6608C327.727 41.0237 328.212 41.2837 328.723 41.4531L329.038 40.5039L329.353 39.5547C329.047 39.4535 328.85 39.3263 328.745 39.2248C328.645 39.1274 328.672 39.1008 328.672 39.1499L327.672 39.1504ZM329.038 40.5039H328.038V41.8965H329.038H330.038V40.5039H329.038ZM329.038 41.8965L328.724 40.9473C328.212 41.1169 327.726 41.3776 327.352 41.7412C326.974 42.1087 326.672 42.624 326.672 43.252H327.672H328.672C328.672 43.3006 328.645 43.2735 328.746 43.1758C328.85 43.0741 329.048 42.9468 329.353 42.8457L329.038 41.8965ZM327.672 43.252L326.672 43.2524C326.672 43.8805 326.974 44.3954 327.353 44.7623C327.727 45.1252 328.212 45.3853 328.723 45.5547L329.038 44.6055L329.353 43.6563C329.047 43.555 328.85 43.4279 328.745 43.3264C328.645 43.229 328.672 43.2024 328.672 43.2515L327.672 43.252ZM329.038 44.6055H328.038V45.9971H329.038H330.038V44.6055H329.038ZM329.038 45.9971L328.724 45.0478C328.212 45.2175 327.726 45.4782 327.352 45.8418C326.974 46.2093 326.672 46.7246 326.672 47.3525H327.672H328.672C328.672 47.4012 328.645 47.3741 328.746 47.2763C328.85 47.1747 329.048 47.0473 329.353 46.9463L329.038 45.9971ZM327.672 47.3525L326.672 47.353C326.672 47.9811 326.974 48.496 327.353 48.8629C327.727 49.2258 328.212 49.4859 328.723 49.6553L329.038 48.7061L329.353 47.7569C329.047 47.6556 328.85 47.5284 328.745 47.427C328.645 47.3296 328.672 47.303 328.672 47.3521L327.672 47.3525ZM329.038 48.7061H328.038V50.0977H329.038H330.038V48.7061H329.038ZM329.038 50.0977L328.724 49.1484C328.212 49.318 327.726 49.5788 327.352 49.9424C326.974 50.3099 326.672 50.8252 326.672 51.4531H327.672H328.672C328.672 51.5018 328.645 51.4746 328.746 51.3769C328.85 51.2753 329.048 51.1479 329.353 51.0469L329.038 50.0977ZM327.672 51.4531L326.672 51.4536C326.672 52.0817 326.974 52.5965 327.353 52.9635C327.727 53.3264 328.212 53.5864 328.723 53.7558L329.038 52.8066L329.353 51.8574C329.047 51.7562 328.85 51.629 328.745 51.5276C328.645 51.4302 328.672 51.4036 328.672 51.4527L327.672 51.4531ZM329.038 52.8066H328.038V54.1973H329.038H330.038V52.8066H329.038ZM329.038 54.1973L328.724 53.248C328.212 53.4176 327.726 53.6784 327.352 54.042C326.974 54.4095 326.672 54.9248 326.672 55.5527H327.672H328.672C328.672 55.6014 328.645 55.5743 328.746 55.4765C328.85 55.3749 329.048 55.2475 329.353 55.1465L329.038 54.1973ZM327.672 55.5527L326.672 55.5532C326.672 56.1813 326.974 56.6961 327.353 57.0631C327.727 57.426 328.212 57.6861 328.723 57.8554L329.038 56.9062L329.353 55.9571C329.047 55.8558 328.85 55.7286 328.745 55.6272C328.645 55.5298 328.672 55.5032 328.672 55.5523L327.672 55.5527ZM329.038 56.9062H328.038V58.2988H329.038H330.038V56.9062H329.038ZM329.038 58.2988L328.724 57.3496C328.212 57.5192 327.726 57.78 327.352 58.1436C326.974 58.5111 326.672 59.0264 326.672 59.6543H327.672H328.672C328.672 59.703 328.645 59.6758 328.746 59.5781C328.85 59.4764 329.048 59.3491 329.353 59.2481L329.038 58.2988ZM327.672 59.6543L326.672 59.6548C326.672 60.2829 326.974 60.7977 327.353 61.1647C327.727 61.5276 328.212 61.7876 328.723 61.957L329.038 61.0078L329.353 60.0586C329.047 59.9574 328.85 59.8302 328.745 59.7287C328.645 59.6314 328.672 59.6047 328.672 59.6538L327.672 59.6543ZM329.038 61.0078H328.038V62.377H329.038H330.038V61.0078H329.038ZM329.038 62.377L328.997 61.3778C322.819 61.6317 317.512 65.1565 316.099 70.0971L317.061 70.3721L318.022 70.647C319.134 66.7566 323.509 63.605 329.079 63.3761L329.038 62.377ZM317.061 70.3721V69.3721H23.9893V70.3721V71.3721H317.061V70.3721ZM23.9893 70.3721L24.9507 70.0971C23.6489 65.5447 19.0342 62.1947 13.5037 61.499L13.3789 62.4912L13.2541 63.4834C18.2178 64.1078 22.0032 67.0638 23.0278 70.647L23.9893 70.3721ZM13.3789 62.4912H14.3789V61.0078H13.3789H12.3789V62.4912H13.3789ZM13.3789 61.0078L13.6936 61.957C14.2045 61.7876 14.6898 61.5276 15.0641 61.1647C15.4427 60.7977 15.745 60.2828 15.7451 59.6545L14.7451 59.6543L13.7451 59.6541C13.7451 59.6049 13.7725 59.6314 13.6721 59.7287C13.5674 59.8302 13.3697 59.9573 13.0642 60.0586L13.3789 61.0078ZM14.7451 59.6543H15.7451C15.7451 59.0264 15.4434 58.5111 15.0651 58.1436C14.6908 57.78 14.2053 57.5192 13.6935 57.3496L13.3789 58.2988L13.0643 59.2481C13.3692 59.3491 13.5668 59.4764 13.6715 59.5781C13.7721 59.6758 13.7451 59.7029 13.7451 59.6543H14.7451ZM13.3789 58.2988H14.3789V56.9062H13.3789H12.3789V58.2988H13.3789ZM13.3789 56.9062L13.6936 57.8554C14.2045 57.6861 14.6898 57.426 15.0641 57.0632C15.4427 56.6962 15.745 56.1813 15.7451 55.553L14.7451 55.5527L13.7451 55.5525C13.7451 55.5033 13.7725 55.5298 13.6721 55.6271C13.5674 55.7286 13.3697 55.8558 13.0642 55.9571L13.3789 56.9062ZM14.7451 55.5527H15.7451C15.7451 54.9248 15.4434 54.4095 15.0651 54.042C14.6908 53.6784 14.2053 53.4176 13.6935 53.248L13.3789 54.1973L13.0643 55.1465C13.3692 55.2475 13.5668 55.3749 13.6715 55.4765C13.7721 55.5742 13.7451 55.6014 13.7451 55.5527H14.7451ZM13.3789 54.1973H14.3789V52.8066H13.3789H12.3789V54.1973H13.3789ZM13.3789 52.8066L13.6936 53.7558C14.2045 53.5864 14.6898 53.3264 15.0641 52.9636C15.4427 52.5966 15.745 52.0817 15.7451 51.4533L14.7451 51.4531L13.7451 51.4529C13.7451 51.4037 13.7725 51.4302 13.6721 51.5275C13.5674 51.629 13.3697 51.7562 13.0642 51.8574L13.3789 52.8066ZM14.7451 51.4531H15.7451C15.7451 50.8252 15.4434 50.3099 15.0651 49.9424C14.6908 49.5788 14.2053 49.318 13.6935 49.1484L13.3789 50.0977L13.0643 51.0469C13.3692 51.1479 13.5668 51.2753 13.6715 51.3769C13.7721 51.4746 13.7451 51.5018 13.7451 51.4531H14.7451ZM13.3789 50.0977H14.3789V48.7061H13.3789H12.3789V50.0977H13.3789ZM13.3789 48.7061L13.6936 49.6552C14.2045 49.4859 14.6898 49.2258 15.0641 48.863C15.4427 48.496 15.745 47.9811 15.7451 47.3528L14.7451 47.3525L13.7451 47.3523C13.7451 47.3031 13.7725 47.3296 13.6721 47.4269C13.5674 47.5284 13.3697 47.6556 13.0642 47.7569L13.3789 48.7061ZM14.7451 47.3525H15.7451C15.7451 46.7246 15.4434 46.2093 15.0651 45.8418C14.6908 45.4782 14.2053 45.2174 13.6935 45.0478L13.3789 45.9971L13.0643 46.9463C13.3692 47.0473 13.5668 47.1747 13.6715 47.2763C13.7721 47.3741 13.7451 47.4012 13.7451 47.3525H14.7451ZM13.3789 45.9971H14.3789V44.6055H13.3789H12.3789V45.9971H13.3789ZM13.3789 44.6055L13.6936 45.5547C14.2045 45.3853 14.6898 45.1252 15.0641 44.7624C15.4427 44.3954 15.745 43.8805 15.7451 43.2522L14.7451 43.252L13.7451 43.2517C13.7451 43.2025 13.7725 43.229 13.6721 43.3264C13.5674 43.4278 13.3697 43.555 13.0642 43.6563L13.3789 44.6055ZM14.7451 43.252H15.7451C15.7451 42.624 15.4434 42.1088 15.0651 41.7412C14.6908 41.3776 14.2053 41.1169 13.6935 40.9473L13.3789 41.8965L13.0643 42.8457C13.3692 42.9468 13.5668 43.0741 13.6715 43.1758C13.7721 43.2735 13.7451 43.3006 13.7451 43.252H14.7451ZM13.3789 41.8965H14.3789V40.5039H13.3789H12.3789V41.8965H13.3789ZM13.3789 40.5039L13.6936 41.4531C14.2045 41.2837 14.6898 41.0237 15.0641 40.6608C15.4427 40.2938 15.745 39.7789 15.7451 39.1506L14.7451 39.1504L13.7451 39.1502C13.7451 39.1009 13.7725 39.1275 13.6721 39.2248C13.5674 39.3262 13.3697 39.4534 13.0642 39.5547L13.3789 40.5039ZM14.7451 39.1504H15.7451C15.7451 38.5225 15.4434 38.0072 15.0651 37.6396C14.6908 37.2761 14.2053 37.0153 13.6935 36.8457L13.3789 37.7949L13.0643 38.7442C13.3692 38.8452 13.5668 38.9725 13.6715 39.0742C13.7721 39.1719 13.7451 39.199 13.7451 39.1504H14.7451ZM13.3789 37.7949H14.3789V36.4033H13.3789H12.3789V37.7949H13.3789ZM13.3789 36.4033L13.6936 37.3525C14.2045 37.1831 14.6898 36.9231 15.0641 36.5602C15.4427 36.1933 15.745 35.6783 15.7451 35.05L14.7451 35.0498L13.7451 35.0496C13.7451 35.0004 13.7725 35.0269 13.6721 35.1242C13.5674 35.2257 13.3697 35.3529 13.0642 35.4541L13.3789 36.4033ZM14.7451 35.0498H15.7451C15.7451 34.4219 15.4434 33.9066 15.0651 33.5391C14.6908 33.1755 14.2053 32.9147 13.6935 32.7451L13.3789 33.6943L13.0643 34.6436C13.3692 34.7446 13.5668 34.8719 13.6715 34.9736C13.7721 35.0713 13.7451 35.0985 13.7451 35.0498H14.7451ZM13.3789 33.6943H14.3789V32.3027H13.3789H12.3789V33.6943H13.3789ZM13.3789 32.3027L13.6936 33.2519C14.2045 33.0825 14.6898 32.8225 15.0641 32.4596C15.4427 32.0927 15.745 31.5778 15.7451 30.9494L14.7451 30.9492L13.7451 30.949C13.7451 30.8998 13.7725 30.9263 13.6721 31.0236C13.5674 31.1251 13.3697 31.2523 13.0642 31.3535L13.3789 32.3027ZM14.7451 30.9492H15.7451C15.7451 30.3213 15.4434 29.806 15.0651 29.4385C14.6908 29.0749 14.2053 28.8141 13.6935 28.6445L13.3789 29.5938L13.0643 30.543C13.3692 30.644 13.5668 30.7713 13.6715 30.873C13.7721 30.9707 13.7451 30.9979 13.7451 30.9492H14.7451ZM13.3789 29.5938H14.3789V28.2021H13.3789H12.3789V29.5938H13.3789ZM13.3789 28.2021L13.6936 29.1513C14.2045 28.9819 14.6898 28.7219 15.0641 28.3591C15.4427 27.9921 15.745 27.4772 15.7451 26.8489L14.7451 26.8486L13.7451 26.8484C13.7451 26.7992 13.7725 26.8257 13.6721 26.923C13.5674 27.0245 13.3697 27.1517 13.0642 27.253L13.3789 28.2021ZM14.7451 26.8486H15.7451C15.7451 26.2207 15.4434 25.7054 15.0651 25.3379C14.6908 24.9743 14.2053 24.7135 13.6935 24.5439L13.3789 25.4932L13.0643 26.4424C13.3692 26.5434 13.5668 26.6708 13.6715 26.7724C13.7721 26.8701 13.7451 26.8973 13.7451 26.8486H14.7451ZM13.3789 25.4932H14.3789V24.1016H13.3789H12.3789V25.4932H13.3789ZM13.3789 24.1016L13.6936 25.0508C14.2045 24.8814 14.6898 24.6213 15.0641 24.2585C15.4427 23.8915 15.745 23.3766 15.7451 22.7483L14.7451 22.748L13.7451 22.7478C13.7451 22.6986 13.7725 22.7251 13.6721 22.8225C13.5674 22.9239 13.3697 23.0511 13.0642 23.1524L13.3789 24.1016ZM14.7451 22.748H15.7451C15.7451 22.1201 15.4434 21.6048 15.0651 21.2373C14.6908 20.8737 14.2053 20.613 13.6935 20.4433L13.3789 21.3926L13.0643 22.3418C13.3692 22.4429 13.5668 22.5702 13.6715 22.6719C13.7721 22.7696 13.7451 22.7967 13.7451 22.748H14.7451ZM13.3789 21.3926H14.3789V20.0244H13.3789H12.3789V21.3926H13.3789ZM13.3789 20.0244L13.3378 21.0236C13.5756 21.0333 13.817 21.0391 14.0615 21.0391L14.0615 20.0391L14.0615 19.0391C13.8481 19.0391 13.6343 19.0341 13.42 19.0253L13.3789 20.0244ZM14.0615 20.0391V21.0391C20.0133 21.0391 25.2385 18.0211 27.2171 13.583L26.3037 13.1758L25.3904 12.7686C23.8041 16.3269 19.4136 19.0391 14.0615 19.0391V20.0391ZM26.3037 13.1758V14.1758H314.747V13.1758V12.1758H26.3037V13.1758Z" fill="#FFD5D5" mask="url(#path-2-inside-1_557_95)"/>
<path d="M140.028 38.7295H137.392L141.409 27.0931H144.579L148.591 38.7295H145.954L143.039 29.7522H142.948L140.028 38.7295ZM139.863 34.1556H146.091V36.0761H139.863V34.1556ZM153.483 38.8999C152.589 38.8999 151.82 38.7106 151.176 38.3318C150.536 37.9492 150.043 37.4189 149.698 36.7409C149.358 36.0628 149.187 35.2825 149.187 34.3999C149.187 33.506 149.359 32.7219 149.704 32.0477C150.053 31.3696 150.547 30.8412 151.187 30.4624C151.827 30.0799 152.589 29.8886 153.471 29.8886C154.233 29.8886 154.899 30.0268 155.471 30.3034C156.043 30.5799 156.496 30.9681 156.829 31.4681C157.162 31.9681 157.346 32.5552 157.38 33.2295H155.096C155.032 32.7939 154.861 32.4435 154.585 32.1784C154.312 31.9094 153.954 31.7749 153.511 31.7749C153.136 31.7749 152.808 31.8772 152.528 32.0818C152.251 32.2825 152.036 32.5761 151.88 32.9624C151.725 33.3488 151.647 33.8166 151.647 34.3659C151.647 34.9227 151.723 35.3962 151.875 35.7863C152.03 36.1765 152.248 36.4738 152.528 36.6784C152.808 36.8829 153.136 36.9852 153.511 36.9852C153.787 36.9852 154.036 36.9284 154.255 36.8147C154.479 36.7011 154.662 36.5363 154.806 36.3204C154.954 36.1007 155.051 35.8374 155.096 35.5306H157.38C157.342 36.1973 157.161 36.7844 156.835 37.292C156.513 37.7958 156.068 38.1897 155.5 38.4738C154.931 38.7579 154.259 38.8999 153.483 38.8999ZM163.572 30.0022V31.8204H158.316V30.0022H163.572ZM159.51 27.9113H161.93V36.0477C161.93 36.2712 161.964 36.4454 162.032 36.5704C162.1 36.6916 162.195 36.7768 162.316 36.8261C162.441 36.8753 162.585 36.8999 162.748 36.8999C162.862 36.8999 162.975 36.8905 163.089 36.8715C163.203 36.8488 163.29 36.8318 163.35 36.8204L163.731 38.6215C163.61 38.6594 163.439 38.703 163.22 38.7522C163 38.8052 162.733 38.8374 162.419 38.8488C161.835 38.8715 161.324 38.7939 160.885 38.6159C160.449 38.4378 160.11 38.1613 159.867 37.7863C159.625 37.4113 159.506 36.9378 159.51 36.3659V27.9113ZM168.998 38.8999C168.116 38.8999 167.352 38.7124 166.708 38.3374C166.068 37.9587 165.574 37.4321 165.225 36.7579C164.877 36.0799 164.703 35.2939 164.703 34.3999C164.703 33.4984 164.877 32.7106 165.225 32.0363C165.574 31.3583 166.068 30.8318 166.708 30.4568C167.352 30.078 168.116 29.8886 168.998 29.8886C169.881 29.8886 170.642 30.078 171.282 30.4568C171.926 30.8318 172.422 31.3583 172.771 32.0363C173.119 32.7106 173.294 33.4984 173.294 34.3999C173.294 35.2939 173.119 36.0799 172.771 36.7579C172.422 37.4321 171.926 37.9587 171.282 38.3374C170.642 38.7124 169.881 38.8999 168.998 38.8999ZM169.01 37.0249C169.411 37.0249 169.746 36.9113 170.015 36.684C170.284 36.453 170.487 36.1386 170.623 35.7409C170.763 35.3431 170.833 34.8905 170.833 34.3829C170.833 33.8753 170.763 33.4227 170.623 33.0249C170.487 32.6272 170.284 32.3128 170.015 32.0818C169.746 31.8507 169.411 31.7352 169.01 31.7352C168.604 31.7352 168.263 31.8507 167.987 32.0818C167.714 32.3128 167.508 32.6272 167.367 33.0249C167.231 33.4227 167.163 33.8753 167.163 34.3829C167.163 34.8905 167.231 35.3431 167.367 35.7409C167.508 36.1386 167.714 36.453 167.987 36.684C168.263 36.9113 168.604 37.0249 169.01 37.0249ZM182.723 30.0022L179.671 38.7295H176.944L173.893 30.0022H176.45L178.262 36.2465H178.353L180.16 30.0022H182.723ZM187.657 38.8999C186.76 38.8999 185.987 38.7181 185.339 38.3545C184.695 37.9871 184.199 37.4681 183.85 36.7977C183.502 36.1234 183.328 35.3261 183.328 34.4056C183.328 33.5079 183.502 32.72 183.85 32.042C184.199 31.364 184.689 30.8356 185.322 30.4568C185.958 30.078 186.705 29.8886 187.561 29.8886C188.136 29.8886 188.672 29.9814 189.169 30.167C189.669 30.3488 190.104 30.6234 190.475 30.9909C190.85 31.3583 191.142 31.8204 191.35 32.3772C191.559 32.9302 191.663 33.578 191.663 34.3204V34.9852H184.294V33.4852H189.385C189.385 33.1367 189.309 32.828 189.157 32.559C189.006 32.2901 188.796 32.0799 188.527 31.9284C188.261 31.7731 187.953 31.6954 187.6 31.6954C187.233 31.6954 186.907 31.7806 186.623 31.9511C186.343 32.1177 186.123 32.3431 185.964 32.6272C185.805 32.9075 185.724 33.22 185.72 33.5647V34.9909C185.72 35.4227 185.799 35.7958 185.958 36.1102C186.121 36.4246 186.35 36.667 186.646 36.8374C186.941 37.0079 187.292 37.0931 187.697 37.0931C187.966 37.0931 188.212 37.0552 188.436 36.9795C188.659 36.9037 188.85 36.7901 189.01 36.6386C189.169 36.4871 189.29 36.3015 189.373 36.0818L191.612 36.2295C191.498 36.7674 191.265 37.2371 190.913 37.6386C190.564 38.0363 190.114 38.3469 189.561 38.5704C189.011 38.7901 188.377 38.8999 187.657 38.8999ZM195.109 30.0022L196.711 33.0534L198.353 30.0022H200.836L198.308 34.3659L200.904 38.7295H198.433L196.711 35.7124L195.018 38.7295H192.518L195.109 34.3659L192.609 30.0022H195.109Z" fill="white"/>
<rect x="282.122" y="22.4082" width="24.7278" height="0.755505" fill="white"/>
<rect x="282.122" y="23.9199" width="24.7278" height="2.51835" fill="white"/>
<rect x="282.122" y="32.9854" width="24.7278" height="1.51101" fill="white"/>
<rect x="282.122" y="42.3037" width="24.7278" height="1.51101" fill="white"/>
<rect x="282.122" y="44.8223" width="24.7278" height="3.27386" fill="white"/>
<rect x="282.122" y="28.4531" width="24.7278" height="1.00734" fill="white"/>
<rect x="282.122" y="35.252" width="24.7278" height="1.00734" fill="white"/>
<rect x="282.122" y="30.2158" width="24.7278" height="0.755505" fill="white"/>
<rect x="282.122" y="37.2666" width="24.7278" height="0.755505" fill="white"/>
<rect x="282.122" y="31.7266" width="24.7278" height="0.50367" fill="white"/>
<rect x="282.122" y="48.8516" width="24.7278" height="0.50367" fill="white"/>
<rect x="282.122" y="51.3701" width="24.7278" height="0.50367" fill="white"/>
<rect x="282.122" y="39.0293" width="24.7278" height="0.50367" fill="white"/>
<rect x="282.122" y="57.1611" width="24.7278" height="0.50367" fill="white"/>
<rect x="282.122" y="58.1689" width="24.7278" height="0.50367" fill="white"/>
<rect x="282.122" y="50.1094" width="24.7278" height="0.50367" fill="white"/>
<rect x="282.122" y="53.3838" width="24.7278" height="0.50367" fill="white"/>
<rect x="282.122" y="54.3916" width="24.7278" height="1.76285" fill="white"/>
<rect x="282.08" y="61.6035" width="24.6353" height="0.832373" fill="white"/>
<rect x="282.122" y="40.792" width="24.7278" height="0.50367" fill="white"/>
<rect x="282.122" y="62.9531" width="24.7278" height="1.76285" fill="white"/>
<path d="M143.535 58.4714L140.412 60.357C140.32 60.4023 140.235 60.4206 140.157 60.412C140.079 60.4028 140.003 60.3759 139.929 60.3312C139.854 60.2853 139.798 60.2205 139.76 60.1368C139.722 60.053 139.719 59.9616 139.75 59.8623L140.581 56.3269L137.832 53.9441C137.755 53.881 137.704 53.8056 137.679 53.7178C137.655 53.6301 137.66 53.5461 137.696 53.4658C137.731 53.3855 137.778 53.3195 137.837 53.2679C137.897 53.218 137.977 53.1842 138.078 53.1664L141.705 52.8499L143.119 49.5019C143.158 49.4073 143.214 49.339 143.288 49.2972C143.361 49.2553 143.444 49.2344 143.535 49.2344C143.626 49.2344 143.708 49.2553 143.782 49.2972C143.856 49.339 143.912 49.4073 143.95 49.5019L145.364 52.8499L148.99 53.1664C149.092 53.1836 149.172 53.2177 149.232 53.2688C149.292 53.3193 149.339 53.3849 149.375 53.4658C149.41 53.5461 149.415 53.6301 149.39 53.7178C149.366 53.8056 149.314 53.881 149.237 53.9441L146.489 56.3269L147.32 59.8623C147.352 59.9604 147.349 60.0516 147.31 60.1359C147.272 60.2202 147.215 60.285 147.141 60.3303C147.067 60.3762 146.991 60.4034 146.913 60.412C146.835 60.4206 146.75 60.4023 146.658 60.357L143.535 58.4714Z" fill="white"/>
<path d="M168.951 58.4714L165.828 60.357C165.736 60.4023 165.651 60.4206 165.573 60.412C165.495 60.4028 165.419 60.3759 165.345 60.3312C165.27 60.2853 165.214 60.2205 165.176 60.1368C165.138 60.053 165.135 59.9616 165.166 59.8623L165.997 56.3269L163.248 53.9441C163.171 53.881 163.12 53.8056 163.095 53.7178C163.071 53.6301 163.076 53.5461 163.112 53.4658C163.147 53.3855 163.194 53.3195 163.254 53.2679C163.313 53.218 163.393 53.1842 163.494 53.1664L167.121 52.8499L168.535 49.5019C168.574 49.4073 168.63 49.339 168.704 49.2972C168.777 49.2553 168.86 49.2344 168.951 49.2344C169.042 49.2344 169.124 49.2553 169.198 49.2972C169.272 49.339 169.328 49.4073 169.366 49.5019L170.78 52.8499L174.406 53.1664C174.508 53.1836 174.588 53.2177 174.648 53.2688C174.708 53.3193 174.755 53.3849 174.791 53.4658C174.826 53.5461 174.831 53.6301 174.806 53.7178C174.782 53.8056 174.731 53.881 174.653 53.9441L171.905 56.3269L172.736 59.8623C172.768 59.9604 172.765 60.0516 172.726 60.1359C172.688 60.2202 172.631 60.285 172.557 60.3303C172.483 60.3762 172.407 60.4034 172.329 60.412C172.251 60.4206 172.166 60.4023 172.074 60.357L168.951 58.4714Z" fill="white"/>
<path d="M194.368 58.4714L191.245 60.357C191.153 60.4023 191.068 60.4206 190.99 60.412C190.912 60.4028 190.836 60.3759 190.762 60.3312C190.687 60.2853 190.631 60.2205 190.593 60.1368C190.555 60.053 190.552 59.9616 190.583 59.8623L191.414 56.3269L188.665 53.9441C188.588 53.881 188.537 53.8056 188.512 53.7178C188.488 53.6301 188.493 53.5461 188.529 53.4658C188.564 53.3855 188.611 53.3195 188.67 53.2679C188.73 53.218 188.81 53.1842 188.911 53.1664L192.538 52.8499L193.952 49.5019C193.991 49.4073 194.047 49.339 194.121 49.2972C194.194 49.2553 194.277 49.2344 194.368 49.2344C194.459 49.2344 194.541 49.2553 194.615 49.2972C194.689 49.339 194.745 49.4073 194.783 49.5019L196.197 52.8499L199.823 53.1664C199.925 53.1836 200.005 53.2177 200.065 53.2688C200.125 53.3193 200.172 53.3849 200.208 53.4658C200.243 53.5461 200.248 53.6301 200.223 53.7178C200.199 53.8056 200.148 53.881 200.07 53.9441L197.322 56.3269L198.153 59.8623C198.185 59.9604 198.182 60.0516 198.143 60.1359C198.105 60.2202 198.048 60.285 197.974 60.3303C197.9 60.3762 197.824 60.4034 197.746 60.412C197.668 60.4206 197.583 60.4023 197.491 60.357L194.368 58.4714Z" fill="white"/>
<path d="M220.195 58.4714L217.072 60.357C216.981 60.4023 216.895 60.4206 216.817 60.412C216.739 60.4028 216.663 60.3759 216.589 60.3312C216.514 60.2853 216.458 60.2205 216.42 60.1368C216.382 60.053 216.379 59.9616 216.41 59.8623L217.241 56.3269L214.492 53.9441C214.415 53.881 214.364 53.8056 214.339 53.7178C214.315 53.6301 214.32 53.5461 214.356 53.4658C214.391 53.3855 214.439 53.3195 214.498 53.2679C214.557 53.218 214.638 53.1842 214.739 53.1664L218.365 52.8499L219.779 49.5019C219.818 49.4073 219.875 49.339 219.948 49.2972C220.021 49.2553 220.104 49.2344 220.195 49.2344C220.286 49.2344 220.369 49.2553 220.443 49.2972C220.517 49.339 220.572 49.4073 220.61 49.5019L222.025 52.8499L225.65 53.1664C225.752 53.1836 225.832 53.2177 225.892 53.2688C225.952 53.3193 225.999 53.3849 226.035 53.4658C226.07 53.5461 226.075 53.6301 226.05 53.7178C226.026 53.8056 225.975 53.881 225.897 53.9441L223.149 56.3269L223.98 59.8623C224.012 59.9604 224.009 60.0516 223.97 60.1359C223.932 60.2202 223.875 60.285 223.801 60.3303C223.727 60.3762 223.651 60.4034 223.573 60.412C223.495 60.4206 223.41 60.4023 223.318 60.357L220.195 58.4714Z" fill="white"/>
<path d="M118.163 58.4714L115.04 60.357C114.948 60.4023 114.863 60.4206 114.785 60.412C114.707 60.4028 114.631 60.3759 114.557 60.3312C114.482 60.2853 114.426 60.2205 114.388 60.1368C114.35 60.053 114.347 59.9616 114.378 59.8623L115.209 56.3269L112.46 53.9441C112.383 53.881 112.332 53.8056 112.307 53.7178C112.282 53.6301 112.288 53.5461 112.323 53.4658C112.359 53.3855 112.406 53.3195 112.465 53.2679C112.525 53.218 112.605 53.1842 112.706 53.1664L116.333 52.8499L117.747 49.5019C117.786 49.4073 117.842 49.339 117.916 49.2972C117.989 49.2553 118.071 49.2344 118.163 49.2344C118.254 49.2344 118.336 49.2553 118.41 49.2972C118.484 49.339 118.54 49.4073 118.578 49.5019L119.992 52.8499L123.618 53.1664C123.72 53.1836 123.8 53.2177 123.86 53.2688C123.919 53.3193 123.967 53.3849 124.003 53.4658C124.038 53.5461 124.043 53.6301 124.018 53.7178C123.993 53.8056 123.942 53.881 123.865 53.9441L121.117 56.3269L121.948 59.8623C121.98 59.9604 121.977 60.0516 121.938 60.1359C121.9 60.2202 121.843 60.285 121.769 60.3303C121.695 60.3762 121.619 60.4034 121.541 60.412C121.463 60.4206 121.378 60.4023 121.286 60.357L118.163 58.4714Z" fill="white"/>
<path d="M268.934 15.127V70.6861" stroke="white"/>
<path d="M265.725 14.5127V70.0718" stroke="white"/>
<path d="M50.0762 13.8984V69.4576" stroke="white"/>
<path d="M39.6309 34.0802H31.6309V33.1427L37.9121 28.7833V28.7052H31.6309V27.7364L39.6309 27.7364V28.6739L33.334 33.0489V33.127H39.6309V34.0802ZM31.5059 38.3311C31.5059 37.7895 31.6348 37.3142 31.8926 36.9054C32.1504 36.4991 32.5111 36.1814 32.9746 35.9522C33.4382 35.7257 33.9798 35.6124 34.5996 35.6124C35.2246 35.6124 35.7702 35.7257 36.2363 35.9522C36.7025 36.1814 37.0645 36.4991 37.3223 36.9054C37.5801 37.3142 37.709 37.7895 37.709 38.3311C37.709 38.8728 37.5801 39.3468 37.3223 39.753C37.0645 40.1619 36.7025 40.4796 36.2363 40.7061C35.7702 40.9353 35.2246 41.0499 34.5996 41.0499C33.9798 41.0499 33.4382 40.9353 32.9746 40.7061C32.5111 40.4796 32.1504 40.1619 31.8926 39.753C31.6348 39.3468 31.5059 38.8728 31.5059 38.3311ZM32.334 38.3311C32.334 38.7426 32.4395 39.0811 32.6504 39.3468C32.8613 39.6124 33.1387 39.809 33.4824 39.9366C33.8262 40.0642 34.1986 40.128 34.5996 40.128C35.0007 40.128 35.3743 40.0642 35.7207 39.9366C36.0671 39.809 36.347 39.6124 36.5605 39.3468C36.7741 39.0811 36.8809 38.7426 36.8809 38.3311C36.8809 37.9197 36.7741 37.5811 36.5605 37.3155C36.347 37.0499 36.0671 36.8533 35.7207 36.7257C35.3743 36.5981 35.0007 36.5343 34.5996 36.5343C34.1986 36.5343 33.8262 36.5981 33.4824 36.7257C33.1387 36.8533 32.8613 37.0499 32.6504 37.3155C32.4395 37.5811 32.334 37.9197 32.334 38.3311ZM31.5684 43.129C31.5684 42.9363 31.6374 42.7709 31.7754 42.6329C31.9134 42.4949 32.0788 42.4259 32.2715 42.4259C32.4642 42.4259 32.6296 42.4949 32.7676 42.6329C32.9056 42.7709 32.9746 42.9363 32.9746 43.129C32.9746 43.3217 32.9056 43.4871 32.7676 43.6251C32.6296 43.7631 32.4642 43.8321 32.2715 43.8321C32.1439 43.8321 32.0267 43.7996 31.9199 43.7345C31.8132 43.672 31.7272 43.5873 31.6621 43.4806C31.5996 43.3764 31.5684 43.2592 31.5684 43.129ZM31.5215 47.8009C31.5215 47.2123 31.6816 46.711 32.002 46.297C32.3249 45.8829 32.7923 45.5665 33.4043 45.3477C34.0189 45.129 34.7611 45.0196 35.6309 45.0196C36.4954 45.0196 37.2337 45.129 37.8457 45.3477C38.4603 45.5691 38.929 45.8868 39.252 46.3009C39.5775 46.7175 39.7402 47.2175 39.7402 47.8009C39.7402 48.3842 39.5775 48.8829 39.252 49.297C38.929 49.7136 38.4603 50.0313 37.8457 50.2501C37.2337 50.4714 36.4954 50.5821 35.6309 50.5821C34.7611 50.5821 34.0189 50.4727 33.4043 50.254C32.7923 50.0352 32.3249 49.7188 32.002 49.3048C31.6816 48.8907 31.5215 48.3894 31.5215 47.8009ZM32.3809 47.8009C32.3809 48.3842 32.6621 48.8373 33.2246 49.1602C33.7871 49.4832 34.5892 49.6446 35.6309 49.6446C36.3236 49.6446 36.9134 49.5704 37.4004 49.422C37.8874 49.2761 38.2585 49.0652 38.5137 48.7892C38.7689 48.5157 38.8965 48.1863 38.8965 47.8009C38.8965 47.2227 38.6113 46.7709 38.041 46.4454C37.4733 46.1199 36.6699 45.9571 35.6309 45.9571C34.9382 45.9571 34.3496 46.03 33.8652 46.1759C33.3809 46.3217 33.0124 46.5313 32.7598 46.8048C32.5072 47.0808 32.3809 47.4128 32.3809 47.8009ZM31.6309 52.0665H32.334L35.2246 54.7071C35.5632 55.017 35.8574 55.2722 36.1074 55.4727C36.36 55.6733 36.597 55.8217 36.8184 55.9181C37.0423 56.017 37.2767 56.0665 37.5215 56.0665C37.8027 56.0665 38.0462 55.9988 38.252 55.8634C38.4577 55.7306 38.6165 55.5483 38.7285 55.3165C38.8405 55.0847 38.8965 54.8243 38.8965 54.5352C38.8965 54.228 38.8327 53.9597 38.7051 53.7306C38.5801 53.504 38.4043 53.3282 38.1777 53.2032C37.9512 53.0808 37.6855 53.0196 37.3809 53.0196V52.0977C37.8496 52.0977 38.2611 52.2058 38.6152 52.422C38.9694 52.6381 39.2454 52.9324 39.4434 53.3048C39.6413 53.6798 39.7402 54.1003 39.7402 54.5665C39.7402 55.0352 39.6413 55.4506 39.4434 55.8126C39.2454 56.1746 38.9785 56.4584 38.6426 56.6642C38.3066 56.8699 37.9329 56.9727 37.5215 56.9727C37.2272 56.9727 36.9395 56.9194 36.6582 56.8126C36.3796 56.7084 36.0684 56.5261 35.7246 56.2657C35.3835 56.0079 34.9668 55.6498 34.4746 55.1915L32.5527 53.3946H32.4902V57.1134H31.6309V52.0665Z" fill="white"/>
<defs>
<filter id="filter0_d_557_95" x="0" y="0.754883" width="344.983" height="85.7549" filterUnits="userSpaceOnUse" color-interpolation-filters="sRGB">
<feFlood flood-opacity="0" result="BackgroundImageFix"/>
<feColorMatrix in="SourceAlpha" type="matrix" values="0 0 0 0 0 0 0 0 0 0 0 0 0 0 0 0 0 0 127 0" result="hardAlpha"/>
<feOffset dy="2"/>
<feGaussianBlur stdDeviation="4.5"/>
<feComposite in2="hardAlpha" operator="out"/>
<feColorMatrix type="matrix" values="0 0 0 0 0 0 0 0 0 0 0 0 0 0 0 0 0 0 0.25 0"/>
<feBlend mode="normal" in2="BackgroundImageFix" result="effect1_dropShadow_557_95"/>
<feBlend mode="normal" in="SourceGraphic" in2="effect1_dropShadow_557_95" result="shape"/>
</filter>
<linearGradient id="paint0_linear_557_95" x1="9" y1="41.6323" x2="335.983" y2="41.6323" gradientUnits="userSpaceOnUse">
<stop stop-color="#471B1C"/>
<stop offset="0.346154" stop-color="#5A130F"/>
<stop offset="0.716346" stop-color="#7E0001"/>
<stop offset="1" stop-color="#FDA237"/>
</linearGradient>
</defs>
</svg>
