<svg width="345" height="86" viewBox="0 0 345 86" fill="none" xmlns="http://www.w3.org/2000/svg">
<g filter="url(#filter0_d_557_193)">
<path d="M321.179 7.01953C323.025 11.7563 328.004 15.1504 333.859 15.1504C334.582 15.1504 335.292 15.0976 335.983 14.998V16.7559C335.138 17.0766 334.568 17.6743 334.568 18.3604C334.569 19.0461 335.138 19.6422 335.983 19.9629V21.6133C335.138 21.934 334.568 22.5317 334.568 23.2178C334.569 23.9036 335.138 24.4996 335.983 24.8203V26.4707C335.138 26.7914 334.568 27.3892 334.568 28.0752C334.569 28.761 335.138 29.357 335.983 29.6777V31.3291C335.138 31.6498 334.568 32.2476 334.568 32.9336C334.569 33.6194 335.138 34.2154 335.983 34.5361V36.1865C335.138 36.5072 334.568 37.105 334.568 37.791C334.569 38.4768 335.138 39.0729 335.983 39.3936V41.0439C335.138 41.3646 334.568 41.9624 334.568 42.6484C334.569 43.3342 335.138 43.9303 335.983 44.251V45.9023C335.138 46.223 334.568 46.8208 334.568 47.5068C334.569 48.1926 335.138 48.7887 335.983 49.1094V50.7607C335.138 51.0814 334.568 51.6792 334.568 52.3652C334.569 53.051 335.138 53.6471 335.983 53.9678V55.6182C335.138 55.9389 334.568 56.5366 334.568 57.2227C334.569 57.9084 335.138 58.5045 335.983 58.8252V60.4766C335.138 60.7973 334.568 61.395 334.568 62.0811C334.569 62.7668 335.138 63.3629 335.983 63.6836V65.3047C329.899 65.5901 324.885 69.5445 323.576 74.7744H19.9902C18.7847 69.9567 14.4343 66.2225 9 65.4404V63.6846C9.84586 63.364 10.4158 62.7671 10.416 62.0811C10.416 61.3947 9.84623 60.7962 9 60.4756V58.8262C9.84586 58.5056 10.4158 57.9087 10.416 57.2227C10.416 56.5363 9.84623 55.9378 9 55.6172V53.9688C9.84586 53.6482 10.4158 53.0513 10.416 52.3652C10.416 51.6789 9.84623 51.0804 9 50.7598V49.1104C9.84586 48.7898 10.4158 48.1929 10.416 47.5068C10.416 46.8205 9.84623 46.222 9 45.9014V44.252C9.84586 43.9314 10.4158 43.3345 10.416 42.6484C10.416 41.9621 9.84623 41.3636 9 41.043V39.3945C9.84586 39.0739 10.4158 38.4771 10.416 37.791C10.416 37.1047 9.84623 36.5061 9 36.1855V34.5371C9.84586 34.2165 10.4158 33.6197 10.416 32.9336C10.416 32.2473 9.84623 31.6487 9 31.3281V29.6787C9.84586 29.3581 10.4158 28.7613 10.416 28.0752C10.416 27.3889 9.84623 26.7903 9 26.4697V24.8213C9.84586 24.5007 10.4158 23.9039 10.416 23.2178C10.416 22.5314 9.84623 21.9329 9 21.6123V19.9639C9.84586 19.6433 10.4158 19.0464 10.416 18.3604C10.416 17.674 9.84623 17.0755 9 16.7549V15.1338C9.23415 15.1448 9.46987 15.1504 9.70703 15.1504C15.5622 15.1504 20.5427 11.7565 22.3887 7.01953H321.179Z" fill="url(#paint0_linear_557_193)"/>
</g>
<mask id="path-2-inside-1_557_193" fill="white">
<path d="M316.03 12.4404C317.813 16.4385 322.62 19.3036 328.271 19.3037C328.969 19.3037 329.654 19.2579 330.322 19.1738V20.6582C329.505 20.9288 328.955 21.4342 328.955 22.0137C328.955 22.5929 329.505 23.0966 330.322 23.3672V24.7578C329.505 25.0284 328.955 25.5338 328.955 26.1133C328.955 26.6926 329.505 27.1962 330.322 27.4668V28.8594C329.505 29.13 328.955 29.6354 328.955 30.2148C328.955 30.7941 329.505 31.2978 330.322 31.5684V32.959C329.505 33.2296 328.955 33.735 328.955 34.3145C328.955 34.8937 329.505 35.3974 330.322 35.668V37.0596C329.505 37.3302 328.955 37.8356 328.955 38.415C328.955 38.9943 329.505 39.498 330.322 39.7686V41.1611C329.505 41.4317 328.955 41.9371 328.955 42.5166C328.955 43.0959 329.505 43.5995 330.322 43.8701V45.2617C329.505 45.5323 328.955 46.0377 328.955 46.6172C328.955 47.1965 329.505 47.7001 330.322 47.9707V49.3623C329.505 49.6329 328.955 50.1383 328.955 50.7178C328.955 51.297 329.505 51.8007 330.322 52.0713V53.4629C329.505 53.7335 328.955 54.2389 328.955 54.8184C328.955 55.3976 329.505 55.9013 330.322 56.1719V57.5635C329.505 57.8341 328.955 58.3395 328.955 58.9189C328.955 59.4982 329.505 60.0019 330.322 60.2725V61.6426C324.448 61.8836 319.607 65.2214 318.344 69.6367H25.2715C24.1078 65.5698 19.9091 62.4181 14.6631 61.7578V60.2725C15.4796 60.0018 16.0293 59.4981 16.0293 58.9189C16.0293 58.3397 15.4797 57.8351 14.6631 57.5645V56.1719C15.4795 55.9012 16.0292 55.3974 16.0293 54.8184C16.0293 54.2391 15.4798 53.7336 14.6631 53.4629V52.0713C15.4795 51.8006 16.0292 51.2969 16.0293 50.7178C16.0293 50.1385 15.4798 49.633 14.6631 49.3623V47.9707C15.4795 47.7 16.0292 47.1963 16.0293 46.6172C16.0293 46.0379 15.4798 45.5324 14.6631 45.2617V43.8701C15.4795 43.5995 16.0292 43.0957 16.0293 42.5166C16.0293 41.9373 15.4798 41.4318 14.6631 41.1611V39.7686C15.4795 39.4979 16.0292 38.9941 16.0293 38.415C16.0293 37.8358 15.4798 37.3302 14.6631 37.0596V35.668C15.4795 35.3973 16.0292 34.8935 16.0293 34.3145C16.0293 33.7352 15.4798 33.2296 14.6631 32.959V31.5684C15.4795 31.2977 16.0292 30.7939 16.0293 30.2148C16.0293 29.6356 15.4798 29.13 14.6631 28.8594V27.4668C15.4795 27.1961 16.0292 26.6924 16.0293 26.1133C16.0293 25.534 15.4798 25.0285 14.6631 24.7578V23.3672C15.4795 23.0965 16.0292 22.5928 16.0293 22.0137C16.0293 21.4344 15.4798 20.9289 14.6631 20.6582V19.2891C14.8891 19.2984 15.1167 19.3037 15.3457 19.3037C20.9976 19.3037 25.8055 16.4387 27.5879 12.4404H316.03Z"/>
</mask>
<path d="M316.03 12.4404L316.944 12.0332L316.679 11.4404H316.03V12.4404ZM328.271 19.3037V20.3037V19.3037ZM330.322 19.1738H331.322V18.0401L330.197 18.1817L330.322 19.1738ZM330.322 20.6582L330.637 21.6075L331.322 21.3805V20.6582H330.322ZM328.955 22.0137H327.955V22.0139L328.955 22.0137ZM330.322 23.3672H331.322V22.645L330.637 22.4179L330.322 23.3672ZM330.322 24.7578L330.637 25.7071L331.322 25.4801V24.7578H330.322ZM328.955 26.1133H327.955V26.1135L328.955 26.1133ZM330.322 27.4668H331.322V26.7446L330.637 26.5175L330.322 27.4668ZM330.322 28.8594L330.637 29.8087L331.322 29.5816V28.8594H330.322ZM328.955 30.2148H327.955V30.2151L328.955 30.2148ZM330.322 31.5684H331.322V30.8462L330.637 30.6191L330.322 31.5684ZM330.322 32.959L330.637 33.9083L331.322 33.6812V32.959H330.322ZM328.955 34.3145H327.955V34.3147L328.955 34.3145ZM330.322 35.668H331.322V34.9458L330.637 34.7187L330.322 35.668ZM330.322 37.0596L330.637 38.0089L331.322 37.7818V37.0596H330.322ZM328.955 38.415H327.955V38.4153L328.955 38.415ZM330.322 39.7686H331.322V39.0464L330.637 38.8193L330.322 39.7686ZM330.322 41.1611L330.637 42.1104L331.322 41.8834V41.1611H330.322ZM328.955 42.5166H327.955V42.5168L328.955 42.5166ZM330.322 43.8701H331.322V43.148L330.637 42.9209L330.322 43.8701ZM330.322 45.2617L330.637 46.211L331.322 45.984V45.2617H330.322ZM328.955 46.6172H327.955V46.6174L328.955 46.6172ZM330.322 47.9707H331.322V47.2486L330.637 47.0214L330.322 47.9707ZM330.322 49.3623L330.637 50.3116L331.322 50.0846V49.3623H330.322ZM328.955 50.7178H327.955V50.718L328.955 50.7178ZM330.322 52.0713H331.322V51.3491L330.637 51.122L330.322 52.0713ZM330.322 53.4629L330.637 54.4122L331.322 54.1851V53.4629H330.322ZM328.955 54.8184H327.955V54.8186L328.955 54.8184ZM330.322 56.1719H331.322V55.4497L330.637 55.2226L330.322 56.1719ZM330.322 57.5635L330.637 58.5128L331.322 58.2857V57.5635H330.322ZM328.955 58.9189H327.955V58.9192L328.955 58.9189ZM330.322 60.2725H331.322V59.5503L330.637 59.3232L330.322 60.2725ZM330.322 61.6426L330.363 62.6417L331.322 62.6024V61.6426H330.322ZM318.344 69.6367V70.6367H319.098L319.305 69.9117L318.344 69.6367ZM25.2715 69.6367L24.3101 69.9118L24.5175 70.6367H25.2715V69.6367ZM14.6631 61.7578H13.6631V62.6398L14.5382 62.75L14.6631 61.7578ZM14.6631 60.2725L14.3484 59.3233L13.6631 59.5505V60.2725H14.6631ZM16.0293 58.9189H17.0293V58.9189L16.0293 58.9189ZM14.6631 57.5645H13.6631V58.2865L14.3485 58.5137L14.6631 57.5645ZM14.6631 56.1719L14.3484 55.2227L13.6631 55.4499V56.1719H14.6631ZM16.0293 54.8184L17.0293 54.8186V54.8184H16.0293ZM14.6631 53.4629H13.6631V54.185L14.3485 54.4121L14.6631 53.4629ZM14.6631 52.0713L14.3484 51.1221L13.6631 51.3493V52.0713H14.6631ZM16.0293 50.7178L17.0293 50.718V50.7178H16.0293ZM14.6631 49.3623H13.6631V50.0844L14.3485 50.3115L14.6631 49.3623ZM14.6631 47.9707L14.3484 47.0215L13.6631 47.2487V47.9707H14.6631ZM16.0293 46.6172L17.0293 46.6174V46.6172H16.0293ZM14.6631 45.2617H13.6631V45.9838L14.3485 46.211L14.6631 45.2617ZM14.6631 43.8701L14.3484 42.9209L13.6631 43.1481V43.8701H14.6631ZM16.0293 42.5166L17.0293 42.5168V42.5166H16.0293ZM14.6631 41.1611H13.6631V41.8832L14.3485 42.1104L14.6631 41.1611ZM14.6631 39.7686L14.3484 38.8194L13.6631 39.0466V39.7686H14.6631ZM16.0293 38.415L17.0293 38.4153V38.415H16.0293ZM14.6631 37.0596H13.6631V37.7817L14.3485 38.0088L14.6631 37.0596ZM14.6631 35.668L14.3484 34.7188L13.6631 34.946V35.668H14.6631ZM16.0293 34.3145L17.0293 34.3147V34.3145H16.0293ZM14.6631 32.959H13.6631V33.6811L14.3485 33.9082L14.6631 32.959ZM14.6631 31.5684L14.3484 30.6192L13.6631 30.8464V31.5684H14.6631ZM16.0293 30.2148L17.0293 30.2151V30.2148H16.0293ZM14.6631 28.8594H13.6631V29.5815L14.3485 29.8086L14.6631 28.8594ZM14.6631 27.4668L14.3484 26.5176L13.6631 26.7448V27.4668H14.6631ZM16.0293 26.1133L17.0293 26.1135V26.1133H16.0293ZM14.6631 24.7578H13.6631V25.4799L14.3485 25.707L14.6631 24.7578ZM14.6631 23.3672L14.3484 22.418L13.6631 22.6452V23.3672H14.6631ZM16.0293 22.0137L17.0293 22.0139V22.0137H16.0293ZM14.6631 20.6582H13.6631V21.3803L14.3485 21.6074L14.6631 20.6582ZM14.6631 19.2891L14.7041 18.2899L13.6631 18.2471V19.2891H14.6631ZM15.3457 19.3037L15.3457 20.3037H15.3457V19.3037ZM27.5879 12.4404V11.4404H26.9388L26.6745 12.0333L27.5879 12.4404ZM316.03 12.4404L315.117 12.8476C317.095 17.2855 322.32 20.3036 328.271 20.3037V19.3037V18.3037C322.92 18.3036 318.53 15.5915 316.944 12.0332L316.03 12.4404ZM328.271 19.3037V20.3037C329.013 20.3037 329.74 20.255 330.447 20.166L330.322 19.1738L330.197 18.1817C329.569 18.2608 328.926 18.3037 328.271 18.3037V19.3037ZM330.322 19.1738H329.322V20.6582H330.322H331.322V19.1738H330.322ZM330.322 20.6582L330.008 19.7089C329.496 19.8784 329.01 20.1391 328.636 20.5025C328.257 20.87 327.955 21.3854 327.955 22.0137H328.955H329.955C329.955 22.0625 329.928 22.0355 330.029 21.9377C330.134 21.8359 330.331 21.7086 330.637 21.6075L330.322 20.6582ZM328.955 22.0137L327.955 22.0139C327.955 22.6426 328.258 23.1576 328.637 23.5245C329.011 23.8873 329.497 24.1472 330.008 24.3164L330.322 23.3672L330.637 22.4179C330.331 22.3166 330.133 22.1894 330.028 22.0879C329.928 21.9905 329.955 21.964 329.955 22.0134L328.955 22.0137ZM330.322 23.3672H329.322V24.7578H330.322H331.322V23.3672H330.322ZM330.322 24.7578L330.008 23.8085C329.496 23.978 329.01 24.2387 328.636 24.6021C328.257 24.9696 327.955 25.485 327.955 26.1133H328.955H329.955C329.955 26.1621 329.928 26.1351 330.029 26.0373C330.134 25.9356 330.331 25.8082 330.637 25.7071L330.322 24.7578ZM328.955 26.1133L327.955 26.1135C327.955 26.7422 328.258 27.2572 328.637 27.6241C329.011 27.9869 329.497 28.2468 330.008 28.4161L330.322 27.4668L330.637 26.5175C330.331 26.4162 330.133 26.289 330.028 26.1875C329.928 26.0901 329.955 26.0636 329.955 26.1131L328.955 26.1133ZM330.322 27.4668H329.322V28.8594H330.322H331.322V27.4668H330.322ZM330.322 28.8594L330.008 27.9101C329.496 28.0796 329.01 28.3402 328.636 28.7037C328.257 29.0712 327.955 29.5865 327.955 30.2148H328.955H329.955C329.955 30.2637 329.928 30.2366 330.029 30.1389C330.134 30.0371 330.331 29.9098 330.637 29.8087L330.322 28.8594ZM328.955 30.2148L327.955 30.2151C327.955 30.8438 328.258 31.3588 328.637 31.7257C329.011 32.0884 329.497 32.3483 330.008 32.5176L330.322 31.5684L330.637 30.6191C330.331 30.5178 330.133 30.3906 330.028 30.289C329.928 30.1916 329.955 30.1652 329.955 30.2146L328.955 30.2148ZM330.322 31.5684H329.322V32.959H330.322H331.322V31.5684H330.322ZM330.322 32.959L330.008 32.0097C329.496 32.1792 329.01 32.4398 328.636 32.8033C328.257 33.1708 327.955 33.6861 327.955 34.3145H328.955H329.955C329.955 34.3633 329.928 34.3362 330.029 34.2385C330.134 34.1367 330.331 34.0094 330.637 33.9083L330.322 32.959ZM328.955 34.3145L327.955 34.3147C327.955 34.9434 328.258 35.4584 328.637 35.8253C329.011 36.188 329.497 36.4479 330.008 36.6172L330.322 35.668L330.637 34.7187C330.331 34.6174 330.133 34.4902 330.028 34.3887C329.928 34.2912 329.955 34.2648 329.955 34.3142L328.955 34.3145ZM330.322 35.668H329.322V37.0596H330.322H331.322V35.668H330.322ZM330.322 37.0596L330.008 36.1103C329.496 36.2798 329.01 36.5404 328.636 36.9039C328.257 37.2714 327.955 37.7867 327.955 38.415H328.955H329.955C329.955 38.4639 329.928 38.4368 330.029 38.3391C330.134 38.2373 330.331 38.11 330.637 38.0089L330.322 37.0596ZM328.955 38.415L327.955 38.4153C327.955 39.044 328.258 39.559 328.637 39.9259C329.011 40.2886 329.497 40.5485 330.008 40.7178L330.322 39.7686L330.637 38.8193C330.331 38.718 330.133 38.5907 330.028 38.4892C329.928 38.3918 329.955 38.3654 329.955 38.4148L328.955 38.415ZM330.322 39.7686H329.322V41.1611H330.322H331.322V39.7686H330.322ZM330.322 41.1611L330.008 40.2118C329.496 40.3813 329.01 40.642 328.636 41.0055C328.257 41.3729 327.955 41.8883 327.955 42.5166H328.955H329.955C329.955 42.5655 329.928 42.5384 330.029 42.4406C330.134 42.3389 330.331 42.2115 330.637 42.1104L330.322 41.1611ZM328.955 42.5166L327.955 42.5168C327.955 43.1455 328.258 43.6605 328.637 44.0274C329.011 44.3902 329.497 44.6501 330.008 44.8194L330.322 43.8701L330.637 42.9209C330.331 42.8195 330.133 42.6923 330.028 42.5908C329.928 42.4934 329.955 42.467 329.955 42.5164L328.955 42.5166ZM330.322 43.8701H329.322V45.2617H330.322H331.322V43.8701H330.322ZM330.322 45.2617L330.008 44.3124C329.496 44.4819 329.01 44.7426 328.636 45.1061C328.257 45.4735 327.955 45.9889 327.955 46.6172H328.955H329.955C329.955 46.666 329.928 46.639 330.029 46.5412C330.134 46.4395 330.331 46.3121 330.637 46.211L330.322 45.2617ZM328.955 46.6172L327.955 46.6174C327.955 47.2461 328.258 47.7611 328.637 48.128C329.011 48.4908 329.497 48.7507 330.008 48.92L330.322 47.9707L330.637 47.0214C330.331 46.9201 330.133 46.7929 330.028 46.6914C329.928 46.594 329.955 46.5675 329.955 46.617L328.955 46.6172ZM330.322 47.9707H329.322V49.3623H330.322H331.322V47.9707H330.322ZM330.322 49.3623L330.008 48.413C329.496 48.5825 329.01 48.8432 328.636 49.2066C328.257 49.5741 327.955 50.0895 327.955 50.7178H328.955H329.955C329.955 50.7666 329.928 50.7396 330.029 50.6418C330.134 50.5401 330.331 50.4127 330.637 50.3116L330.322 49.3623ZM328.955 50.7178L327.955 50.718C327.955 51.3467 328.258 51.8617 328.637 52.2286C329.011 52.5914 329.497 52.8513 330.008 53.0205L330.322 52.0713L330.637 51.122C330.331 51.0207 330.133 50.8935 330.028 50.792C329.928 50.6946 329.955 50.6681 329.955 50.7176L328.955 50.7178ZM330.322 52.0713H329.322V53.4629H330.322H331.322V52.0713H330.322ZM330.322 53.4629L330.008 52.5136C329.496 52.6831 329.01 52.9437 328.636 53.3072C328.257 53.6747 327.955 54.19 327.955 54.8184H328.955H329.955C329.955 54.8672 329.928 54.8401 330.029 54.7424C330.134 54.6406 330.331 54.5133 330.637 54.4122L330.322 53.4629ZM328.955 54.8184L327.955 54.8186C327.955 55.4473 328.258 55.9623 328.637 56.3292C329.011 56.692 329.497 56.9518 330.008 57.1211L330.322 56.1719L330.637 55.2226C330.331 55.1213 330.133 54.9941 330.028 54.8926C329.928 54.7952 329.955 54.7687 329.955 54.8181L328.955 54.8184ZM330.322 56.1719H329.322V57.5635H330.322H331.322V56.1719H330.322ZM330.322 57.5635L330.008 56.6142C329.496 56.7837 329.01 57.0443 328.636 57.4078C328.257 57.7753 327.955 58.2906 327.955 58.9189H328.955H329.955C329.955 58.9678 329.928 58.9407 330.029 58.843C330.134 58.7412 330.331 58.6139 330.637 58.5128L330.322 57.5635ZM328.955 58.9189L327.955 58.9192C327.955 59.5479 328.258 60.0629 328.637 60.4298C329.011 60.7925 329.497 61.0524 330.008 61.2217L330.322 60.2725L330.637 59.3232C330.331 59.2219 330.133 59.0947 330.028 58.9931C329.928 58.8957 329.955 58.8693 329.955 58.9187L328.955 58.9189ZM330.322 60.2725H329.322V61.6426H330.322H331.322V60.2725H330.322ZM330.322 61.6426L330.281 60.6434C324.104 60.8969 318.796 64.4213 317.382 69.3617L318.344 69.6367L319.305 69.9117C320.418 66.0216 324.793 62.8703 330.363 62.6417L330.322 61.6426ZM318.344 69.6367V68.6367H25.2715V69.6367V70.6367H318.344V69.6367ZM25.2715 69.6367L26.2329 69.3616C24.9306 64.8102 20.3173 61.4615 14.788 60.7656L14.6631 61.7578L14.5382 62.75C19.5009 63.3746 23.285 66.3294 24.3101 69.9118L25.2715 69.6367ZM14.6631 61.7578H15.6631V60.2725H14.6631H13.6631V61.7578H14.6631ZM14.6631 60.2725L14.9778 61.2217C15.4887 61.0523 15.974 60.7923 16.3484 60.4294C16.727 60.0624 17.0293 59.5474 17.0293 58.9189H16.0293H15.0293C15.0293 58.8697 15.0567 58.8961 14.9564 58.9933C14.8517 59.0948 14.654 59.222 14.3484 59.3233L14.6631 60.2725ZM16.0293 58.9189L17.0293 58.9189C17.0293 58.2908 16.7273 57.7756 16.3488 57.4083C15.9745 57.0451 15.4891 56.7847 14.9777 56.6152L14.6631 57.5645L14.3485 58.5137C14.6537 58.6148 14.8514 58.7421 14.956 58.8436C15.0565 58.9411 15.0293 58.9679 15.0293 58.919L16.0293 58.9189ZM14.6631 57.5645H15.6631V56.1719H14.6631H13.6631V57.5645H14.6631ZM14.6631 56.1719L14.9778 57.1211C15.4887 56.9517 15.974 56.6917 16.3483 56.3288C16.7269 55.9618 17.0292 55.4469 17.0293 54.8186L16.0293 54.8184L15.0293 54.8181C15.0293 54.7689 15.0567 54.7954 14.9563 54.8928C14.8516 54.9942 14.6538 55.1214 14.3484 55.2227L14.6631 56.1719ZM16.0293 54.8184H17.0293C17.0293 54.1904 16.7276 53.6752 16.3493 53.3076C15.975 52.944 15.4895 52.6833 14.9777 52.5137L14.6631 53.4629L14.3485 54.4121C14.6534 54.5132 14.851 54.6405 14.9557 54.7422C15.0563 54.8399 15.0293 54.867 15.0293 54.8184H16.0293ZM14.6631 53.4629H15.6631V52.0713H14.6631H13.6631V53.4629H14.6631ZM14.6631 52.0713L14.9778 53.0205C15.4887 52.8511 15.974 52.5911 16.3483 52.2282C16.7269 51.8612 17.0292 51.3463 17.0293 50.718L16.0293 50.7178L15.0293 50.7176C15.0293 50.6683 15.0567 50.6948 14.9563 50.7922C14.8516 50.8936 14.6538 51.0208 14.3484 51.1221L14.6631 52.0713ZM16.0293 50.7178H17.0293C17.0293 50.0898 16.7276 49.5746 16.3493 49.207C15.975 48.8435 15.4895 48.5827 14.9777 48.4131L14.6631 49.3623L14.3485 50.3115C14.6534 50.4126 14.851 50.5399 14.9557 50.6416C15.0563 50.7393 15.0293 50.7664 15.0293 50.7178H16.0293ZM14.6631 49.3623H15.6631V47.9707H14.6631H13.6631V49.3623H14.6631ZM14.6631 47.9707L14.9778 48.9199C15.4887 48.7505 15.974 48.4905 16.3483 48.1276C16.7269 47.7606 17.0292 47.2457 17.0293 46.6174L16.0293 46.6172L15.0293 46.617C15.0293 46.5677 15.0567 46.5943 14.9563 46.6916C14.8516 46.793 14.6538 46.9202 14.3484 47.0215L14.6631 47.9707ZM16.0293 46.6172H17.0293C17.0293 45.9893 16.7276 45.474 16.3493 45.1064C15.975 44.7429 15.4895 44.4821 14.9777 44.3125L14.6631 45.2617L14.3485 46.211C14.6534 46.312 14.851 46.4393 14.9557 46.541C15.0563 46.6387 15.0293 46.6658 15.0293 46.6172H16.0293ZM14.6631 45.2617H15.6631V43.8701H14.6631H13.6631V45.2617H14.6631ZM14.6631 43.8701L14.9778 44.8193C15.4887 44.6499 15.974 44.3899 16.3483 44.027C16.7269 43.6601 17.0292 43.1451 17.0293 42.5168L16.0293 42.5166L15.0293 42.5164C15.0293 42.4672 15.0567 42.4937 14.9563 42.591C14.8516 42.6925 14.6538 42.8197 14.3484 42.9209L14.6631 43.8701ZM16.0293 42.5166H17.0293C17.0293 41.8887 16.7276 41.3734 16.3493 41.0059C15.975 40.6423 15.4895 40.3815 14.9777 40.2119L14.6631 41.1611L14.3485 42.1104C14.6534 42.2114 14.851 42.3387 14.9557 42.4404C15.0563 42.5381 15.0293 42.5653 15.0293 42.5166H16.0293ZM14.6631 41.1611H15.6631V39.7686H14.6631H13.6631V41.1611H14.6631ZM14.6631 39.7686L14.9778 40.7177C15.4887 40.5484 15.974 40.2883 16.3483 39.9255C16.7269 39.5585 17.0292 39.0436 17.0293 38.4153L16.0293 38.415L15.0293 38.4148C15.0293 38.3656 15.0567 38.3921 14.9563 38.4894C14.8516 38.5909 14.6538 38.7181 14.3484 38.8194L14.6631 39.7686ZM16.0293 38.415H17.0293C17.0293 37.7871 16.7276 37.2718 16.3493 36.9043C15.975 36.5407 15.4895 36.28 14.9777 36.1103L14.6631 37.0596L14.3485 38.0088C14.6534 38.1098 14.851 38.2372 14.9557 38.3388C15.0563 38.4366 15.0293 38.4637 15.0293 38.415H16.0293ZM14.6631 37.0596H15.6631V35.668H14.6631H13.6631V37.0596H14.6631ZM14.6631 35.668L14.9778 36.6172C15.4887 36.4478 15.974 36.1877 16.3483 35.8249C16.7269 35.4579 17.0292 34.943 17.0293 34.3147L16.0293 34.3145L15.0293 34.3142C15.0293 34.265 15.0567 34.2915 14.9563 34.3889C14.8516 34.4903 14.6538 34.6175 14.3484 34.7188L14.6631 35.668ZM16.0293 34.3145H17.0293C17.0293 33.6865 16.7276 33.1713 16.3493 32.8037C15.975 32.4401 15.4895 32.1794 14.9777 32.0098L14.6631 32.959L14.3485 33.9082C14.6534 34.0093 14.851 34.1366 14.9557 34.2383C15.0563 34.336 15.0293 34.3631 15.0293 34.3145H16.0293ZM14.6631 32.959H15.6631V31.5684H14.6631H13.6631V32.959H14.6631ZM14.6631 31.5684L14.9778 32.5176C15.4887 32.3482 15.974 32.0881 16.3483 31.7253C16.7269 31.3583 17.0292 30.8434 17.0293 30.2151L16.0293 30.2148L15.0293 30.2146C15.0293 30.1654 15.0567 30.1919 14.9563 30.2893C14.8516 30.3907 14.6538 30.5179 14.3484 30.6192L14.6631 31.5684ZM16.0293 30.2148H17.0293C17.0293 29.5869 16.7276 29.0716 16.3493 28.7041C15.975 28.3405 15.4895 28.0798 14.9777 27.9101L14.6631 28.8594L14.3485 29.8086C14.6534 29.9097 14.851 30.037 14.9557 30.1386C15.0563 30.2364 15.0293 30.2635 15.0293 30.2148H16.0293ZM14.6631 28.8594H15.6631V27.4668H14.6631H13.6631V28.8594H14.6631ZM14.6631 27.4668L14.9778 28.416C15.4887 28.2466 15.974 27.9866 16.3483 27.6237C16.7269 27.2567 17.0292 26.7418 17.0293 26.1135L16.0293 26.1133L15.0293 26.1131C15.0293 26.0638 15.0567 26.0903 14.9563 26.1877C14.8516 26.2891 14.6538 26.4163 14.3484 26.5176L14.6631 27.4668ZM16.0293 26.1133H17.0293C17.0293 25.4853 16.7276 24.9701 16.3493 24.6025C15.975 24.239 15.4895 23.9782 14.9777 23.8086L14.6631 24.7578L14.3485 25.707C14.6534 25.8081 14.851 25.9354 14.9557 26.0371C15.0563 26.1348 15.0293 26.1619 15.0293 26.1133H16.0293ZM14.6631 24.7578H15.6631V23.3672H14.6631H13.6631V24.7578H14.6631ZM14.6631 23.3672L14.9778 24.3164C15.4887 24.147 15.974 23.887 16.3483 23.5241C16.7269 23.1571 17.0292 22.6422 17.0293 22.0139L16.0293 22.0137L15.0293 22.0134C15.0293 21.9642 15.0567 21.9907 14.9563 22.0881C14.8516 22.1895 14.6538 22.3167 14.3484 22.418L14.6631 23.3672ZM16.0293 22.0137H17.0293C17.0293 21.3857 16.7276 20.8705 16.3493 20.5029C15.975 20.1394 15.4895 19.8786 14.9777 19.709L14.6631 20.6582L14.3485 21.6074C14.6534 21.7085 14.851 21.8358 14.9557 21.9375C15.0563 22.0352 15.0293 22.0623 15.0293 22.0137H16.0293ZM14.6631 20.6582H15.6631V19.2891H14.6631H13.6631V20.6582H14.6631ZM14.6631 19.2891L14.622 20.2882C14.8598 20.298 15.1012 20.3037 15.3457 20.3037L15.3457 19.3037L15.3457 18.3037C15.1323 18.3037 14.9185 18.2987 14.7041 18.2899L14.6631 19.2891ZM15.3457 19.3037V20.3037C21.2975 20.3037 26.5227 17.2858 28.5012 12.8476L27.5879 12.4404L26.6745 12.0333C25.0883 15.5915 20.6977 18.3037 15.3457 18.3037V19.3037ZM27.5879 12.4404V13.4404H316.03V12.4404V11.4404H27.5879V12.4404Z" fill="white" mask="url(#path-2-inside-1_557_193)"/>
<path d="M135.79 36.8418V25.2054H143.494V27.2338H138.25V30.0066H142.983V32.035H138.25V36.8418H135.79ZM147.483 37.0066C146.926 37.0066 146.43 36.91 145.994 36.7168C145.559 36.5198 145.214 36.2301 144.96 35.8475C144.71 35.4611 144.585 34.9801 144.585 34.4043C144.585 33.9194 144.674 33.5123 144.852 33.1827C145.03 32.8532 145.273 32.588 145.58 32.3873C145.886 32.1865 146.235 32.035 146.625 31.9327C147.019 31.8304 147.432 31.7585 147.864 31.7168C148.371 31.6638 148.78 31.6145 149.091 31.5691C149.402 31.5198 149.627 31.4479 149.767 31.3532C149.907 31.2585 149.977 31.1183 149.977 30.9327V30.8986C149.977 30.5388 149.864 30.2604 149.636 30.0634C149.413 29.8664 149.095 29.7679 148.682 29.7679C148.246 29.7679 147.9 29.8645 147.642 30.0577C147.385 30.2471 147.214 30.4857 147.131 30.7736L144.892 30.5918C145.006 30.0615 145.229 29.6032 145.563 29.2168C145.896 28.8266 146.326 28.5274 146.852 28.3191C147.383 28.1069 147.996 28.0009 148.693 28.0009C149.178 28.0009 149.642 28.0577 150.085 28.1713C150.532 28.285 150.928 28.4611 151.273 28.6998C151.621 28.9384 151.896 29.2452 152.097 29.6202C152.297 29.9914 152.398 30.4365 152.398 30.9554V36.8418H150.102V35.6316H150.034C149.894 35.9043 149.707 36.1448 149.472 36.3532C149.237 36.5577 148.955 36.7187 148.625 36.8361C148.296 36.9498 147.915 37.0066 147.483 37.0066ZM148.176 35.3361C148.532 35.3361 148.847 35.266 149.119 35.1259C149.392 34.9819 149.606 34.7888 149.761 34.5463C149.917 34.3039 149.994 34.0293 149.994 33.7225V32.7963C149.919 32.8456 149.815 32.891 149.682 32.9327C149.553 32.9706 149.407 33.0066 149.244 33.0407C149.082 33.071 148.919 33.0994 148.756 33.1259C148.593 33.1486 148.445 33.1694 148.313 33.1884C148.029 33.2301 147.78 33.2963 147.568 33.3873C147.356 33.4782 147.191 33.6013 147.074 33.7566C146.957 33.9081 146.898 34.0975 146.898 34.3248C146.898 34.6543 147.017 34.9062 147.256 35.0804C147.498 35.2509 147.805 35.3361 148.176 35.3361ZM156.696 31.7963V36.8418H154.276V28.1145H156.583V29.6543H156.685C156.878 29.1467 157.202 28.7452 157.656 28.4498C158.111 28.1505 158.662 28.0009 159.31 28.0009C159.916 28.0009 160.444 28.1335 160.895 28.3986C161.346 28.6638 161.696 29.0426 161.946 29.535C162.196 30.0236 162.321 30.6069 162.321 31.285V36.8418H159.901V31.7168C159.904 31.1827 159.768 30.766 159.492 30.4668C159.215 30.1638 158.834 30.0123 158.35 30.0123C158.024 30.0123 157.736 30.0823 157.486 30.2225C157.24 30.3626 157.047 30.5672 156.906 30.8361C156.77 31.1013 156.7 31.4213 156.696 31.7963ZM168.871 28.1145V29.9327H163.615V28.1145H168.871ZM164.808 26.0236H167.229V34.16C167.229 34.3835 167.263 34.5577 167.331 34.6827C167.399 34.8039 167.494 34.8891 167.615 34.9384C167.74 34.9876 167.884 35.0123 168.047 35.0123C168.161 35.0123 168.274 35.0028 168.388 34.9838C168.502 34.9611 168.589 34.9441 168.649 34.9327L169.03 36.7338C168.909 36.7717 168.738 36.8153 168.519 36.8645C168.299 36.9176 168.032 36.9498 167.717 36.9611C167.134 36.9838 166.623 36.9062 166.183 36.7282C165.748 36.5501 165.409 36.2736 165.166 35.8986C164.924 35.5236 164.805 35.0501 164.808 34.4782V26.0236ZM172.936 37.0066C172.379 37.0066 171.883 36.91 171.448 36.7168C171.012 36.5198 170.667 36.2301 170.413 35.8475C170.163 35.4611 170.038 34.9801 170.038 34.4043C170.038 33.9194 170.127 33.5123 170.306 33.1827C170.484 32.8532 170.726 32.588 171.033 32.3873C171.34 32.1865 171.688 32.035 172.078 31.9327C172.472 31.8304 172.885 31.7585 173.317 31.7168C173.824 31.6638 174.234 31.6145 174.544 31.5691C174.855 31.5198 175.08 31.4479 175.22 31.3532C175.36 31.2585 175.431 31.1183 175.431 30.9327V30.8986C175.431 30.5388 175.317 30.2604 175.09 30.0634C174.866 29.8664 174.548 29.7679 174.135 29.7679C173.699 29.7679 173.353 29.8645 173.095 30.0577C172.838 30.2471 172.667 30.4857 172.584 30.7736L170.345 30.5918C170.459 30.0615 170.682 29.6032 171.016 29.2168C171.349 28.8266 171.779 28.5274 172.306 28.3191C172.836 28.1069 173.449 28.0009 174.146 28.0009C174.631 28.0009 175.095 28.0577 175.538 28.1713C175.985 28.285 176.381 28.4611 176.726 28.6998C177.074 28.9384 177.349 29.2452 177.55 29.6202C177.751 29.9914 177.851 30.4365 177.851 30.9554V36.8418H175.556V35.6316H175.487C175.347 35.9043 175.16 36.1448 174.925 36.3532C174.69 36.5577 174.408 36.7187 174.078 36.8361C173.749 36.9498 173.368 37.0066 172.936 37.0066ZM173.629 35.3361C173.985 35.3361 174.3 35.266 174.573 35.1259C174.845 34.9819 175.059 34.7888 175.215 34.5463C175.37 34.3039 175.448 34.0293 175.448 33.7225V32.7963C175.372 32.8456 175.268 32.891 175.135 32.9327C175.006 32.9706 174.86 33.0066 174.698 33.0407C174.535 33.071 174.372 33.0994 174.209 33.1259C174.046 33.1486 173.898 33.1694 173.766 33.1884C173.482 33.2301 173.234 33.2963 173.021 33.3873C172.809 33.4782 172.645 33.6013 172.527 33.7566C172.41 33.9081 172.351 34.0975 172.351 34.3248C172.351 34.6543 172.47 34.9062 172.709 35.0804C172.951 35.2509 173.258 35.3361 173.629 35.3361ZM186.99 30.6032L184.774 30.7395C184.736 30.5501 184.655 30.3797 184.53 30.2282C184.405 30.0729 184.24 29.9498 184.036 29.8588C183.835 29.7641 183.594 29.7168 183.314 29.7168C182.939 29.7168 182.623 29.7963 182.365 29.9554C182.108 30.1107 181.979 30.3191 181.979 30.5804C181.979 30.7888 182.062 30.9649 182.229 31.1088C182.395 31.2528 182.681 31.3683 183.087 31.4554L184.666 31.7736C185.515 31.9479 186.147 32.2282 186.564 32.6145C186.981 33.0009 187.189 33.5085 187.189 34.1373C187.189 34.7092 187.02 35.2111 186.683 35.6429C186.35 36.0748 185.892 36.4119 185.308 36.6543C184.729 36.8929 184.06 37.0123 183.303 37.0123C182.147 37.0123 181.227 36.7717 180.541 36.2907C179.859 35.8058 179.46 35.1467 179.342 34.3134L181.723 34.1884C181.795 34.5407 181.969 34.8096 182.246 34.9952C182.522 35.177 182.877 35.2679 183.308 35.2679C183.733 35.2679 184.074 35.1865 184.331 35.0236C184.592 34.8569 184.725 34.6429 184.729 34.3816C184.725 34.1619 184.632 33.9819 184.45 33.8418C184.269 33.6979 183.988 33.588 183.609 33.5123L182.098 33.2111C181.246 33.0407 180.611 32.7452 180.195 32.3248C179.782 31.9043 179.575 31.3683 179.575 30.7168C179.575 30.1562 179.727 29.6732 180.03 29.2679C180.337 28.8626 180.767 28.5501 181.32 28.3304C181.877 28.1107 182.528 28.0009 183.274 28.0009C184.377 28.0009 185.244 28.2338 185.877 28.6998C186.513 29.1657 186.884 29.8001 186.99 30.6032ZM188.713 36.8418V28.1145H191.134V36.8418H188.713ZM189.929 26.9895C189.569 26.9895 189.261 26.8702 189.003 26.6316C188.749 26.3891 188.622 26.0994 188.622 25.7623C188.622 25.4289 188.749 25.1429 189.003 24.9043C189.261 24.6619 189.569 24.5407 189.929 24.5407C190.289 24.5407 190.596 24.6619 190.85 24.9043C191.107 25.1429 191.236 25.4289 191.236 25.7623C191.236 26.0994 191.107 26.3891 190.85 26.6316C190.596 26.8702 190.289 26.9895 189.929 26.9895ZM195.561 37.0066C195.004 37.0066 194.508 36.91 194.073 36.7168C193.637 36.5198 193.292 36.2301 193.038 35.8475C192.788 35.4611 192.663 34.9801 192.663 34.4043C192.663 33.9194 192.752 33.5123 192.931 33.1827C193.109 32.8532 193.351 32.588 193.658 32.3873C193.965 32.1865 194.313 32.035 194.703 31.9327C195.097 31.8304 195.51 31.7585 195.942 31.7168C196.449 31.6638 196.859 31.6145 197.169 31.5691C197.48 31.5198 197.705 31.4479 197.845 31.3532C197.985 31.2585 198.056 31.1183 198.056 30.9327V30.8986C198.056 30.5388 197.942 30.2604 197.715 30.0634C197.491 29.8664 197.173 29.7679 196.76 29.7679C196.324 29.7679 195.978 29.8645 195.72 30.0577C195.463 30.2471 195.292 30.4857 195.209 30.7736L192.97 30.5918C193.084 30.0615 193.307 29.6032 193.641 29.2168C193.974 28.8266 194.404 28.5274 194.931 28.3191C195.461 28.1069 196.074 28.0009 196.771 28.0009C197.256 28.0009 197.72 28.0577 198.163 28.1713C198.61 28.285 199.006 28.4611 199.351 28.6998C199.699 28.9384 199.974 29.2452 200.175 29.6202C200.376 29.9914 200.476 30.4365 200.476 30.9554V36.8418H198.181V35.6316H198.112C197.972 35.9043 197.785 36.1448 197.55 36.3532C197.315 36.5577 197.033 36.7187 196.703 36.8361C196.374 36.9498 195.993 37.0066 195.561 37.0066ZM196.254 35.3361C196.61 35.3361 196.925 35.266 197.198 35.1259C197.47 34.9819 197.684 34.7888 197.84 34.5463C197.995 34.3039 198.073 34.0293 198.073 33.7225V32.7963C197.997 32.8456 197.893 32.891 197.76 32.9327C197.631 32.9706 197.485 33.0066 197.323 33.0407C197.16 33.071 196.997 33.0994 196.834 33.1259C196.671 33.1486 196.523 33.1694 196.391 33.1884C196.107 33.2301 195.859 33.2963 195.646 33.3873C195.434 33.4782 195.27 33.6013 195.152 33.7566C195.035 33.9081 194.976 34.0975 194.976 34.3248C194.976 34.6543 195.095 34.9062 195.334 35.0804C195.576 35.2509 195.883 35.3361 196.254 35.3361ZM204.377 28.1145L205.979 31.1657L207.621 28.1145H210.104L207.575 32.4782L210.172 36.8418H207.7L205.979 33.8248L204.286 36.8418H201.786L204.377 32.4782L201.877 28.1145H204.377Z" fill="white"/>
<rect x="287.898" y="19.2158" width="24.7278" height="0.755505" fill="white"/>
<rect x="287.898" y="20.7266" width="24.7278" height="2.51835" fill="white"/>
<rect x="287.898" y="29.793" width="24.7278" height="1.51101" fill="white"/>
<rect x="287.898" y="39.1113" width="24.7278" height="1.51101" fill="white"/>
<rect x="287.898" y="41.6299" width="24.7278" height="3.27386" fill="white"/>
<rect x="287.898" y="25.2607" width="24.7278" height="1.00734" fill="white"/>
<rect x="287.898" y="32.0596" width="24.7278" height="1.00734" fill="white"/>
<rect x="287.898" y="27.0225" width="24.7278" height="0.755505" fill="white"/>
<rect x="287.898" y="34.0732" width="24.7278" height="0.755505" fill="white"/>
<rect x="287.898" y="28.5332" width="24.7278" height="0.50367" fill="white"/>
<rect x="287.898" y="45.6592" width="24.7278" height="0.50367" fill="white"/>
<rect x="287.898" y="48.1768" width="24.7278" height="0.50367" fill="white"/>
<rect x="287.898" y="35.8369" width="24.7278" height="0.50367" fill="white"/>
<rect x="287.898" y="53.9688" width="24.7278" height="0.50367" fill="white"/>
<rect x="287.898" y="54.9766" width="24.7278" height="0.50367" fill="white"/>
<rect x="287.898" y="46.917" width="24.7278" height="0.50367" fill="white"/>
<rect x="287.898" y="50.1914" width="24.7278" height="0.50367" fill="white"/>
<rect x="287.898" y="51.1992" width="24.7278" height="1.76285" fill="white"/>
<rect x="287.856" y="58.4111" width="24.6353" height="0.832373" fill="white"/>
<rect x="287.898" y="37.5996" width="24.7278" height="0.50367" fill="white"/>
<rect x="287.898" y="59.7607" width="24.7278" height="1.76285" fill="white"/>
<path d="M40.2734 33.943H32.2734V33.0055L38.5547 28.6461V28.568H32.2734V27.5992L40.2734 27.5992V28.5367L33.9766 32.9117V32.9898H40.2734V33.943ZM32.1484 38.1939C32.1484 37.6523 32.2773 37.177 32.5352 36.7682C32.793 36.3619 33.1536 36.0442 33.6172 35.815C34.0807 35.5885 34.6224 35.4752 35.2422 35.4752C35.8672 35.4752 36.4128 35.5885 36.8789 35.815C37.3451 36.0442 37.707 36.3619 37.9648 36.7682C38.2227 37.177 38.3516 37.6523 38.3516 38.1939C38.3516 38.7356 38.2227 39.2096 37.9648 39.6158C37.707 40.0247 37.3451 40.3424 36.8789 40.5689C36.4128 40.7981 35.8672 40.9127 35.2422 40.9127C34.6224 40.9127 34.0807 40.7981 33.6172 40.5689C33.1536 40.3424 32.793 40.0247 32.5352 39.6158C32.2773 39.2096 32.1484 38.7356 32.1484 38.1939ZM32.9766 38.1939C32.9766 38.6054 33.082 38.9439 33.293 39.2096C33.5039 39.4752 33.7813 39.6718 34.125 39.7994C34.4688 39.927 34.8411 39.9908 35.2422 39.9908C35.6432 39.9908 36.0169 39.927 36.3633 39.7994C36.7096 39.6718 36.9896 39.4752 37.2031 39.2096C37.4167 38.9439 37.5234 38.6054 37.5234 38.1939C37.5234 37.7825 37.4167 37.4439 37.2031 37.1783C36.9896 36.9127 36.7096 36.7161 36.3633 36.5885C36.0169 36.4609 35.6432 36.3971 35.2422 36.3971C34.8411 36.3971 34.4688 36.4609 34.125 36.5885C33.7813 36.7161 33.5039 36.9127 33.293 37.1783C33.082 37.4439 32.9766 37.7825 32.9766 38.1939ZM32.2109 42.9918C32.2109 42.7991 32.2799 42.6337 32.418 42.4957C32.556 42.3577 32.7214 42.2887 32.9141 42.2887C33.1068 42.2887 33.2721 42.3577 33.4102 42.4957C33.5482 42.6337 33.6172 42.7991 33.6172 42.9918C33.6172 43.1845 33.5482 43.3499 33.4102 43.4879C33.2721 43.6259 33.1068 43.6949 32.9141 43.6949C32.7865 43.6949 32.6693 43.6624 32.5625 43.5973C32.4557 43.5348 32.3698 43.4501 32.3047 43.3433C32.2422 43.2392 32.2109 43.122 32.2109 42.9918ZM32.1641 47.6637C32.1641 47.0751 32.3242 46.5738 32.6445 46.1598C32.9674 45.7457 33.4349 45.4293 34.0469 45.2105C34.6615 44.9918 35.4036 44.8824 36.2734 44.8824C37.138 44.8824 37.8763 44.9918 38.4883 45.2105C39.1029 45.4319 39.5716 45.7496 39.8945 46.1637C40.2201 46.5803 40.3828 47.0803 40.3828 47.6637C40.3828 48.247 40.2201 48.7457 39.8945 49.1598C39.5716 49.5764 39.1029 49.8941 38.4883 50.1129C37.8763 50.3342 37.138 50.4449 36.2734 50.4449C35.4036 50.4449 34.6615 50.3355 34.0469 50.1168C33.4349 49.898 32.9674 49.5816 32.6445 49.1676C32.3242 48.7535 32.1641 48.2522 32.1641 47.6637ZM33.0234 47.6637C33.0234 48.247 33.3047 48.7001 33.8672 49.023C34.4297 49.346 35.2318 49.5074 36.2734 49.5074C36.9661 49.5074 37.556 49.4332 38.043 49.2848C38.5299 49.1389 38.901 48.928 39.1563 48.6519C39.4115 48.3785 39.5391 48.0491 39.5391 47.6637C39.5391 47.0855 39.2539 46.6337 38.6836 46.3082C38.1159 45.9827 37.3125 45.8199 36.2734 45.8199C35.5807 45.8199 34.9922 45.8928 34.5078 46.0387C34.0234 46.1845 33.6549 46.3941 33.4023 46.6676C33.1497 46.9436 33.0234 47.2756 33.0234 47.6637ZM32.1641 54.4293C32.1641 53.971 32.2552 53.5582 32.4375 53.191C32.6198 52.8238 32.8698 52.5295 33.1875 52.3082C33.5052 52.0868 33.8672 51.9657 34.2734 51.9449V52.8824C33.9115 52.9189 33.612 53.0829 33.375 53.3746C33.1406 53.6689 33.0234 54.0204 33.0234 54.4293C33.0234 54.7574 33.1003 55.0491 33.2539 55.3043C33.4076 55.5621 33.6185 55.7639 33.8867 55.9098C34.1576 56.0582 34.4635 56.1324 34.8047 56.1324C35.1536 56.1324 35.4648 56.0556 35.7383 55.9019C36.0143 55.7509 36.2318 55.5426 36.3906 55.2769C36.5495 55.0113 36.6302 54.7079 36.6328 54.3668C36.6354 54.122 36.5977 53.8707 36.5195 53.6129C36.444 53.3551 36.3464 53.1428 36.2266 52.9762L36.3359 52.0699L40.2734 52.5543V56.7105H39.4141V53.3668L37.0547 53.0855V53.1324C37.1849 53.2965 37.293 53.5022 37.3789 53.7496C37.4648 53.997 37.5078 54.2548 37.5078 54.523C37.5078 55.0126 37.3906 55.4488 37.1563 55.8316C36.9245 56.217 36.6068 56.5191 36.2031 56.7379C35.7995 56.9592 35.3385 57.0699 34.8203 57.0699C34.3099 57.0699 33.8542 56.9553 33.4531 56.7262C33.0547 56.4996 32.7396 56.1871 32.5078 55.7887C32.2786 55.3902 32.1641 54.9371 32.1641 54.4293Z" fill="white"/>
<path d="M147.291 57.9265L144.168 59.812C144.076 59.8574 143.991 59.8757 143.912 59.8671C143.834 59.8579 143.759 59.831 143.685 59.7862C143.61 59.7404 143.554 59.6756 143.516 59.5918C143.478 59.5081 143.475 59.4166 143.506 59.3174L144.337 55.7819L141.588 53.3991C141.511 53.3361 141.46 53.2606 141.435 53.1729C141.41 53.0852 141.416 53.0011 141.451 52.9209C141.487 52.8406 141.534 52.7746 141.593 52.723C141.653 52.6731 141.733 52.6393 141.834 52.6215L145.461 52.3049L146.875 48.957C146.914 48.8624 146.97 48.7941 147.044 48.7522C147.117 48.7104 147.199 48.6895 147.291 48.6895C147.382 48.6895 147.464 48.7104 147.538 48.7522C147.612 48.7941 147.668 48.8624 147.706 48.957L149.12 52.3049L152.746 52.6215C152.848 52.6387 152.928 52.6728 152.988 52.7239C153.047 52.7743 153.095 52.84 153.131 52.9209C153.166 53.0011 153.171 53.0852 153.146 53.1729C153.121 53.2606 153.07 53.3361 152.993 53.3991L150.245 55.7819L151.076 59.3174C151.108 59.4155 151.104 59.5067 151.066 59.591C151.028 59.6753 150.971 59.7401 150.897 59.7854C150.823 59.8313 150.747 59.8585 150.669 59.8671C150.591 59.8757 150.506 59.8574 150.414 59.812L147.291 57.9265Z" fill="white"/>
<path d="M172.727 57.9265L169.604 59.812C169.513 59.8574 169.428 59.8757 169.349 59.8671C169.271 59.8579 169.195 59.831 169.121 59.7862C169.047 59.7404 168.99 59.6756 168.952 59.5918C168.915 59.5081 168.911 59.4166 168.942 59.3174L169.773 55.7819L167.025 53.3991C166.947 53.3361 166.896 53.2606 166.872 53.1729C166.847 53.0852 166.852 53.0011 166.888 52.9209C166.923 52.8406 166.971 52.7746 167.03 52.723C167.09 52.6731 167.17 52.6393 167.271 52.6215L170.897 52.3049L172.312 48.957C172.351 48.8624 172.407 48.7941 172.48 48.7522C172.554 48.7104 172.636 48.6895 172.727 48.6895C172.818 48.6895 172.901 48.7104 172.975 48.7522C173.049 48.7941 173.105 48.8624 173.143 48.957L174.557 52.3049L178.183 52.6215C178.284 52.6387 178.365 52.6728 178.424 52.7239C178.484 52.7743 178.532 52.84 178.567 52.9209C178.602 53.0011 178.607 53.0852 178.583 53.1729C178.558 53.2606 178.507 53.3361 178.429 53.3991L175.681 55.7819L176.512 59.3174C176.544 59.4155 176.541 59.5067 176.503 59.591C176.464 59.6753 176.408 59.7401 176.333 59.7854C176.26 59.8313 176.184 59.8585 176.105 59.8671C176.027 59.8757 175.942 59.8574 175.851 59.812L172.727 57.9265Z" fill="white"/>
<path d="M198.164 57.9265L195.041 59.812C194.949 59.8574 194.864 59.8757 194.786 59.8671C194.708 59.8579 194.632 59.831 194.558 59.7862C194.483 59.7404 194.427 59.6756 194.389 59.5918C194.351 59.5081 194.348 59.4166 194.379 59.3174L195.21 55.7819L192.461 53.3991C192.384 53.3361 192.333 53.2606 192.308 53.1729C192.283 53.0852 192.289 53.0011 192.324 52.9209C192.36 52.8406 192.407 52.7746 192.466 52.723C192.526 52.6731 192.606 52.6393 192.707 52.6215L196.334 52.3049L197.748 48.957C197.787 48.8624 197.843 48.7941 197.917 48.7522C197.99 48.7104 198.072 48.6895 198.164 48.6895C198.255 48.6895 198.337 48.7104 198.411 48.7522C198.485 48.7941 198.541 48.8624 198.579 48.957L199.993 52.3049L203.619 52.6215C203.721 52.6387 203.801 52.6728 203.861 52.7239C203.92 52.7743 203.968 52.84 204.004 52.9209C204.039 53.0011 204.044 53.0852 204.019 53.1729C203.994 53.2606 203.943 53.3361 203.866 53.3991L201.118 55.7819L201.949 59.3174C201.981 59.4155 201.978 59.5067 201.939 59.591C201.901 59.6753 201.844 59.7401 201.77 59.7854C201.696 59.8313 201.62 59.8585 201.542 59.8671C201.464 59.8757 201.379 59.8574 201.287 59.812L198.164 57.9265Z" fill="white"/>
<path d="M223.734 57.9265L220.611 59.812C220.52 59.8574 220.434 59.8757 220.356 59.8671C220.278 59.8579 220.202 59.831 220.128 59.7862C220.053 59.7404 219.997 59.6756 219.959 59.5918C219.921 59.5081 219.918 59.4166 219.949 59.3174L220.78 55.7819L218.032 53.3991C217.954 53.3361 217.903 53.2606 217.878 53.1729C217.854 53.0852 217.859 53.0011 217.895 52.9209C217.93 52.8406 217.978 52.7746 218.037 52.723C218.096 52.6731 218.177 52.6393 218.278 52.6215L221.904 52.3049L223.318 48.957C223.357 48.8624 223.414 48.7941 223.487 48.7522C223.56 48.7104 223.643 48.6895 223.734 48.6895C223.825 48.6895 223.908 48.7104 223.982 48.7522C224.056 48.7941 224.112 48.8624 224.149 48.957L225.564 52.3049L229.189 52.6215C229.291 52.6387 229.371 52.6728 229.431 52.7239C229.491 52.7743 229.538 52.84 229.574 52.9209C229.609 53.0011 229.614 53.0852 229.589 53.1729C229.565 53.2606 229.514 53.3361 229.436 53.3991L226.688 55.7819L227.519 59.3174C227.551 59.4155 227.548 59.5067 227.509 59.591C227.471 59.6753 227.414 59.7401 227.34 59.7854C227.267 59.8313 227.191 59.8585 227.112 59.8671C227.034 59.8757 226.949 59.8574 226.857 59.812L223.734 57.9265Z" fill="white"/>
<path d="M122.175 57.9265L119.053 59.812C118.961 59.8574 118.876 59.8757 118.797 59.8671C118.719 59.8579 118.643 59.831 118.569 59.7862C118.495 59.7404 118.439 59.6756 118.401 59.5918C118.363 59.5081 118.359 59.4166 118.39 59.3174L119.221 55.7819L116.473 53.3991C116.396 53.3361 116.344 53.2606 116.32 53.1729C116.295 53.0852 116.301 53.0011 116.336 52.9209C116.372 52.8406 116.419 52.7746 116.478 52.723C116.538 52.6731 116.618 52.6393 116.719 52.6215L120.346 52.3049L121.76 48.957C121.799 48.8624 121.855 48.7941 121.928 48.7522C122.002 48.7104 122.084 48.6895 122.175 48.6895C122.267 48.6895 122.349 48.7104 122.423 48.7522C122.497 48.7941 122.553 48.8624 122.591 48.957L124.005 52.3049L127.631 52.6215C127.732 52.6387 127.813 52.6728 127.873 52.7239C127.932 52.7743 127.98 52.84 128.015 52.9209C128.05 53.0011 128.055 53.0852 128.031 53.1729C128.006 53.2606 127.955 53.3361 127.878 53.3991L125.129 55.7819L125.96 59.3174C125.992 59.4155 125.989 59.5067 125.951 59.591C125.912 59.6753 125.856 59.7401 125.781 59.7854C125.708 59.8313 125.632 59.8585 125.553 59.8671C125.475 59.8757 125.391 59.8574 125.299 59.812L122.175 57.9265Z" fill="white"/>
<path d="M50.0498 13.7949V69.3541" stroke="white"/>
<defs>
<filter id="filter0_d_557_193" x="0" y="0.0195312" width="344.983" height="85.7549" filterUnits="userSpaceOnUse" color-interpolation-filters="sRGB">
<feFlood flood-opacity="0" result="BackgroundImageFix"/>
<feColorMatrix in="SourceAlpha" type="matrix" values="0 0 0 0 0 0 0 0 0 0 0 0 0 0 0 0 0 0 127 0" result="hardAlpha"/>
<feOffset dy="2"/>
<feGaussianBlur stdDeviation="4.5"/>
<feComposite in2="hardAlpha" operator="out"/>
<feColorMatrix type="matrix" values="0 0 0 0 0 0 0 0 0 0 0 0 0 0 0 0 0 0 0.25 0"/>
<feBlend mode="normal" in2="BackgroundImageFix" result="effect1_dropShadow_557_193"/>
<feBlend mode="normal" in="SourceGraphic" in2="effect1_dropShadow_557_193" result="shape"/>
</filter>
<linearGradient id="paint0_linear_557_193" x1="9" y1="40.897" x2="335.983" y2="40.897" gradientUnits="userSpaceOnUse">
<stop stop-color="#0A1D3E"/>
<stop offset="0.360577" stop-color="#1D1F5A"/>
<stop offset="0.600962" stop-color="#403382"/>
<stop offset="1" stop-color="#CBA1EB"/>
</linearGradient>
</defs>
</svg>
