<svg width="345" height="87" viewBox="0 0 345 87" fill="none" xmlns="http://www.w3.org/2000/svg">
<g filter="url(#filter0_d_557_288)">
<path d="M321.179 7.26465C323.025 12.001 328.005 15.3945 333.859 15.3945C334.582 15.3945 335.292 15.3418 335.983 15.2422V16.999C335.137 17.3196 334.567 17.9181 334.567 18.6045C334.568 19.2906 335.138 19.8874 335.983 20.208V21.8564C335.137 22.177 334.567 22.7756 334.567 23.4619C334.568 24.148 335.138 24.7448 335.983 25.0654V26.7148C335.137 27.0354 334.567 27.6339 334.567 28.3203C334.567 29.0065 335.137 29.6032 335.983 29.9238V31.5732C335.137 31.8938 334.567 32.4923 334.567 33.1787C334.568 33.8648 335.137 34.4616 335.983 34.7822V36.4307C335.137 36.7512 334.567 37.3498 334.567 38.0361C334.568 38.7222 335.137 39.3191 335.983 39.6396V41.2881C335.137 41.6087 334.567 42.2072 334.567 42.8936C334.568 43.5796 335.138 44.1765 335.983 44.4971V46.1465C335.137 46.4671 334.567 47.0656 334.567 47.752C334.568 48.438 335.138 49.0349 335.983 49.3555V51.0039C335.137 51.3245 334.567 51.923 334.567 52.6094C334.568 53.2955 335.138 53.8923 335.983 54.2129V55.8623C335.137 56.1829 334.567 56.7814 334.567 57.4678C334.568 58.1539 335.138 58.7507 335.983 59.0713V60.7188C335.137 61.0393 334.567 61.6379 334.567 62.3242C334.568 63.0103 335.138 63.6072 335.983 63.9277V65.5498C329.899 65.8356 324.885 69.7898 323.576 75.0195H19.9902C18.7845 70.2017 14.4346 66.4673 9 65.6855V63.9277C9.84586 63.6071 10.4158 63.0103 10.416 62.3242C10.416 61.6379 9.84623 61.0393 9 60.7188V59.0713C9.84586 58.7507 10.4158 58.1539 10.416 57.4678C10.416 56.7814 9.84623 56.1829 9 55.8623V54.2129C9.84586 53.8923 10.4158 53.2955 10.416 52.6094C10.416 51.923 9.84623 51.3245 9 51.0039V49.3555C9.84586 49.0349 10.4158 48.438 10.416 47.752C10.416 47.0656 9.84623 46.4671 9 46.1465V44.4971C9.84585 44.1765 10.4158 43.5796 10.416 42.8936C10.416 42.2072 9.84623 41.6087 9 41.2881V39.6396C9.84587 39.3191 10.4158 38.7222 10.416 38.0361C10.416 37.3498 9.84624 36.7513 9 36.4307V34.7822C9.84589 34.4616 10.4159 33.8648 10.416 33.1787C10.416 32.4924 9.84626 31.8938 9 31.5732V29.9238C9.84592 29.6032 10.4159 29.0065 10.416 28.3203C10.416 27.634 9.84628 27.0354 9 26.7148V25.0654C9.84586 24.7448 10.4158 24.148 10.416 23.4619C10.416 22.7756 9.84623 22.177 9 21.8564V20.208C9.84586 19.8874 10.4158 19.2906 10.416 18.6045C10.416 17.9182 9.84623 17.3196 9 16.999V15.3779C9.23415 15.3889 9.46987 15.3945 9.70703 15.3945C15.5618 15.3945 20.5424 12.0012 22.3887 7.26465H321.179Z" fill="url(#paint0_linear_557_288)"/>
</g>
<mask id="path-2-inside-1_557_288" fill="white">
<path d="M316.029 12.6846C317.812 16.6829 322.619 19.5478 328.271 19.5479C328.969 19.5479 329.654 19.5021 330.322 19.418V20.9014C329.505 21.172 328.955 21.6774 328.955 22.2568C328.955 22.8361 329.505 23.3397 330.322 23.6104V25.002C329.505 25.2726 328.955 25.778 328.955 26.3574C328.955 26.9367 329.505 27.4403 330.322 27.7109V29.1025C329.505 29.3731 328.955 29.8785 328.955 30.458C328.955 31.0373 329.505 31.5409 330.322 31.8115V33.2041C329.505 33.4747 328.955 33.9792 328.955 34.5586C328.955 35.1379 329.505 35.6415 330.322 35.9121V37.3057C329.505 37.5763 328.955 38.0807 328.955 38.6602C328.955 39.2395 329.505 39.743 330.322 40.0137V41.4062C329.505 41.6769 328.955 42.1813 328.955 42.7607C328.955 43.3401 329.505 43.8436 330.322 44.1143V45.5068C329.505 45.7775 328.955 46.2819 328.955 46.8613C328.955 47.4406 329.505 47.9442 330.322 48.2148V49.6074C329.505 49.878 328.955 50.3834 328.955 50.9629C328.955 51.5422 329.505 52.0458 330.322 52.3164V53.707C329.505 53.9776 328.955 54.483 328.955 55.0625C328.955 55.6418 329.505 56.1454 330.322 56.416V57.8086C329.505 58.0792 328.955 58.5846 328.955 59.1641C328.955 59.7433 329.505 60.247 330.322 60.5176V61.8867C324.448 62.1277 319.607 65.4655 318.344 69.8809H25.2715C24.1081 65.814 19.9089 62.6615 14.6631 62.001V60.5176C15.479 60.2468 16.0282 59.7429 16.0283 59.1641C16.0283 58.5851 15.4792 58.0803 14.6631 57.8096V56.416C15.479 56.1453 16.0282 55.6414 16.0283 55.0625C16.0283 54.4835 15.4792 53.9788 14.6631 53.708V52.3164C15.479 52.0457 16.0282 51.5418 16.0283 50.9629C16.0283 50.3839 15.4792 49.8792 14.6631 49.6084V48.2148C15.479 47.9441 16.0282 47.4402 16.0283 46.8613C16.0283 46.2823 15.4792 45.7776 14.6631 45.5068V44.1143C15.479 43.8435 16.0282 43.3396 16.0283 42.7607C16.0283 42.1817 15.4792 41.677 14.6631 41.4062V40.0137C15.479 39.7429 16.0282 39.239 16.0283 38.6602C16.0283 38.0811 15.4792 37.5764 14.6631 37.3057V35.9121C15.479 35.6414 16.0282 35.1375 16.0283 34.5586C16.0283 33.9796 15.4792 33.4749 14.6631 33.2041V31.8115C15.479 31.5408 16.0282 31.0369 16.0283 30.458C16.0283 29.879 15.4792 29.3743 14.6631 29.1035V27.7109C15.479 27.4402 16.0282 26.9363 16.0283 26.3574C16.0283 25.7784 15.4792 25.2737 14.6631 25.0029V23.6104C15.479 23.3396 16.0282 22.8357 16.0283 22.2568C16.0283 21.6778 15.4792 21.1731 14.6631 20.9023V19.5332C14.8888 19.5425 15.1161 19.5478 15.3447 19.5479C20.9966 19.5479 25.8045 16.6828 27.5869 12.6846H316.029Z"/>
</mask>
<path d="M316.029 12.6846L316.943 12.2774L316.678 11.6846H316.029V12.6846ZM328.271 19.5479V20.5479V19.5479ZM330.322 19.418H331.322V18.2842L330.197 18.4258L330.322 19.418ZM330.322 20.9014L330.637 21.8507L331.322 21.6236V20.9014H330.322ZM328.955 22.2568H327.955V22.2571L328.955 22.2568ZM330.322 23.6104H331.322V22.8882L330.637 22.6611L330.322 23.6104ZM330.322 25.002L330.637 25.9513L331.322 25.7242V25.002H330.322ZM328.955 26.3574H327.955V26.3576L328.955 26.3574ZM330.322 27.7109H331.322V26.9888L330.637 26.7617L330.322 27.7109ZM330.322 29.1025L330.637 30.0518L331.322 29.8248V29.1025H330.322ZM328.955 30.458H327.955V30.4582L328.955 30.458ZM330.322 31.8115H331.322V31.0894L330.637 30.8623L330.322 31.8115ZM330.322 33.2041L330.637 34.1534L331.322 33.9263V33.2041H330.322ZM328.955 34.5586L327.955 34.5586V34.5586H328.955ZM330.322 35.9121H331.322V35.19L330.637 34.9629L330.322 35.9121ZM330.322 37.3057L330.637 38.2549L331.322 38.0279V37.3057H330.322ZM328.955 38.6602H327.955V38.6602L328.955 38.6602ZM330.322 40.0137H331.322V39.2915L330.637 39.0644L330.322 40.0137ZM330.322 41.4062L330.637 42.3555L331.322 42.1285V41.4062H330.322ZM328.955 42.7607H327.955V42.7608L328.955 42.7607ZM330.322 44.1143H331.322V43.3921L330.637 43.165L330.322 44.1143ZM330.322 45.5068L330.637 46.4561L331.322 46.229V45.5068H330.322ZM328.955 46.8613H327.955V46.8615L328.955 46.8613ZM330.322 48.2148H331.322V47.4927L330.637 47.2656L330.322 48.2148ZM330.322 49.6074L330.637 50.5567L331.322 50.3297V49.6074H330.322ZM328.955 50.9629H327.955V50.9631L328.955 50.9629ZM330.322 52.3164H331.322V51.5942L330.637 51.3671L330.322 52.3164ZM330.322 53.707L330.637 54.6563L331.322 54.4293V53.707H330.322ZM328.955 55.0625H327.955V55.0627L328.955 55.0625ZM330.322 56.416H331.322V55.6939L330.637 55.4668L330.322 56.416ZM330.322 57.8086L330.637 58.7579L331.322 58.5309V57.8086H330.322ZM328.955 59.1641H327.955V59.1644L328.955 59.1641ZM330.322 60.5176H331.322V59.7954L330.637 59.5683L330.322 60.5176ZM330.322 61.8867L330.363 62.8859L331.322 62.8465V61.8867H330.322ZM318.344 69.8809V70.8809H319.098L319.305 70.1559L318.344 69.8809ZM25.2715 69.8809L24.3101 70.1559L24.5174 70.8809H25.2715V69.8809ZM14.6631 62.001H13.6631V62.883L14.5382 62.9931L14.6631 62.001ZM14.6631 60.5176L14.3481 59.5685L13.6631 59.7958V60.5176H14.6631ZM16.0283 59.1641L17.0283 59.1643V59.1641H16.0283ZM14.6631 57.8096H13.6631V58.5314L14.3482 58.7587L14.6631 57.8096ZM14.6631 56.416L14.3481 55.4669L13.6631 55.6942V56.416H14.6631ZM16.0283 55.0625L17.0283 55.0627V55.0625H16.0283ZM14.6631 53.708H13.6631V54.4298L14.3482 54.6571L14.6631 53.708ZM14.6631 52.3164L14.3481 51.3673L13.6631 51.5946V52.3164H14.6631ZM16.0283 50.9629L17.0283 50.9631V50.9629H16.0283ZM14.6631 49.6084H13.6631V50.3302L14.3482 50.5575L14.6631 49.6084ZM14.6631 48.2148L14.3481 47.2657L13.6631 47.4931V48.2148H14.6631ZM16.0283 46.8613L17.0283 46.8615V46.8613H16.0283ZM14.6631 45.5068H13.6631V46.2287L14.3482 46.456L14.6631 45.5068ZM14.6631 44.1143L14.3481 43.1651L13.6631 43.3925V44.1143H14.6631ZM16.0283 42.7607L17.0283 42.761V42.7607H16.0283ZM14.6631 41.4062H13.6631V42.1281L14.3482 42.3554L14.6631 41.4062ZM14.6631 40.0137L14.3481 39.0646L13.6631 39.2919V40.0137H14.6631ZM16.0283 38.6602L17.0283 38.6604V38.6602H16.0283ZM14.6631 37.3057H13.6631V38.0275L14.3482 38.2548L14.6631 37.3057ZM14.6631 35.9121L14.3481 34.963L13.6631 35.1903V35.9121H14.6631ZM16.0283 34.5586L17.0283 34.5588V34.5586H16.0283ZM14.6631 33.2041H13.6631V33.9259L14.3482 34.1532L14.6631 33.2041ZM14.6631 31.8115L14.3481 30.8624L13.6631 31.0897V31.8115H14.6631ZM16.0283 30.458L17.0283 30.4582V30.458H16.0283ZM14.6631 29.1035H13.6631V29.8253L14.3482 30.0526L14.6631 29.1035ZM14.6631 27.7109L14.3481 26.7618L13.6631 26.9891V27.7109H14.6631ZM16.0283 26.3574L17.0283 26.3576V26.3574H16.0283ZM14.6631 25.0029H13.6631V25.7248L14.3482 25.9521L14.6631 25.0029ZM14.6631 23.6104L14.3481 22.6612L13.6631 22.8886V23.6104H14.6631ZM16.0283 22.2568L17.0283 22.2571V22.2568H16.0283ZM14.6631 20.9023H13.6631V21.6242L14.3482 21.8515L14.6631 20.9023ZM14.6631 19.5332L14.7041 18.534L13.6631 18.4913V19.5332H14.6631ZM15.3447 19.5479L15.3447 20.5479H15.3447V19.5479ZM27.5869 12.6846V11.6846H26.9378L26.6736 12.2774L27.5869 12.6846ZM316.029 12.6846L315.116 13.0917C317.094 17.53 322.32 20.5478 328.271 20.5479V19.5479V18.5479C322.919 18.5478 318.529 15.8358 316.943 12.2774L316.029 12.6846ZM328.271 19.5479V20.5479C329.013 20.5479 329.74 20.4992 330.447 20.4101L330.322 19.418L330.197 18.4258C329.569 18.5049 328.926 18.5479 328.271 18.5479V19.5479ZM330.322 19.418H329.322V20.9014H330.322H331.322V19.418H330.322ZM330.322 20.9014L330.008 19.9521C329.496 20.1216 329.01 20.3822 328.636 20.7457C328.257 21.1132 327.955 21.6285 327.955 22.2568H328.955H329.955C329.955 22.3057 329.928 22.2786 330.029 22.1809C330.134 22.0791 330.331 21.9517 330.637 21.8507L330.322 20.9014ZM328.955 22.2568L327.955 22.2571C327.955 22.8858 328.258 23.4008 328.637 23.7677C329.011 24.1304 329.497 24.3903 330.008 24.5596L330.322 23.6104L330.637 22.6611C330.331 22.5598 330.133 22.4325 330.028 22.331C329.928 22.2336 329.955 22.2072 329.955 22.2566L328.955 22.2568ZM330.322 23.6104H329.322V25.002H330.322H331.322V23.6104H330.322ZM330.322 25.002L330.008 24.0526C329.496 24.2222 329.01 24.4828 328.636 24.8463C328.257 25.2137 327.955 25.7291 327.955 26.3574H328.955H329.955C329.955 26.4063 329.928 26.3792 330.029 26.2814C330.134 26.1797 330.331 26.0523 330.637 25.9513L330.322 25.002ZM328.955 26.3574L327.955 26.3576C327.955 26.9863 328.258 27.5014 328.637 27.8682C329.011 28.231 329.497 28.4909 330.008 28.6602L330.322 27.7109L330.637 26.7617C330.331 26.6604 330.133 26.5331 330.028 26.4316C329.928 26.3342 329.955 26.3078 329.955 26.3572L328.955 26.3574ZM330.322 27.7109H329.322V29.1025H330.322H331.322V27.7109H330.322ZM330.322 29.1025L330.008 28.1532C329.496 28.3228 329.01 28.5834 328.636 28.9469C328.257 29.3143 327.955 29.8297 327.955 30.458H328.955H329.955C329.955 30.5069 329.928 30.4798 330.029 30.382C330.134 30.2803 330.331 30.1529 330.637 30.0518L330.322 29.1025ZM328.955 30.458L327.955 30.4582C327.955 31.0869 328.258 31.6019 328.637 31.9688C329.011 32.3316 329.497 32.5915 330.008 32.7608L330.322 31.8115L330.637 30.8623C330.331 30.761 330.133 30.6337 330.028 30.5322C329.928 30.4348 329.955 30.4084 329.955 30.4578L328.955 30.458ZM330.322 31.8115H329.322V33.2041H330.322H331.322V31.8115H330.322ZM330.322 33.2041L330.008 32.2548C329.496 32.4242 329.011 32.6845 328.636 33.0476C328.257 33.4148 327.955 33.93 327.955 34.5586L328.955 34.5586L329.955 34.5586C329.955 34.6078 329.928 34.581 330.028 34.4835C330.133 34.3819 330.331 34.2546 330.637 34.1534L330.322 33.2041ZM328.955 34.5586H327.955C327.955 35.1874 328.258 35.7025 328.637 36.0695C329.011 36.4322 329.497 36.6921 330.008 36.8614L330.322 35.9121L330.637 34.9629C330.331 34.8615 330.133 34.7343 330.028 34.6328C329.928 34.5354 329.955 34.5091 329.955 34.5586H328.955ZM330.322 35.9121H329.322V37.3057H330.322H331.322V35.9121H330.322ZM330.322 37.3057L330.008 36.3564C329.496 36.5258 329.011 36.786 328.636 37.1492C328.257 37.5164 327.955 38.0316 327.955 38.6602H328.955H329.955C329.955 38.7093 329.928 38.6826 330.028 38.5851C330.133 38.4835 330.331 38.3562 330.637 38.2549L330.322 37.3057ZM328.955 38.6602L327.955 38.6602C327.955 39.289 328.258 39.8041 328.637 40.171C329.011 40.5338 329.497 40.7936 330.008 40.9629L330.322 40.0137L330.637 39.0644C330.331 38.9631 330.133 38.8358 330.028 38.7344C329.928 38.637 329.955 38.6106 329.955 38.6601L328.955 38.6602ZM330.322 40.0137H329.322V41.4062H330.322H331.322V40.0137H330.322ZM330.322 41.4062L330.008 40.457C329.496 40.6264 329.011 40.8866 328.636 41.2497C328.257 41.6169 327.955 42.1322 327.955 42.7607H328.955H329.955C329.955 42.8099 329.928 42.7832 330.028 42.6856C330.133 42.584 330.331 42.4567 330.637 42.3555L330.322 41.4062ZM328.955 42.7607L327.955 42.7608C327.955 43.3896 328.258 43.9047 328.637 44.2716C329.011 44.6344 329.497 44.8942 330.008 45.0635L330.322 44.1143L330.637 43.165C330.331 43.0637 330.133 42.9364 330.028 42.8349C329.928 42.7376 329.955 42.7112 329.955 42.7606L328.955 42.7607ZM330.322 44.1143H329.322V45.5068H330.322H331.322V44.1143H330.322ZM330.322 45.5068L330.008 44.5576C329.496 44.727 329.011 44.9872 328.636 45.3503C328.257 45.7175 327.955 46.2328 327.955 46.8613H328.955H329.955C329.955 46.9105 329.928 46.8838 330.028 46.7862C330.133 46.6846 330.331 46.5573 330.637 46.4561L330.322 45.5068ZM328.955 46.8613L327.955 46.8615C327.955 47.4902 328.258 48.0053 328.637 48.3722C329.011 48.735 329.497 48.9948 330.008 49.1641L330.322 48.2148L330.637 47.2656C330.331 47.1643 330.133 47.037 330.028 46.9355C329.928 46.8382 329.955 46.8118 329.955 46.8612L328.955 46.8613ZM330.322 48.2148H329.322V49.6074H330.322H331.322V48.2148H330.322ZM330.322 49.6074L330.008 48.6581C329.496 48.8276 329.01 49.0883 328.636 49.4518C328.257 49.8192 327.955 50.3346 327.955 50.9629H328.955H329.955C329.955 51.0117 329.928 50.9846 330.029 50.8869C330.134 50.7852 330.331 50.6578 330.637 50.5567L330.322 49.6074ZM328.955 50.9629L327.955 50.9631C327.955 51.5918 328.258 52.1068 328.637 52.4737C329.011 52.8365 329.497 53.0964 330.008 53.2657L330.322 52.3164L330.637 51.3671C330.331 51.2658 330.133 51.1386 330.028 51.0371C329.928 50.9397 329.955 50.9133 329.955 50.9627L328.955 50.9629ZM330.322 52.3164H329.322V53.707H330.322H331.322V52.3164H330.322ZM330.322 53.707L330.008 52.7577C329.496 52.9272 329.01 53.1879 328.636 53.5514C328.257 53.9188 327.955 54.4342 327.955 55.0625H328.955H329.955C329.955 55.1113 329.928 55.0843 330.029 54.9865C330.134 54.8848 330.331 54.7574 330.637 54.6563L330.322 53.707ZM328.955 55.0625L327.955 55.0627C327.955 55.6914 328.258 56.2064 328.637 56.5733C329.011 56.9361 329.497 57.196 330.008 57.3653L330.322 56.416L330.637 55.4668C330.331 55.3654 330.133 55.2382 330.028 55.1367C329.928 55.0393 329.955 55.0129 329.955 55.0623L328.955 55.0625ZM330.322 56.416H329.322V57.8086H330.322H331.322V56.416H330.322ZM330.322 57.8086L330.008 56.8593C329.496 57.0288 329.01 57.2894 328.636 57.6529C328.257 58.0204 327.955 58.5358 327.955 59.1641H328.955H329.955C329.955 59.2129 329.928 59.1858 330.029 59.0881C330.134 58.9863 330.331 58.859 330.637 58.7579L330.322 57.8086ZM328.955 59.1641L327.955 59.1644C327.955 59.793 328.258 60.308 328.637 60.6749C329.011 61.0377 329.497 61.2976 330.008 61.4668L330.322 60.5176L330.637 59.5683C330.331 59.467 330.133 59.3398 330.028 59.2383C329.928 59.1409 329.955 59.1144 329.955 59.1638L328.955 59.1641ZM330.322 60.5176H329.322V61.8867H330.322H331.322V60.5176H330.322ZM330.322 61.8867L330.281 60.8876C324.104 61.141 318.796 64.6654 317.382 69.6058L318.344 69.8809L319.305 70.1559C320.418 66.2657 324.793 63.1144 330.363 62.8859L330.322 61.8867ZM318.344 69.8809V68.8809H25.2715V69.8809V70.8809H318.344V69.8809ZM25.2715 69.8809L26.2329 69.6058C24.9309 65.0544 20.3171 61.705 14.788 61.0088L14.6631 62.001L14.5382 62.9931C19.5006 63.618 23.2852 66.5735 24.3101 70.1559L25.2715 69.8809ZM14.6631 62.001H15.6631V60.5176H14.6631H13.6631V62.001H14.6631ZM14.6631 60.5176L14.978 61.4667C15.4888 61.2972 15.9739 61.037 16.3479 60.6741C16.7263 60.3071 17.0282 59.7923 17.0283 59.1643L16.0283 59.1641L15.0283 59.1638C15.0283 59.1148 15.0556 59.1413 14.9553 59.2387C14.8508 59.3401 14.6532 59.4672 14.3481 59.5685L14.6631 60.5176ZM16.0283 59.1641H17.0283C17.0283 58.5362 16.7266 58.0212 16.3484 57.6539C15.9744 57.2906 15.4892 57.03 14.978 56.8604L14.6631 57.8096L14.3482 58.7587C14.6531 58.8598 14.8505 58.9871 14.955 59.0886C15.0554 59.1861 15.0283 59.2129 15.0283 59.1641H16.0283ZM14.6631 57.8096H15.6631V56.416H14.6631H13.6631V57.8096H14.6631ZM14.6631 56.416L14.978 57.3651C15.4888 57.1956 15.9739 56.9355 16.3479 56.5725C16.7263 56.2055 17.0282 55.6907 17.0283 55.0627L16.0283 55.0625L15.0283 55.0623C15.0283 55.0132 15.0556 55.0398 14.9553 55.1371C14.8508 55.2385 14.6532 55.3657 14.3481 55.4669L14.6631 56.416ZM16.0283 55.0625H17.0283C17.0283 54.4346 16.7266 53.9196 16.3484 53.5523C15.9744 53.189 15.4892 52.9285 14.978 52.7589L14.6631 53.708L14.3482 54.6571C14.6531 54.7583 14.8505 54.8855 14.955 54.987C15.0554 55.0845 15.0283 55.1114 15.0283 55.0625H16.0283ZM14.6631 53.708H15.6631V52.3164H14.6631H13.6631V53.708H14.6631ZM14.6631 52.3164L14.978 53.2655C15.4888 53.096 15.9739 52.8359 16.3479 52.4729C16.7263 52.1059 17.0282 51.5911 17.0283 50.9631L16.0283 50.9629L15.0283 50.9627C15.0283 50.9136 15.0556 50.9402 14.9553 51.0375C14.8508 51.1389 14.6532 51.2661 14.3481 51.3673L14.6631 52.3164ZM16.0283 50.9629H17.0283C17.0283 50.335 16.7266 49.82 16.3484 49.4527C15.9744 49.0894 15.4892 48.8289 14.978 48.6593L14.6631 49.6084L14.3482 50.5575C14.6531 50.6587 14.8505 50.7859 14.955 50.8874C15.0554 50.9849 15.0283 51.0117 15.0283 50.9629H16.0283ZM14.6631 49.6084H15.6631V48.2148H14.6631H13.6631V49.6084H14.6631ZM14.6631 48.2148L14.978 49.164C15.4888 48.9945 15.9739 48.7343 16.3479 48.3714C16.7263 48.0043 17.0282 47.4895 17.0283 46.8615L16.0283 46.8613L15.0283 46.8611C15.0283 46.812 15.0556 46.8386 14.9553 46.9359C14.8508 47.0373 14.6532 47.1645 14.3481 47.2657L14.6631 48.2148ZM16.0283 46.8613H17.0283C17.0283 46.2335 16.7266 45.7184 16.3484 45.3511C15.9744 44.9878 15.4892 44.7273 14.978 44.5577L14.6631 45.5068L14.3482 46.456C14.6531 46.5571 14.8505 46.6843 14.955 46.7859C15.0554 46.8833 15.0283 46.9102 15.0283 46.8613H16.0283ZM14.6631 45.5068H15.6631V44.1143H14.6631H13.6631V45.5068H14.6631ZM14.6631 44.1143L14.978 45.0634C15.4888 44.8939 15.9739 44.6337 16.3479 44.2708C16.7263 43.9037 17.0282 43.3889 17.0283 42.761L16.0283 42.7607L15.0283 42.7605C15.0283 42.7114 15.0556 42.738 14.9553 42.8353C14.8508 42.9367 14.6532 43.0639 14.3481 43.1651L14.6631 44.1143ZM16.0283 42.7607H17.0283C17.0283 42.1329 16.7266 41.6179 16.3484 41.2505C15.9744 40.8872 15.4892 40.6267 14.978 40.4571L14.6631 41.4062L14.3482 42.3554C14.6531 42.4565 14.8505 42.5838 14.955 42.6853C15.0554 42.7828 15.0283 42.8096 15.0283 42.7607H16.0283ZM14.6631 41.4062H15.6631V40.0137H14.6631H13.6631V41.4062H14.6631ZM14.6631 40.0137L14.978 40.9628C15.4888 40.7933 15.9739 40.5331 16.3479 40.1702C16.7263 39.8032 17.0282 39.2883 17.0283 38.6604L16.0283 38.6602L15.0283 38.6599C15.0283 38.6108 15.0556 38.6374 14.9553 38.7348C14.8508 38.8362 14.6532 38.9633 14.3481 39.0646L14.6631 40.0137ZM16.0283 38.6602H17.0283C17.0283 38.0323 16.7266 37.5173 16.3484 37.1499C15.9744 36.7867 15.4892 36.5261 14.978 36.3565L14.6631 37.3057L14.3482 38.2548C14.6531 38.3559 14.8505 38.4832 14.955 38.5847C15.0554 38.6822 15.0283 38.709 15.0283 38.6602H16.0283ZM14.6631 37.3057H15.6631V35.9121H14.6631H13.6631V37.3057H14.6631ZM14.6631 35.9121L14.978 36.8612C15.4888 36.6917 15.9739 36.4316 16.3479 36.0686C16.7263 35.7016 17.0282 35.1868 17.0283 34.5588L16.0283 34.5586L15.0283 34.5584C15.0283 34.5093 15.0556 34.5359 14.9553 34.6332C14.8508 34.7346 14.6532 34.8618 14.3481 34.963L14.6631 35.9121ZM16.0283 34.5586H17.0283C17.0283 33.9307 16.7266 33.4157 16.3484 33.0484C15.9744 32.6851 15.4892 32.4246 14.978 32.255L14.6631 33.2041L14.3482 34.1532C14.6531 34.2544 14.8505 34.3816 14.955 34.4831C15.0554 34.5806 15.0283 34.6075 15.0283 34.5586H16.0283ZM14.6631 33.2041H15.6631V31.8115H14.6631H13.6631V33.2041H14.6631ZM14.6631 31.8115L14.978 32.7606C15.4888 32.5911 15.9739 32.331 16.3479 31.968C16.7263 31.601 17.0282 31.0862 17.0283 30.4582L16.0283 30.458L15.0283 30.4578C15.0283 30.4087 15.0556 30.4353 14.9553 30.5326C14.8508 30.634 14.6532 30.7612 14.3481 30.8624L14.6631 31.8115ZM16.0283 30.458H17.0283C17.0283 29.8301 16.7266 29.3151 16.3484 28.9478C15.9744 28.5845 15.4892 28.324 14.978 28.1544L14.6631 29.1035L14.3482 30.0526C14.6531 30.1538 14.8505 30.281 14.955 30.3825C15.0554 30.48 15.0283 30.5069 15.0283 30.458H16.0283ZM14.6631 29.1035H15.6631V27.7109H14.6631H13.6631V29.1035H14.6631ZM14.6631 27.7109L14.978 28.66C15.4888 28.4906 15.9739 28.2304 16.3479 27.8675C16.7263 27.5004 17.0282 26.9856 17.0283 26.3576L16.0283 26.3574L15.0283 26.3572C15.0283 26.3081 15.0556 26.3347 14.9553 26.432C14.8508 26.5334 14.6532 26.6606 14.3481 26.7618L14.6631 27.7109ZM16.0283 26.3574H17.0283C17.0283 25.7296 16.7266 25.2145 16.3484 24.8472C15.9744 24.4839 15.4892 24.2234 14.978 24.0538L14.6631 25.0029L14.3482 25.9521C14.6531 26.0532 14.8505 26.1804 14.955 26.2819C15.0554 26.3794 15.0283 26.4063 15.0283 26.3574H16.0283ZM14.6631 25.0029H15.6631V23.6104H14.6631H13.6631V25.0029H14.6631ZM14.6631 23.6104L14.978 24.5595C15.4888 24.39 15.9739 24.1298 16.3479 23.7669C16.7263 23.3998 17.0282 22.885 17.0283 22.2571L16.0283 22.2568L15.0283 22.2566C15.0283 22.2075 15.0556 22.2341 14.9553 22.3314C14.8508 22.4328 14.6532 22.56 14.3481 22.6612L14.6631 23.6104ZM16.0283 22.2568H17.0283C17.0283 21.629 16.7266 21.1139 16.3484 20.7466C15.9744 20.3833 15.4892 20.1228 14.978 19.9532L14.6631 20.9023L14.3482 21.8515C14.6531 21.9526 14.8505 22.0798 14.955 22.1814C15.0554 22.2788 15.0283 22.3057 15.0283 22.2568H16.0283ZM14.6631 20.9023H15.6631V19.5332H14.6631H13.6631V20.9023H14.6631ZM14.6631 19.5332L14.6221 20.5324C14.8594 20.5421 15.1004 20.5478 15.3447 20.5479L15.3447 19.5479L15.3447 18.5479C15.1317 18.5478 14.9183 18.5428 14.7041 18.534L14.6631 19.5332ZM15.3447 19.5479V20.5479C21.2965 20.5479 26.5217 17.5299 28.5003 13.0917L27.5869 12.6846L26.6736 12.2774C25.0873 15.8357 20.6968 18.5479 15.3447 18.5479V19.5479ZM27.5869 12.6846V13.6846H316.029V12.6846V11.6846H27.5869V12.6846Z" fill="white" mask="url(#path-2-inside-1_557_288)"/>
<path d="M141.134 37.0859V25.4496H143.594V30.2507H148.588V25.4496H151.043V37.0859H148.588V32.2791H143.594V37.0859H141.134ZM156.969 37.2564C156.086 37.2564 155.323 37.0689 154.679 36.6939C154.039 36.3151 153.545 35.7886 153.196 35.1143C152.848 34.4363 152.673 33.6503 152.673 32.7564C152.673 31.8549 152.848 31.067 153.196 30.3928C153.545 29.7147 154.039 29.1882 154.679 28.8132C155.323 28.4344 156.086 28.245 156.969 28.245C157.851 28.245 158.613 28.4344 159.253 28.8132C159.897 29.1882 160.393 29.7147 160.742 30.3928C161.09 31.067 161.264 31.8549 161.264 32.7564C161.264 33.6503 161.09 34.4363 160.742 35.1143C160.393 35.7886 159.897 36.3151 159.253 36.6939C158.613 37.0689 157.851 37.2564 156.969 37.2564ZM156.98 35.3814C157.382 35.3814 157.717 35.2678 157.986 35.0405C158.255 34.8094 158.458 34.495 158.594 34.0973C158.734 33.6996 158.804 33.2469 158.804 32.7393C158.804 32.2318 158.734 31.7791 158.594 31.3814C158.458 30.9837 158.255 30.6693 157.986 30.4382C157.717 30.2071 157.382 30.0916 156.98 30.0916C156.575 30.0916 156.234 30.2071 155.958 30.4382C155.685 30.6693 155.478 30.9837 155.338 31.3814C155.202 31.7791 155.134 32.2318 155.134 32.7393C155.134 33.2469 155.202 33.6996 155.338 34.0973C155.478 34.495 155.685 34.8094 155.958 35.0405C156.234 35.2678 156.575 35.3814 156.98 35.3814ZM162.838 37.0859V28.3587H165.185V29.8814H165.276C165.435 29.3397 165.702 28.9306 166.077 28.6541C166.452 28.3738 166.884 28.2337 167.372 28.2337C167.493 28.2337 167.624 28.2412 167.764 28.2564C167.904 28.2715 168.028 28.2924 168.134 28.3189V30.4666C168.02 30.4325 167.863 30.4022 167.662 30.3757C167.461 30.3492 167.278 30.3359 167.111 30.3359C166.755 30.3359 166.437 30.4136 166.156 30.5689C165.88 30.7204 165.66 30.9325 165.497 31.2053C165.338 31.478 165.259 31.7924 165.259 32.1484V37.0859H162.838ZM169.385 37.0859V28.3587H171.732V29.8814H171.823C171.982 29.3397 172.249 28.9306 172.624 28.6541C172.999 28.3738 173.431 28.2337 173.919 28.2337C174.04 28.2337 174.171 28.2412 174.311 28.2564C174.451 28.2715 174.574 28.2924 174.681 28.3189V30.4666C174.567 30.4325 174.41 30.4022 174.209 30.3757C174.008 30.3492 173.824 30.3359 173.658 30.3359C173.302 30.3359 172.984 30.4136 172.703 30.5689C172.427 30.7204 172.207 30.9325 172.044 31.2053C171.885 31.478 171.806 31.7924 171.806 32.1484V37.0859H169.385ZM179.469 37.2564C178.586 37.2564 177.823 37.0689 177.179 36.6939C176.539 36.3151 176.045 35.7886 175.696 35.1143C175.348 34.4363 175.173 33.6503 175.173 32.7564C175.173 31.8549 175.348 31.067 175.696 30.3928C176.045 29.7147 176.539 29.1882 177.179 28.8132C177.823 28.4344 178.586 28.245 179.469 28.245C180.351 28.245 181.113 28.4344 181.753 28.8132C182.397 29.1882 182.893 29.7147 183.242 30.3928C183.59 31.067 183.764 31.8549 183.764 32.7564C183.764 33.6503 183.59 34.4363 183.242 35.1143C182.893 35.7886 182.397 36.3151 181.753 36.6939C181.113 37.0689 180.351 37.2564 179.469 37.2564ZM179.48 35.3814C179.882 35.3814 180.217 35.2678 180.486 35.0405C180.755 34.8094 180.958 34.495 181.094 34.0973C181.234 33.6996 181.304 33.2469 181.304 32.7393C181.304 32.2318 181.234 31.7791 181.094 31.3814C180.958 30.9837 180.755 30.6693 180.486 30.4382C180.217 30.2071 179.882 30.0916 179.48 30.0916C179.075 30.0916 178.734 30.2071 178.458 30.4382C178.185 30.6693 177.978 30.9837 177.838 31.3814C177.702 31.7791 177.634 32.2318 177.634 32.7393C177.634 33.2469 177.702 33.6996 177.838 34.0973C177.978 34.495 178.185 34.8094 178.458 35.0405C178.734 35.2678 179.075 35.3814 179.48 35.3814ZM185.338 37.0859V28.3587H187.685V29.8814H187.776C187.935 29.3397 188.202 28.9306 188.577 28.6541C188.952 28.3738 189.384 28.2337 189.872 28.2337C189.993 28.2337 190.124 28.2412 190.264 28.2564C190.404 28.2715 190.528 28.2924 190.634 28.3189V30.4666C190.52 30.4325 190.363 30.4022 190.162 30.3757C189.961 30.3492 189.778 30.3359 189.611 30.3359C189.255 30.3359 188.937 30.4136 188.656 30.5689C188.38 30.7204 188.16 30.9325 187.997 31.2053C187.838 31.478 187.759 31.7924 187.759 32.1484V37.0859H185.338ZM191.885 37.0859V28.3587H194.306V37.0859H191.885ZM193.101 27.2337C192.741 27.2337 192.432 27.1143 192.175 26.8757C191.921 26.6333 191.794 26.3435 191.794 26.0064C191.794 25.6731 191.921 25.3871 192.175 25.1484C192.432 24.906 192.741 24.7848 193.101 24.7848C193.461 24.7848 193.768 24.906 194.021 25.1484C194.279 25.3871 194.408 25.6731 194.408 26.0064C194.408 26.3435 194.279 26.6333 194.021 26.8757C193.768 27.1143 193.461 27.2337 193.101 27.2337ZM198.665 32.0405V37.0859H196.244V28.3587H198.551V29.8984H198.654C198.847 29.3909 199.171 28.9893 199.625 28.6939C200.08 28.3946 200.631 28.245 201.279 28.245C201.885 28.245 202.413 28.3776 202.864 28.6428C203.315 28.9079 203.665 29.2867 203.915 29.7791C204.165 30.2678 204.29 30.8511 204.29 31.5291V37.0859H201.869V31.9609C201.873 31.4268 201.737 31.0102 201.46 30.7109C201.184 30.4079 200.803 30.2564 200.318 30.2564C199.993 30.2564 199.705 30.3265 199.455 30.4666C199.208 30.6068 199.015 30.8113 198.875 31.0803C198.739 31.3454 198.669 31.6655 198.665 32.0405Z" fill="white"/>
<rect x="287.898" y="19.46" width="24.7278" height="0.755505" fill="white"/>
<rect x="287.898" y="20.9717" width="24.7278" height="2.51835" fill="white"/>
<rect x="287.898" y="30.0371" width="24.7278" height="1.51101" fill="white"/>
<rect x="287.898" y="39.3555" width="24.7278" height="1.51101" fill="white"/>
<rect x="287.898" y="41.873" width="24.7278" height="3.27386" fill="white"/>
<rect x="287.898" y="25.5039" width="24.7278" height="1.00734" fill="white"/>
<rect x="287.898" y="32.3047" width="24.7278" height="1.00734" fill="white"/>
<rect x="287.898" y="27.2676" width="24.7278" height="0.755505" fill="white"/>
<rect x="287.898" y="34.3184" width="24.7278" height="0.755505" fill="white"/>
<rect x="287.898" y="28.7773" width="24.7278" height="0.50367" fill="white"/>
<rect x="287.898" y="45.9023" width="24.7278" height="0.50367" fill="white"/>
<rect x="287.898" y="48.4219" width="24.7278" height="0.50367" fill="white"/>
<rect x="287.898" y="36.0811" width="24.7278" height="0.50367" fill="white"/>
<rect x="287.898" y="54.2129" width="24.7278" height="0.50367" fill="white"/>
<rect x="287.898" y="55.2207" width="24.7278" height="0.50367" fill="white"/>
<rect x="287.898" y="47.1621" width="24.7278" height="0.50367" fill="white"/>
<rect x="287.898" y="50.4355" width="24.7278" height="0.50367" fill="white"/>
<rect x="287.898" y="51.4434" width="24.7278" height="1.76285" fill="white"/>
<rect x="287.856" y="58.6543" width="24.6353" height="0.832373" fill="white"/>
<rect x="287.898" y="37.8447" width="24.7278" height="0.50367" fill="white"/>
<rect x="287.898" y="60.0049" width="24.7278" height="1.76285" fill="white"/>
<path d="M147.291 58.1706L144.168 60.0562C144.076 60.1015 143.991 60.1198 143.912 60.1112C143.834 60.1021 143.759 60.0751 143.685 60.0304C143.61 59.9845 143.554 59.9197 143.516 59.836C143.478 59.7522 143.475 59.6608 143.506 59.5616L144.337 56.0261L141.588 53.6433C141.511 53.5802 141.46 53.5048 141.435 53.417C141.41 53.3293 141.416 53.2453 141.451 53.165C141.487 53.0847 141.534 53.0188 141.593 52.9671C141.653 52.9173 141.733 52.8834 141.834 52.8656L145.461 52.5491L146.875 49.2011C146.914 49.1065 146.97 49.0383 147.044 48.9964C147.117 48.9545 147.199 48.9336 147.291 48.9336C147.382 48.9336 147.464 48.9545 147.538 48.9964C147.612 49.0383 147.668 49.1065 147.706 49.2011L149.12 52.5491L152.746 52.8656C152.848 52.8828 152.928 52.917 152.988 52.968C153.047 53.0185 153.095 53.0841 153.131 53.165C153.166 53.2453 153.171 53.3293 153.146 53.417C153.121 53.5048 153.07 53.5802 152.993 53.6433L150.245 56.0261L151.076 59.5616C151.108 59.6596 151.104 59.7508 151.066 59.8351C151.028 59.9194 150.971 59.9842 150.897 60.0295C150.823 60.0754 150.747 60.1026 150.669 60.1112C150.591 60.1198 150.506 60.1015 150.414 60.0562L147.291 58.1706Z" fill="white"/>
<path d="M172.726 58.1706L169.604 60.0562C169.512 60.1015 169.427 60.1198 169.348 60.1112C169.27 60.1021 169.194 60.0751 169.12 60.0304C169.046 59.9845 168.989 59.9197 168.951 59.836C168.914 59.7522 168.91 59.6608 168.941 59.5616L169.772 56.0261L167.024 53.6433C166.946 53.5802 166.895 53.5048 166.871 53.417C166.846 53.3293 166.851 53.2453 166.887 53.165C166.923 53.0847 166.97 53.0188 167.029 52.9671C167.089 52.9173 167.169 52.8834 167.27 52.8656L170.896 52.5491L172.311 49.2011C172.35 49.1065 172.406 49.0383 172.479 48.9964C172.553 48.9545 172.635 48.9336 172.726 48.9336C172.817 48.9336 172.9 48.9545 172.974 48.9964C173.048 49.0383 173.104 49.1065 173.142 49.2011L174.556 52.5491L178.182 52.8656C178.283 52.8828 178.364 52.917 178.423 52.968C178.483 53.0185 178.531 53.0841 178.566 53.165C178.601 53.2453 178.606 53.3293 178.582 53.417C178.557 53.5048 178.506 53.5802 178.428 53.6433L175.68 56.0261L176.511 59.5616C176.543 59.6596 176.54 59.7508 176.502 59.8351C176.463 59.9194 176.407 59.9842 176.332 60.0295C176.259 60.0754 176.183 60.1026 176.104 60.1112C176.026 60.1198 175.941 60.1015 175.85 60.0562L172.726 58.1706Z" fill="white"/>
<path d="M198.164 58.1706L195.041 60.0562C194.949 60.1015 194.864 60.1198 194.786 60.1112C194.708 60.1021 194.632 60.0751 194.558 60.0304C194.483 59.9845 194.427 59.9197 194.389 59.836C194.351 59.7522 194.348 59.6608 194.379 59.5616L195.21 56.0261L192.461 53.6433C192.384 53.5802 192.333 53.5048 192.308 53.417C192.283 53.3293 192.289 53.2453 192.324 53.165C192.36 53.0847 192.407 53.0188 192.466 52.9671C192.526 52.9173 192.606 52.8834 192.707 52.8656L196.334 52.5491L197.748 49.2011C197.787 49.1065 197.843 49.0383 197.917 48.9964C197.99 48.9545 198.072 48.9336 198.164 48.9336C198.255 48.9336 198.337 48.9545 198.411 48.9964C198.485 49.0383 198.541 49.1065 198.579 49.2011L199.993 52.5491L203.619 52.8656C203.721 52.8828 203.801 52.917 203.861 52.968C203.92 53.0185 203.968 53.0841 204.004 53.165C204.039 53.2453 204.044 53.3293 204.019 53.417C203.994 53.5048 203.943 53.5802 203.866 53.6433L201.118 56.0261L201.949 59.5616C201.981 59.6596 201.978 59.7508 201.939 59.8351C201.901 59.9194 201.844 59.9842 201.77 60.0295C201.696 60.0754 201.62 60.1026 201.542 60.1112C201.464 60.1198 201.379 60.1015 201.287 60.0562L198.164 58.1706Z" fill="white"/>
<path d="M223.734 58.1706L220.611 60.0562C220.52 60.1015 220.434 60.1198 220.356 60.1112C220.278 60.1021 220.202 60.0751 220.128 60.0304C220.053 59.9845 219.997 59.9197 219.959 59.836C219.921 59.7522 219.918 59.6608 219.949 59.5616L220.78 56.0261L218.032 53.6433C217.954 53.5802 217.903 53.5048 217.878 53.417C217.854 53.3293 217.859 53.2453 217.895 53.165C217.93 53.0847 217.978 53.0188 218.037 52.9671C218.096 52.9173 218.177 52.8834 218.278 52.8656L221.904 52.5491L223.318 49.2011C223.357 49.1065 223.414 49.0383 223.487 48.9964C223.56 48.9545 223.643 48.9336 223.734 48.9336C223.825 48.9336 223.908 48.9545 223.982 48.9964C224.056 49.0383 224.112 49.1065 224.149 49.2011L225.564 52.5491L229.189 52.8656C229.291 52.8828 229.371 52.917 229.431 52.968C229.491 53.0185 229.538 53.0841 229.574 53.165C229.609 53.2453 229.614 53.3293 229.589 53.417C229.565 53.5048 229.514 53.5802 229.436 53.6433L226.688 56.0261L227.519 59.5616C227.551 59.6596 227.548 59.7508 227.509 59.8351C227.471 59.9194 227.414 59.9842 227.34 60.0295C227.267 60.0754 227.191 60.1026 227.112 60.1112C227.034 60.1198 226.949 60.1015 226.857 60.0562L223.734 58.1706Z" fill="white"/>
<path d="M122.174 58.1706L119.052 60.0562C118.96 60.1015 118.875 60.1198 118.796 60.1112C118.718 60.1021 118.642 60.0751 118.568 60.0304C118.494 59.9845 118.438 59.9197 118.4 59.836C118.362 59.7522 118.358 59.6608 118.389 59.5616L119.22 56.0261L116.472 53.6433C116.395 53.5802 116.344 53.5048 116.319 53.417C116.294 53.3293 116.3 53.2453 116.335 53.165C116.371 53.0847 116.418 53.0188 116.477 52.9671C116.537 52.9173 116.617 52.8834 116.718 52.8656L120.345 52.5491L121.759 49.2011C121.798 49.1065 121.854 49.0383 121.927 48.9964C122.001 48.9545 122.083 48.9336 122.174 48.9336C122.266 48.9336 122.348 48.9545 122.422 48.9964C122.496 49.0383 122.552 49.1065 122.59 49.2011L124.004 52.5491L127.63 52.8656C127.731 52.8828 127.812 52.917 127.872 52.968C127.931 53.0185 127.979 53.0841 128.014 53.165C128.049 53.2453 128.055 53.3293 128.03 53.417C128.005 53.5048 127.954 53.5802 127.877 53.6433L125.128 56.0261L125.959 59.5616C125.991 59.6596 125.988 59.7508 125.95 59.8351C125.911 59.9194 125.855 59.9842 125.78 60.0295C125.707 60.0754 125.631 60.1026 125.552 60.1112C125.474 60.1198 125.39 60.1015 125.298 60.0562L122.174 58.1706Z" fill="white"/>
<path d="M280.07 13.3613V68.9205" stroke="white"/>
<path d="M276.532 14.0391V69.5982" stroke="white"/>
<path d="M50.0498 14.0391V69.5982" stroke="white"/>
<path d="M39.7305 32.4264H31.7305V31.4889L38.0117 27.1295V27.0514H31.7305V26.0826L39.7305 26.0826V27.0201L33.4336 31.3951V31.4732H39.7305V32.4264ZM31.6055 36.6773C31.6055 36.1357 31.7344 35.6604 31.9922 35.2516C32.25 34.8453 32.6107 34.5276 33.0742 34.2984C33.5378 34.0719 34.0794 33.9586 34.6992 33.9586C35.3242 33.9586 35.8698 34.0719 36.3359 34.2984C36.8021 34.5276 37.1641 34.8453 37.4219 35.2516C37.6797 35.6604 37.8086 36.1357 37.8086 36.6773C37.8086 37.219 37.6797 37.693 37.4219 38.0992C37.1641 38.5081 36.8021 38.8258 36.3359 39.0523C35.8698 39.2815 35.3242 39.3961 34.6992 39.3961C34.0794 39.3961 33.5378 39.2815 33.0742 39.0523C32.6107 38.8258 32.25 38.5081 31.9922 38.0992C31.7344 37.693 31.6055 37.219 31.6055 36.6773ZM32.4336 36.6773C32.4336 37.0888 32.5391 37.4273 32.75 37.693C32.9609 37.9586 33.2383 38.1552 33.582 38.2828C33.9258 38.4104 34.2982 38.4742 34.6992 38.4742C35.1003 38.4742 35.474 38.4104 35.8203 38.2828C36.1667 38.1552 36.4466 37.9586 36.6602 37.693C36.8737 37.4273 36.9805 37.0888 36.9805 36.6773C36.9805 36.2659 36.8737 35.9273 36.6602 35.6617C36.4466 35.3961 36.1667 35.1995 35.8203 35.0719C35.474 34.9443 35.1003 34.8805 34.6992 34.8805C34.2982 34.8805 33.9258 34.9443 33.582 35.0719C33.2383 35.1995 32.9609 35.3961 32.75 35.6617C32.5391 35.9273 32.4336 36.2659 32.4336 36.6773ZM31.668 41.4752C31.668 41.2825 31.737 41.1171 31.875 40.9791C32.013 40.8411 32.1784 40.7721 32.3711 40.7721C32.5638 40.7721 32.7292 40.8411 32.8672 40.9791C33.0052 41.1171 33.0742 41.2825 33.0742 41.4752C33.0742 41.6679 33.0052 41.8333 32.8672 41.9713C32.7292 42.1093 32.5638 42.1783 32.3711 42.1783C32.2435 42.1783 32.1263 42.1458 32.0195 42.0807C31.9128 42.0182 31.8268 41.9335 31.7617 41.8267C31.6992 41.7226 31.668 41.6054 31.668 41.4752ZM31.6211 46.1471C31.6211 45.5585 31.7813 45.0572 32.1016 44.6432C32.4245 44.2291 32.8919 43.9127 33.5039 43.6939C34.1185 43.4752 34.8607 43.3658 35.7305 43.3658C36.5951 43.3658 37.3333 43.4752 37.9453 43.6939C38.5599 43.9153 39.0286 44.233 39.3516 44.6471C39.6771 45.0637 39.8398 45.5637 39.8398 46.1471C39.8398 46.7304 39.6771 47.2291 39.3516 47.6432C39.0286 48.0598 38.5599 48.3775 37.9453 48.5963C37.3333 48.8176 36.5951 48.9283 35.7305 48.9283C34.8607 48.9283 34.1185 48.8189 33.5039 48.6002C32.8919 48.3814 32.4245 48.065 32.1016 47.651C31.7813 47.2369 31.6211 46.7356 31.6211 46.1471ZM32.4805 46.1471C32.4805 46.7304 32.7617 47.1835 33.3242 47.5064C33.8867 47.8294 34.6888 47.9908 35.7305 47.9908C36.4232 47.9908 37.013 47.9166 37.5 47.7682C37.987 47.6223 38.3581 47.4114 38.6133 47.1353C38.8685 46.8619 38.9961 46.5325 38.9961 46.1471C38.9961 45.5689 38.7109 45.1171 38.1406 44.7916C37.5729 44.4661 36.7695 44.3033 35.7305 44.3033C35.0378 44.3033 34.4492 44.3762 33.9648 44.5221C33.4805 44.6679 33.112 44.8775 32.8594 45.151C32.6068 45.427 32.4805 45.759 32.4805 46.1471ZM33.3711 50.2252H34.168L39.7305 53.7408V54.3189H38.4961V53.9283L34.293 51.2721H34.2305V56.0064H33.3711V50.2252ZM31.7305 53.9908H33.6133H33.9844H39.7305V54.9127H31.7305V53.9908Z" fill="white"/>
<defs>
<filter id="filter0_d_557_288" x="0" y="0.264648" width="344.983" height="85.7549" filterUnits="userSpaceOnUse" color-interpolation-filters="sRGB">
<feFlood flood-opacity="0" result="BackgroundImageFix"/>
<feColorMatrix in="SourceAlpha" type="matrix" values="0 0 0 0 0 0 0 0 0 0 0 0 0 0 0 0 0 0 127 0" result="hardAlpha"/>
<feOffset dy="2"/>
<feGaussianBlur stdDeviation="4.5"/>
<feComposite in2="hardAlpha" operator="out"/>
<feColorMatrix type="matrix" values="0 0 0 0 0 0 0 0 0 0 0 0 0 0 0 0 0 0 0.25 0"/>
<feBlend mode="normal" in2="BackgroundImageFix" result="effect1_dropShadow_557_288"/>
<feBlend mode="normal" in="SourceGraphic" in2="effect1_dropShadow_557_288" result="shape"/>
</filter>
<linearGradient id="paint0_linear_557_288" x1="9" y1="41.1421" x2="335.983" y2="41.1421" gradientUnits="userSpaceOnUse">
<stop stop-color="#171C3B"/>
<stop offset="0.389423" stop-color="#272940"/>
<stop offset="0.759615" stop-color="#404F6E"/>
<stop offset="1" stop-color="#8198B7"/>
</linearGradient>
</defs>
</svg>
