<svg width="345" height="86" viewBox="0 0 345 86" fill="none" xmlns="http://www.w3.org/2000/svg">
<g filter="url(#filter0_d_557_385)">
<path d="M321.179 7C323.025 11.7364 328.005 15.1298 333.859 15.1299C334.582 15.1299 335.292 15.0771 335.983 14.9775V16.7363C335.138 17.057 334.568 17.6548 334.568 18.3408C334.569 19.0266 335.138 19.6227 335.983 19.9434V21.5928C335.138 21.9135 334.568 22.5112 334.568 23.1973C334.569 23.883 335.138 24.4791 335.983 24.7998V26.4512C335.138 26.7719 334.568 27.3696 334.568 28.0557C334.569 28.7414 335.138 29.3375 335.983 29.6582V31.3086C335.138 31.6293 334.568 32.2271 334.568 32.9131C334.569 33.5989 335.138 34.1949 335.983 34.5156V36.167C335.138 36.4877 334.568 37.0855 334.568 37.7715C334.569 38.4573 335.138 39.0533 335.983 39.374V41.0244C335.138 41.3451 334.568 41.9429 334.568 42.6289C334.569 43.3147 335.138 43.9108 335.983 44.2314V45.8818C335.138 46.2025 334.568 46.8003 334.568 47.4863C334.569 48.1721 335.138 48.7682 335.983 49.0889V50.7412C335.138 51.0619 334.568 51.6597 334.568 52.3457C334.569 53.0315 335.138 53.6276 335.983 53.9482V55.5986C335.138 55.9193 334.568 56.5171 334.568 57.2031C334.569 57.8889 335.138 58.485 335.983 58.8057V60.4561C335.138 60.7768 334.568 61.3745 334.568 62.0605C334.569 62.7463 335.138 63.3424 335.983 63.6631V65.2842C329.899 65.5697 324.885 69.5245 323.576 74.7549H19.9902C18.785 69.9367 14.4346 66.202 9 65.4199V63.6641C9.84586 63.3435 10.4158 62.7466 10.416 62.0605C10.416 61.3742 9.84623 60.7757 9 60.4551V58.8066C9.84586 58.4861 10.4158 57.8892 10.416 57.2031C10.416 56.5168 9.84623 55.9182 9 55.5977V53.9492C9.84586 53.6286 10.4158 53.0318 10.416 52.3457C10.416 51.6594 9.84623 51.0608 9 50.7402V49.0898C9.84586 48.7693 10.4158 48.1724 10.416 47.4863C10.416 46.8 9.84623 46.2015 9 45.8809V44.2324C9.84586 43.9118 10.4158 43.315 10.416 42.6289C10.416 41.9426 9.84623 41.344 9 41.0234V39.375C9.84586 39.0544 10.4158 38.4576 10.416 37.7715C10.416 37.0852 9.84623 36.4866 9 36.166V34.5166C9.84586 34.196 10.4158 33.5992 10.416 32.9131C10.416 32.2268 9.84623 31.6282 9 31.3076V29.6592C9.84586 29.3386 10.4158 28.7417 10.416 28.0557C10.416 27.3693 9.84623 26.7708 9 26.4502V24.8008C9.84586 24.4802 10.4158 23.8833 10.416 23.1973C10.416 22.5109 9.84623 21.9124 9 21.5918V19.9443C9.84586 19.6237 10.4158 19.0269 10.416 18.3408C10.416 17.6545 9.84623 17.0559 9 16.7354V15.1133C9.23415 15.1243 9.46987 15.1299 9.70703 15.1299C15.5618 15.1299 20.5424 11.7365 22.3887 7H321.179Z" fill="url(#paint0_linear_557_385)"/>
</g>
<mask id="path-2-inside-1_557_385" fill="white">
<path d="M316.029 12.4199C317.811 16.4186 322.619 19.2841 328.271 19.2842C328.969 19.2842 329.654 19.2384 330.322 19.1543V20.6377C329.505 20.9083 328.955 21.4137 328.955 21.9932C328.955 22.5724 329.505 23.0761 330.322 23.3467V24.7383C329.505 25.0089 328.955 25.5143 328.955 26.0938C328.955 26.673 329.505 27.1767 330.322 27.4473V28.8389C329.505 29.1095 328.955 29.6149 328.955 30.1943C328.955 30.7736 329.505 31.2772 330.322 31.5479V32.9395C329.505 33.2101 328.955 33.7155 328.955 34.2949C328.955 34.8742 329.505 35.3778 330.322 35.6484V37.04C329.505 37.3106 328.955 37.816 328.955 38.3955C328.955 38.9748 329.505 39.4784 330.322 39.749V41.1416C329.505 41.4122 328.955 41.9176 328.955 42.4971C328.955 43.0763 329.505 43.58 330.322 43.8506V45.2422C329.505 45.5128 328.955 46.0182 328.955 46.5977C328.955 47.1769 329.505 47.6806 330.322 47.9512V49.3428C329.505 49.6134 328.955 50.1188 328.955 50.6982C328.955 51.2775 329.505 51.7812 330.322 52.0518V53.4434C329.505 53.714 328.955 54.2194 328.955 54.7988C328.955 55.3781 329.505 55.8817 330.322 56.1523V57.5439C329.505 57.8145 328.955 58.32 328.955 58.8994C328.955 59.4787 329.505 59.9823 330.322 60.2529V61.6221C324.448 61.8631 319.607 65.2009 318.344 69.6162H25.2715C24.1078 65.5493 19.9091 62.3976 14.6631 61.7373V60.2529C15.4795 59.9823 16.0292 59.4785 16.0293 58.8994C16.0293 58.3202 15.4797 57.8156 14.6631 57.5449V56.1523C15.4795 55.8817 16.0292 55.378 16.0293 54.7988C16.0293 54.2196 15.4797 53.715 14.6631 53.4443V52.0518C15.4795 51.7811 16.0293 51.2774 16.0293 50.6982C16.0293 50.119 15.4797 49.6144 14.6631 49.3438V47.9512C15.4796 47.6805 16.0293 47.1768 16.0293 46.5977C16.0293 46.0184 15.4797 45.5138 14.6631 45.2432V43.8506C15.4796 43.5799 16.0293 43.0762 16.0293 42.4971C16.0293 41.9178 15.4797 41.4132 14.6631 41.1426V39.749C15.4795 39.4784 16.0292 38.9746 16.0293 38.3955C16.0293 37.8162 15.4798 37.3107 14.6631 37.04V35.6484C15.4795 35.3778 16.0292 34.874 16.0293 34.2949C16.0293 33.7156 15.4798 33.2101 14.6631 32.9395V31.5479C15.4795 31.2772 16.0292 30.7734 16.0293 30.1943C16.0293 29.6151 15.4798 29.1095 14.6631 28.8389V27.4473C15.4795 27.1766 16.0292 26.6728 16.0293 26.0938C16.0293 25.5145 15.4798 25.0089 14.6631 24.7383V23.3467C15.4795 23.076 16.0292 22.5723 16.0293 21.9932C16.0293 21.4139 15.4798 20.9084 14.6631 20.6377V19.2695C14.8891 19.2788 15.1167 19.2842 15.3457 19.2842C20.998 19.2842 25.8058 16.4186 27.5879 12.4199H316.029Z"/>
</mask>
<path d="M316.029 12.4199L316.943 12.0129L316.678 11.4199H316.029V12.4199ZM328.271 19.2842V20.2842V19.2842ZM330.322 19.1543H331.322V18.0205L330.197 18.1621L330.322 19.1543ZM330.322 20.6377L330.637 21.587L331.322 21.3599V20.6377H330.322ZM328.955 21.9932H327.955V21.9934L328.955 21.9932ZM330.322 23.3467H331.322V22.6245L330.637 22.3974L330.322 23.3467ZM330.322 24.7383L330.637 25.6876L331.322 25.4605V24.7383H330.322ZM328.955 26.0938H327.955V26.094L328.955 26.0938ZM330.322 27.4473H331.322V26.7251L330.637 26.498L330.322 27.4473ZM330.322 28.8389L330.637 29.7882L331.322 29.5611V28.8389H330.322ZM328.955 30.1943H327.955V30.1946L328.955 30.1943ZM330.322 31.5479H331.322V30.8257L330.637 30.5986L330.322 31.5479ZM330.322 32.9395L330.637 33.8888L331.322 33.6617V32.9395H330.322ZM328.955 34.2949H327.955V34.2951L328.955 34.2949ZM330.322 35.6484H331.322V34.9263L330.637 34.6992L330.322 35.6484ZM330.322 37.04L330.637 37.9893L331.322 37.7623V37.04H330.322ZM328.955 38.3955H327.955V38.3957L328.955 38.3955ZM330.322 39.749H331.322V39.0269L330.637 38.7998L330.322 39.749ZM330.322 41.1416L330.637 42.0909L331.322 41.8639V41.1416H330.322ZM328.955 42.4971H327.955V42.4973L328.955 42.4971ZM330.322 43.8506H331.322V43.1284L330.637 42.9013L330.322 43.8506ZM330.322 45.2422L330.637 46.1915L331.322 45.9644V45.2422H330.322ZM328.955 46.5977H327.955V46.5979L328.955 46.5977ZM330.322 47.9512H331.322V47.229L330.637 47.0019L330.322 47.9512ZM330.322 49.3428L330.637 50.2921L331.322 50.065V49.3428H330.322ZM328.955 50.6982H327.955V50.6985L328.955 50.6982ZM330.322 52.0518H331.322V51.3296L330.637 51.1025L330.322 52.0518ZM330.322 53.4434L330.637 54.3927L331.322 54.1656V53.4434H330.322ZM328.955 54.7988H327.955V54.799L328.955 54.7988ZM330.322 56.1523H331.322V55.4302L330.637 55.2031L330.322 56.1523ZM330.322 57.5439L330.637 58.4932L331.322 58.2662V57.5439H330.322ZM328.955 58.8994H327.955V58.8996L328.955 58.8994ZM330.322 60.2529H331.322V59.5308L330.637 59.3037L330.322 60.2529ZM330.322 61.6221L330.363 62.6212L331.322 62.5819V61.6221H330.322ZM318.344 69.6162V70.6162H319.098L319.305 69.8912L318.344 69.6162ZM25.2715 69.6162L24.3101 69.8913L24.5175 70.6162H25.2715V69.6162ZM14.6631 61.7373H13.6631V62.6193L14.5382 62.7295L14.6631 61.7373ZM14.6631 60.2529L14.3484 59.3037L13.6631 59.5309V60.2529H14.6631ZM16.0293 58.8994L17.0293 58.8995V58.8994H16.0293ZM14.6631 57.5449H13.6631V58.267L14.3485 58.4941L14.6631 57.5449ZM14.6631 56.1523L14.3484 55.2031L13.6631 55.4304V56.1523H14.6631ZM16.0293 54.7988L17.0293 54.7989V54.7988H16.0293ZM14.6631 53.4443H13.6631V54.1664L14.3485 54.3936L14.6631 53.4443ZM14.6631 52.0518L14.3484 51.1026L13.6631 51.3298V52.0518H14.6631ZM16.0293 50.6982L17.0293 50.6983V50.6982H16.0293ZM14.6631 49.3438H13.6631V50.0658L14.3485 50.293L14.6631 49.3438ZM14.6631 47.9512L14.3484 47.002L13.6631 47.2292V47.9512H14.6631ZM16.0293 46.5977L17.0293 46.5977V46.5977H16.0293ZM14.6631 45.2432H13.6631V45.9652L14.3485 46.1924L14.6631 45.2432ZM14.6631 43.8506L14.3484 42.9014L13.6631 43.1286V43.8506H14.6631ZM16.0293 42.4971H17.0293V42.4971L16.0293 42.4971ZM14.6631 41.1426H13.6631V41.8646L14.3485 42.0918L14.6631 41.1426ZM14.6631 39.749L14.3484 38.7998L13.6631 39.027V39.749H14.6631ZM16.0293 38.3955L17.0293 38.3957V38.3955H16.0293ZM14.6631 37.04H13.6631V37.7621L14.3485 37.9893L14.6631 37.04ZM14.6631 35.6484L14.3484 34.6992L13.6631 34.9265V35.6484H14.6631ZM16.0293 34.2949L17.0293 34.2951V34.2949H16.0293ZM14.6631 32.9395H13.6631V33.6615L14.3485 33.8887L14.6631 32.9395ZM14.6631 31.5479L14.3484 30.5987L13.6631 30.8259V31.5479H14.6631ZM16.0293 30.1943L17.0293 30.1946V30.1943H16.0293ZM14.6631 28.8389H13.6631V29.561L14.3485 29.7881L14.6631 28.8389ZM14.6631 27.4473L14.3484 26.4981L13.6631 26.7253V27.4473H14.6631ZM16.0293 26.0938L17.0293 26.094V26.0938H16.0293ZM14.6631 24.7383H13.6631V25.4604L14.3485 25.6875L14.6631 24.7383ZM14.6631 23.3467L14.3484 22.3975L13.6631 22.6247V23.3467H14.6631ZM16.0293 21.9932L17.0293 21.9934V21.9932H16.0293ZM14.6631 20.6377H13.6631V21.3598L14.3485 21.5869L14.6631 20.6377ZM14.6631 19.2695L14.7041 18.2704L13.6631 18.2276V19.2695H14.6631ZM15.3457 19.2842L15.3457 20.2842H15.3457V19.2842ZM27.5879 12.4199V11.4199H26.9387L26.6745 12.0128L27.5879 12.4199ZM316.029 12.4199L315.116 12.827C317.094 17.2657 322.319 20.2841 328.271 20.2842V19.2842V18.2842C322.919 18.2841 318.529 15.5715 316.943 12.0129L316.029 12.4199ZM328.271 19.2842V20.2842C329.013 20.2842 329.74 20.2355 330.447 20.1465L330.322 19.1543L330.197 18.1621C329.569 18.2412 328.926 18.2842 328.271 18.2842V19.2842ZM330.322 19.1543H329.322V20.6377H330.322H331.322V19.1543H330.322ZM330.322 20.6377L330.008 19.6884C329.496 19.8579 329.01 20.1186 328.636 20.482C328.257 20.8495 327.955 21.3648 327.955 21.9932H328.955H329.955C329.955 22.042 329.928 22.0149 330.029 21.9172C330.134 21.8154 330.331 21.6881 330.637 21.587L330.322 20.6377ZM328.955 21.9932L327.955 21.9934C327.955 22.6221 328.258 23.1371 328.637 23.504C329.011 23.8668 329.497 24.1266 330.008 24.2959L330.322 23.3467L330.637 22.3974C330.331 22.2961 330.133 22.1689 330.028 22.0674C329.928 21.97 329.955 21.9435 329.955 21.9929L328.955 21.9932ZM330.322 23.3467H329.322V24.7383H330.322H331.322V23.3467H330.322ZM330.322 24.7383L330.008 23.789C329.496 23.9585 329.01 24.2191 328.636 24.5826C328.257 24.9501 327.955 25.4654 327.955 26.0938H328.955H329.955C329.955 26.1426 329.928 26.1155 330.029 26.0178C330.134 25.916 330.331 25.7887 330.637 25.6876L330.322 24.7383ZM328.955 26.0938L327.955 26.094C327.955 26.7227 328.258 27.2377 328.637 27.6046C329.011 27.9673 329.497 28.2272 330.008 28.3965L330.322 27.4473L330.637 26.498C330.331 26.3967 330.133 26.2695 330.028 26.1679C329.928 26.0705 329.955 26.0441 329.955 26.0935L328.955 26.0938ZM330.322 27.4473H329.322V28.8389H330.322H331.322V27.4473H330.322ZM330.322 28.8389L330.008 27.8896C329.496 28.0591 329.01 28.3197 328.636 28.6832C328.257 29.0507 327.955 29.566 327.955 30.1943H328.955H329.955C329.955 30.2432 329.928 30.2161 330.029 30.1184C330.134 30.0166 330.331 29.8892 330.637 29.7882L330.322 28.8389ZM328.955 30.1943L327.955 30.1946C327.955 30.8233 328.258 31.3383 328.637 31.7052C329.011 32.0679 329.497 32.3278 330.008 32.4971L330.322 31.5479L330.637 30.5986C330.331 30.4973 330.133 30.37 330.028 30.2685C329.928 30.1711 329.955 30.1447 329.955 30.1941L328.955 30.1943ZM330.322 31.5479H329.322V32.9395H330.322H331.322V31.5479H330.322ZM330.322 32.9395L330.008 31.9902C329.496 32.1597 329.01 32.4203 328.636 32.7838C328.257 33.1512 327.955 33.6666 327.955 34.2949H328.955H329.955C329.955 34.3438 329.928 34.3167 330.029 34.2189C330.134 34.1172 330.331 33.9898 330.637 33.8888L330.322 32.9395ZM328.955 34.2949L327.955 34.2951C327.955 34.9238 328.258 35.4389 328.637 35.8057C329.011 36.1685 329.497 36.4284 330.008 36.5977L330.322 35.6484L330.637 34.6992C330.331 34.5979 330.133 34.4706 330.028 34.3691C329.928 34.2717 329.955 34.2453 329.955 34.2947L328.955 34.2949ZM330.322 35.6484H329.322V37.04H330.322H331.322V35.6484H330.322ZM330.322 37.04L330.008 36.0907C329.496 36.2603 329.01 36.5209 328.636 36.8844C328.257 37.2518 327.955 37.7672 327.955 38.3955H328.955H329.955C329.955 38.4444 329.928 38.4173 330.029 38.3195C330.134 38.2178 330.331 38.0904 330.637 37.9893L330.322 37.04ZM328.955 38.3955L327.955 38.3957C327.955 39.0244 328.258 39.5394 328.637 39.9063C329.011 40.2691 329.497 40.529 330.008 40.6983L330.322 39.749L330.637 38.7998C330.331 38.6985 330.133 38.5712 330.028 38.4697C329.928 38.3723 329.955 38.3459 329.955 38.3953L328.955 38.3955ZM330.322 39.749H329.322V41.1416H330.322H331.322V39.749H330.322ZM330.322 41.1416L330.008 40.1923C329.496 40.3618 329.01 40.6225 328.636 40.9859C328.257 41.3534 327.955 41.8688 327.955 42.4971H328.955H329.955C329.955 42.5459 329.928 42.5189 330.029 42.4211C330.134 42.3193 330.331 42.192 330.637 42.0909L330.322 41.1416ZM328.955 42.4971L327.955 42.4973C327.955 43.126 328.258 43.641 328.637 44.0079C329.011 44.3707 329.497 44.6306 330.008 44.7998L330.322 43.8506L330.637 42.9013C330.331 42.8 330.133 42.6728 330.028 42.5713C329.928 42.4739 329.955 42.4474 329.955 42.4968L328.955 42.4971ZM330.322 43.8506H329.322V45.2422H330.322H331.322V43.8506H330.322ZM330.322 45.2422L330.008 44.2929C329.496 44.4624 329.01 44.723 328.636 45.0865C328.257 45.454 327.955 45.9693 327.955 46.5977H328.955H329.955C329.955 46.6465 329.928 46.6194 330.029 46.5217C330.134 46.4199 330.331 46.2926 330.637 46.1915L330.322 45.2422ZM328.955 46.5977L327.955 46.5979C327.955 47.2266 328.258 47.7416 328.637 48.1085C329.011 48.4713 329.497 48.7311 330.008 48.9004L330.322 47.9512L330.637 47.0019C330.331 46.9006 330.133 46.7734 330.028 46.6719C329.928 46.5745 329.955 46.548 329.955 46.5974L328.955 46.5977ZM330.322 47.9512H329.322V49.3428H330.322H331.322V47.9512H330.322ZM330.322 49.3428L330.008 48.3935C329.496 48.563 329.01 48.8236 328.636 49.1871C328.257 49.5546 327.955 50.0699 327.955 50.6982H328.955H329.955C329.955 50.7471 329.928 50.72 330.029 50.6223C330.134 50.5205 330.331 50.3932 330.637 50.2921L330.322 49.3428ZM328.955 50.6982L327.955 50.6985C327.955 51.3272 328.258 51.8422 328.637 52.2091C329.011 52.5718 329.497 52.8317 330.008 53.001L330.322 52.0518L330.637 51.1025C330.331 51.0012 330.133 50.874 330.028 50.7724C329.928 50.675 329.955 50.6486 329.955 50.698L328.955 50.6982ZM330.322 52.0518H329.322V53.4434H330.322H331.322V52.0518H330.322ZM330.322 53.4434L330.008 52.4941C329.496 52.6636 329.01 52.9242 328.636 53.2877C328.257 53.6551 327.955 54.1705 327.955 54.7988H328.955H329.955C329.955 54.8477 329.928 54.8206 330.029 54.7228C330.134 54.6211 330.331 54.4937 330.637 54.3927L330.322 53.4434ZM328.955 54.7988L327.955 54.799C327.955 55.4277 328.258 55.9428 328.637 56.3096C329.011 56.6724 329.497 56.9323 330.008 57.1016L330.322 56.1523L330.637 55.2031C330.331 55.1018 330.133 54.9745 330.028 54.873C329.928 54.7756 329.955 54.7492 329.955 54.7986L328.955 54.7988ZM330.322 56.1523H329.322V57.5439H330.322H331.322V56.1523H330.322ZM330.322 57.5439L330.008 56.5946C329.496 56.7642 329.01 57.0248 328.636 57.3883C328.257 57.7557 327.955 58.2711 327.955 58.8994H328.955H329.955C329.955 58.9483 329.928 58.9212 330.029 58.8234C330.134 58.7217 330.331 58.5943 330.637 58.4932L330.322 57.5439ZM328.955 58.8994L327.955 58.8996C327.955 59.5283 328.258 60.0433 328.637 60.4102C329.011 60.773 329.497 61.0329 330.008 61.2022L330.322 60.2529L330.637 59.3037C330.331 59.2024 330.133 59.0751 330.028 58.9736C329.928 58.8762 329.955 58.8498 329.955 58.8992L328.955 58.8994ZM330.322 60.2529H329.322V61.6221H330.322H331.322V60.2529H330.322ZM330.322 61.6221L330.281 60.6229C324.104 60.8764 318.796 64.4008 317.382 69.3412L318.344 69.6162L319.305 69.8912C320.418 66.0011 324.793 62.8498 330.363 62.6212L330.322 61.6221ZM318.344 69.6162V68.6162H25.2715V69.6162V70.6162H318.344V69.6162ZM25.2715 69.6162L26.2329 69.3411C24.9306 64.7897 20.3173 61.441 14.788 60.7451L14.6631 61.7373L14.5382 62.7295C19.5009 63.3541 23.285 66.3088 24.3101 69.8913L25.2715 69.6162ZM14.6631 61.7373H15.6631V60.2529H14.6631H13.6631V61.7373H14.6631ZM14.6631 60.2529L14.9778 61.2021C15.4887 61.0327 15.974 60.7727 16.3484 60.4099C16.727 60.0429 17.0292 59.5279 17.0293 58.8995L16.0293 58.8994L15.0293 58.8993C15.0293 58.8501 15.0567 58.8765 14.9563 58.9738C14.8517 59.0753 14.6539 59.2024 14.3484 59.3037L14.6631 60.2529ZM16.0293 58.8994H17.0293C17.0293 58.2712 16.7273 57.7561 16.3488 57.3888C15.9745 57.0256 15.4891 56.7652 14.9777 56.5957L14.6631 57.5449L14.3485 58.4941C14.6537 58.5953 14.8514 58.7226 14.956 58.8241C15.0565 58.9216 15.0293 58.9484 15.0293 58.8994H16.0293ZM14.6631 57.5449H15.6631V56.1523H14.6631H13.6631V57.5449H14.6631ZM14.6631 56.1523L14.9778 57.1015C15.4887 56.9322 15.974 56.6722 16.3484 56.3093C16.727 55.9423 17.0292 55.4273 17.0293 54.7989L16.0293 54.7988L15.0293 54.7987C15.0293 54.7495 15.0567 54.7759 14.9563 54.8732C14.8517 54.9747 14.6539 55.1019 14.3484 55.2031L14.6631 56.1523ZM16.0293 54.7988H17.0293C17.0293 54.1706 16.7273 53.6555 16.3488 53.2882C15.9745 52.925 15.4891 52.6646 14.9777 52.4951L14.6631 53.4443L14.3485 54.3936C14.6537 54.4947 14.8514 54.622 14.956 54.7235C15.0565 54.821 15.0293 54.8478 15.0293 54.7988H16.0293ZM14.6631 53.4443H15.6631V52.0518H14.6631H13.6631V53.4443H14.6631ZM14.6631 52.0518L14.9778 53.0009C15.4887 52.8316 15.974 52.5716 16.3484 52.2087C16.727 51.8417 17.0293 51.3267 17.0293 50.6983L16.0293 50.6982L15.0293 50.6982C15.0293 50.6489 15.0567 50.6754 14.9563 50.7726C14.8517 50.8741 14.6539 51.0013 14.3484 51.1026L14.6631 52.0518ZM16.0293 50.6982H17.0293C17.0293 50.0701 16.7273 49.5549 16.3488 49.1876C15.9745 48.8244 15.4891 48.564 14.9777 48.3945L14.6631 49.3438L14.3485 50.293C14.6537 50.3941 14.8514 50.5214 14.956 50.6229C15.0565 50.7204 15.0293 50.7472 15.0293 50.6982H16.0293ZM14.6631 49.3438H15.6631V47.9512H14.6631H13.6631V49.3438H14.6631ZM14.6631 47.9512L14.9778 48.9004C15.4887 48.731 15.974 48.471 16.3484 48.1081C16.727 47.7411 17.0293 47.2261 17.0293 46.5977L16.0293 46.5977L15.0293 46.5976C15.0293 46.5484 15.0567 46.5748 14.9564 46.6721C14.8517 46.7735 14.654 46.9007 14.3484 47.002L14.6631 47.9512ZM16.0293 46.5977H17.0293C17.0293 45.9695 16.7273 45.4543 16.3488 45.087C15.9745 44.7238 15.4891 44.4634 14.9777 44.2939L14.6631 45.2432L14.3485 46.1924C14.6537 46.2936 14.8514 46.4208 14.956 46.5223C15.0565 46.6198 15.0293 46.6466 15.0293 46.5977H16.0293ZM14.6631 45.2432H15.6631V43.8506H14.6631H13.6631V45.2432H14.6631ZM14.6631 43.8506L14.9778 44.7998C15.4887 44.6304 15.974 44.3704 16.3484 44.0075C16.727 43.6405 17.0293 43.1255 17.0293 42.4971H16.0293H15.0293C15.0293 42.4478 15.0567 42.4742 14.9564 42.5715C14.8517 42.6729 14.654 42.8001 14.3484 42.9014L14.6631 43.8506ZM16.0293 42.4971L17.0293 42.4971C17.0293 41.8689 16.7273 41.3538 16.3488 40.9865C15.9745 40.6232 15.4891 40.3629 14.9777 40.1934L14.6631 41.1426L14.3485 42.0918C14.6537 42.193 14.8514 42.3202 14.956 42.4218C15.0565 42.5192 15.0293 42.546 15.0293 42.4971L16.0293 42.4971ZM14.6631 41.1426H15.6631V39.749H14.6631H13.6631V41.1426H14.6631ZM14.6631 39.749L14.9778 40.6982C15.4887 40.5288 15.974 40.2688 16.3483 39.9059C16.7269 39.539 17.0292 39.024 17.0293 38.3957L16.0293 38.3955L15.0293 38.3953C15.0293 38.3461 15.0567 38.3726 14.9563 38.4699C14.8516 38.5714 14.6538 38.6986 14.3484 38.7998L14.6631 39.749ZM16.0293 38.3955H17.0293C17.0293 37.7676 16.7276 37.2523 16.3493 36.8848C15.975 36.5212 15.4895 36.2604 14.9777 36.0908L14.6631 37.04L14.3485 37.9893C14.6534 38.0903 14.851 38.2176 14.9557 38.3193C15.0563 38.417 15.0293 38.4442 15.0293 38.3955H16.0293ZM14.6631 37.04H15.6631V35.6484H14.6631H13.6631V37.04H14.6631ZM14.6631 35.6484L14.9778 36.5976C15.4887 36.4282 15.974 36.1682 16.3483 35.8053C16.7269 35.4384 17.0292 34.9235 17.0293 34.2951L16.0293 34.2949L15.0293 34.2947C15.0293 34.2455 15.0567 34.272 14.9563 34.3693C14.8516 34.4708 14.6538 34.598 14.3484 34.6992L14.6631 35.6484ZM16.0293 34.2949H17.0293C17.0293 33.667 16.7276 33.1517 16.3493 32.7842C15.975 32.4206 15.4895 32.1598 14.9777 31.9902L14.6631 32.9395L14.3485 33.8887C14.6534 33.9897 14.851 34.1171 14.9557 34.2187C15.0563 34.3164 15.0293 34.3436 15.0293 34.2949H16.0293ZM14.6631 32.9395H15.6631V31.5479H14.6631H13.6631V32.9395H14.6631ZM14.6631 31.5479L14.9778 32.497C15.4887 32.3277 15.974 32.0676 16.3483 31.7048C16.7269 31.3378 17.0292 30.8229 17.0293 30.1946L16.0293 30.1943L15.0293 30.1941C15.0293 30.1449 15.0567 30.1714 14.9563 30.2687C14.8516 30.3702 14.6538 30.4974 14.3484 30.5987L14.6631 31.5479ZM16.0293 30.1943H17.0293C17.0293 29.5664 16.7276 29.0511 16.3493 28.6836C15.975 28.32 15.4895 28.0592 14.9777 27.8896L14.6631 28.8389L14.3485 29.7881C14.6534 29.8891 14.851 30.0165 14.9557 30.1181C15.0563 30.2158 15.0293 30.243 15.0293 30.1943H16.0293ZM14.6631 28.8389H15.6631V27.4473H14.6631H13.6631V28.8389H14.6631ZM14.6631 27.4473L14.9778 28.3965C15.4887 28.2271 15.974 27.967 16.3483 27.6042C16.7269 27.2372 17.0292 26.7223 17.0293 26.094L16.0293 26.0938L15.0293 26.0935C15.0293 26.0443 15.0567 26.0708 14.9563 26.1682C14.8516 26.2696 14.6538 26.3968 14.3484 26.4981L14.6631 27.4473ZM16.0293 26.0938H17.0293C17.0293 25.4658 16.7276 24.9505 16.3493 24.583C15.975 24.2194 15.4895 23.9587 14.9777 23.789L14.6631 24.7383L14.3485 25.6875C14.6534 25.7886 14.851 25.9159 14.9557 26.0176C15.0563 26.1153 15.0293 26.1424 15.0293 26.0938H16.0293ZM14.6631 24.7383H15.6631V23.3467H14.6631H13.6631V24.7383H14.6631ZM14.6631 23.3467L14.9778 24.2959C15.4887 24.1265 15.974 23.8665 16.3483 23.5036C16.7269 23.1366 17.0292 22.6217 17.0293 21.9934L16.0293 21.9932L15.0293 21.9929C15.0293 21.9437 15.0567 21.9702 14.9563 22.0676C14.8516 22.169 14.6538 22.2962 14.3484 22.3975L14.6631 23.3467ZM16.0293 21.9932H17.0293C17.0293 21.3652 16.7276 20.85 16.3493 20.4824C15.975 20.1188 15.4895 19.8581 14.9777 19.6885L14.6631 20.6377L14.3485 21.5869C14.6534 21.688 14.851 21.8153 14.9557 21.917C15.0563 22.0147 15.0293 22.0418 15.0293 21.9932H16.0293ZM14.6631 20.6377H15.6631V19.2695H14.6631H13.6631V20.6377H14.6631ZM14.6631 19.2695L14.622 20.2687C14.8598 20.2785 15.1012 20.2842 15.3457 20.2842L15.3457 19.2842L15.3457 18.2842C15.1323 18.2842 14.9185 18.2792 14.7041 18.2704L14.6631 19.2695ZM15.3457 19.2842V20.2842C21.2979 20.2842 26.5231 17.2656 28.5013 12.827L27.5879 12.4199L26.6745 12.0128C25.0885 15.5715 20.6981 18.2842 15.3457 18.2842V19.2842ZM27.5879 12.4199V13.4199H316.029V12.4199V11.4199H27.5879V12.4199Z" fill="white" mask="url(#path-2-inside-1_557_385)"/>
<path d="M132.063 36.8223V25.1859H136.654C137.533 25.1859 138.283 25.3431 138.904 25.6575C139.529 25.9681 140.005 26.4094 140.33 26.9814C140.66 27.5495 140.825 28.2181 140.825 28.987C140.825 29.7598 140.658 30.4245 140.325 30.9814C139.991 31.5344 139.508 31.9586 138.876 32.2541C138.247 32.5495 137.486 32.6973 136.592 32.6973H133.518V30.72H136.194C136.664 30.72 137.054 30.6556 137.364 30.5268C137.675 30.398 137.906 30.2048 138.058 29.9473C138.213 29.6897 138.291 29.3696 138.291 28.987C138.291 28.6007 138.213 28.2749 138.058 28.0098C137.906 27.7446 137.673 27.5439 137.359 27.4075C137.048 27.2673 136.656 27.1973 136.183 27.1973H134.524V36.8223H132.063ZM138.347 31.5268L141.239 36.8223H138.524L135.694 31.5268H138.347ZM146.32 36.9927C145.438 36.9927 144.675 36.8052 144.031 36.4302C143.391 36.0514 142.896 35.5249 142.548 34.8507C142.199 34.1726 142.025 33.3867 142.025 32.4927C142.025 31.5912 142.199 30.8033 142.548 30.1291C142.896 29.4511 143.391 28.9245 144.031 28.5495C144.675 28.1708 145.438 27.9814 146.32 27.9814C147.203 27.9814 147.964 28.1708 148.605 28.5495C149.248 28.9245 149.745 29.4511 150.093 30.1291C150.442 30.8033 150.616 31.5912 150.616 32.4927C150.616 33.3867 150.442 34.1726 150.093 34.8507C149.745 35.5249 149.248 36.0514 148.605 36.4302C147.964 36.8052 147.203 36.9927 146.32 36.9927ZM146.332 35.1177C146.733 35.1177 147.069 35.0041 147.337 34.7768C147.606 34.5458 147.809 34.2314 147.945 33.8336C148.086 33.4359 148.156 32.9833 148.156 32.4757C148.156 31.9681 148.086 31.5154 147.945 31.1177C147.809 30.72 147.606 30.4056 147.337 30.1745C147.069 29.9435 146.733 29.8279 146.332 29.8279C145.926 29.8279 145.586 29.9435 145.309 30.1745C145.036 30.4056 144.83 30.72 144.69 31.1177C144.553 31.5154 144.485 31.9681 144.485 32.4757C144.485 32.9833 144.553 33.4359 144.69 33.8336C144.83 34.2314 145.036 34.5458 145.309 34.7768C145.586 35.0041 145.926 35.1177 146.332 35.1177ZM152.19 36.8223V28.095H154.497V29.6348H154.599C154.781 29.1234 155.084 28.72 155.508 28.4245C155.932 28.1291 156.44 27.9814 157.031 27.9814C157.629 27.9814 158.139 28.131 158.559 28.4302C158.98 28.7257 159.26 29.1272 159.4 29.6348H159.491C159.669 29.1348 159.991 28.7351 160.457 28.4359C160.926 28.1329 161.481 27.9814 162.122 27.9814C162.936 27.9814 163.597 28.2408 164.105 28.7598C164.616 29.2749 164.872 30.006 164.872 30.9529V36.8223H162.457V31.4302C162.457 30.9454 162.328 30.5817 162.07 30.3393C161.813 30.0969 161.491 29.9757 161.105 29.9757C160.665 29.9757 160.322 30.1158 160.076 30.3961C159.83 30.6726 159.707 31.0382 159.707 31.4927V36.8223H157.36V31.3791C157.36 30.9511 157.237 30.6101 156.991 30.3564C156.748 30.1026 156.428 29.9757 156.031 29.9757C155.762 29.9757 155.519 30.0439 155.303 30.1802C155.091 30.3128 154.923 30.5003 154.798 30.7427C154.673 30.9814 154.61 31.2617 154.61 31.5836V36.8223H152.19ZM169.272 36.987C168.715 36.987 168.219 36.8904 167.784 36.6973C167.348 36.5003 167.003 36.2105 166.749 35.8279C166.499 35.4416 166.374 34.9605 166.374 34.3848C166.374 33.8999 166.463 33.4927 166.641 33.1632C166.819 32.8336 167.062 32.5685 167.369 32.3677C167.676 32.167 168.024 32.0154 168.414 31.9132C168.808 31.8109 169.221 31.7389 169.653 31.6973C170.16 31.6442 170.569 31.595 170.88 31.5495C171.191 31.5003 171.416 31.4283 171.556 31.3336C171.696 31.2389 171.766 31.0988 171.766 30.9132V30.8791C171.766 30.5192 171.653 30.2408 171.426 30.0439C171.202 29.8469 170.884 29.7484 170.471 29.7484C170.035 29.7484 169.689 29.845 169.431 30.0382C169.174 30.2276 169.003 30.4662 168.92 30.7541L166.681 30.5723C166.795 30.042 167.018 29.5836 167.352 29.1973C167.685 28.8071 168.115 28.5079 168.641 28.2995C169.172 28.0874 169.785 27.9814 170.482 27.9814C170.967 27.9814 171.431 28.0382 171.874 28.1518C172.321 28.2654 172.717 28.4416 173.062 28.6802C173.41 28.9189 173.685 29.2257 173.886 29.6007C174.087 29.9719 174.187 30.417 174.187 30.9359V36.8223H171.891V35.612H171.823C171.683 35.8848 171.496 36.1253 171.261 36.3336C171.026 36.5382 170.744 36.6992 170.414 36.8166C170.085 36.9302 169.704 36.987 169.272 36.987ZM169.965 35.3166C170.321 35.3166 170.636 35.2465 170.909 35.1064C171.181 34.9624 171.395 34.7692 171.551 34.5268C171.706 34.2844 171.784 34.0098 171.784 33.7029V32.7768C171.708 32.8261 171.604 32.8715 171.471 32.9132C171.342 32.9511 171.196 32.987 171.034 33.0211C170.871 33.0514 170.708 33.0798 170.545 33.1064C170.382 33.1291 170.234 33.1499 170.102 33.1689C169.818 33.2105 169.569 33.2768 169.357 33.3677C169.145 33.4586 168.98 33.5817 168.863 33.737C168.746 33.8886 168.687 34.0779 168.687 34.3052C168.687 34.6348 168.806 34.8867 169.045 35.0609C169.287 35.2314 169.594 35.3166 169.965 35.3166ZM178.485 31.7768V36.8223H176.065V28.095H178.372V29.6348H178.474C178.667 29.1272 178.991 28.7257 179.445 28.4302C179.9 28.131 180.451 27.9814 181.099 27.9814C181.705 27.9814 182.233 28.1139 182.684 28.3791C183.135 28.6442 183.485 29.023 183.735 29.5154C183.985 30.0041 184.11 30.5874 184.11 31.2654V36.8223H181.69V31.6973C181.694 31.1632 181.557 30.7465 181.281 30.4473C181.004 30.1442 180.623 29.9927 180.139 29.9927C179.813 29.9927 179.525 30.0628 179.275 30.2029C179.029 30.3431 178.836 30.5476 178.695 30.8166C178.559 31.0817 178.489 31.4018 178.485 31.7768ZM190.66 28.095V29.9132H185.404V28.095H190.66ZM186.597 26.0041H189.018V34.1404C189.018 34.3639 189.052 34.5382 189.12 34.6632C189.188 34.7844 189.283 34.8696 189.404 34.9189C189.529 34.9681 189.673 34.9927 189.836 34.9927C189.95 34.9927 190.063 34.9833 190.177 34.9643C190.291 34.9416 190.378 34.9245 190.438 34.9132L190.819 36.7143C190.698 36.7522 190.527 36.7958 190.308 36.845C190.088 36.898 189.821 36.9302 189.507 36.9416C188.923 36.9643 188.412 36.8867 187.972 36.7086C187.537 36.5306 187.198 36.2541 186.955 35.8791C186.713 35.5041 186.594 35.0306 186.597 34.4586V26.0041ZM192.237 36.8223V28.095H194.657V36.8223H192.237ZM193.453 26.97C193.093 26.97 192.784 26.8507 192.526 26.612C192.273 26.3696 192.146 26.0798 192.146 25.7427C192.146 25.4094 192.273 25.1234 192.526 24.8848C192.784 24.6423 193.093 24.5211 193.453 24.5211C193.812 24.5211 194.119 24.6423 194.373 24.8848C194.631 25.1234 194.759 25.4094 194.759 25.7427C194.759 26.0798 194.631 26.3696 194.373 26.612C194.119 26.8507 193.812 26.97 193.453 26.97ZM200.539 36.9927C199.645 36.9927 198.876 36.8033 198.232 36.4245C197.592 36.042 197.1 35.5117 196.755 34.8336C196.414 34.1556 196.244 33.3753 196.244 32.4927C196.244 31.5988 196.416 30.8147 196.761 30.1404C197.109 29.4624 197.604 28.934 198.244 28.5552C198.884 28.1726 199.645 27.9814 200.528 27.9814C201.289 27.9814 201.956 28.1196 202.528 28.3961C203.1 28.6726 203.552 29.0609 203.886 29.5609C204.219 30.0609 204.403 30.648 204.437 31.3223H202.153C202.088 30.8867 201.918 30.5363 201.641 30.2711C201.369 30.0022 201.011 29.8677 200.568 29.8677C200.193 29.8677 199.865 29.97 199.585 30.1745C199.308 30.3753 199.092 30.6689 198.937 31.0552C198.782 31.4416 198.704 31.9094 198.704 32.4586C198.704 33.0154 198.78 33.4889 198.931 33.8791C199.087 34.2692 199.304 34.5666 199.585 34.7711C199.865 34.9757 200.193 35.0779 200.568 35.0779C200.844 35.0779 201.092 35.0211 201.312 34.9075C201.535 34.7939 201.719 34.6291 201.863 34.4132C202.011 34.1935 202.107 33.9302 202.153 33.6234H204.437C204.399 34.2901 204.217 34.8772 203.891 35.3848C203.569 35.8886 203.124 36.2825 202.556 36.5666C201.988 36.8507 201.316 36.9927 200.539 36.9927ZM208.475 36.987C207.918 36.987 207.422 36.8904 206.987 36.6973C206.551 36.5003 206.206 36.2105 205.953 35.8279C205.703 35.4416 205.578 34.9605 205.578 34.3848C205.578 33.8999 205.667 33.4927 205.845 33.1632C206.023 32.8336 206.265 32.5685 206.572 32.3677C206.879 32.167 207.227 32.0154 207.617 31.9132C208.011 31.8109 208.424 31.7389 208.856 31.6973C209.364 31.6442 209.773 31.595 210.083 31.5495C210.394 31.5003 210.619 31.4283 210.759 31.3336C210.9 31.2389 210.97 31.0988 210.97 30.9132V30.8791C210.97 30.5192 210.856 30.2408 210.629 30.0439C210.405 29.8469 210.087 29.7484 209.674 29.7484C209.239 29.7484 208.892 29.845 208.634 30.0382C208.377 30.2276 208.206 30.4662 208.123 30.7541L205.884 30.5723C205.998 30.042 206.221 29.5836 206.555 29.1973C206.888 28.8071 207.318 28.5079 207.845 28.2995C208.375 28.0874 208.989 27.9814 209.685 27.9814C210.17 27.9814 210.634 28.0382 211.078 28.1518C211.525 28.2654 211.92 28.4416 212.265 28.6802C212.614 28.9189 212.888 29.2257 213.089 29.6007C213.29 29.9719 213.39 30.417 213.39 30.9359V36.8223H211.095V35.612H211.026C210.886 35.8848 210.699 36.1253 210.464 36.3336C210.229 36.5382 209.947 36.6992 209.617 36.8166C209.288 36.9302 208.907 36.987 208.475 36.987ZM209.168 35.3166C209.525 35.3166 209.839 35.2465 210.112 35.1064C210.384 34.9624 210.598 34.7692 210.754 34.5268C210.909 34.2844 210.987 34.0098 210.987 33.7029V32.7768C210.911 32.8261 210.807 32.8715 210.674 32.9132C210.545 32.9511 210.4 32.987 210.237 33.0211C210.074 33.0514 209.911 33.0798 209.748 33.1064C209.585 33.1291 209.437 33.1499 209.305 33.1689C209.021 33.2105 208.773 33.2768 208.56 33.3677C208.348 33.4586 208.184 33.5817 208.066 33.737C207.949 33.8886 207.89 34.0779 207.89 34.3052C207.89 34.6348 208.009 34.8867 208.248 35.0609C208.49 35.2314 208.797 35.3166 209.168 35.3166Z" fill="white"/>
<rect x="287.898" y="19.1963" width="24.7278" height="0.755505" fill="white"/>
<rect x="287.898" y="20.707" width="24.7278" height="2.51835" fill="white"/>
<rect x="287.898" y="29.7734" width="24.7278" height="1.51101" fill="white"/>
<rect x="287.898" y="39.0918" width="24.7278" height="1.51101" fill="white"/>
<rect x="287.898" y="41.6104" width="24.7278" height="3.27386" fill="white"/>
<rect x="287.898" y="25.2402" width="24.7278" height="1.00734" fill="white"/>
<rect x="287.898" y="32.04" width="24.7278" height="1.00734" fill="white"/>
<rect x="287.898" y="27.0029" width="24.7278" height="0.755505" fill="white"/>
<rect x="287.898" y="34.0547" width="24.7278" height="0.755505" fill="white"/>
<rect x="287.898" y="28.5137" width="24.7278" height="0.50367" fill="white"/>
<rect x="287.898" y="45.6387" width="24.7278" height="0.50367" fill="white"/>
<rect x="287.898" y="48.1572" width="24.7278" height="0.50367" fill="white"/>
<rect x="287.898" y="35.8174" width="24.7278" height="0.50367" fill="white"/>
<rect x="287.898" y="53.9492" width="24.7278" height="0.50367" fill="white"/>
<rect x="287.898" y="54.958" width="24.7278" height="0.50367" fill="white"/>
<rect x="287.898" y="46.8975" width="24.7278" height="0.50367" fill="white"/>
<rect x="287.898" y="50.1719" width="24.7278" height="0.50367" fill="white"/>
<rect x="287.898" y="51.1787" width="24.7278" height="1.76285" fill="white"/>
<rect x="287.856" y="58.3906" width="24.6353" height="0.832373" fill="white"/>
<rect x="287.898" y="37.5801" width="24.7278" height="0.50367" fill="white"/>
<rect x="287.898" y="59.7412" width="24.7278" height="1.76285" fill="white"/>
<path d="M147.291 57.9059L144.168 59.7915C144.076 59.8368 143.991 59.8552 143.912 59.8466C143.834 59.8374 143.759 59.8105 143.685 59.7657C143.61 59.7199 143.554 59.6551 143.516 59.5713C143.478 59.4876 143.475 59.3961 143.506 59.2969L144.337 55.7614L141.588 53.3786C141.511 53.3155 141.46 53.2401 141.435 53.1524C141.41 53.0647 141.416 52.9806 141.451 52.9003C141.487 52.8201 141.534 52.7541 141.593 52.7025C141.653 52.6526 141.733 52.6188 141.834 52.601L145.461 52.2844L146.875 48.9365C146.914 48.8418 146.97 48.7736 147.044 48.7317C147.117 48.6899 147.199 48.6689 147.291 48.6689C147.382 48.6689 147.464 48.6899 147.538 48.7317C147.612 48.7736 147.668 48.8418 147.706 48.9365L149.12 52.2844L152.746 52.601C152.848 52.6182 152.928 52.6523 152.988 52.7034C153.047 52.7538 153.095 52.8195 153.131 52.9003C153.166 52.9806 153.171 53.0647 153.146 53.1524C153.121 53.2401 153.07 53.3155 152.993 53.3786L150.245 55.7614L151.076 59.2969C151.108 59.395 151.104 59.4862 151.066 59.5705C151.028 59.6548 150.971 59.7196 150.897 59.7649C150.823 59.8108 150.747 59.838 150.669 59.8466C150.591 59.8552 150.506 59.8368 150.414 59.7915L147.291 57.9059Z" fill="white"/>
<path d="M172.727 57.9059L169.604 59.7915C169.513 59.8368 169.428 59.8552 169.349 59.8466C169.271 59.8374 169.195 59.8105 169.121 59.7657C169.047 59.7199 168.99 59.6551 168.952 59.5713C168.915 59.4876 168.911 59.3961 168.942 59.2969L169.773 55.7614L167.025 53.3786C166.947 53.3155 166.896 53.2401 166.872 53.1524C166.847 53.0647 166.852 52.9806 166.888 52.9003C166.923 52.8201 166.971 52.7541 167.03 52.7025C167.09 52.6526 167.17 52.6188 167.271 52.601L170.897 52.2844L172.312 48.9365C172.351 48.8418 172.407 48.7736 172.48 48.7317C172.554 48.6899 172.636 48.6689 172.727 48.6689C172.818 48.6689 172.901 48.6899 172.975 48.7317C173.049 48.7736 173.105 48.8418 173.143 48.9365L174.557 52.2844L178.183 52.601C178.284 52.6182 178.365 52.6523 178.424 52.7034C178.484 52.7538 178.532 52.8195 178.567 52.9003C178.602 52.9806 178.607 53.0647 178.583 53.1524C178.558 53.2401 178.507 53.3155 178.429 53.3786L175.681 55.7614L176.512 59.2969C176.544 59.395 176.541 59.4862 176.503 59.5705C176.464 59.6548 176.408 59.7196 176.333 59.7649C176.26 59.8108 176.184 59.838 176.105 59.8466C176.027 59.8552 175.942 59.8368 175.851 59.7915L172.727 57.9059Z" fill="white"/>
<path d="M198.164 57.9059L195.041 59.7915C194.949 59.8368 194.864 59.8552 194.786 59.8466C194.708 59.8374 194.632 59.8105 194.558 59.7657C194.483 59.7199 194.427 59.6551 194.389 59.5713C194.351 59.4876 194.348 59.3961 194.379 59.2969L195.21 55.7614L192.461 53.3786C192.384 53.3155 192.333 53.2401 192.308 53.1524C192.283 53.0647 192.289 52.9806 192.324 52.9003C192.36 52.8201 192.407 52.7541 192.466 52.7025C192.526 52.6526 192.606 52.6188 192.707 52.601L196.334 52.2844L197.748 48.9365C197.787 48.8418 197.843 48.7736 197.917 48.7317C197.99 48.6899 198.072 48.6689 198.164 48.6689C198.255 48.6689 198.337 48.6899 198.411 48.7317C198.485 48.7736 198.541 48.8418 198.579 48.9365L199.993 52.2844L203.619 52.601C203.721 52.6182 203.801 52.6523 203.861 52.7034C203.92 52.7538 203.968 52.8195 204.004 52.9003C204.039 52.9806 204.044 53.0647 204.019 53.1524C203.994 53.2401 203.943 53.3155 203.866 53.3786L201.118 55.7614L201.949 59.2969C201.981 59.395 201.978 59.4862 201.939 59.5705C201.901 59.6548 201.844 59.7196 201.77 59.7649C201.696 59.8108 201.62 59.838 201.542 59.8466C201.464 59.8552 201.379 59.8368 201.287 59.7915L198.164 57.9059Z" fill="white"/>
<path d="M223.734 57.9059L220.611 59.7915C220.52 59.8368 220.434 59.8552 220.356 59.8466C220.278 59.8374 220.202 59.8105 220.128 59.7657C220.053 59.7199 219.997 59.6551 219.959 59.5713C219.921 59.4876 219.918 59.3961 219.949 59.2969L220.78 55.7614L218.032 53.3786C217.954 53.3155 217.903 53.2401 217.878 53.1524C217.854 53.0647 217.859 52.9806 217.895 52.9003C217.93 52.8201 217.978 52.7541 218.037 52.7025C218.096 52.6526 218.177 52.6188 218.278 52.601L221.904 52.2844L223.318 48.9365C223.357 48.8418 223.414 48.7736 223.487 48.7317C223.56 48.6899 223.643 48.6689 223.734 48.6689C223.825 48.6689 223.908 48.6899 223.982 48.7317C224.056 48.7736 224.112 48.8418 224.149 48.9365L225.564 52.2844L229.189 52.601C229.291 52.6182 229.371 52.6523 229.431 52.7034C229.491 52.7538 229.538 52.8195 229.574 52.9003C229.609 52.9806 229.614 53.0647 229.589 53.1524C229.565 53.2401 229.514 53.3155 229.436 53.3786L226.688 55.7614L227.519 59.2969C227.551 59.395 227.548 59.4862 227.509 59.5705C227.471 59.6548 227.414 59.7196 227.34 59.7649C227.267 59.8108 227.191 59.838 227.112 59.8466C227.034 59.8552 226.949 59.8368 226.857 59.7915L223.734 57.9059Z" fill="white"/>
<path d="M122.175 57.9059L119.053 59.7915C118.961 59.8368 118.876 59.8552 118.797 59.8466C118.719 59.8374 118.643 59.8105 118.569 59.7657C118.495 59.7199 118.439 59.6551 118.401 59.5713C118.363 59.4876 118.359 59.3961 118.39 59.2969L119.221 55.7614L116.473 53.3786C116.396 53.3155 116.344 53.2401 116.32 53.1524C116.295 53.0647 116.301 52.9806 116.336 52.9003C116.372 52.8201 116.419 52.7541 116.478 52.7025C116.538 52.6526 116.618 52.6188 116.719 52.601L120.346 52.2844L121.76 48.9365C121.799 48.8418 121.855 48.7736 121.928 48.7317C122.002 48.6899 122.084 48.6689 122.175 48.6689C122.267 48.6689 122.349 48.6899 122.423 48.7317C122.497 48.7736 122.553 48.8418 122.591 48.9365L124.005 52.2844L127.631 52.601C127.732 52.6182 127.813 52.6523 127.873 52.7034C127.932 52.7538 127.98 52.8195 128.015 52.9003C128.05 52.9806 128.055 53.0647 128.031 53.1524C128.006 53.2401 127.955 53.3155 127.878 53.3786L125.129 55.7614L125.96 59.2969C125.992 59.395 125.989 59.4862 125.951 59.5705C125.912 59.6548 125.856 59.7196 125.781 59.7649C125.708 59.8108 125.632 59.838 125.553 59.8466C125.475 59.8552 125.391 59.8368 125.299 59.7915L122.175 57.9059Z" fill="white"/>
<path d="M280.071 13.0986V68.6578" stroke="white"/>
<path d="M276.532 13.7754V69.3345" stroke="white"/>
<path d="M50.0498 13.7754V69.3345" stroke="white"/>
<path d="M39.4587 32.4549H30.7314V31.4322L37.5837 26.6765V26.5913L30.7314 26.5913V25.5344L39.4587 25.5344V26.5572L32.5894 31.3299V31.4151H39.4587V32.4549ZM30.5951 37.0923C30.5951 36.5014 30.7357 35.983 31.017 35.5369C31.2982 35.0937 31.6917 34.7472 32.1974 34.4972C32.703 34.25 33.2939 34.1264 33.9701 34.1264C34.6519 34.1264 35.2471 34.25 35.7556 34.4972C36.2641 34.7472 36.659 35.0937 36.9403 35.5369C37.2215 35.983 37.3621 36.5014 37.3621 37.0923C37.3621 37.6832 37.2215 38.2003 36.9403 38.6435C36.659 39.0895 36.2641 39.4361 35.7556 39.6832C35.2471 39.9332 34.6519 40.0582 33.9701 40.0582C33.2939 40.0582 32.703 39.9332 32.1974 39.6832C31.6917 39.4361 31.2982 39.0895 31.017 38.6435C30.7357 38.2003 30.5951 37.6832 30.5951 37.0923ZM31.4985 37.0923C31.4985 37.5412 31.6135 37.9105 31.8437 38.2003C32.0738 38.4901 32.3763 38.7045 32.7513 38.8437C33.1263 38.983 33.5326 39.0526 33.9701 39.0526C34.4076 39.0526 34.8153 38.983 35.1931 38.8437C35.5709 38.7045 35.8763 38.4901 36.1093 38.2003C36.3422 37.9105 36.4587 37.5412 36.4587 37.0923C36.4587 36.6435 36.3422 36.2741 36.1093 35.9844C35.8763 35.6946 35.5709 35.4801 35.1931 35.3409C34.8153 35.2017 34.4076 35.1321 33.9701 35.1321C33.5326 35.1321 33.1263 35.2017 32.7513 35.3409C32.3763 35.4801 32.0738 35.6946 31.8437 35.9844C31.6135 36.2741 31.4985 36.6435 31.4985 37.0923ZM30.6633 42.3263C30.6633 42.1161 30.7385 41.9357 30.8891 41.7852C31.0397 41.6346 31.2201 41.5593 31.4303 41.5593C31.6405 41.5593 31.8209 41.6346 31.9715 41.7852C32.1221 41.9357 32.1974 42.1161 32.1974 42.3263C32.1974 42.5366 32.1221 42.717 31.9715 42.8675C31.8209 43.0181 31.6405 43.0934 31.4303 43.0934C31.2911 43.0934 31.1633 43.0579 31.0468 42.9869C30.9303 42.9187 30.8366 42.8263 30.7655 42.7099C30.6974 42.5962 30.6633 42.4684 30.6633 42.3263ZM30.6121 47.4229C30.6121 46.7809 30.7868 46.234 31.1363 45.7823C31.4885 45.3306 31.9985 44.9854 32.6661 44.7468C33.3366 44.5082 34.1462 44.3888 35.0951 44.3888C36.0383 44.3888 36.8437 44.5082 37.5113 44.7468C38.1817 44.9883 38.6931 45.3349 39.0454 45.7866C39.4005 46.2411 39.578 46.7866 39.578 47.4229C39.578 48.0593 39.4005 48.6033 39.0454 49.055C38.6931 49.5096 38.1817 49.8562 37.5113 50.0948C36.8437 50.3363 36.0383 50.457 35.0951 50.457C34.1462 50.457 33.3366 50.3377 32.6661 50.0991C31.9985 49.8604 31.4885 49.5153 31.1363 49.0636C30.7868 48.6119 30.6121 48.065 30.6121 47.4229ZM31.5496 47.4229C31.5496 48.0593 31.8564 48.5536 32.4701 48.9059C33.0837 49.2582 33.9587 49.4343 35.0951 49.4343C35.8508 49.4343 36.4942 49.3533 37.0255 49.1914C37.5567 49.0323 37.9616 48.8022 38.24 48.5011C38.5184 48.2028 38.6576 47.8434 38.6576 47.4229C38.6576 46.7923 38.3465 46.2994 37.7243 45.9442C37.105 45.5891 36.2286 45.4116 35.0951 45.4116C34.3394 45.4116 33.6974 45.4911 33.1689 45.6502C32.6405 45.8093 32.2385 46.038 31.963 46.3363C31.6874 46.6374 31.5496 46.9996 31.5496 47.4229ZM39.4587 55.1445H30.7314V54.0877H38.3508V54.0366L36.936 51.9059H38.0099L39.4587 54.0877V55.1445Z" fill="white"/>
<defs>
<filter id="filter0_d_557_385" x="0" y="0" width="344.983" height="85.7549" filterUnits="userSpaceOnUse" color-interpolation-filters="sRGB">
<feFlood flood-opacity="0" result="BackgroundImageFix"/>
<feColorMatrix in="SourceAlpha" type="matrix" values="0 0 0 0 0 0 0 0 0 0 0 0 0 0 0 0 0 0 127 0" result="hardAlpha"/>
<feOffset dy="2"/>
<feGaussianBlur stdDeviation="4.5"/>
<feComposite in2="hardAlpha" operator="out"/>
<feColorMatrix type="matrix" values="0 0 0 0 0 0 0 0 0 0 0 0 0 0 0 0 0 0 0.25 0"/>
<feBlend mode="normal" in2="BackgroundImageFix" result="effect1_dropShadow_557_385"/>
<feBlend mode="normal" in="SourceGraphic" in2="effect1_dropShadow_557_385" result="shape"/>
</filter>
<linearGradient id="paint0_linear_557_385" x1="9" y1="40.8774" x2="335.983" y2="40.8774" gradientUnits="userSpaceOnUse">
<stop stop-color="#710A0B"/>
<stop offset="0.336538" stop-color="#AB0F1C"/>
<stop offset="0.701923" stop-color="#D26D75"/>
<stop offset="1" stop-color="#F5CAC3"/>
</linearGradient>
</defs>
</svg>
