<svg width="345" height="87" viewBox="0 0 345 87" fill="none" xmlns="http://www.w3.org/2000/svg">
<g filter="url(#filter0_d_557_482)">
<path d="M321.179 7.50977C323.025 12.2461 328.005 15.6396 333.859 15.6396C334.582 15.6396 335.292 15.5869 335.983 15.4873V17.2451C335.138 17.5658 334.568 18.1636 334.568 18.8496C334.569 19.5354 335.138 20.1315 335.983 20.4521V22.1016C335.138 22.4223 334.568 23.02 334.568 23.7061C334.569 24.3918 335.138 24.9879 335.983 25.3086V26.96C335.138 27.2807 334.568 27.8784 334.568 28.5645C334.569 29.2502 335.138 29.8463 335.983 30.167V31.8193C335.138 32.14 334.568 32.7378 334.568 33.4238C334.569 34.1096 335.138 34.7057 335.983 35.0264V36.6768C335.138 36.9975 334.568 37.5952 334.568 38.2812C334.569 38.967 335.138 39.5631 335.983 39.8838V41.5342C335.138 41.8549 334.568 42.4526 334.568 43.1387C334.569 43.8245 335.138 44.4205 335.983 44.7412V46.3916C335.138 46.7123 334.568 47.3101 334.568 47.9961C334.569 48.6819 335.138 49.2779 335.983 49.5986V51.249C335.138 51.5697 334.568 52.1675 334.568 52.8535C334.569 53.5393 335.138 54.1354 335.983 54.4561V56.1074C335.138 56.4281 334.568 57.0259 334.568 57.7119C334.569 58.3977 335.138 58.9938 335.983 59.3145V60.9648C335.138 61.2855 334.568 61.8833 334.568 62.5693C334.569 63.2551 335.138 63.8512 335.983 64.1719V65.7949C329.899 66.0804 324.885 70.0347 323.576 75.2646H19.9902C18.7847 70.4469 14.4343 66.7127 9 65.9307V64.1729C9.84586 63.8523 10.4158 63.2554 10.416 62.5693C10.416 61.883 9.84623 61.2845 9 60.9639V59.3154C9.84586 58.9948 10.4158 58.398 10.416 57.7119C10.416 57.0256 9.84623 56.427 9 56.1064V54.457C9.84586 54.1364 10.4158 53.5396 10.416 52.8535C10.416 52.1672 9.84623 51.5686 9 51.248V49.5996C9.84586 49.279 10.4158 48.6822 10.416 47.9961C10.416 47.3098 9.84623 46.7112 9 46.3906V44.7422C9.84586 44.4216 10.4158 43.8248 10.416 43.1387C10.416 42.4523 9.84623 41.8538 9 41.5332V39.8848C9.84586 39.5642 10.4158 38.9673 10.416 38.2812C10.416 37.5949 9.84623 36.9964 9 36.6758V35.0273C9.84586 34.7068 10.4158 34.1099 10.416 33.4238C10.416 32.7375 9.84623 32.139 9 31.8184V30.168C9.84586 29.8474 10.4158 29.2505 10.416 28.5645C10.416 27.8781 9.84623 27.2796 9 26.959V25.3096C9.84586 24.989 10.4158 24.3921 10.416 23.7061C10.416 23.0197 9.84623 22.4212 9 22.1006V20.4531C9.84586 20.1325 10.4158 19.5357 10.416 18.8496C10.416 18.1633 9.84623 17.5647 9 17.2441V15.623C9.23412 15.634 9.4699 15.6396 9.70703 15.6396C15.5617 15.6396 20.5414 12.2461 22.3877 7.50977H321.179Z" fill="url(#paint0_linear_557_482)"/>
</g>
<mask id="path-2-inside-1_557_482" fill="white">
<path d="M316.03 12.9297C317.813 16.9277 322.62 19.7929 328.271 19.793C328.969 19.793 329.654 19.7472 330.322 19.6631V21.1465C329.505 21.4171 328.955 21.9225 328.955 22.502C328.955 23.0812 329.505 23.5849 330.322 23.8555V25.2471C329.505 25.5177 328.955 26.0231 328.955 26.6025C328.955 27.1818 329.505 27.6855 330.322 27.9561V29.3477C329.505 29.6183 328.955 30.1237 328.955 30.7031C328.955 31.2824 329.505 31.786 330.322 32.0566V33.4482C329.505 33.7188 328.955 34.2242 328.955 34.8037C328.955 35.383 329.505 35.8866 330.322 36.1572V37.5498C329.505 37.8204 328.955 38.3258 328.955 38.9053C328.955 39.4845 329.505 39.9882 330.322 40.2588V41.6514C329.505 41.922 328.955 42.4274 328.955 43.0068C328.955 43.5861 329.505 44.0897 330.322 44.3604V45.752C329.505 46.0225 328.955 46.528 328.955 47.1074C328.955 47.6867 329.505 48.1903 330.322 48.4609V49.8525C329.505 50.1231 328.955 50.6285 328.955 51.208C328.955 51.7873 329.505 52.2909 330.322 52.5615V53.9531C329.505 54.2237 328.955 54.7291 328.955 55.3086C328.955 55.8879 329.505 56.3915 330.322 56.6621V58.0537C329.505 58.3243 328.955 58.8297 328.955 59.4092C328.955 59.9884 329.505 60.4921 330.322 60.7627V62.1318C324.449 62.3729 319.608 65.7103 318.345 70.125H25.2715C24.1075 66.0584 19.9088 62.9063 14.6631 62.2461V60.7627C15.4795 60.492 16.0292 59.9883 16.0293 59.4092C16.0293 58.8299 15.4797 58.3254 14.6631 58.0547V56.6621C15.4795 56.3914 16.0292 55.8877 16.0293 55.3086C16.0293 54.7294 15.4797 54.2248 14.6631 53.9541V52.5615C15.4795 52.2908 16.0292 51.7871 16.0293 51.208C16.0293 50.6288 15.4797 50.1242 14.6631 49.8535V48.4609C15.4795 48.1903 16.0291 47.6865 16.0293 47.1074C16.0293 46.5281 15.4799 46.0226 14.6631 45.752V44.3604C15.4795 44.0897 16.0291 43.5859 16.0293 43.0068C16.0293 42.4275 15.4799 41.922 14.6631 41.6514V40.2588C15.4795 39.9881 16.0292 39.4844 16.0293 38.9053C16.0293 38.326 15.4799 37.8205 14.6631 37.5498V36.1572C15.4796 35.8866 16.0292 35.3829 16.0293 34.8037C16.0293 34.2245 15.4797 33.7199 14.6631 33.4492V32.0566C15.4796 31.786 16.0292 31.2823 16.0293 30.7031C16.0293 30.1239 15.4797 29.6193 14.6631 29.3486V27.9561C15.4796 27.6854 16.0293 27.1817 16.0293 26.6025C16.0293 26.0233 15.4797 25.5187 14.6631 25.248V23.8555C15.4796 23.5848 16.0293 23.0811 16.0293 22.502C16.0293 21.9227 15.4798 21.4181 14.6631 21.1475V19.7783C14.8891 19.7876 15.1167 19.793 15.3457 19.793C20.9976 19.793 25.8055 16.9279 27.5879 12.9297H316.03Z"/>
</mask>
<path d="M316.03 12.9297C317.813 16.9277 322.62 19.7929 328.271 19.793C328.969 19.793 329.654 19.7472 330.322 19.6631V21.1465C329.505 21.4171 328.955 21.9225 328.955 22.502C328.955 23.0812 329.505 23.5849 330.322 23.8555V25.2471C329.505 25.5177 328.955 26.0231 328.955 26.6025C328.955 27.1818 329.505 27.6855 330.322 27.9561V29.3477C329.505 29.6183 328.955 30.1237 328.955 30.7031C328.955 31.2824 329.505 31.786 330.322 32.0566V33.4482C329.505 33.7188 328.955 34.2242 328.955 34.8037C328.955 35.383 329.505 35.8866 330.322 36.1572V37.5498C329.505 37.8204 328.955 38.3258 328.955 38.9053C328.955 39.4845 329.505 39.9882 330.322 40.2588V41.6514C329.505 41.922 328.955 42.4274 328.955 43.0068C328.955 43.5861 329.505 44.0897 330.322 44.3604V45.752C329.505 46.0225 328.955 46.528 328.955 47.1074C328.955 47.6867 329.505 48.1903 330.322 48.4609V49.8525C329.505 50.1231 328.955 50.6285 328.955 51.208C328.955 51.7873 329.505 52.2909 330.322 52.5615V53.9531C329.505 54.2237 328.955 54.7291 328.955 55.3086C328.955 55.8879 329.505 56.3915 330.322 56.6621V58.0537C329.505 58.3243 328.955 58.8297 328.955 59.4092C328.955 59.9884 329.505 60.4921 330.322 60.7627V62.1318C324.449 62.3729 319.608 65.7103 318.345 70.125H25.2715C24.1075 66.0584 19.9088 62.9063 14.6631 62.2461V60.7627C15.4795 60.492 16.0292 59.9883 16.0293 59.4092C16.0293 58.8299 15.4797 58.3254 14.6631 58.0547V56.6621C15.4795 56.3914 16.0292 55.8877 16.0293 55.3086C16.0293 54.7294 15.4797 54.2248 14.6631 53.9541V52.5615C15.4795 52.2908 16.0292 51.7871 16.0293 51.208C16.0293 50.6288 15.4797 50.1242 14.6631 49.8535V48.4609C15.4795 48.1903 16.0291 47.6865 16.0293 47.1074C16.0293 46.5281 15.4799 46.0226 14.6631 45.752V44.3604C15.4795 44.0897 16.0291 43.5859 16.0293 43.0068C16.0293 42.4275 15.4799 41.922 14.6631 41.6514V40.2588C15.4795 39.9881 16.0292 39.4844 16.0293 38.9053C16.0293 38.326 15.4799 37.8205 14.6631 37.5498V36.1572C15.4796 35.8866 16.0292 35.3829 16.0293 34.8037C16.0293 34.2245 15.4797 33.7199 14.6631 33.4492V32.0566C15.4796 31.786 16.0292 31.2823 16.0293 30.7031C16.0293 30.1239 15.4797 29.6193 14.6631 29.3486V27.9561C15.4796 27.6854 16.0293 27.1817 16.0293 26.6025C16.0293 26.0233 15.4797 25.5187 14.6631 25.248V23.8555C15.4796 23.5848 16.0293 23.0811 16.0293 22.502C16.0293 21.9227 15.4798 21.4181 14.6631 21.1475V19.7783C14.8891 19.7876 15.1167 19.793 15.3457 19.793C20.9976 19.793 25.8055 16.9279 27.5879 12.9297H316.03Z" fill="url(#paint1_linear_557_482)"/>
<path d="M316.03 12.9297L316.944 12.5225L316.679 11.9297H316.03V12.9297ZM328.271 19.793V20.793V19.793ZM330.322 19.6631H331.322V18.5293L330.197 18.6709L330.322 19.6631ZM330.322 21.1465L330.637 22.0958L331.322 21.8687V21.1465H330.322ZM328.955 22.502H327.955V22.5022L328.955 22.502ZM330.322 23.8555H331.322V23.1333L330.637 22.9062L330.322 23.8555ZM330.322 25.2471L330.637 26.1964L331.322 25.9693V25.2471H330.322ZM328.955 26.6025H327.955V26.6028L328.955 26.6025ZM330.322 27.9561H331.322V27.2339L330.637 27.0068L330.322 27.9561ZM330.322 29.3477L330.637 30.297L331.322 30.0699V29.3477H330.322ZM328.955 30.7031H327.955V30.7033L328.955 30.7031ZM330.322 32.0566H331.322V31.3345L330.637 31.1074L330.322 32.0566ZM330.322 33.4482L330.637 34.3975L331.322 34.1705V33.4482H330.322ZM328.955 34.8037H327.955V34.8039L328.955 34.8037ZM330.322 36.1572H331.322V35.4351L330.637 35.208L330.322 36.1572ZM330.322 37.5498L330.637 38.4991L331.322 38.2721V37.5498H330.322ZM328.955 38.9053H327.955V38.9055L328.955 38.9053ZM330.322 40.2588H331.322V39.5366L330.637 39.3095L330.322 40.2588ZM330.322 41.6514L330.637 42.6007L331.322 42.3736V41.6514H330.322ZM328.955 43.0068H327.955V43.0071L328.955 43.0068ZM330.322 44.3604H331.322V43.6382L330.637 43.4111L330.322 44.3604ZM330.322 45.752L330.637 46.7013L331.322 46.4742V45.752H330.322ZM328.955 47.1074H327.955V47.1076L328.955 47.1074ZM330.322 48.4609H331.322V47.7388L330.637 47.5117L330.322 48.4609ZM330.322 49.8525L330.637 50.8018L331.322 50.5748V49.8525H330.322ZM328.955 51.208H327.955V51.2082L328.955 51.208ZM330.322 52.5615H331.322V51.8394L330.637 51.6123L330.322 52.5615ZM330.322 53.9531L330.637 54.9024L331.322 54.6754V53.9531H330.322ZM328.955 55.3086H327.955V55.3088L328.955 55.3086ZM330.322 56.6621H331.322V55.94L330.637 55.7128L330.322 56.6621ZM330.322 58.0537L330.637 59.003L331.322 58.776V58.0537H330.322ZM328.955 59.4092H327.955V59.4094L328.955 59.4092ZM330.322 60.7627H331.322V60.0405L330.637 59.8134L330.322 60.7627ZM330.322 62.1318L330.363 63.131L331.322 63.0916V62.1318H330.322ZM318.345 70.125V71.125H319.099L319.306 70.4002L318.345 70.125ZM25.2715 70.125L24.3101 70.4002L24.5176 71.125H25.2715V70.125ZM14.6631 62.2461H13.6631V63.1281L14.5382 63.2383L14.6631 62.2461ZM14.6631 60.7627L14.3484 59.8135L13.6631 60.0407V60.7627H14.6631ZM16.0293 59.4092L17.0293 59.4093V59.4092H16.0293ZM14.6631 58.0547H13.6631V58.7767L14.3485 59.0039L14.6631 58.0547ZM14.6631 56.6621L14.3484 55.7129L13.6631 55.9401V56.6621H14.6631ZM16.0293 55.3086L17.0293 55.3087V55.3086H16.0293ZM14.6631 53.9541H13.6631V54.6761L14.3485 54.9033L14.6631 53.9541ZM14.6631 52.5615L14.3484 51.6123L13.6631 51.8395V52.5615H14.6631ZM16.0293 51.208L17.0293 51.2081V51.208H16.0293ZM14.6631 49.8535H13.6631V50.5756L14.3485 50.8027L14.6631 49.8535ZM14.6631 48.4609L14.3484 47.5117L13.6631 47.7389V48.4609H14.6631ZM16.0293 47.1074L17.0293 47.1078V47.1074H16.0293ZM14.6631 45.752H13.6631V46.4741L14.3485 46.7012L14.6631 45.752ZM14.6631 44.3604L14.3484 43.4111L13.6631 43.6383V44.3604H14.6631ZM16.0293 43.0068L17.0293 43.0072V43.0068H16.0293ZM14.6631 41.6514H13.6631V42.3735L14.3485 42.6006L14.6631 41.6514ZM14.6631 40.2588L14.3484 39.3096L13.6631 39.5368V40.2588H14.6631ZM16.0293 38.9053L17.0293 38.9055V38.9053H16.0293ZM14.6631 37.5498H13.6631V38.2719L14.3486 38.4991L14.6631 37.5498ZM14.6631 36.1572L14.3484 35.208L13.6631 35.4352V36.1572H14.6631ZM16.0293 34.8037L17.0293 34.8038V34.8037H16.0293ZM14.6631 33.4492H13.6631V34.1713L14.3485 34.3984L14.6631 33.4492ZM14.6631 32.0566L14.3484 31.1074L13.6631 31.3346V32.0566H14.6631ZM16.0293 30.7031L17.0293 30.7032V30.7031H16.0293ZM14.6631 29.3486H13.6631V30.0707L14.3485 30.2979L14.6631 29.3486ZM14.6631 27.9561L14.3484 27.0069L13.6631 27.2341V27.9561H14.6631ZM16.0293 26.6025L17.0293 26.6026V26.6025H16.0293ZM14.6631 25.248H13.6631V25.9701L14.3485 26.1973L14.6631 25.248ZM14.6631 23.8555L14.3484 22.9063L13.6631 23.1335V23.8555H14.6631ZM16.0293 22.502L17.0293 22.502V22.502H16.0293ZM14.6631 21.1475H13.6631V21.8695L14.3485 22.0967L14.6631 21.1475ZM14.6631 19.7783L14.7041 18.7792L13.6631 18.7364V19.7783H14.6631ZM15.3457 19.793L15.3457 20.793H15.3457V19.793ZM27.5879 12.9297V11.9297H26.9388L26.6745 12.5225L27.5879 12.9297ZM316.03 12.9297L315.117 13.3369C317.095 17.7748 322.32 20.7929 328.271 20.793V19.793V18.793C322.92 18.7929 318.53 16.0807 316.944 12.5225L316.03 12.9297ZM328.271 19.793V20.793C329.013 20.793 329.74 20.7443 330.447 20.6553L330.322 19.6631L330.197 18.6709C329.569 18.75 328.926 18.793 328.271 18.793V19.793ZM330.322 19.6631H329.322V21.1465H330.322H331.322V19.6631H330.322ZM330.322 21.1465L330.008 20.1972C329.496 20.3667 329.01 20.6273 328.636 20.9908C328.257 21.3583 327.955 21.8736 327.955 22.502H328.955H329.955C329.955 22.5508 329.928 22.5237 330.029 22.426C330.134 22.3242 330.331 22.1969 330.637 22.0958L330.322 21.1465ZM328.955 22.502L327.955 22.5022C327.955 23.1309 328.258 23.6459 328.637 24.0128C329.011 24.3755 329.497 24.6354 330.008 24.8047L330.322 23.8555L330.637 22.9062C330.331 22.8049 330.133 22.6777 330.028 22.5762C329.928 22.4787 329.955 22.4523 329.955 22.5017L328.955 22.502ZM330.322 23.8555H329.322V25.2471H330.322H331.322V23.8555H330.322ZM330.322 25.2471L330.008 24.2978C329.496 24.4673 329.01 24.7279 328.636 25.0914C328.257 25.4589 327.955 25.9742 327.955 26.6025H328.955H329.955C329.955 26.6514 329.928 26.6243 330.029 26.5266C330.134 26.4248 330.331 26.2975 330.637 26.1964L330.322 25.2471ZM328.955 26.6025L327.955 26.6028C327.955 27.2315 328.258 27.7465 328.637 28.1134C329.011 28.4761 329.497 28.736 330.008 28.9053L330.322 27.9561L330.637 27.0068C330.331 26.9055 330.133 26.7782 330.028 26.6767C329.928 26.5793 329.955 26.5529 329.955 26.6023L328.955 26.6025ZM330.322 27.9561H329.322V29.3477H330.322H331.322V27.9561H330.322ZM330.322 29.3477L330.008 28.3984C329.496 28.5679 329.01 28.8285 328.636 29.192C328.257 29.5594 327.955 30.0748 327.955 30.7031H328.955H329.955C329.955 30.752 329.928 30.7249 330.029 30.6271C330.134 30.5254 330.331 30.398 330.637 30.297L330.322 29.3477ZM328.955 30.7031L327.955 30.7033C327.955 31.332 328.258 31.8471 328.637 32.2139C329.011 32.5767 329.497 32.8366 330.008 33.0059L330.322 32.0566L330.637 31.1074C330.331 31.0061 330.133 30.8788 330.028 30.7773C329.928 30.6799 329.955 30.6535 329.955 30.7029L328.955 30.7031ZM330.322 32.0566H329.322V33.4482H330.322H331.322V32.0566H330.322ZM330.322 33.4482L330.008 32.4989C329.496 32.6685 329.01 32.9291 328.636 33.2926C328.257 33.66 327.955 34.1754 327.955 34.8037H328.955H329.955C329.955 34.8526 329.928 34.8255 330.029 34.7277C330.134 34.626 330.331 34.4986 330.637 34.3975L330.322 33.4482ZM328.955 34.8037L327.955 34.8039C327.955 35.4326 328.258 35.9476 328.637 36.3145C329.011 36.6773 329.497 36.9372 330.008 37.1065L330.322 36.1572L330.637 35.208C330.331 35.1067 330.133 34.9794 330.028 34.8779C329.928 34.7805 329.955 34.7541 329.955 34.8035L328.955 34.8037ZM330.322 36.1572H329.322V37.5498H330.322H331.322V36.1572H330.322ZM330.322 37.5498L330.008 36.6005C329.496 36.77 329.01 37.0307 328.636 37.3941C328.257 37.7616 327.955 38.277 327.955 38.9053H328.955H329.955C329.955 38.9541 329.928 38.9271 330.029 38.8293C330.134 38.7275 330.331 38.6002 330.637 38.4991L330.322 37.5498ZM328.955 38.9053L327.955 38.9055C327.955 39.5342 328.258 40.0492 328.637 40.4161C329.011 40.7789 329.497 41.0388 330.008 41.208L330.322 40.2588L330.637 39.3095C330.331 39.2082 330.133 39.081 330.028 38.9795C329.928 38.8821 329.955 38.8556 329.955 38.9051L328.955 38.9053ZM330.322 40.2588H329.322V41.6514H330.322H331.322V40.2588H330.322ZM330.322 41.6514L330.008 40.7021C329.496 40.8716 329.01 41.1322 328.636 41.4957C328.257 41.8632 327.955 42.3785 327.955 43.0068H328.955H329.955C329.955 43.0557 329.928 43.0286 330.029 42.9309C330.134 42.8291 330.331 42.7017 330.637 42.6007L330.322 41.6514ZM328.955 43.0068L327.955 43.0071C327.955 43.6358 328.258 44.1508 328.637 44.5177C329.011 44.8804 329.497 45.1403 330.008 45.3096L330.322 44.3604L330.637 43.4111C330.331 43.3098 330.133 43.1825 330.028 43.081C329.928 42.9836 329.955 42.9572 329.955 43.0066L328.955 43.0068ZM330.322 44.3604H329.322V45.752H330.322H331.322V44.3604H330.322ZM330.322 45.752L330.008 44.8027C329.496 44.9722 329.01 45.2328 328.636 45.5963C328.257 45.9637 327.955 46.4791 327.955 47.1074H328.955H329.955C329.955 47.1563 329.928 47.1292 330.029 47.0314C330.134 46.9297 330.331 46.8023 330.637 46.7013L330.322 45.752ZM328.955 47.1074L327.955 47.1076C327.955 47.7363 328.258 48.2514 328.637 48.6182C329.011 48.981 329.497 49.2409 330.008 49.4102L330.322 48.4609L330.637 47.5117C330.331 47.4104 330.133 47.2831 330.028 47.1816C329.928 47.0842 329.955 47.0578 329.955 47.1072L328.955 47.1074ZM330.322 48.4609H329.322V49.8525H330.322H331.322V48.4609H330.322ZM330.322 49.8525L330.008 48.9032C329.496 49.0728 329.01 49.3334 328.636 49.6969C328.257 50.0643 327.955 50.5797 327.955 51.208H328.955H329.955C329.955 51.2569 329.928 51.2298 330.029 51.132C330.134 51.0303 330.331 50.9029 330.637 50.8018L330.322 49.8525ZM328.955 51.208L327.955 51.2082C327.955 51.8369 328.258 52.3519 328.637 52.7188C329.011 53.0816 329.497 53.3415 330.008 53.5108L330.322 52.5615L330.637 51.6123C330.331 51.511 330.133 51.3837 330.028 51.2822C329.928 51.1848 329.955 51.1584 329.955 51.2078L328.955 51.208ZM330.322 52.5615H329.322V53.9531H330.322H331.322V52.5615H330.322ZM330.322 53.9531L330.008 53.0038C329.496 53.1733 329.01 53.434 328.636 53.7975C328.257 54.1649 327.955 54.6803 327.955 55.3086H328.955H329.955C329.955 55.3574 329.928 55.3304 330.029 55.2326C330.134 55.1309 330.331 55.0035 330.637 54.9024L330.322 53.9531ZM328.955 55.3086L327.955 55.3088C327.955 55.9375 328.258 56.4525 328.637 56.8194C329.011 57.1822 329.497 57.4421 330.008 57.6114L330.322 56.6621L330.637 55.7128C330.331 55.6115 330.133 55.4843 330.028 55.3828C329.928 55.2854 329.955 55.2589 329.955 55.3084L328.955 55.3086ZM330.322 56.6621H329.322V58.0537H330.322H331.322V56.6621H330.322ZM330.322 58.0537L330.008 57.1044C329.496 57.2739 329.01 57.5346 328.636 57.898C328.257 58.2655 327.955 58.7809 327.955 59.4092H328.955H329.955C329.955 59.458 329.928 59.431 330.029 59.3332C330.134 59.2315 330.331 59.1041 330.637 59.003L330.322 58.0537ZM328.955 59.4092L327.955 59.4094C327.955 60.0381 328.258 60.5531 328.637 60.92C329.011 61.2828 329.497 61.5427 330.008 61.712L330.322 60.7627L330.637 59.8134C330.331 59.7121 330.133 59.5849 330.028 59.4834C329.928 59.386 329.955 59.3595 329.955 59.409L328.955 59.4092ZM330.322 60.7627H329.322V62.1318H330.322H331.322V60.7627H330.322ZM330.322 62.1318L330.281 61.1327C324.104 61.3862 318.797 64.9102 317.383 69.8498L318.345 70.125L319.306 70.4002C320.419 66.5104 324.794 63.3596 330.363 63.131L330.322 62.1318ZM318.345 70.125V69.125H25.2715V70.125V71.125H318.345V70.125ZM25.2715 70.125L26.2329 69.8498C24.9303 65.2989 20.3171 61.9498 14.788 61.2539L14.6631 62.2461L14.5382 63.2383C19.5006 63.8628 23.2848 66.8179 24.3101 70.4002L25.2715 70.125ZM14.6631 62.2461H15.6631V60.7627H14.6631H13.6631V62.2461H14.6631ZM14.6631 60.7627L14.9778 61.7119C15.4887 61.5425 15.974 61.2825 16.3484 60.9196C16.727 60.5526 17.0292 60.0377 17.0293 59.4093L16.0293 59.4092L15.0293 59.409C15.0293 59.3598 15.0567 59.3863 14.9563 59.4836C14.8517 59.585 14.6539 59.7122 14.3484 59.8135L14.6631 60.7627ZM16.0293 59.4092H17.0293C17.0293 58.781 16.7273 58.2659 16.3488 57.8986C15.9745 57.5353 15.4891 57.275 14.9777 57.1055L14.6631 58.0547L14.3485 59.0039C14.6537 59.1051 14.8514 59.2323 14.956 59.3339C15.0565 59.4314 15.0293 59.4581 15.0293 59.4092H16.0293ZM14.6631 58.0547H15.6631V56.6621H14.6631H13.6631V58.0547H14.6631ZM14.6631 56.6621L14.9778 57.6113C15.4887 57.4419 15.974 57.1819 16.3484 56.819C16.727 56.452 17.0292 55.9371 17.0293 55.3087L16.0293 55.3086L15.0293 55.3085C15.0293 55.2592 15.0567 55.2857 14.9563 55.383C14.8517 55.4844 14.6539 55.6116 14.3484 55.7129L14.6631 56.6621ZM16.0293 55.3086H17.0293C17.0293 54.6804 16.7273 54.1653 16.3488 53.798C15.9745 53.4348 15.4891 53.1744 14.9777 53.0049L14.6631 53.9541L14.3485 54.9033C14.6537 55.0045 14.8514 55.1318 14.956 55.2333C15.0565 55.3308 15.0293 55.3575 15.0293 55.3086H16.0293ZM14.6631 53.9541H15.6631V52.5615H14.6631H13.6631V53.9541H14.6631ZM14.6631 52.5615L14.9778 53.5107C15.4887 53.3413 15.974 53.0813 16.3484 52.7185C16.727 52.3515 17.0292 51.8365 17.0293 51.2081L16.0293 51.208L15.0293 51.2079C15.0293 51.1586 15.0567 51.1851 14.9563 51.2824C14.8517 51.3838 14.6539 51.511 14.3484 51.6123L14.6631 52.5615ZM16.0293 51.208H17.0293C17.0293 50.5798 16.7273 50.0647 16.3488 49.6974C15.9745 49.3342 15.4891 49.0738 14.9777 48.9043L14.6631 49.8535L14.3485 50.8027C14.6537 50.9039 14.8514 51.0312 14.956 51.1327C15.0565 51.2302 15.0293 51.257 15.0293 51.208H16.0293ZM14.6631 49.8535H15.6631V48.4609H14.6631H13.6631V49.8535H14.6631ZM14.6631 48.4609L14.9777 49.4101C15.4887 49.2408 15.974 48.9807 16.3483 48.6178C16.7269 48.2508 17.0291 47.736 17.0293 47.1078L16.0293 47.1074L15.0293 47.1071C15.0293 47.058 15.0566 47.0845 14.9562 47.1819C14.8516 47.2833 14.6539 47.4105 14.3484 47.5117L14.6631 48.4609ZM16.0293 47.1074H17.0293C17.0293 46.4795 16.7276 45.9642 16.3493 45.5967C15.975 45.2331 15.4895 44.9723 14.9776 44.8027L14.6631 45.752L14.3485 46.7012C14.6535 46.8022 14.851 46.9296 14.9557 47.0312C15.0562 47.1289 15.0293 47.156 15.0293 47.1074H16.0293ZM14.6631 45.752H15.6631V44.3604H14.6631H13.6631V45.752H14.6631ZM14.6631 44.3604L14.9777 45.3096C15.4887 45.1402 15.974 44.8801 16.3483 44.5172C16.7269 44.1502 17.0291 43.6354 17.0293 43.0072L16.0293 43.0068L15.0293 43.0065C15.0293 42.9574 15.0566 42.984 14.9562 43.0813C14.8516 43.1827 14.6539 43.3099 14.3484 43.4111L14.6631 44.3604ZM16.0293 43.0068H17.0293C17.0293 42.3789 16.7276 41.8637 16.3493 41.4961C15.975 41.1325 15.4895 40.8717 14.9776 40.7021L14.6631 41.6514L14.3485 42.6006C14.6535 42.7017 14.851 42.829 14.9557 42.9306C15.0562 43.0283 15.0293 43.0554 15.0293 43.0068H16.0293ZM14.6631 41.6514H15.6631V40.2588H14.6631H13.6631V41.6514H14.6631ZM14.6631 40.2588L14.9777 41.208C15.4887 41.0386 15.974 40.7786 16.3484 40.4157C16.7269 40.0487 17.0292 39.5338 17.0293 38.9055L16.0293 38.9053L15.0293 38.905C15.0293 38.8559 15.0566 38.8824 14.9563 38.9797C14.8516 39.0811 14.6539 39.2083 14.3484 39.3096L14.6631 40.2588ZM16.0293 38.9053H17.0293C17.0293 38.2774 16.7277 37.7621 16.3493 37.3945C15.975 37.0309 15.4895 36.7702 14.9776 36.6006L14.6631 37.5498L14.3486 38.4991C14.6535 38.6001 14.8511 38.7274 14.9557 38.8291C15.0562 38.9267 15.0293 38.9539 15.0293 38.9053H16.0293ZM14.6631 37.5498H15.6631V36.1572H14.6631H13.6631V37.5498H14.6631ZM14.6631 36.1572L14.9778 37.1064C15.4887 36.937 15.974 36.6771 16.3484 36.3142C16.727 35.9471 17.0292 35.4322 17.0293 34.8038L16.0293 34.8037L15.0293 34.8036C15.0293 34.7544 15.0567 34.7809 14.9563 34.8781C14.8517 34.9795 14.654 35.1067 14.3484 35.208L14.6631 36.1572ZM16.0293 34.8037H17.0293C17.0293 34.1755 16.7273 33.6604 16.3488 33.2931C15.9745 32.9299 15.4891 32.6695 14.9777 32.5L14.6631 33.4492L14.3485 34.3984C14.6537 34.4996 14.8514 34.6269 14.956 34.7284C15.0565 34.8259 15.0293 34.8526 15.0293 34.8037H16.0293ZM14.6631 33.4492H15.6631V32.0566H14.6631H13.6631V33.4492H14.6631ZM14.6631 32.0566L14.9778 33.0058C15.4887 32.8365 15.974 32.5765 16.3484 32.2136C16.727 31.8466 17.0292 31.3316 17.0293 30.7032L16.0293 30.7031L15.0293 30.703C15.0293 30.6538 15.0567 30.6803 14.9563 30.7775C14.8517 30.879 14.654 31.0061 14.3484 31.1074L14.6631 32.0566ZM16.0293 30.7031H17.0293C17.0293 30.075 16.7274 29.5598 16.3488 29.1925C15.9745 28.8293 15.4891 28.5689 14.9777 28.3994L14.6631 29.3486L14.3485 30.2979C14.6537 30.399 14.8514 30.5263 14.956 30.6278C15.0565 30.7253 15.0293 30.752 15.0293 30.7031H16.0293ZM14.6631 29.3486H15.6631V27.9561H14.6631H13.6631V29.3486H14.6631ZM14.6631 27.9561L14.9778 28.9053C15.4887 28.7359 15.974 28.4759 16.3484 28.113C16.727 27.746 17.0293 27.231 17.0293 26.6026L16.0293 26.6025L15.0293 26.6025C15.0293 26.5532 15.0567 26.5797 14.9563 26.677C14.8517 26.7784 14.654 26.9056 14.3484 27.0069L14.6631 27.9561ZM16.0293 26.6025H17.0293C17.0293 25.9744 16.7274 25.4592 16.3488 25.0919C15.9745 24.7287 15.4891 24.4683 14.9777 24.2988L14.6631 25.248L14.3485 26.1973C14.6538 26.2984 14.8514 26.4257 14.956 26.5272C15.0565 26.6247 15.0293 26.6515 15.0293 26.6025H16.0293ZM14.6631 25.248H15.6631V23.8555H14.6631H13.6631V25.248H14.6631ZM14.6631 23.8555L14.9778 24.8047C15.4887 24.6353 15.974 24.3753 16.3484 24.0124C16.727 23.6454 17.0293 23.1304 17.0293 22.502L16.0293 22.502L15.0293 22.5019C15.0293 22.4527 15.0567 22.4791 14.9564 22.5764C14.8517 22.6778 14.654 22.805 14.3484 22.9063L14.6631 23.8555ZM16.0293 22.502H17.0293C17.0293 21.8738 16.7274 21.3586 16.3488 20.9913C15.9745 20.6281 15.4891 20.3677 14.9777 20.1982L14.6631 21.1475L14.3485 22.0967C14.6538 22.1979 14.8514 22.3251 14.956 22.4266C15.0565 22.5241 15.0293 22.5509 15.0293 22.502H16.0293ZM14.6631 21.1475H15.6631V19.7783H14.6631H13.6631V21.1475H14.6631ZM14.6631 19.7783L14.622 20.7775C14.8598 20.7872 15.1012 20.793 15.3457 20.793L15.3457 19.793L15.3457 18.793C15.1323 18.793 14.9185 18.788 14.7041 18.7792L14.6631 19.7783ZM15.3457 19.793V20.793C21.2975 20.793 26.5227 17.775 28.5012 13.3369L27.5879 12.9297L26.6745 12.5225C25.0883 16.0808 20.6977 18.793 15.3457 18.793V19.793ZM27.5879 12.9297V13.9297H316.03V12.9297V11.9297H27.5879V12.9297Z" fill="white" mask="url(#path-2-inside-1_557_482)"/>
<path d="M152.259 29.0423C152.213 28.5839 152.018 28.2279 151.673 27.9741C151.329 27.7203 150.861 27.5934 150.27 27.5934C149.868 27.5934 149.529 27.6502 149.253 27.7638C148.976 27.8737 148.764 28.0271 148.617 28.2241C148.473 28.421 148.401 28.6445 148.401 28.8945C148.393 29.1029 148.437 29.2847 148.531 29.44C148.63 29.5953 148.764 29.7298 148.935 29.8434C149.105 29.9532 149.302 30.0498 149.526 30.1332C149.749 30.2127 149.988 30.2809 150.242 30.3377L151.287 30.5877C151.795 30.7013 152.261 30.8529 152.685 31.0423C153.109 31.2317 153.476 31.4646 153.787 31.7411C154.098 32.0176 154.338 32.3434 154.509 32.7184C154.683 33.0934 154.772 33.5233 154.776 34.0082C154.772 34.7203 154.59 35.3377 154.23 35.8604C153.874 36.3794 153.359 36.7828 152.685 37.0707C152.014 37.3548 151.206 37.4968 150.259 37.4968C149.319 37.4968 148.501 37.3529 147.804 37.065C147.111 36.7771 146.569 36.351 146.179 35.7866C145.793 35.2184 145.59 34.5157 145.571 33.6786H147.952C147.978 34.0688 148.09 34.3945 148.287 34.6559C148.488 34.9135 148.755 35.1085 149.088 35.2411C149.425 35.3699 149.806 35.4343 150.23 35.4343C150.647 35.4343 151.009 35.3737 151.315 35.2525C151.626 35.1313 151.867 34.9627 152.037 34.7468C152.208 34.5309 152.293 34.2828 152.293 34.0025C152.293 33.7411 152.215 33.5214 152.06 33.3434C151.908 33.1654 151.685 33.0138 151.389 32.8888C151.098 32.7638 150.74 32.6502 150.315 32.5479L149.048 32.2298C148.067 31.9911 147.293 31.618 146.725 31.1104C146.156 30.6029 145.874 29.9192 145.878 29.0593C145.874 28.3548 146.062 27.7392 146.44 27.2127C146.823 26.6862 147.348 26.2752 148.014 25.9798C148.681 25.6843 149.439 25.5366 150.287 25.5366C151.151 25.5366 151.904 25.6843 152.548 25.9798C153.196 26.2752 153.7 26.6862 154.06 27.2127C154.42 27.7392 154.605 28.3491 154.617 29.0423H152.259ZM160.328 37.5025C159.434 37.5025 158.665 37.3131 158.021 36.9343C157.381 36.5517 156.889 36.0214 156.544 35.3434C156.203 34.6654 156.033 33.8851 156.033 33.0025C156.033 32.1085 156.205 31.3245 156.55 30.6502C156.898 29.9722 157.393 29.4438 158.033 29.065C158.673 28.6824 159.434 28.4911 160.317 28.4911C161.078 28.4911 161.745 28.6294 162.317 28.9059C162.889 29.1824 163.342 29.5707 163.675 30.0707C164.008 30.5707 164.192 31.1578 164.226 31.832H161.942C161.877 31.3964 161.707 31.046 161.431 30.7809C161.158 30.512 160.8 30.3775 160.357 30.3775C159.982 30.3775 159.654 30.4798 159.374 30.6843C159.097 30.8851 158.881 31.1786 158.726 31.565C158.571 31.9513 158.493 32.4192 158.493 32.9684C158.493 33.5252 158.569 33.9987 158.72 34.3888C158.876 34.779 159.093 35.0763 159.374 35.2809C159.654 35.4854 159.982 35.5877 160.357 35.5877C160.633 35.5877 160.881 35.5309 161.101 35.4173C161.324 35.3036 161.508 35.1388 161.652 34.9229C161.8 34.7032 161.896 34.44 161.942 34.1332H164.226C164.188 34.7998 164.006 35.387 163.681 35.8945C163.359 36.3983 162.913 36.7923 162.345 37.0763C161.777 37.3604 161.105 37.5025 160.328 37.5025ZM165.776 37.332V28.6048H168.196V37.332H165.776ZM166.992 27.4798C166.632 27.4798 166.323 27.3604 166.065 27.1218C165.812 26.8794 165.685 26.5896 165.685 26.2525C165.685 25.9192 165.812 25.6332 166.065 25.3945C166.323 25.1521 166.632 25.0309 166.992 25.0309C167.351 25.0309 167.658 25.1521 167.912 25.3945C168.17 25.6332 168.298 25.9192 168.298 26.2525C168.298 26.5896 168.17 26.8794 167.912 27.1218C167.658 27.3604 167.351 27.4798 166.992 27.4798ZM174.828 28.6048V30.4229H169.442V28.6048H174.828ZM170.675 37.332V27.9741C170.675 27.3415 170.798 26.8169 171.044 26.4002C171.294 25.9835 171.635 25.671 172.067 25.4627C172.499 25.2544 172.989 25.1502 173.538 25.1502C173.91 25.1502 174.249 25.1786 174.556 25.2354C174.866 25.2923 175.097 25.3434 175.249 25.3888L174.817 27.207C174.722 27.1767 174.605 27.1483 174.465 27.1218C174.328 27.0953 174.188 27.082 174.044 27.082C173.688 27.082 173.44 27.1654 173.3 27.332C173.16 27.4949 173.09 27.7241 173.09 28.0195V37.332H170.675ZM179.938 37.5025C179.055 37.5025 178.292 37.315 177.648 36.94C177.008 36.5612 176.513 36.0347 176.165 35.3604C175.816 34.6824 175.642 33.8964 175.642 33.0025C175.642 32.101 175.816 31.3131 176.165 30.6388C176.513 29.9608 177.008 29.4343 177.648 29.0593C178.292 28.6805 179.055 28.4911 179.938 28.4911C180.82 28.4911 181.582 28.6805 182.222 29.0593C182.866 29.4343 183.362 29.9608 183.71 30.6388C184.059 31.3131 184.233 32.101 184.233 33.0025C184.233 33.8964 184.059 34.6824 183.71 35.3604C183.362 36.0347 182.866 36.5612 182.222 36.94C181.582 37.315 180.82 37.5025 179.938 37.5025ZM179.949 35.6275C180.351 35.6275 180.686 35.5138 180.955 35.2866C181.224 35.0555 181.426 34.7411 181.563 34.3434C181.703 33.9457 181.773 33.493 181.773 32.9854C181.773 32.4779 181.703 32.0252 181.563 31.6275C181.426 31.2298 181.224 30.9154 180.955 30.6843C180.686 30.4532 180.351 30.3377 179.949 30.3377C179.544 30.3377 179.203 30.4532 178.926 30.6843C178.654 30.9154 178.447 31.2298 178.307 31.6275C178.171 32.0252 178.102 32.4779 178.102 32.9854C178.102 33.493 178.171 33.9457 178.307 34.3434C178.447 34.7411 178.654 35.0555 178.926 35.2866C179.203 35.5138 179.544 35.6275 179.949 35.6275ZM185.807 37.332V28.6048H188.154V30.1275H188.244C188.404 29.5858 188.671 29.1767 189.046 28.9002C189.421 28.6199 189.852 28.4798 190.341 28.4798C190.462 28.4798 190.593 28.4873 190.733 28.5025C190.873 28.5176 190.996 28.5385 191.102 28.565V30.7127C190.989 30.6786 190.832 30.6483 190.631 30.6218C190.43 30.5953 190.246 30.582 190.08 30.582C189.724 30.582 189.405 30.6597 189.125 30.815C188.849 30.9665 188.629 31.1786 188.466 31.4513C188.307 31.7241 188.227 32.0385 188.227 32.3945V37.332H185.807ZM194.592 37.4968C194.036 37.4968 193.539 37.4002 193.104 37.207C192.668 37.0101 192.324 36.7203 192.07 36.3377C191.82 35.9513 191.695 35.4703 191.695 34.8945C191.695 34.4097 191.784 34.0025 191.962 33.6729C192.14 33.3434 192.382 33.0782 192.689 32.8775C192.996 32.6767 193.344 32.5252 193.734 32.4229C194.128 32.3207 194.541 32.2487 194.973 32.207C195.481 32.154 195.89 32.1048 196.2 32.0593C196.511 32.0101 196.736 31.9381 196.877 31.8434C197.017 31.7487 197.087 31.6085 197.087 31.4229V31.3888C197.087 31.029 196.973 30.7506 196.746 30.5536C196.522 30.3567 196.204 30.2582 195.791 30.2582C195.356 30.2582 195.009 30.3548 194.752 30.5479C194.494 30.7373 194.324 30.976 194.24 31.2638L192.002 31.082C192.115 30.5517 192.339 30.0934 192.672 29.707C193.005 29.3169 193.435 29.0176 193.962 28.8093C194.492 28.5972 195.106 28.4911 195.803 28.4911C196.288 28.4911 196.752 28.5479 197.195 28.6616C197.642 28.7752 198.038 28.9513 198.382 29.19C198.731 29.4286 199.005 29.7354 199.206 30.1104C199.407 30.4817 199.507 30.9267 199.507 31.4457V37.332H197.212V36.1218H197.144C197.003 36.3945 196.816 36.6351 196.581 36.8434C196.346 37.0479 196.064 37.2089 195.734 37.3263C195.405 37.44 195.024 37.4968 194.592 37.4968ZM195.286 35.8263C195.642 35.8263 195.956 35.7563 196.229 35.6161C196.502 35.4722 196.716 35.279 196.871 35.0366C197.026 34.7942 197.104 34.5195 197.104 34.2127V33.2866C197.028 33.3358 196.924 33.3813 196.791 33.4229C196.663 33.4608 196.517 33.4968 196.354 33.5309C196.191 33.5612 196.028 33.5896 195.865 33.6161C195.702 33.6388 195.555 33.6597 195.422 33.6786C195.138 33.7203 194.89 33.7866 194.678 33.8775C194.466 33.9684 194.301 34.0915 194.183 34.2468C194.066 34.3983 194.007 34.5877 194.007 34.815C194.007 35.1445 194.127 35.3964 194.365 35.5707C194.608 35.7411 194.914 35.8263 195.286 35.8263Z" fill="white"/>
<rect x="287.898" y="19.7061" width="24.7278" height="0.755505" fill="white"/>
<rect x="287.898" y="21.2178" width="24.7278" height="2.51835" fill="white"/>
<rect x="287.898" y="30.2832" width="24.7278" height="1.51101" fill="white"/>
<rect x="287.898" y="39.6016" width="24.7278" height="1.51101" fill="white"/>
<rect x="287.898" y="42.1201" width="24.7278" height="3.27386" fill="white"/>
<rect x="287.898" y="25.751" width="24.7278" height="1.00734" fill="white"/>
<rect x="287.898" y="32.5498" width="24.7278" height="1.00734" fill="white"/>
<rect x="287.898" y="27.5137" width="24.7278" height="0.755505" fill="white"/>
<rect x="287.898" y="34.5645" width="24.7278" height="0.755505" fill="white"/>
<rect x="287.898" y="29.0244" width="24.7278" height="0.50367" fill="white"/>
<rect x="287.898" y="46.1494" width="24.7278" height="0.50367" fill="white"/>
<rect x="287.898" y="48.668" width="24.7278" height="0.50367" fill="white"/>
<rect x="287.898" y="36.3281" width="24.7278" height="0.50367" fill="white"/>
<rect x="287.898" y="54.459" width="24.7278" height="0.50367" fill="white"/>
<rect x="287.898" y="55.4668" width="24.7278" height="0.50367" fill="white"/>
<rect x="287.898" y="47.4082" width="24.7278" height="0.50367" fill="white"/>
<rect x="287.898" y="50.6816" width="24.7278" height="0.50367" fill="white"/>
<rect x="287.898" y="51.6895" width="24.7278" height="1.76285" fill="white"/>
<rect x="287.856" y="58.9014" width="24.6353" height="0.832373" fill="white"/>
<rect x="287.898" y="38.0898" width="24.7278" height="0.50367" fill="white"/>
<rect x="287.898" y="60.251" width="24.7278" height="1.76285" fill="white"/>
<path d="M147.291 58.4167L144.168 60.3023C144.076 60.3476 143.991 60.3659 143.912 60.3573C143.834 60.3482 143.759 60.3212 143.685 60.2765C143.61 60.2306 143.554 60.1658 143.516 60.0821C143.478 59.9983 143.475 59.9069 143.506 59.8077L144.337 56.2722L141.588 53.8894C141.511 53.8263 141.46 53.7509 141.435 53.6631C141.41 53.5754 141.416 53.4914 141.451 53.4111C141.487 53.3308 141.534 53.2649 141.593 53.2132C141.653 53.1633 141.733 53.1295 141.834 53.1117L145.461 52.7952L146.875 49.4472C146.914 49.3526 146.97 49.2843 147.044 49.2425C147.117 49.2006 147.199 49.1797 147.291 49.1797C147.382 49.1797 147.464 49.2006 147.538 49.2425C147.612 49.2843 147.668 49.3526 147.706 49.4472L149.12 52.7952L152.746 53.1117C152.848 53.1289 152.928 53.1631 152.988 53.2141C153.047 53.2646 153.095 53.3302 153.131 53.4111C153.166 53.4914 153.171 53.5754 153.146 53.6631C153.121 53.7509 153.07 53.8263 152.993 53.8894L150.245 56.2722L151.076 59.8077C151.108 59.9057 151.104 59.9969 151.066 60.0812C151.028 60.1655 150.971 60.2303 150.897 60.2756C150.823 60.3215 150.747 60.3487 150.669 60.3573C150.591 60.3659 150.506 60.3476 150.414 60.3023L147.291 58.4167Z" fill="white"/>
<path d="M172.727 58.4167L169.604 60.3023C169.513 60.3476 169.428 60.3659 169.349 60.3573C169.271 60.3482 169.195 60.3212 169.121 60.2765C169.047 60.2306 168.99 60.1658 168.952 60.0821C168.915 59.9983 168.911 59.9069 168.942 59.8077L169.773 56.2722L167.025 53.8894C166.947 53.8263 166.896 53.7509 166.872 53.6631C166.847 53.5754 166.852 53.4914 166.888 53.4111C166.923 53.3308 166.971 53.2649 167.03 53.2132C167.09 53.1633 167.17 53.1295 167.271 53.1117L170.897 52.7952L172.312 49.4472C172.351 49.3526 172.407 49.2843 172.48 49.2425C172.554 49.2006 172.636 49.1797 172.727 49.1797C172.818 49.1797 172.901 49.2006 172.975 49.2425C173.049 49.2843 173.105 49.3526 173.143 49.4472L174.557 52.7952L178.183 53.1117C178.284 53.1289 178.365 53.1631 178.424 53.2141C178.484 53.2646 178.532 53.3302 178.567 53.4111C178.602 53.4914 178.607 53.5754 178.583 53.6631C178.558 53.7509 178.507 53.8263 178.429 53.8894L175.681 56.2722L176.512 59.8077C176.544 59.9057 176.541 59.9969 176.503 60.0812C176.464 60.1655 176.408 60.2303 176.333 60.2756C176.26 60.3215 176.184 60.3487 176.105 60.3573C176.027 60.3659 175.942 60.3476 175.851 60.3023L172.727 58.4167Z" fill="white"/>
<path d="M198.164 58.4167L195.041 60.3023C194.949 60.3476 194.864 60.3659 194.786 60.3573C194.708 60.3482 194.632 60.3212 194.558 60.2765C194.483 60.2306 194.427 60.1658 194.389 60.0821C194.351 59.9983 194.348 59.9069 194.379 59.8077L195.21 56.2722L192.461 53.8894C192.384 53.8263 192.333 53.7509 192.308 53.6631C192.283 53.5754 192.289 53.4914 192.324 53.4111C192.36 53.3308 192.407 53.2649 192.466 53.2132C192.526 53.1633 192.606 53.1295 192.707 53.1117L196.334 52.7952L197.748 49.4472C197.787 49.3526 197.843 49.2843 197.917 49.2425C197.99 49.2006 198.072 49.1797 198.164 49.1797C198.255 49.1797 198.337 49.2006 198.411 49.2425C198.485 49.2843 198.541 49.3526 198.579 49.4472L199.993 52.7952L203.619 53.1117C203.721 53.1289 203.801 53.1631 203.861 53.2141C203.92 53.2646 203.968 53.3302 204.004 53.4111C204.039 53.4914 204.044 53.5754 204.019 53.6631C203.994 53.7509 203.943 53.8263 203.866 53.8894L201.118 56.2722L201.949 59.8077C201.981 59.9057 201.978 59.9969 201.939 60.0812C201.901 60.1655 201.844 60.2303 201.77 60.2756C201.696 60.3215 201.62 60.3487 201.542 60.3573C201.464 60.3659 201.379 60.3476 201.287 60.3023L198.164 58.4167Z" fill="white"/>
<path d="M223.734 58.4167L220.611 60.3023C220.52 60.3476 220.434 60.3659 220.356 60.3573C220.278 60.3482 220.202 60.3212 220.128 60.2765C220.053 60.2306 219.997 60.1658 219.959 60.0821C219.921 59.9983 219.918 59.9069 219.949 59.8077L220.78 56.2722L218.032 53.8894C217.954 53.8263 217.903 53.7509 217.878 53.6631C217.854 53.5754 217.859 53.4914 217.895 53.4111C217.93 53.3308 217.978 53.2649 218.037 53.2132C218.096 53.1633 218.177 53.1295 218.278 53.1117L221.904 52.7952L223.318 49.4472C223.357 49.3526 223.414 49.2843 223.487 49.2425C223.56 49.2006 223.643 49.1797 223.734 49.1797C223.825 49.1797 223.908 49.2006 223.982 49.2425C224.056 49.2843 224.112 49.3526 224.149 49.4472L225.564 52.7952L229.189 53.1117C229.291 53.1289 229.371 53.1631 229.431 53.2141C229.491 53.2646 229.538 53.3302 229.574 53.4111C229.609 53.4914 229.614 53.5754 229.589 53.6631C229.565 53.7509 229.514 53.8263 229.436 53.8894L226.688 56.2722L227.519 59.8077C227.551 59.9057 227.548 59.9969 227.509 60.0812C227.471 60.1655 227.414 60.2303 227.34 60.2756C227.267 60.3215 227.191 60.3487 227.112 60.3573C227.034 60.3659 226.949 60.3476 226.857 60.3023L223.734 58.4167Z" fill="white"/>
<path d="M122.175 58.4167L119.053 60.3023C118.961 60.3476 118.876 60.3659 118.797 60.3573C118.719 60.3482 118.643 60.3212 118.569 60.2765C118.495 60.2306 118.439 60.1658 118.401 60.0821C118.363 59.9983 118.359 59.9069 118.39 59.8077L119.221 56.2722L116.473 53.8894C116.396 53.8263 116.344 53.7509 116.32 53.6631C116.295 53.5754 116.301 53.4914 116.336 53.4111C116.372 53.3308 116.419 53.2649 116.478 53.2132C116.538 53.1633 116.618 53.1295 116.719 53.1117L120.346 52.7952L121.76 49.4472C121.799 49.3526 121.855 49.2843 121.928 49.2425C122.002 49.2006 122.084 49.1797 122.175 49.1797C122.267 49.1797 122.349 49.2006 122.423 49.2425C122.497 49.2843 122.553 49.3526 122.591 49.4472L124.005 52.7952L127.631 53.1117C127.732 53.1289 127.813 53.1631 127.873 53.2141C127.932 53.2646 127.98 53.3302 128.015 53.4111C128.05 53.4914 128.055 53.5754 128.031 53.6631C128.006 53.7509 127.955 53.8263 127.878 53.8894L125.129 56.2722L125.96 59.8077C125.992 59.9057 125.989 59.9969 125.951 60.0812C125.912 60.1655 125.856 60.2303 125.781 60.2756C125.708 60.3215 125.632 60.3487 125.553 60.3573C125.475 60.3659 125.391 60.3476 125.299 60.3023L122.175 58.4167Z" fill="white"/>
<path d="M280.071 13.6084V69.1675" stroke="white"/>
<path d="M276.532 14.2861V69.8453" stroke="white"/>
<path d="M50.0498 14.2861V69.8453" stroke="white"/>
<path d="M39.7314 32.7003H31.7314V31.7628L38.0127 27.4034V27.3253H31.7314V26.3565L39.7314 26.3565V27.294L33.4346 31.669V31.7472H39.7314V32.7003ZM31.6064 36.9513C31.6064 36.4096 31.7354 35.9343 31.9932 35.5255C32.251 35.1192 32.6117 34.8015 33.0752 34.5724C33.5387 34.3458 34.0804 34.2325 34.7002 34.2325C35.3252 34.2325 35.8708 34.3458 36.3369 34.5724C36.8031 34.8015 37.165 35.1192 37.4229 35.5255C37.6807 35.9343 37.8096 36.4096 37.8096 36.9513C37.8096 37.4929 37.6807 37.9669 37.4229 38.3731C37.165 38.782 36.8031 39.0997 36.3369 39.3263C35.8708 39.5554 35.3252 39.67 34.7002 39.67C34.0804 39.67 33.5387 39.5554 33.0752 39.3263C32.6117 39.0997 32.251 38.782 31.9932 38.3731C31.7354 37.9669 31.6064 37.4929 31.6064 36.9513ZM32.4346 36.9513C32.4346 37.3627 32.54 37.7013 32.751 37.9669C32.9619 38.2325 33.2393 38.4291 33.583 38.5567C33.9268 38.6843 34.2992 38.7481 34.7002 38.7481C35.1012 38.7481 35.4749 38.6843 35.8213 38.5567C36.1676 38.4291 36.4476 38.2325 36.6611 37.9669C36.8747 37.7013 36.9814 37.3627 36.9814 36.9513C36.9814 36.5398 36.8747 36.2013 36.6611 35.9356C36.4476 35.67 36.1676 35.4734 35.8213 35.3458C35.4749 35.2182 35.1012 35.1544 34.7002 35.1544C34.2992 35.1544 33.9268 35.2182 33.583 35.3458C33.2393 35.4734 32.9619 35.67 32.751 35.9356C32.54 36.2013 32.4346 36.5398 32.4346 36.9513ZM31.6689 41.7491C31.6689 41.5564 31.738 41.391 31.876 41.253C32.014 41.115 32.1794 41.046 32.3721 41.046C32.5648 41.046 32.7301 41.115 32.8682 41.253C33.0062 41.391 33.0752 41.5564 33.0752 41.7491C33.0752 41.9418 33.0062 42.1072 32.8682 42.2452C32.7301 42.3832 32.5648 42.4522 32.3721 42.4522C32.2445 42.4522 32.1273 42.4197 32.0205 42.3546C31.9137 42.2921 31.8278 42.2074 31.7627 42.1007C31.7002 41.9965 31.6689 41.8793 31.6689 41.7491ZM31.6221 46.421C31.6221 45.8324 31.7822 45.3311 32.1025 44.9171C32.4255 44.503 32.8929 44.1866 33.5049 43.9679C34.1195 43.7491 34.8617 43.6397 35.7314 43.6397C36.596 43.6397 37.3343 43.7491 37.9463 43.9679C38.5609 44.1892 39.0296 44.5069 39.3525 44.921C39.6781 45.3377 39.8408 45.8377 39.8408 46.421C39.8408 47.0043 39.6781 47.503 39.3525 47.9171C39.0296 48.3337 38.5609 48.6515 37.9463 48.8702C37.3343 49.0916 36.596 49.2022 35.7314 49.2022C34.8617 49.2022 34.1195 49.0929 33.5049 48.8741C32.8929 48.6554 32.4255 48.339 32.1025 47.9249C31.7822 47.5108 31.6221 47.0095 31.6221 46.421ZM32.4814 46.421C32.4814 47.0043 32.7627 47.4574 33.3252 47.7804C33.8877 48.1033 34.6898 48.2647 35.7314 48.2647C36.4242 48.2647 37.014 48.1905 37.501 48.0421C37.988 47.8962 38.359 47.6853 38.6143 47.4093C38.8695 47.1358 38.9971 46.8064 38.9971 46.421C38.9971 45.8429 38.7119 45.391 38.1416 45.0655C37.5739 44.74 36.7705 44.5772 35.7314 44.5772C35.0387 44.5772 34.4502 44.6502 33.9658 44.796C33.4814 44.9418 33.113 45.1515 32.8604 45.4249C32.6077 45.7009 32.4814 46.033 32.4814 46.421ZM31.6221 53.3897C31.6221 52.8741 31.7106 52.4145 31.8877 52.0108C32.0648 51.6098 32.3109 51.2908 32.626 51.0538C32.9437 50.8194 33.3122 50.6918 33.7314 50.671V51.6554C33.4736 51.6762 33.251 51.7647 33.0635 51.921C32.8786 52.0772 32.7354 52.2817 32.6338 52.5343C32.5322 52.7869 32.4814 53.0668 32.4814 53.3741C32.4814 53.7179 32.5413 54.0225 32.6611 54.2882C32.7809 54.5538 32.9476 54.7621 33.1611 54.9132C33.3747 55.0642 33.6221 55.1397 33.9033 55.1397C34.1976 55.1397 34.4567 55.0668 34.6807 54.921C34.9072 54.7752 35.0843 54.5616 35.2119 54.2804C35.3395 53.9991 35.4033 53.6554 35.4033 53.2491V52.6085H36.2627V53.2491C36.2627 53.5668 36.32 53.8455 36.4346 54.085C36.5492 54.3272 36.7106 54.516 36.9189 54.6515C37.1273 54.7895 37.3721 54.8585 37.6533 54.8585C37.9242 54.8585 38.1598 54.7986 38.3604 54.6788C38.5609 54.559 38.7171 54.3897 38.8291 54.171C38.9411 53.9548 38.9971 53.6996 38.9971 53.4054C38.9971 53.1293 38.9463 52.8689 38.8447 52.6241C38.7458 52.3819 38.6012 52.184 38.4111 52.0304C38.2236 51.8767 37.9971 51.7934 37.7314 51.7804V50.8429C38.1507 50.8585 38.5179 50.9848 38.833 51.2218C39.1507 51.4587 39.3981 51.7686 39.5752 52.1515C39.7523 52.5369 39.8408 52.96 39.8408 53.421C39.8408 53.9158 39.7406 54.3403 39.54 54.6944C39.3421 55.0486 39.0804 55.3207 38.7549 55.5108C38.4294 55.7009 38.0778 55.796 37.7002 55.796C37.2497 55.796 36.8656 55.6775 36.5479 55.4405C36.2301 55.2061 36.0101 54.8871 35.8877 54.4835H35.8252C35.7419 54.9887 35.527 55.3832 35.1807 55.6671C34.8369 55.9509 34.4111 56.0929 33.9033 56.0929C33.4684 56.0929 33.0778 55.9744 32.7314 55.7374C32.3877 55.503 32.1169 55.1827 31.9189 54.7765C31.721 54.3702 31.6221 53.908 31.6221 53.3897Z" fill="white"/>
<defs>
<filter id="filter0_d_557_482" x="0" y="0.509766" width="344.983" height="85.7549" filterUnits="userSpaceOnUse" color-interpolation-filters="sRGB">
<feFlood flood-opacity="0" result="BackgroundImageFix"/>
<feColorMatrix in="SourceAlpha" type="matrix" values="0 0 0 0 0 0 0 0 0 0 0 0 0 0 0 0 0 0 127 0" result="hardAlpha"/>
<feOffset dy="2"/>
<feGaussianBlur stdDeviation="4.5"/>
<feComposite in2="hardAlpha" operator="out"/>
<feColorMatrix type="matrix" values="0 0 0 0 0 0 0 0 0 0 0 0 0 0 0 0 0 0 0.25 0"/>
<feBlend mode="normal" in2="BackgroundImageFix" result="effect1_dropShadow_557_482"/>
<feBlend mode="normal" in="SourceGraphic" in2="effect1_dropShadow_557_482" result="shape"/>
</filter>
<linearGradient id="paint0_linear_557_482" x1="9" y1="41.3872" x2="335.983" y2="41.3872" gradientUnits="userSpaceOnUse">
<stop stop-color="#2C3157"/>
<stop offset="0.298077" stop-color="#286138"/>
<stop offset="0.730769" stop-color="#44B0B0"/>
<stop offset="1" stop-color="#67FFF2"/>
</linearGradient>
<linearGradient id="paint1_linear_557_482" x1="14.6631" y1="41.5273" x2="330.322" y2="41.5273" gradientUnits="userSpaceOnUse">
<stop stop-color="#2C3157"/>
<stop offset="0.298077" stop-color="#286138"/>
<stop offset="0.730769" stop-color="#44B0B0"/>
<stop offset="1" stop-color="#67FFF2"/>
</linearGradient>
</defs>
</svg>
