<svg width="27" height="26" viewBox="0 0 27 26" fill="none" xmlns="http://www.w3.org/2000/svg">
<path fill-rule="evenodd" clip-rule="evenodd" d="M4.90909 0C3.60712 0 2.35847 0.498051 1.43784 1.38459C0.517206 2.27112 0 3.47352 0 4.72727V21.2727C0 22.5265 0.517206 23.7289 1.43784 24.6154C2.35847 25.5019 3.60712 26 4.90909 26H22.0909C23.3929 26 24.6415 25.5019 25.5622 24.6154C26.4828 23.7289 27 22.5265 27 21.2727V4.72727C27 3.47352 26.4828 2.27112 25.5622 1.38459C24.6415 0.498051 23.3929 0 22.0909 0H4.90909ZM10.9902 6.15136C9.46227 6.15136 8.30618 6.39955 7.03964 6.99755C6.96739 7.03152 6.90687 7.08487 6.86536 7.15118C5.99645 8.54927 4.29545 12.4327 4.29545 17.03C4.29545 17.1352 4.33718 17.2356 4.41327 17.3101C5.20855 18.1019 5.93264 18.6834 6.70827 19.0946C7.49005 19.5071 8.30373 19.7364 9.26591 19.8475C9.34608 19.8569 9.42737 19.8437 9.49992 19.8095C9.57246 19.7753 9.63314 19.7216 9.67459 19.6548L10.098 18.9765C9.74167 18.8562 9.39877 18.7018 9.07445 18.5155C8.89612 18.4137 8.72327 18.3033 8.55655 18.1846L8.52341 18.161L8.51359 18.1539L8.51114 18.1515H8.50868C8.38572 18.0498 8.30836 17.9062 8.29277 17.7508C8.27718 17.5954 8.32458 17.4402 8.42505 17.3177C8.52552 17.1951 8.67128 17.1147 8.83187 17.0933C8.99247 17.0718 9.15546 17.111 9.28677 17.2025L9.28923 17.2037L9.30886 17.2179L9.39232 17.277C9.46595 17.3266 9.57641 17.3975 9.71264 17.4755C10.0403 17.6665 10.3944 17.8117 10.7644 17.9069C11.6588 18.1244 12.5775 18.2355 13.5 18.2378C14.4229 18.2356 15.342 18.1245 16.2368 17.9069C16.6064 17.8116 16.9601 17.6664 17.2874 17.4755C17.4267 17.3961 17.5619 17.3102 17.6924 17.2179L17.7108 17.2037L17.7132 17.2025C17.8446 17.1138 18.0062 17.0768 18.1649 17.0991C18.3237 17.1215 18.4676 17.2014 18.5671 17.3226C18.6666 17.4438 18.7142 17.5971 18.7001 17.751C18.686 17.9049 18.6113 18.0478 18.4913 18.1504L18.4889 18.1515L18.4864 18.1539L18.4766 18.1622L18.4435 18.1858C18.2767 18.3045 18.1039 18.4149 17.9255 18.5167C17.6012 18.7025 17.2583 18.8565 16.902 18.9765L17.3254 19.6548C17.4101 19.7907 17.5709 19.8675 17.7341 19.8475C18.6963 19.7364 19.51 19.5071 20.2905 19.0935C21.0674 18.6834 21.7915 18.1007 22.5855 17.3101C22.6616 17.2352 22.7043 17.1347 22.7045 17.03C22.7045 12.4339 21.0035 8.54927 20.1346 7.15354C20.0931 7.08723 20.0326 7.03388 19.9604 6.99991C18.6938 6.40073 17.5377 6.15254 16.011 6.15254C15.923 6.15223 15.8372 6.17868 15.7658 6.22814C15.6944 6.27759 15.641 6.34751 15.6134 6.42791L15.3311 7.23982C14.7396 7.05466 14.1219 6.95898 13.5 6.95618C12.8781 6.95898 12.2604 7.05466 11.6689 7.23982L11.3879 6.42673C11.3602 6.34652 11.3071 6.27674 11.2359 6.2273C11.1647 6.17787 11.0792 6.15129 10.9915 6.15136H10.9902ZM10.5717 15.015C11.2639 15.015 11.826 14.3827 11.826 13.6039C11.826 12.8251 11.2639 12.194 10.5717 12.194C9.87955 12.194 9.31623 12.8251 9.31623 13.6039C9.31623 14.3839 9.87832 15.015 10.5717 15.015ZM16.4283 15.015C17.1217 15.015 17.6838 14.3827 17.6838 13.6039C17.6838 12.8251 17.1217 12.194 16.4283 12.194C15.7361 12.194 15.174 12.8251 15.174 13.6039C15.174 14.3839 15.7361 15.015 16.4283 15.015Z" fill="url(#paint0_linear_489_121)"/>
<defs>
<linearGradient id="paint0_linear_489_121" x1="13.5" y1="0" x2="13.5" y2="26" gradientUnits="userSpaceOnUse">
<stop/>
<stop offset="1" stop-color="#666666"/>
</linearGradient>
</defs>
</svg>
