<svg width="19" height="20" viewBox="0 0 19 20" fill="none" xmlns="http://www.w3.org/2000/svg">
<path d="M9.50158 12.9808C10.3987 12.9808 11.1606 12.6503 11.7873 11.9894C12.4141 11.3284 12.7274 10.5258 12.7274 9.58146C12.7274 8.63715 12.4135 7.83514 11.7855 7.17542C11.1576 6.51569 10.3951 6.18583 9.49801 6.18583C8.60092 6.18583 7.83901 6.51632 7.21227 7.17729C6.58554 7.83826 6.27217 8.6409 6.27217 9.58521C6.27217 10.5295 6.58613 11.3315 7.21405 11.9912C7.84198 12.651 8.60449 12.9808 9.50158 12.9808ZM9.49979 11.8333C8.90604 11.8333 8.40136 11.6146 7.98573 11.1771C7.57011 10.7396 7.36229 10.2083 7.36229 9.58333C7.36229 8.95833 7.57011 8.42708 7.98573 7.98958C8.40136 7.55208 8.90604 7.33333 9.49979 7.33333C10.0935 7.33333 10.5982 7.55208 11.0139 7.98958C11.4295 8.42708 11.6373 8.95833 11.6373 9.58333C11.6373 10.2083 11.4295 10.7396 11.0139 11.1771C10.5982 11.6146 10.0935 11.8333 9.49979 11.8333ZM9.50078 15.4167C7.68035 15.4167 6.02161 14.8881 4.52456 13.8308C3.02752 12.7737 1.92526 11.3579 1.21777 9.58333C1.92526 7.80875 3.02713 6.39292 4.52338 5.33583C6.01976 4.27861 7.67824 3.75 9.49881 3.75C11.3192 3.75 12.978 4.27861 14.475 5.33583C15.9721 6.39292 17.0743 7.80875 17.7818 9.58333C17.0743 11.3579 15.9725 12.7737 14.4762 13.8308C12.9798 14.8881 11.3214 15.4167 9.50078 15.4167ZM9.49979 14.1667C10.9908 14.1667 12.3597 13.7535 13.6066 12.9271C14.8534 12.1007 15.8067 10.9861 16.4665 9.58333C15.8067 8.18056 14.8534 7.06597 13.6066 6.23958C12.3597 5.41319 10.9908 5 9.49979 5C8.00882 5 6.6399 5.41319 5.39302 6.23958C4.14615 7.06597 3.19285 8.18056 2.53313 9.58333C3.19285 10.9861 4.14615 12.1007 5.39302 12.9271C6.6399 13.7535 8.00882 14.1667 9.49979 14.1667Z" fill="#626268"/>
</svg>
