<svg width="28" height="28" viewBox="0 0 28 28" fill="none" xmlns="http://www.w3.org/2000/svg">
<path d="M17.2112 27.0929C17.2151 27.054 17.2173 27.0147 17.2177 26.9751V17.5233H20.4487C20.9667 17.5233 21.4328 17.1821 21.5087 16.6693C21.6103 15.9505 21.6073 15.2208 21.4999 14.5028C21.4252 13.9994 20.9772 13.6687 20.4686 13.6687H17.2177C17.2177 10.7555 17.7024 10.332 20.4347 10.2783C20.9592 10.2684 21.4293 9.9225 21.5057 9.40333C21.6341 8.53125 21.5827 7.76942 21.5022 7.23333C21.4282 6.73808 20.9843 6.4155 20.4837 6.41958C15.6543 6.46158 12.9039 7.03267 12.9039 13.6681H10.402C9.91608 13.6681 9.48442 13.9732 9.41033 14.4532C9.33158 14.9712 9.28375 15.722 9.41617 16.6349C9.492 17.1622 9.96683 17.5233 10.4994 17.5233H12.9039V27.1215C9.16475 27.097 6.48842 26.9494 4.746 26.8077C2.828 26.6519 1.34808 25.172 1.19233 23.254C1.03717 21.3459 0.875 18.3172 0.875 14C0.875 9.68275 1.03717 6.65408 1.19233 4.746C1.3475 2.828 2.828 1.3475 4.746 1.19233C6.65408 1.03717 9.68275 0.875 14 0.875C18.3172 0.875 21.3459 1.03717 23.254 1.19233C25.172 1.34808 26.6519 2.828 26.8077 4.746C26.9628 6.65408 27.125 9.68275 27.125 14C27.125 18.3172 26.9628 21.3459 26.8077 23.254C26.6519 25.172 25.172 26.6519 23.254 26.8077C21.8598 26.9208 19.8677 27.0375 17.2112 27.0929Z" fill="url(#paint0_linear_489_114)"/>
<defs>
<linearGradient id="paint0_linear_489_114" x1="14" y1="0.875" x2="14" y2="37.3333" gradientUnits="userSpaceOnUse">
<stop offset="0.442308"/>
<stop offset="1" stop-color="#666666" stop-opacity="0.4"/>
</linearGradient>
</defs>
</svg>
