<svg width="17" height="17" viewBox="0 0 17 17" fill="none" xmlns="http://www.w3.org/2000/svg">
<path d="M9.63778 0.71875C10.551 0.721185 11.0145 0.726056 11.4147 0.73742L11.5721 0.743103C11.754 0.749597 11.9334 0.757714 12.1501 0.767455C13.0138 0.808043 13.6031 0.944417 14.1202 1.14492C14.6559 1.35111 15.1072 1.63035 15.5585 2.08087C15.9715 2.48653 16.2909 2.97743 16.4945 3.5193C16.695 4.03638 16.8313 4.62571 16.8719 5.49023C16.8817 5.70616 16.8898 5.88555 16.8963 6.0682L16.9011 6.22568C16.9133 6.62506 16.9182 7.08857 16.9198 8.00179L16.9206 8.60736V9.67075C16.9226 10.2629 16.9164 10.8549 16.902 11.4469L16.8971 11.6043C16.8906 11.787 16.8825 11.9664 16.8727 12.1823C16.8321 13.0468 16.6942 13.6354 16.4945 14.1533C16.2909 14.6951 15.9715 15.186 15.5585 15.5917C15.1529 16.0046 14.662 16.324 14.1202 16.5276C13.6031 16.7281 13.0138 16.8645 12.1501 16.9051L11.5721 16.9294L11.4147 16.9343C11.0145 16.9457 10.551 16.9514 9.63778 16.953L9.03223 16.9538H7.96967C7.37732 16.9559 6.78497 16.9497 6.19279 16.9351L6.03532 16.9303C5.84262 16.923 5.64997 16.9146 5.45736 16.9051C4.59368 16.8645 4.00436 16.7281 3.48648 16.5276C2.94492 16.3239 2.45432 16.0045 2.0489 15.5917C1.63569 15.1861 1.316 14.6952 1.11217 14.1533C0.91167 13.6362 0.775299 13.0468 0.734712 12.1823L0.71036 11.6043L0.706302 11.4469C0.691339 10.855 0.684573 10.2629 0.686009 9.67075V8.00179C0.683762 7.4097 0.689715 6.81761 0.703867 6.22568L0.709549 6.0682C0.716043 5.88555 0.72416 5.70616 0.733901 5.49023C0.774487 4.62571 0.910858 4.03719 1.11136 3.5193C1.31566 2.97721 1.63592 2.48629 2.04972 2.08087C2.45489 1.66813 2.94521 1.34873 3.48648 1.14492C4.00436 0.944417 4.59287 0.808043 5.45736 0.767455C5.67328 0.757714 5.85349 0.749597 6.03532 0.743103L6.19279 0.738232C6.7847 0.723809 7.37678 0.717585 7.96886 0.719562L9.63778 0.71875ZM8.80332 4.77751C7.7269 4.77751 6.69456 5.20513 5.93342 5.9663C5.17227 6.72746 4.74466 7.75982 4.74466 8.83627C4.74466 9.91272 5.17227 10.9451 5.93342 11.7063C6.69456 12.4674 7.7269 12.895 8.80332 12.895C9.87974 12.895 10.9121 12.4674 11.6732 11.7063C12.4344 10.9451 12.862 9.91272 12.862 8.83627C12.862 7.75982 12.4344 6.72746 11.6732 5.9663C10.9121 5.20513 9.87974 4.77751 8.80332 4.77751ZM8.80332 6.40102C9.12311 6.40096 9.43979 6.4639 9.73526 6.58623C10.0307 6.70857 10.2992 6.8879 10.5254 7.114C10.7515 7.3401 10.931 7.60853 11.0534 7.90397C11.1758 8.1994 11.2389 8.51607 11.2389 8.83587C11.239 9.15567 11.176 9.47235 11.0537 9.76783C10.9314 10.0633 10.752 10.3318 10.526 10.558C10.2999 10.7841 10.0314 10.9636 9.73601 11.086C9.44058 11.2084 9.12393 11.2715 8.80413 11.2715C8.15828 11.2715 7.53888 11.015 7.08219 10.5583C6.6255 10.1016 6.36894 9.48214 6.36894 8.83627C6.36894 8.1904 6.6255 7.57099 7.08219 7.11429C7.53888 6.65759 8.15828 6.40102 8.80413 6.40102M13.0657 3.55988C12.7966 3.55988 12.5385 3.66679 12.3482 3.85708C12.158 4.04737 12.0511 4.30546 12.0511 4.57457C12.0511 4.84369 12.158 5.10178 12.3482 5.29207C12.5385 5.48236 12.7966 5.58926 13.0657 5.58926C13.3348 5.58926 13.5929 5.48236 13.7832 5.29207C13.9735 5.10178 14.0804 4.84369 14.0804 4.57457C14.0804 4.30546 13.9735 4.04737 13.7832 3.85708C13.5929 3.66679 13.3348 3.55988 13.0657 3.55988Z" fill="url(#paint0_linear_586_1420)"/>
<defs>
<linearGradient id="paint0_linear_586_1420" x1="8.80327" y1="0.71875" x2="8.80327" y2="16.9542" gradientUnits="userSpaceOnUse">
<stop/>
<stop offset="1" stop-color="#666666"/>
</linearGradient>
</defs>
</svg>
