<svg width="528" height="129" viewBox="0 0 528 129" fill="none" xmlns="http://www.w3.org/2000/svg">
<g filter="url(#filter0_d_516_973)">
<path d="M495.403 7C498.28 14.7091 506.04 20.2324 515.162 20.2324C516.288 20.2324 517.392 20.1473 518.47 19.9854V22.8428C517.152 23.3646 516.265 24.3392 516.265 25.4561C516.265 26.5728 517.152 27.5465 518.47 28.0684V30.748C517.152 31.2698 516.265 32.2445 516.265 33.3613C516.265 34.4781 517.152 35.4518 518.47 35.9736V38.6553C517.152 39.1771 516.265 40.1517 516.265 41.2686C516.265 42.3853 517.152 43.359 518.47 43.8809V46.5625C517.152 47.0843 516.265 48.0582 516.265 49.1748C516.265 50.2915 517.152 51.2652 518.47 51.7871V54.4688C517.152 54.9906 516.265 55.9652 516.265 57.082C516.265 58.1986 517.152 59.1715 518.47 59.6934V62.374C517.152 62.8959 516.265 63.8704 516.265 64.9873C516.265 66.104 517.152 67.0778 518.47 67.5996V70.2803C517.152 70.8021 516.265 71.7767 516.265 72.8936C516.265 74.0103 517.152 74.984 518.47 75.5059V78.1875C517.152 78.7094 516.265 79.6839 516.265 80.8008C516.265 81.9173 517.152 82.8903 518.47 83.4121V86.0938C517.152 86.6156 516.265 87.5902 516.265 88.707C516.265 89.8238 517.152 90.7975 518.47 91.3193V94C517.152 94.5218 516.265 95.4957 516.265 96.6123C516.265 97.729 517.152 98.7027 518.47 99.2246V101.863C508.991 102.329 501.18 108.763 499.141 117.274H26.124C24.2456 109.433 17.4676 103.355 9 102.083V99.2256C10.3181 98.7037 11.2051 97.7291 11.2051 96.6123C11.2048 95.4956 10.3181 94.5208 9 93.999V91.3193C10.318 90.7975 11.2051 89.8238 11.2051 88.707C11.205 87.5902 10.3182 86.6155 9 86.0938V83.4131C10.3179 82.8913 11.2049 81.9174 11.2051 80.8008C11.2051 79.6838 10.3183 78.7083 9 78.1865V75.5059C10.318 74.984 11.2051 74.0103 11.2051 72.8936C11.2051 71.7767 10.3182 70.8021 9 70.2803V67.5996C10.318 67.0778 11.205 66.1041 11.2051 64.9873C11.2051 63.8704 10.3182 62.8959 9 62.374V59.6943C10.3179 59.1725 11.2049 58.1987 11.2051 57.082C11.2051 55.9651 10.3183 54.9896 9 54.4678V51.7881C10.3181 51.2662 11.2051 50.2917 11.2051 49.1748C11.2048 48.0581 10.3181 47.0833 9 46.5615V43.8809C10.318 43.359 11.205 42.3853 11.2051 41.2686C11.2051 40.1517 10.3182 39.1771 9 38.6553V35.9746C10.3182 35.4528 11.2051 34.4782 11.2051 33.3613C11.2049 32.2445 10.3182 31.2698 9 30.748V28.0684C10.3181 27.5465 11.2051 26.5729 11.2051 25.4561C11.205 24.3391 10.3183 23.3646 9 22.8428V20.2051C9.36513 20.223 9.7327 20.2324 10.1025 20.2324C19.225 20.2324 26.9848 14.7091 29.8613 7H495.403Z" fill="url(#paint0_linear_516_973)"/>
</g>
<mask id="path-2-inside-1_516_973" fill="white">
<path d="M485.38 15.8223C488.157 22.3298 495.648 26.9921 504.454 26.9922C505.541 26.9922 506.608 26.92 507.648 26.7832V29.1982C506.376 29.6388 505.52 30.4596 505.52 31.4023C505.52 32.345 506.376 33.1649 507.648 33.6055V35.8711C506.376 36.3116 505.52 37.1334 505.52 38.0762C505.52 39.0187 506.376 39.8388 507.648 40.2793V42.5459C506.376 42.9864 505.52 43.8074 505.52 44.75C505.52 45.6927 506.376 46.5126 507.648 46.9531V49.2197C506.376 49.6602 505.52 50.4812 505.52 51.4238C505.52 52.3665 506.376 53.1864 507.648 53.627V55.8945C506.376 56.335 505.52 57.1559 505.52 58.0986C505.52 59.0413 506.376 59.8612 507.648 60.3018V62.5693C506.376 63.0099 505.52 63.8307 505.52 64.7734C505.52 65.7161 506.376 66.536 507.648 66.9766V69.2432C506.376 69.6837 505.52 70.5045 505.52 71.4473C505.52 72.3899 506.376 73.2099 507.648 73.6504V75.918C506.376 76.3585 505.52 77.1793 505.52 78.1221C505.52 79.0647 506.376 79.8847 507.648 80.3252V82.5908C506.376 83.0313 505.52 83.8522 505.52 84.7949C505.52 85.7376 506.376 86.5575 507.648 86.998V89.2656C506.376 89.7061 505.52 90.527 505.52 91.4697C505.52 92.4124 506.376 93.2323 507.648 93.6729V95.9014C498.498 96.2942 490.957 101.726 488.988 108.911H32.3525C30.5391 102.292 23.9964 97.1611 15.8223 96.0869V93.6729C17.0943 93.2323 17.9512 92.4123 17.9512 91.4697C17.9512 90.527 17.0945 89.7062 15.8223 89.2656V86.998C17.0943 86.5575 17.9512 85.7375 17.9512 84.7949C17.951 83.8523 17.0945 83.0313 15.8223 82.5908V80.3252C17.0943 79.8847 17.951 79.0646 17.9512 78.1221C17.9512 77.1794 17.0945 76.3585 15.8223 75.918V73.6504C17.0943 73.2098 17.9511 72.3898 17.9512 71.4473C17.9512 70.5046 17.0945 69.6837 15.8223 69.2432V66.9766C17.0943 66.536 17.9511 65.716 17.9512 64.7734C17.9512 63.8308 17.0945 63.0099 15.8223 62.5693V60.3018C17.0943 59.8612 17.9512 59.0412 17.9512 58.0986C17.9511 57.156 17.0945 56.3351 15.8223 55.8945V53.627C17.0943 53.1864 17.9512 52.3664 17.9512 51.4238C17.951 50.4812 17.0944 49.6602 15.8223 49.2197V46.9531C17.0943 46.5125 17.9512 45.6926 17.9512 44.75C17.951 43.8074 17.0944 42.9864 15.8223 42.5459V40.2793C17.0942 39.8388 17.9509 39.0186 17.9512 38.0762C17.9512 37.1334 17.0946 36.3116 15.8223 35.8711V33.6055C17.0944 33.1649 17.9511 32.345 17.9512 31.4023C17.9512 30.4596 17.0946 29.6388 15.8223 29.1982V26.9688C16.1747 26.9839 16.5298 26.9922 16.8867 26.9922C25.6928 26.9921 33.1829 22.3296 35.96 15.8223H485.38Z"/>
</mask>
<path d="M485.38 15.8223L486.3 15.4298L486.04 14.8223H485.38V15.8223ZM504.454 26.9922V27.9922V26.9922ZM507.648 26.7832H508.648V25.6432L507.518 25.7917L507.648 26.7832ZM507.648 29.1982L507.976 30.1432L508.648 29.9103V29.1982H507.648ZM505.52 31.4023H504.52V31.4024L505.52 31.4023ZM507.648 33.6055H508.648V32.8935L507.976 32.6605L507.648 33.6055ZM507.648 35.8711L507.976 36.8161L508.648 36.5831V35.8711H507.648ZM505.52 38.0762H504.52V38.0765L505.52 38.0762ZM507.648 40.2793H508.648V39.5673L507.976 39.3343L507.648 40.2793ZM507.648 42.5459L507.976 43.4909L508.648 43.2579V42.5459H507.648ZM505.52 44.75L504.52 44.7498V44.75H505.52ZM507.648 46.9531H508.648V46.2412L507.976 46.0082L507.648 46.9531ZM507.648 49.2197L507.976 50.1647L508.648 49.9318V49.2197H507.648ZM505.52 51.4238L504.52 51.4236V51.4238H505.52ZM507.648 53.627H508.648V52.915L507.976 52.682L507.648 53.627ZM507.648 55.8945L507.976 56.8395L508.648 56.6066V55.8945H507.648ZM505.52 58.0986L504.52 58.0986V58.0986H505.52ZM507.648 60.3018H508.648V59.5898L507.976 59.3568L507.648 60.3018ZM507.648 62.5693L507.976 63.5143L508.648 63.2814V62.5693H507.648ZM505.52 64.7734H504.52V64.7735L505.52 64.7734ZM507.648 66.9766H508.648V66.2646L507.976 66.0316L507.648 66.9766ZM507.648 69.2432L507.976 70.1881L508.648 69.9552V69.2432H507.648ZM505.52 71.4473H504.52V71.4473L505.52 71.4473ZM507.648 73.6504H508.648V72.9384L507.976 72.7054L507.648 73.6504ZM507.648 75.918L507.976 76.8629L508.648 76.63V75.918H507.648ZM505.52 78.1221H504.52V78.1223L505.52 78.1221ZM507.648 80.3252H508.648V79.6132L507.976 79.3802L507.648 80.3252ZM507.648 82.5908L507.976 83.5358L508.648 83.3029V82.5908H507.648ZM505.52 84.7949L504.52 84.7948V84.7949H505.52ZM507.648 86.998H508.648V86.2861L507.976 86.0531L507.648 86.998ZM507.648 89.2656L507.976 90.2106L508.648 89.9777V89.2656H507.648ZM505.52 91.4697L504.52 91.4697V91.4697H505.52ZM507.648 93.6729H508.648V92.9609L507.976 92.7279L507.648 93.6729ZM507.648 95.9014L507.691 96.9004L508.648 96.8594V95.9014H507.648ZM488.988 108.911V109.911H489.751L489.953 109.175L488.988 108.911ZM32.3525 108.911L31.3881 109.175L31.5897 109.911H32.3525V108.911ZM15.8223 96.0869H14.8223V96.9641L15.692 97.0784L15.8223 96.0869ZM15.8223 93.6729L15.495 92.7279L14.8223 92.9609V93.6729H15.8223ZM17.9512 91.4697H18.9512V91.4697L17.9512 91.4697ZM15.8223 89.2656H14.8223V89.9776L15.495 90.2106L15.8223 89.2656ZM15.8223 86.998L15.495 86.0531L14.8223 86.2861V86.998H15.8223ZM17.9512 84.7949H18.9512V84.7948L17.9512 84.7949ZM15.8223 82.5908H14.8223V83.3028L15.4951 83.5358L15.8223 82.5908ZM15.8223 80.3252L15.495 79.3803L14.8223 79.6133V80.3252H15.8223ZM17.9512 78.1221L18.9512 78.1223V78.1221H17.9512ZM15.8223 75.918H14.8223V76.6299L15.495 76.8629L15.8223 75.918ZM15.8223 73.6504L15.495 72.7055L14.8223 72.9385V73.6504H15.8223ZM17.9512 71.4473L18.9512 71.4473V71.4473H17.9512ZM15.8223 69.2432H14.8223V69.9551L15.495 70.1881L15.8223 69.2432ZM15.8223 66.9766L15.495 66.0316L14.8223 66.2646V66.9766H15.8223ZM17.9512 64.7734L18.9512 64.7735V64.7734H17.9512ZM15.8223 62.5693H14.8223V63.2813L15.495 63.5143L15.8223 62.5693ZM15.8223 60.3018L15.495 59.3568L14.8223 59.5898V60.3018H15.8223ZM17.9512 58.0986H18.9512V58.0986L17.9512 58.0986ZM15.8223 55.8945H14.8223V56.6065L15.4951 56.8395L15.8223 55.8945ZM15.8223 53.627L15.495 52.682L14.8223 52.915V53.627H15.8223ZM17.9512 51.4238H18.9512V51.4236L17.9512 51.4238ZM15.8223 49.2197H14.8223V49.9317L15.4951 50.1647L15.8223 49.2197ZM15.8223 46.9531L15.495 46.0082L14.8223 46.2412V46.9531H15.8223ZM17.9512 44.75H18.9512V44.7498L17.9512 44.75ZM15.8223 42.5459H14.8223V43.2579L15.4951 43.4909L15.8223 42.5459ZM15.8223 40.2793L15.495 39.3344L14.8223 39.5673V40.2793H15.8223ZM17.9512 38.0762L18.9512 38.0765V38.0762H17.9512ZM15.8223 35.8711H14.8223V36.5831L15.4951 36.8161L15.8223 35.8711ZM15.8223 33.6055L15.495 32.6605L14.8223 32.8935V33.6055H15.8223ZM17.9512 31.4023L18.9512 31.4024V31.4023H17.9512ZM15.8223 29.1982H14.8223V29.9102L15.4951 30.1432L15.8223 29.1982ZM15.8223 26.9688L15.8652 25.9697L14.8223 25.9249V26.9688H15.8223ZM16.8867 26.9922V27.9922H16.8867L16.8867 26.9922ZM35.96 15.8223V14.8223H35.2995L35.0402 15.4298L35.96 15.8223ZM485.38 15.8223L484.46 16.2148C487.422 23.1563 495.324 27.9921 504.454 27.9922V26.9922V25.9922C495.972 25.9921 488.891 21.5032 486.3 15.4298L485.38 15.8223ZM504.454 26.9922V27.9922C505.585 27.9922 506.696 27.917 507.779 27.7747L507.648 26.7832L507.518 25.7917C506.52 25.9229 505.497 25.9922 504.454 25.9922V26.9922ZM507.648 26.7832H506.648V29.1982H507.648H508.648V26.7832H507.648ZM507.648 29.1982L507.321 28.2533C505.921 28.7383 504.52 29.8019 504.52 31.4023H505.52H506.52C506.52 31.1173 506.832 30.5393 507.976 30.1432L507.648 29.1982ZM505.52 31.4023L504.52 31.4024C504.52 33.0031 505.921 34.0656 507.321 34.5504L507.648 33.6055L507.976 32.6605C506.831 32.2642 506.52 31.6869 506.52 31.4023L505.52 31.4023ZM507.648 33.6055H506.648V35.8711H507.648H508.648V33.6055H507.648ZM507.648 35.8711L507.321 34.9261C505.92 35.4113 504.52 36.4761 504.52 38.0762H505.52H506.52C506.52 37.7906 506.832 37.2119 507.976 36.8161L507.648 35.8711ZM505.52 38.0762L504.52 38.0765C504.52 39.6767 505.921 40.7394 507.321 41.2243L507.648 40.2793L507.976 39.3343C506.832 38.9382 506.52 38.3607 506.52 38.0759L505.52 38.0762ZM507.648 40.2793H506.648V42.5459H507.648H508.648V40.2793H507.648ZM507.648 42.5459L507.321 41.6009C505.92 42.0859 504.52 43.1498 504.52 44.7498L505.52 44.75L506.52 44.7502C506.52 44.4649 506.832 43.8868 507.976 43.4909L507.648 42.5459ZM505.52 44.75H504.52C504.52 46.3508 505.921 47.4133 507.321 47.8981L507.648 46.9531L507.976 46.0082C506.831 45.6118 506.52 45.0345 506.52 44.75H505.52ZM507.648 46.9531H506.648V49.2197H507.648H508.648V46.9531H507.648ZM507.648 49.2197L507.321 48.2747C505.92 48.7598 504.52 49.8236 504.52 51.4236L505.52 51.4238L506.52 51.424C506.52 51.1388 506.832 50.5606 507.976 50.1647L507.648 49.2197ZM505.52 51.4238H504.52C504.52 53.0246 505.921 54.0871 507.321 54.5719L507.648 53.627L507.976 52.682C506.831 52.2857 506.52 51.7084 506.52 51.4238H505.52ZM507.648 53.627H506.648V55.8945H507.648H508.648V53.627H507.648ZM507.648 55.8945L507.321 54.9496C505.92 55.4346 504.52 56.4983 504.52 58.0986L505.52 58.0986L506.52 58.0987C506.52 57.8136 506.832 57.2355 507.976 56.8395L507.648 55.8945ZM505.52 58.0986H504.52C504.52 59.6994 505.921 60.7619 507.321 61.2467L507.648 60.3018L507.976 59.3568C506.831 58.9605 506.52 58.3832 506.52 58.0986H505.52ZM507.648 60.3018H506.648V62.5693H507.648H508.648V60.3018H507.648ZM507.648 62.5693L507.321 61.6244C505.92 62.1094 504.52 63.173 504.52 64.7734H505.52H506.52C506.52 64.4884 506.832 63.9104 507.976 63.5143L507.648 62.5693ZM505.52 64.7734L504.52 64.7735C504.52 66.3742 505.921 67.4367 507.321 67.9215L507.648 66.9766L507.976 66.0316C506.831 65.6353 506.52 65.058 506.52 64.7734L505.52 64.7734ZM507.648 66.9766H506.648V69.2432H507.648H508.648V66.9766H507.648ZM507.648 69.2432L507.321 68.2982C505.92 68.7832 504.52 69.8468 504.52 71.4473H505.52H506.52C506.52 71.1622 506.832 70.5842 507.976 70.1881L507.648 69.2432ZM505.52 71.4473L504.52 71.4473C504.52 73.048 505.921 74.1106 507.321 74.5953L507.648 73.6504L507.976 72.7054C506.831 72.3092 506.52 71.7318 506.52 71.4472L505.52 71.4473ZM507.648 73.6504H506.648V75.918H507.648H508.648V73.6504H507.648ZM507.648 75.918L507.321 74.973C505.921 75.458 504.52 76.5216 504.52 78.1221H505.52H506.52C506.52 77.837 506.832 77.259 507.976 76.8629L507.648 75.918ZM505.52 78.1221L504.52 78.1223C504.52 79.7227 505.921 80.7854 507.321 81.2701L507.648 80.3252L507.976 79.3802C506.831 78.984 506.52 78.4066 506.52 78.1219L505.52 78.1221ZM507.648 80.3252H506.648V82.5908H507.648H508.648V80.3252H507.648ZM507.648 82.5908L507.321 81.6458C505.92 82.1309 504.52 83.1946 504.52 84.7948L505.52 84.7949L506.52 84.7951C506.52 84.5099 506.832 83.9318 507.976 83.5358L507.648 82.5908ZM505.52 84.7949H504.52C504.52 86.3957 505.921 87.4582 507.321 87.943L507.648 86.998L507.976 86.0531C506.831 85.6568 506.52 85.0795 506.52 84.7949H505.52ZM507.648 86.998H506.648V89.2656H507.648H508.648V86.998H507.648ZM507.648 89.2656L507.321 88.3207C505.92 88.8056 504.52 89.8693 504.52 91.4697L505.52 91.4697L506.52 91.4697C506.52 91.1846 506.832 90.6066 507.976 90.2106L507.648 89.2656ZM505.52 91.4697H504.52C504.52 93.0705 505.921 94.133 507.321 94.6178L507.648 93.6729L507.976 92.7279C506.831 92.3316 506.52 91.7543 506.52 91.4697H505.52ZM507.648 93.6729H506.648V95.9014H507.648H508.648V93.6729H507.648ZM507.648 95.9014L507.606 94.9023C498.123 95.3094 490.132 100.951 488.024 108.647L488.988 108.911L489.953 109.175C491.781 102.501 498.872 97.2791 507.691 96.9004L507.648 95.9014ZM488.988 108.911V107.911H32.3525V108.911V109.911H488.988V108.911ZM32.3525 108.911L33.317 108.647C31.3747 101.557 24.4337 96.21 15.9526 95.0954L15.8223 96.0869L15.692 97.0784C23.5592 98.1122 29.7036 103.027 31.3881 109.175L32.3525 108.911ZM15.8223 96.0869H16.8223V93.6729H15.8223H14.8223V96.0869H15.8223ZM15.8223 93.6729L16.1495 94.6178C17.5492 94.133 18.9512 93.0705 18.9512 91.4697H17.9512H16.9512C16.9512 91.7542 16.6395 92.3315 15.495 92.7279L15.8223 93.6729ZM17.9512 91.4697L18.9512 91.4697C18.9511 89.8693 17.5501 88.8057 16.1495 88.3207L15.8223 89.2656L15.495 90.2106C16.639 90.6067 16.9512 91.1848 16.9512 91.4697L17.9512 91.4697ZM15.8223 89.2656H16.8223V86.998H15.8223H14.8223V89.2656H15.8223ZM15.8223 86.998L16.1496 87.943C17.5492 87.4582 18.9512 86.3957 18.9512 84.7949H17.9512H16.9512C16.9512 85.0794 16.6395 85.6567 15.495 86.0531L15.8223 86.998ZM17.9512 84.7949L18.9512 84.7948C18.951 83.1946 17.5501 82.1309 16.1495 81.6459L15.8223 82.5908L15.4951 83.5358C16.6388 83.9318 16.9511 84.51 16.9512 84.7951L17.9512 84.7949ZM15.8223 82.5908H16.8223V80.3252H15.8223H14.8223V82.5908H15.8223ZM15.8223 80.3252L16.1495 81.2701C17.5493 80.7853 18.9509 79.7227 18.9512 78.1223L17.9512 78.1221L16.9512 78.1219C16.9511 78.4065 16.6392 78.984 15.495 79.3803L15.8223 80.3252ZM17.9512 78.1221H18.9512C18.9512 76.5217 17.55 75.458 16.1495 74.973L15.8223 75.918L15.495 76.8629C16.6389 77.2591 16.9512 77.8371 16.9512 78.1221H17.9512ZM15.8223 75.918H16.8223V73.6504H15.8223H14.8223V75.918H15.8223ZM15.8223 73.6504L16.1495 74.5953C17.5493 74.1105 18.9511 73.048 18.9512 71.4473L17.9512 71.4473L16.9512 71.4472C16.9512 71.7317 16.6394 72.3091 15.495 72.7055L15.8223 73.6504ZM17.9512 71.4473H18.9512C18.9512 69.8469 17.55 68.7832 16.1495 68.2982L15.8223 69.2432L15.495 70.1881C16.639 70.5842 16.9512 71.1623 16.9512 71.4473H17.9512ZM15.8223 69.2432H16.8223V66.9766H15.8223H14.8223V69.2432H15.8223ZM15.8223 66.9766L16.1495 67.9215C17.5492 67.4367 18.9511 66.3742 18.9512 64.7735L17.9512 64.7734L16.9512 64.7734C16.9512 65.0579 16.6394 65.6353 15.495 66.0316L15.8223 66.9766ZM17.9512 64.7734H18.9512C18.9512 63.173 17.55 62.1094 16.1495 61.6244L15.8223 62.5693L15.495 63.5143C16.639 63.9104 16.9512 64.4885 16.9512 64.7734H17.9512ZM15.8223 62.5693H16.8223V60.3018H15.8223H14.8223V62.5693H15.8223ZM15.8223 60.3018L16.1495 61.2467C17.5492 60.7619 18.9512 59.6994 18.9512 58.0986H17.9512H16.9512C16.9512 58.3831 16.6395 58.9604 15.495 59.3568L15.8223 60.3018ZM17.9512 58.0986L18.9512 58.0986C18.951 56.4983 17.5501 55.4346 16.1495 54.9496L15.8223 55.8945L15.4951 56.8395C16.6389 57.2356 16.9511 57.8137 16.9512 58.0987L17.9512 58.0986ZM15.8223 55.8945H16.8223V53.627H15.8223H14.8223V55.8945H15.8223ZM15.8223 53.627L16.1496 54.5719C17.5491 54.0871 18.9512 53.0246 18.9512 51.4238H17.9512H16.9512C16.9512 51.7083 16.6394 52.2856 15.495 52.682L15.8223 53.627ZM17.9512 51.4238L18.9512 51.4236C18.9509 49.8236 17.5502 48.7598 16.1495 48.2748L15.8223 49.2197L15.4951 50.1647C16.6387 50.5607 16.9511 51.1389 16.9512 51.424L17.9512 51.4238ZM15.8223 49.2197H16.8223V46.9531H15.8223H14.8223V49.2197H15.8223ZM15.8223 46.9531L16.1496 47.898C17.5491 47.4133 18.9512 46.3508 18.9512 44.75H17.9512H16.9512C16.9512 45.0344 16.6394 45.6118 15.495 46.0082L15.8223 46.9531ZM17.9512 44.75L18.9512 44.7498C18.9508 43.1498 17.5502 42.086 16.1495 41.6009L15.8223 42.5459L15.4951 43.4909C16.6386 43.8868 16.9511 44.4651 16.9512 44.7502L17.9512 44.75ZM15.8223 42.5459H16.8223V40.2793H15.8223H14.8223V42.5459H15.8223ZM15.8223 40.2793L16.1495 41.2242C17.5494 40.7394 18.9507 39.6767 18.9512 38.0765L17.9512 38.0762L16.9512 38.0759C16.9511 38.3606 16.639 38.9382 15.495 39.3344L15.8223 40.2793ZM17.9512 38.0762H18.9512C18.9512 36.4761 17.5508 35.4113 16.1495 34.9261L15.8223 35.8711L15.4951 36.8161C16.6384 37.2119 16.9512 37.7907 16.9512 38.0762H17.9512ZM15.8223 35.8711H16.8223V33.6055H15.8223H14.8223V35.8711H15.8223ZM15.8223 33.6055L16.1495 34.5504C17.5494 34.0656 18.9511 33.0031 18.9512 31.4024L17.9512 31.4023L16.9512 31.4023C16.9512 31.6868 16.6395 32.2642 15.495 32.6605L15.8223 33.6055ZM17.9512 31.4023H18.9512C18.9512 29.8019 17.5501 28.7383 16.1495 28.2533L15.8223 29.1982L15.4951 30.1432C16.639 30.5393 16.9512 31.1173 16.9512 31.4023H17.9512ZM15.8223 29.1982H16.8223V26.9688H15.8223H14.8223V29.1982H15.8223ZM15.8223 26.9688L15.7794 27.9678C16.1448 27.9835 16.5143 27.9922 16.8867 27.9922V26.9922V25.9922C16.5453 25.9922 16.2045 25.9842 15.8652 25.9697L15.8223 26.9688ZM16.8867 26.9922L16.8867 27.9922C26.017 27.9921 33.9175 23.1561 36.8797 16.2148L35.96 15.8223L35.0402 15.4298C32.4484 21.5031 25.3687 25.9921 16.8867 25.9922L16.8867 26.9922ZM35.96 15.8223V16.8223H485.38V15.8223V14.8223H35.96V15.8223Z" fill="#FFD5D5" mask="url(#path-2-inside-1_516_973)"/>
<path d="M207.563 60H202.949L209.979 39.6364H215.527L222.547 60H217.934L212.833 44.2898H212.674L207.563 60ZM207.275 51.9957H218.172V55.3565H207.275V51.9957ZM231.108 60.2983C229.544 60.2983 228.198 59.9669 227.071 59.304C225.951 58.6345 225.089 57.7064 224.486 56.5199C223.89 55.3333 223.591 53.9678 223.591 52.4233C223.591 50.8589 223.893 49.4867 224.496 48.3068C225.106 47.1203 225.971 46.1955 227.091 45.5327C228.212 44.8632 229.544 44.5284 231.089 44.5284C232.421 44.5284 233.588 44.7704 234.589 45.2543C235.589 45.7382 236.382 46.4176 236.965 47.2926C237.548 48.1676 237.87 49.1951 237.929 50.375H233.932C233.82 49.6127 233.521 48.9995 233.037 48.5355C232.56 48.0649 231.934 47.8295 231.158 47.8295C230.502 47.8295 229.928 48.0085 229.438 48.3665C228.954 48.7178 228.576 49.2315 228.304 49.9077C228.033 50.5838 227.897 51.4025 227.897 52.3636C227.897 53.3381 228.029 54.1667 228.294 54.8494C228.566 55.5322 228.947 56.0526 229.438 56.4105C229.928 56.7685 230.502 56.9474 231.158 56.9474C231.642 56.9474 232.076 56.848 232.461 56.6491C232.852 56.4503 233.173 56.1619 233.425 55.7841C233.684 55.3996 233.853 54.9389 233.932 54.402H237.929C237.863 55.5687 237.545 56.5961 236.975 57.4844C236.411 58.366 235.633 59.0554 234.638 59.5526C233.644 60.0497 232.467 60.2983 231.108 60.2983ZM248.765 44.7273V47.9091H239.568V44.7273H248.765ZM241.656 41.0682H245.891V55.3068C245.891 55.6979 245.951 56.0028 246.07 56.2216C246.19 56.4337 246.355 56.5829 246.568 56.669C246.786 56.7552 247.038 56.7983 247.323 56.7983C247.522 56.7983 247.721 56.7817 247.92 56.7486C248.119 56.7088 248.271 56.679 248.377 56.6591L249.043 59.8111C248.831 59.8774 248.533 59.9536 248.149 60.0398C247.764 60.1326 247.297 60.1889 246.747 60.2088C245.726 60.2486 244.831 60.1127 244.062 59.8011C243.3 59.4896 242.706 59.0057 242.282 58.3494C241.858 57.6932 241.649 56.8646 241.656 55.8636V41.0682ZM258.261 60.2983C256.716 60.2983 255.381 59.9702 254.254 59.3139C253.133 58.651 252.268 57.7296 251.658 56.5497C251.049 55.3632 250.744 53.9877 250.744 52.4233C250.744 50.8456 251.049 49.4669 251.658 48.2869C252.268 47.1004 253.133 46.179 254.254 45.5227C255.381 44.8598 256.716 44.5284 258.261 44.5284C259.805 44.5284 261.138 44.8598 262.258 45.5227C263.385 46.179 264.253 47.1004 264.863 48.2869C265.473 49.4669 265.778 50.8456 265.778 52.4233C265.778 53.9877 265.473 55.3632 264.863 56.5497C264.253 57.7296 263.385 58.651 262.258 59.3139C261.138 59.9702 259.805 60.2983 258.261 60.2983ZM258.281 57.017C258.983 57.017 259.57 56.8182 260.041 56.4205C260.511 56.0161 260.866 55.4659 261.105 54.7699C261.35 54.0739 261.472 53.2817 261.472 52.3935C261.472 51.5052 261.35 50.7131 261.105 50.017C260.866 49.321 260.511 48.7708 260.041 48.3665C259.57 47.9621 258.983 47.7599 258.281 47.7599C257.571 47.7599 256.975 47.9621 256.491 48.3665C256.014 48.7708 255.652 49.321 255.407 50.017C255.168 50.7131 255.049 51.5052 255.049 52.3935C255.049 53.2817 255.168 54.0739 255.407 54.7699C255.652 55.4659 256.014 56.0161 256.491 56.4205C256.975 56.8182 257.571 57.017 258.281 57.017ZM282.279 44.7273L276.939 60H272.166L266.827 44.7273H271.301L274.473 55.6548H274.632L277.794 44.7273H282.279ZM290.914 60.2983C289.343 60.2983 287.991 59.9801 286.857 59.3438C285.73 58.7008 284.862 57.7926 284.252 56.6193C283.642 55.4394 283.337 54.044 283.337 52.4332C283.337 50.8622 283.642 49.4834 284.252 48.2969C284.862 47.1103 285.721 46.1856 286.828 45.5227C287.941 44.8598 289.247 44.5284 290.745 44.5284C291.753 44.5284 292.691 44.6908 293.559 45.0156C294.434 45.3338 295.196 45.8144 295.846 46.4574C296.502 47.1004 297.013 47.9091 297.377 48.8835C297.742 49.8513 297.924 50.9848 297.924 52.2841V53.4474H285.028V50.8224H293.937C293.937 50.2126 293.804 49.6723 293.539 49.2017C293.274 48.7311 292.906 48.3632 292.435 48.098C291.971 47.8262 291.431 47.6903 290.815 47.6903C290.172 47.6903 289.602 47.8395 289.105 48.1378C288.614 48.4295 288.23 48.8239 287.951 49.321C287.673 49.8116 287.53 50.3584 287.524 50.9616V53.4574C287.524 54.2131 287.663 54.866 287.941 55.4162C288.226 55.9664 288.627 56.3906 289.144 56.6889C289.661 56.9872 290.274 57.1364 290.984 57.1364C291.454 57.1364 291.885 57.0701 292.276 56.9375C292.667 56.8049 293.002 56.6061 293.281 56.3409C293.559 56.0758 293.771 55.7509 293.917 55.3665L297.835 55.625C297.636 56.5663 297.228 57.3883 296.612 58.0909C296.002 58.7869 295.213 59.3305 294.245 59.7216C293.284 60.1061 292.174 60.2983 290.914 60.2983ZM303.955 44.7273L306.759 50.0668L309.632 44.7273H313.977L309.553 52.3636L314.097 60H309.771L306.759 54.7202L303.796 60H299.421L303.955 52.3636L299.58 44.7273H303.955Z" fill="white"/>
<rect x="434.548" y="30.8496" width="38.5282" height="1.22962" fill="white"/>
<rect x="434.548" y="33.3096" width="38.5282" height="4.09875" fill="white"/>
<rect x="434.548" y="48.0645" width="38.5282" height="2.45925" fill="white"/>
<rect x="434.548" y="63.2305" width="38.5282" height="2.45925" fill="white"/>
<rect x="434.548" y="67.3291" width="38.5282" height="5.32837" fill="white"/>
<rect x="434.548" y="40.6875" width="38.5282" height="1.6395" fill="white"/>
<rect x="434.548" y="51.7539" width="38.5282" height="1.6395" fill="white"/>
<rect x="434.548" y="43.5566" width="38.5282" height="1.22962" fill="white"/>
<rect x="434.548" y="55.0332" width="38.5282" height="1.22962" fill="white"/>
<rect x="434.548" y="46.0146" width="38.5282" height="0.819749" fill="white"/>
<rect x="434.548" y="73.8867" width="38.5282" height="0.819749" fill="white"/>
<rect x="434.548" y="77.9863" width="38.5282" height="0.819749" fill="white"/>
<rect x="434.548" y="57.9014" width="38.5282" height="0.819749" fill="white"/>
<rect x="434.548" y="87.4121" width="38.5282" height="0.819749" fill="white"/>
<rect x="434.548" y="89.0518" width="38.5282" height="0.819749" fill="white"/>
<rect x="434.548" y="75.9355" width="38.5282" height="0.819749" fill="white"/>
<rect x="434.548" y="81.2637" width="38.5282" height="0.819749" fill="white"/>
<rect x="434.548" y="82.9043" width="38.5282" height="2.86912" fill="white"/>
<rect x="434.483" y="94.6416" width="38.384" height="1.35473" fill="white"/>
<rect x="434.548" y="60.7705" width="38.5282" height="0.819749" fill="white"/>
<rect x="434.548" y="96.8389" width="38.5282" height="2.86912" fill="white"/>
<path d="M218.971 89.5435L213.889 92.6124C213.739 92.6861 213.601 92.716 213.473 92.702C213.346 92.687 213.222 92.6432 213.102 92.5704C212.98 92.4957 212.889 92.3902 212.827 92.254C212.766 92.1177 212.76 91.9688 212.811 91.8073L214.163 86.0532L209.69 82.175C209.564 82.0724 209.481 81.9496 209.441 81.8068C209.401 81.664 209.409 81.5273 209.467 81.3966C209.525 81.2659 209.602 81.1586 209.698 81.0746C209.795 80.9934 209.926 80.9383 210.09 80.9094L215.993 80.3942L218.295 74.9452C218.358 74.7912 218.45 74.6801 218.569 74.612C218.688 74.5438 218.822 74.5098 218.971 74.5098C219.119 74.5098 219.254 74.5438 219.374 74.612C219.494 74.6801 219.585 74.7912 219.647 74.9452L221.949 80.3942L227.85 80.9094C228.015 80.9374 228.146 80.9929 228.243 81.076C228.34 81.1581 228.418 81.265 228.476 81.3966C228.533 81.5273 228.541 81.664 228.501 81.8068C228.461 81.9496 228.378 82.0724 228.252 82.175L223.779 86.0532L225.131 91.8073C225.183 91.9669 225.178 92.1154 225.116 92.2526C225.053 92.3898 224.961 92.4952 224.84 92.569C224.72 92.6436 224.597 92.688 224.469 92.702C224.342 92.716 224.204 92.6861 224.054 92.6124L218.971 89.5435Z" fill="white"/>
<path d="M258.572 89.5435L253.49 92.6124C253.34 92.6861 253.202 92.716 253.074 92.702C252.947 92.687 252.823 92.6432 252.703 92.5704C252.582 92.4957 252.49 92.3902 252.429 92.254C252.367 92.1177 252.361 91.9688 252.412 91.8073L253.764 86.0532L249.291 82.175C249.165 82.0724 249.082 81.9496 249.042 81.8068C249.002 81.664 249.011 81.5273 249.068 81.3966C249.126 81.2659 249.203 81.1586 249.299 81.0746C249.397 80.9934 249.527 80.9383 249.691 80.9094L255.594 80.3942L257.896 74.9452C257.959 74.7912 258.051 74.6801 258.17 74.612C258.29 74.5438 258.424 74.5098 258.572 74.5098C258.72 74.5098 258.855 74.5438 258.975 74.612C259.096 74.6801 259.187 74.7912 259.248 74.9452L261.55 80.3942L267.451 80.9094C267.616 80.9374 267.747 80.9929 267.844 81.076C267.942 81.1581 268.019 81.265 268.077 81.3966C268.134 81.5273 268.142 81.664 268.102 81.8068C268.062 81.9496 267.979 82.0724 267.853 82.175L263.38 86.0532L264.732 91.8073C264.784 91.9669 264.779 92.1154 264.717 92.2526C264.654 92.3898 264.562 92.4952 264.441 92.569C264.322 92.6436 264.198 92.688 264.07 92.702C263.943 92.716 263.805 92.6861 263.656 92.6124L258.572 89.5435Z" fill="white"/>
<path d="M298.173 89.5435L293.091 92.6124C292.942 92.6861 292.803 92.716 292.675 92.702C292.548 92.687 292.424 92.6432 292.304 92.5704C292.183 92.4957 292.091 92.3902 292.03 92.254C291.968 92.1177 291.962 91.9688 292.013 91.8073L293.365 86.0532L288.892 82.175C288.766 82.0724 288.683 81.9496 288.643 81.8068C288.603 81.664 288.612 81.5273 288.67 81.3966C288.727 81.2659 288.804 81.1586 288.901 81.0746C288.998 80.9934 289.128 80.9383 289.293 80.9094L295.195 80.3942L297.497 74.9452C297.56 74.7912 297.652 74.6801 297.771 74.612C297.891 74.5438 298.025 74.5098 298.173 74.5098C298.321 74.5098 298.456 74.5438 298.576 74.612C298.697 74.6801 298.788 74.7912 298.849 74.9452L301.151 80.3942L307.052 80.9094C307.217 80.9374 307.348 80.9929 307.446 81.076C307.543 81.1581 307.62 81.265 307.678 81.3966C307.735 81.5273 307.743 81.664 307.703 81.8068C307.663 81.9496 307.58 82.0724 307.454 82.175L302.981 86.0532L304.333 91.8073C304.386 91.9669 304.38 92.1154 304.318 92.2526C304.255 92.3898 304.163 92.4952 304.042 92.569C303.923 92.6436 303.799 92.688 303.671 92.702C303.544 92.716 303.406 92.6861 303.257 92.6124L298.173 89.5435Z" fill="white"/>
<path d="M337.559 89.6847L332.542 92.7143C332.394 92.7871 332.257 92.8165 332.131 92.8027C332.006 92.788 331.884 92.7447 331.765 92.6728C331.645 92.5991 331.555 92.495 331.494 92.3604C331.433 92.2259 331.428 92.079 331.478 91.9196L332.813 86.2391L328.397 82.4107C328.272 82.3094 328.19 82.1882 328.151 82.0472C328.111 81.9063 328.12 81.7713 328.177 81.6423C328.234 81.5133 328.31 81.4073 328.405 81.3244C328.501 81.2442 328.63 81.1899 328.792 81.1613L334.619 80.6527L336.891 75.2736C336.954 75.1216 337.044 75.0119 337.162 74.9446C337.28 74.8774 337.412 74.8438 337.559 74.8438C337.705 74.8438 337.838 74.8774 337.957 74.9446C338.076 75.0119 338.165 75.1216 338.226 75.2736L340.498 80.6527L346.324 81.1613C346.487 81.189 346.617 81.2438 346.712 81.3258C346.808 81.4069 346.885 81.5124 346.942 81.6423C346.998 81.7713 347.006 81.9063 346.967 82.0472C346.927 82.1882 346.845 82.3094 346.721 82.4107L342.305 86.2391L343.64 91.9196C343.692 92.0771 343.686 92.2236 343.625 92.3591C343.563 92.4945 343.472 92.5986 343.352 92.6714C343.235 92.7451 343.112 92.7889 342.986 92.8027C342.861 92.8165 342.725 92.7871 342.577 92.7143L337.559 89.6847Z" fill="white"/>
<path d="M179.585 89.254L174.568 92.2836C174.421 92.3564 174.284 92.3859 174.158 92.3721C174.032 92.3573 173.91 92.314 173.791 92.2421C173.672 92.1684 173.581 92.0643 173.52 91.9298C173.46 91.7953 173.454 91.6483 173.504 91.4889L174.839 85.8085L170.423 81.9801C170.299 81.8787 170.217 81.7576 170.177 81.6166C170.138 81.4756 170.146 81.3406 170.203 81.2116C170.261 81.0826 170.337 80.9767 170.431 80.8937C170.527 80.8136 170.656 80.7592 170.818 80.7307L176.645 80.222L178.918 74.8429C178.98 74.6909 179.071 74.5812 179.188 74.514C179.306 74.4467 179.439 74.4131 179.585 74.4131C179.732 74.4131 179.864 74.4467 179.983 74.514C180.102 74.5812 180.192 74.6909 180.253 74.8429L182.525 80.222L188.35 80.7307C188.513 80.7583 188.643 80.8131 188.739 80.8951C188.835 80.9762 188.911 81.0817 188.968 81.2116C189.024 81.3406 189.033 81.4756 188.993 81.6166C188.953 81.7576 188.871 81.8787 188.747 81.9801L184.331 85.8085L185.666 91.4889C185.718 91.6465 185.713 91.793 185.651 91.9284C185.589 92.0638 185.499 92.168 185.379 92.2408C185.261 92.3145 185.139 92.3582 185.013 92.3721C184.887 92.3859 184.751 92.3564 184.603 92.2836L179.585 89.254Z" fill="white"/>
<path d="M414 19V109.425" stroke="white"/>
<path d="M409 18V108.425" stroke="white"/>
<path d="M73 17V107.425" stroke="white"/>
<path d="M56.4917 49.773H43.4008V48.2389L53.6792 41.1054V40.9775H43.4008V39.3923H56.4917V40.9264L46.1877 48.0855V48.2133H56.4917V49.773ZM43.1962 56.7291C43.1962 55.8428 43.4071 55.0651 43.829 54.396C44.2509 53.7313 44.8411 53.2114 45.5996 52.8364C46.3581 52.4657 47.2445 52.2803 48.2587 52.2803C49.2814 52.2803 50.1742 52.4657 50.937 52.8364C51.6998 53.2114 52.2921 53.7313 52.714 54.396C53.1358 55.0651 53.3468 55.8428 53.3468 56.7291C53.3468 57.6155 53.1358 58.3911 52.714 59.0559C52.2921 59.7249 51.6998 60.2448 50.937 60.6155C50.1742 60.9905 49.2814 61.178 48.2587 61.178C47.2445 61.178 46.3581 60.9905 45.5996 60.6155C44.8411 60.2448 44.2509 59.7249 43.829 59.0559C43.4071 58.3911 43.1962 57.6155 43.1962 56.7291ZM44.5513 56.7291C44.5513 57.4024 44.7239 57.9564 45.0691 58.3911C45.4143 58.8257 45.8681 59.1475 46.4306 59.3563C46.9931 59.5651 47.6025 59.6695 48.2587 59.6695C48.915 59.6695 49.5265 59.5651 50.0932 59.3563C50.66 59.1475 51.1181 58.8257 51.4675 58.3911C51.817 57.9564 51.9917 57.4024 51.9917 56.7291C51.9917 56.0558 51.817 55.5019 51.4675 55.0672C51.1181 54.6326 50.66 54.3108 50.0932 54.102C49.5265 53.8932 48.915 53.7888 48.2587 53.7888C47.6025 53.7888 46.9931 53.8932 46.4306 54.102C45.8681 54.3108 45.4143 54.6326 45.0691 55.0672C44.7239 55.5019 44.5513 56.0558 44.5513 56.7291ZM43.2985 64.5802C43.2985 64.2648 43.4114 63.9942 43.6373 63.7684C43.8631 63.5425 44.1337 63.4296 44.4491 63.4296C44.7644 63.4296 45.035 63.5425 45.2608 63.7684C45.4867 63.9942 45.5996 64.2648 45.5996 64.5802C45.5996 64.8955 45.4867 65.1661 45.2608 65.392C45.035 65.6178 44.7644 65.7307 44.4491 65.7307C44.2402 65.7307 44.0485 65.6775 43.8738 65.5709C43.6991 65.4687 43.5584 65.3302 43.4519 65.1555C43.3496 64.985 43.2985 64.7932 43.2985 64.5802ZM43.2218 72.2251C43.2218 71.262 43.4839 70.4417 44.008 69.7641C44.5364 69.0866 45.3013 68.5688 46.3027 68.2109C47.3084 67.8529 48.5229 67.6739 49.9462 67.6739C51.361 67.6739 52.5691 67.8529 53.5705 68.2109C54.5762 68.5731 55.3432 69.093 55.8716 69.7705C56.4043 70.4523 56.6706 71.2705 56.6706 72.2251C56.6706 73.1796 56.4043 73.9957 55.8716 74.6732C55.3432 75.355 54.5762 75.8749 53.5705 76.2329C52.5691 76.5951 51.361 76.7762 49.9462 76.7762C48.5229 76.7762 47.3084 76.5972 46.3027 76.2393C45.3013 75.8813 44.5364 75.3636 44.008 74.686C43.4839 74.0084 43.2218 73.1881 43.2218 72.2251ZM44.628 72.2251C44.628 73.1796 45.0883 73.9211 46.0087 74.4495C46.9292 74.9779 48.2417 75.2421 49.9462 75.2421C51.0797 75.2421 52.0449 75.1207 52.8418 74.8778C53.6387 74.6391 54.2459 74.294 54.6635 73.8422C55.0812 73.3948 55.29 72.8557 55.29 72.2251C55.29 71.279 54.8233 70.5397 53.8901 70.007C52.9611 69.4744 51.6465 69.208 49.9462 69.208C48.8127 69.208 47.8496 69.3273 47.057 69.566C46.2644 69.8046 45.6614 70.1476 45.2481 70.5951C44.8347 71.0468 44.628 71.5901 44.628 72.2251ZM43.4008 79.2052H44.5513L49.2814 83.5262C49.8354 84.0333 50.317 84.4509 50.726 84.779C51.1394 85.1072 51.5272 85.3501 51.8894 85.5077C52.2559 85.6697 52.6394 85.7506 53.04 85.7506C53.5002 85.7506 53.8986 85.6398 54.2353 85.4182C54.5719 85.2009 54.8319 84.9026 55.0151 84.5234C55.1983 84.1441 55.29 83.718 55.29 83.2449C55.29 82.7421 55.1856 82.3032 54.9768 81.9282C54.7722 81.5574 54.4846 81.2698 54.1138 81.0653C53.7431 80.865 53.3084 80.7648 52.8098 80.7648V79.2563C53.5769 79.2563 54.2502 79.4332 54.8297 79.7868C55.4093 80.1405 55.861 80.6221 56.1848 81.2315C56.5087 81.8451 56.6706 82.5333 56.6706 83.2961C56.6706 84.0631 56.5087 84.7428 56.1848 85.3351C55.861 85.9275 55.4242 86.392 54.8745 86.7286C54.3248 87.0653 53.7133 87.2336 53.04 87.2336C52.5584 87.2336 52.0875 87.1462 51.6273 86.9715C51.1714 86.8011 50.6621 86.5028 50.0996 86.0766C49.5414 85.6547 48.8596 85.0688 48.0542 84.3188L44.9093 81.3785H44.807L44.807 87.4637H43.4008L43.4008 79.2052Z" fill="white"/>
<defs>
<filter id="filter0_d_516_973" x="0" y="0" width="527.47" height="128.274" filterUnits="userSpaceOnUse" color-interpolation-filters="sRGB">
<feFlood flood-opacity="0" result="BackgroundImageFix"/>
<feColorMatrix in="SourceAlpha" type="matrix" values="0 0 0 0 0 0 0 0 0 0 0 0 0 0 0 0 0 0 127 0" result="hardAlpha"/>
<feOffset dy="2"/>
<feGaussianBlur stdDeviation="4.5"/>
<feComposite in2="hardAlpha" operator="out"/>
<feColorMatrix type="matrix" values="0 0 0 0 0 0 0 0 0 0 0 0 0 0 0 0 0 0 0.25 0"/>
<feBlend mode="normal" in2="BackgroundImageFix" result="effect1_dropShadow_516_973"/>
<feBlend mode="normal" in="SourceGraphic" in2="effect1_dropShadow_516_973" result="shape"/>
</filter>
<linearGradient id="paint0_linear_516_973" x1="9" y1="62.1372" x2="518.47" y2="62.1372" gradientUnits="userSpaceOnUse">
<stop stop-color="#471B1C"/>
<stop offset="0.346154" stop-color="#5A130F"/>
<stop offset="0.716346" stop-color="#7E0001"/>
<stop offset="1" stop-color="#FDA237"/>
</linearGradient>
</defs>
</svg>
