<svg width="528" height="129" viewBox="0 0 528 129" fill="none" xmlns="http://www.w3.org/2000/svg">
<g filter="url(#filter0_d_516_972)">
<path d="M495.403 7C498.28 14.7092 506.04 20.2324 515.162 20.2324C516.288 20.2324 517.392 20.1473 518.47 19.9854V22.8428C517.152 23.3646 516.265 24.3393 516.265 25.4561C516.265 26.5728 517.152 27.5465 518.47 28.0684V30.749C517.152 31.2709 516.265 32.2455 516.265 33.3623C516.265 34.4789 517.152 35.4518 518.47 35.9736V38.6553C517.152 39.1771 516.265 40.1517 516.265 41.2686C516.265 42.3853 517.152 43.359 518.47 43.8809V46.5625C517.152 47.0843 516.265 48.0589 516.265 49.1758C516.265 50.2925 517.152 51.2663 518.47 51.7881V54.4688C517.152 54.9906 516.265 55.9652 516.265 57.082C516.265 58.1988 517.152 59.1725 518.47 59.6943V62.374C517.152 62.8958 516.265 63.8705 516.265 64.9873C516.265 66.1041 517.152 67.0777 518.47 67.5996V70.2812C517.152 70.803 516.265 71.7769 516.265 72.8936C516.265 74.0103 517.152 74.984 518.47 75.5059V78.1875C517.152 78.7093 516.265 79.6839 516.265 80.8008C516.265 81.9175 517.152 82.8912 518.47 83.4131V86.0947C517.152 86.6166 516.265 87.5912 516.265 88.708C516.265 89.8245 517.152 90.7975 518.47 91.3193V94C517.152 94.5218 516.265 95.4964 516.265 96.6133C516.265 97.73 517.152 98.7038 518.47 99.2256V101.863C508.991 102.329 501.18 108.763 499.141 117.274H26.124C24.2456 109.433 17.4675 103.355 9 102.083V99.2256C10.318 98.7038 11.205 97.73 11.2051 96.6133C11.2051 95.4964 10.3182 94.5218 9 94V91.3203C10.3179 90.7985 11.2048 89.8247 11.2051 88.708C11.2051 87.5911 10.3183 86.6156 9 86.0938V83.4131C10.318 82.8912 11.2051 81.9176 11.2051 80.8008C11.2051 79.6839 10.3182 78.7093 9 78.1875V75.5068C10.3181 74.985 11.2051 74.0104 11.2051 72.8936C11.2049 71.7768 10.3181 70.802 9 70.2803V67.5996C10.318 67.0777 11.2051 66.1041 11.2051 64.9873C11.205 63.8705 10.3182 62.8958 9 62.374V59.6943C10.318 59.1725 11.205 58.1988 11.2051 57.082C11.2051 55.9651 10.3182 54.9906 9 54.4688V51.7881C10.318 51.2663 11.205 50.2925 11.2051 49.1758C11.2051 48.0589 10.3182 47.0843 9 46.5625V43.8809C10.318 43.359 11.2051 42.3853 11.2051 41.2686C11.205 40.1517 10.3182 39.1771 9 38.6553V35.9746C10.318 35.4528 11.2049 34.479 11.2051 33.3623C11.2051 32.2454 10.3183 31.2699 9 30.748V28.0693C10.3181 27.5475 11.2051 26.5729 11.2051 25.4561C11.2049 24.3393 10.3181 23.3645 9 22.8428V20.2051C9.36513 20.223 9.7327 20.2324 10.1025 20.2324C19.225 20.2324 26.9848 14.7092 29.8613 7H495.403Z" fill="url(#paint0_linear_516_972)"/>
</g>
<mask id="path-2-inside-1_516_972" fill="white">
<path d="M487.38 15.8223C490.157 22.3299 497.647 26.9921 506.454 26.9922C507.541 26.9922 508.608 26.92 509.648 26.7832V29.1982C508.376 29.6388 507.519 30.4596 507.519 31.4023C507.519 32.345 508.376 33.1649 509.648 33.6055V35.8711C508.376 36.3115 507.52 37.1326 507.519 38.0752C507.519 39.0179 508.376 39.8388 509.648 40.2793V42.5459C508.376 42.9864 507.519 43.8073 507.519 44.75C507.519 45.6927 508.376 46.5126 509.648 46.9531V49.2197C508.376 49.6602 507.519 50.4811 507.519 51.4238C507.519 52.3665 508.376 53.1864 509.648 53.627V55.8945C508.376 56.3351 507.519 57.1559 507.519 58.0986C507.519 59.0413 508.376 59.8612 509.648 60.3018V62.5693C508.376 63.0099 507.519 63.8307 507.519 64.7734C507.519 65.7161 508.376 66.536 509.648 66.9766V69.2432C508.376 69.6837 507.519 70.5045 507.519 71.4473C507.519 72.3899 508.376 73.2099 509.648 73.6504V75.917C508.376 76.3575 507.519 77.1793 507.519 78.1221C507.52 79.0646 508.376 79.8847 509.648 80.3252V82.5908C508.376 83.0313 507.519 83.8522 507.519 84.7949C507.519 85.7376 508.376 86.5575 509.648 86.998V89.2656C508.376 89.7062 507.519 90.527 507.519 91.4697C507.519 92.4124 508.376 93.2323 509.648 93.6729V95.9023C500.497 96.2952 492.957 101.726 490.988 108.911H34.3523C32.5388 102.292 25.9961 97.1611 17.822 96.0869V93.6729C19.0941 93.2323 19.9509 92.4123 19.9509 91.4697C19.9509 90.527 19.0942 89.7062 17.822 89.2656V86.998C19.0941 86.5575 19.9509 85.7375 19.9509 84.7949C19.9509 83.8523 19.0942 83.0314 17.822 82.5908V80.3252C19.094 79.8847 19.9507 79.0645 19.9509 78.1221C19.9509 77.1793 19.0944 76.3575 17.822 75.917V73.6504C19.094 73.2099 19.9508 72.3898 19.9509 71.4473C19.9509 70.5046 19.0942 69.6837 17.822 69.2432V66.9766C19.094 66.536 19.9508 65.716 19.9509 64.7734C19.9509 63.8308 19.0942 63.0099 17.822 62.5693V60.3018C19.0941 59.8612 19.9509 59.0412 19.9509 58.0986C19.9509 57.1559 19.0943 56.3351 17.822 55.8945V53.627C19.0941 53.1864 19.9509 52.3664 19.9509 51.4238C19.9508 50.4812 19.0942 49.6603 17.822 49.2197V46.9531C19.0941 46.5125 19.9509 45.6926 19.9509 44.75C19.9508 43.8074 19.0942 42.9864 17.822 42.5459V40.2793C19.0942 39.8387 19.9509 39.0179 19.9509 38.0752C19.9507 37.1326 19.0942 36.3116 17.822 35.8711V33.6055C19.0942 33.1649 19.9509 32.345 19.9509 31.4023C19.9509 30.4596 19.0943 29.6388 17.822 29.1982V26.9688C18.1744 26.9839 18.5295 26.9922 18.8865 26.9922C27.6927 26.9921 35.1827 22.3297 37.9597 15.8223H487.38Z"/>
</mask>
<path d="M487.38 15.8223L488.299 15.4298L488.04 14.8223H487.38V15.8223ZM506.454 26.9922V27.9922V26.9922ZM509.648 26.7832H510.648V25.6432L509.518 25.7917L509.648 26.7832ZM509.648 29.1982L509.975 30.1432L510.648 29.9103V29.1982H509.648ZM507.519 31.4023L506.519 31.4023V31.4023H507.519ZM509.648 33.6055H510.648V32.8935L509.975 32.6605L509.648 33.6055ZM509.648 35.8711L509.975 36.8161L510.648 36.5831V35.8711H509.648ZM507.519 38.0752L506.519 38.0749V38.0752H507.519ZM509.648 40.2793H510.648V39.5673L509.975 39.3343L509.648 40.2793ZM509.648 42.5459L509.975 43.4909L510.648 43.2579V42.5459H509.648ZM507.519 44.75L506.519 44.7499V44.75H507.519ZM509.648 46.9531H510.648V46.2412L509.975 46.0082L509.648 46.9531ZM509.648 49.2197L509.975 50.1647L510.648 49.9318V49.2197H509.648ZM507.519 51.4238L506.519 51.4237V51.4238H507.519ZM509.648 53.627H510.648V52.915L509.975 52.682L509.648 53.627ZM509.648 55.8945L509.975 56.8395L510.648 56.6066V55.8945H509.648ZM507.519 58.0986H506.519V58.0986L507.519 58.0986ZM509.648 60.3018H510.648V59.5898L509.975 59.3568L509.648 60.3018ZM509.648 62.5693L509.975 63.5143L510.648 63.2814V62.5693H509.648ZM507.519 64.7734H506.519V64.7736L507.519 64.7734ZM509.648 66.9766H510.648V66.2646L509.975 66.0316L509.648 66.9766ZM509.648 69.2432L509.975 70.1881L510.648 69.9552V69.2432H509.648ZM507.519 71.4473H506.519V71.4474L507.519 71.4473ZM509.648 73.6504H510.648V72.9384L509.975 72.7054L509.648 73.6504ZM509.648 75.917L509.975 76.862L510.648 76.629V75.917H509.648ZM507.519 78.1221H506.519V78.1223L507.519 78.1221ZM509.648 80.3252H510.648V79.6132L509.975 79.3802L509.648 80.3252ZM509.648 82.5908L509.975 83.5358L510.648 83.3028V82.5908H509.648ZM507.519 84.7949L506.519 84.7949V84.7949H507.519ZM509.648 86.998H510.648V86.2861L509.975 86.0531L509.648 86.998ZM509.648 89.2656L509.975 90.2106L510.648 89.9776V89.2656H509.648ZM507.519 91.4697H506.519V91.4698L507.519 91.4697ZM509.648 93.6729H510.648V92.9609L509.975 92.7279L509.648 93.6729ZM509.648 95.9023L509.691 96.9014L510.648 96.8603V95.9023H509.648ZM490.988 108.911V109.911H491.751L491.952 109.175L490.988 108.911ZM34.3523 108.911L33.3878 109.175L33.5894 109.911H34.3523V108.911ZM17.822 96.0869H16.822V96.9641L17.6917 97.0784L17.822 96.0869ZM17.822 93.6729L17.4948 92.7279L16.822 92.9609V93.6729H17.822ZM19.9509 91.4697L20.9509 91.4698V91.4697H19.9509ZM17.822 89.2656H16.822V89.9776L17.4948 90.2106L17.822 89.2656ZM17.822 86.998L17.4947 86.0531L16.822 86.2861V86.998H17.822ZM19.9509 84.7949H20.9509V84.7949L19.9509 84.7949ZM17.822 82.5908H16.822V83.3028L17.4948 83.5358L17.822 82.5908ZM17.822 80.3252L17.4948 79.3803L16.822 79.6132V80.3252H17.822ZM19.9509 78.1221L20.9509 78.1223V78.1221H19.9509ZM17.822 75.917H16.822V76.629L17.4948 76.8619L17.822 75.917ZM17.822 73.6504L17.4948 72.7055L16.822 72.9384V73.6504H17.822ZM19.9509 71.4473L20.9509 71.4474V71.4473H19.9509ZM17.822 69.2432H16.822V69.9551L17.4948 70.1881L17.822 69.2432ZM17.822 66.9766L17.4948 66.0316L16.822 66.2646V66.9766H17.822ZM19.9509 64.7734L20.9509 64.7736V64.7734H19.9509ZM17.822 62.5693H16.822V63.2813L17.4948 63.5143L17.822 62.5693ZM17.822 60.3018L17.4947 59.3568L16.822 59.5898V60.3018H17.822ZM19.9509 58.0986L20.9509 58.0986V58.0986H19.9509ZM17.822 55.8945H16.822V56.6065L17.4948 56.8395L17.822 55.8945ZM17.822 53.627L17.4947 52.682L16.822 52.915V53.627H17.822ZM19.9509 51.4238H20.9509V51.4237L19.9509 51.4238ZM17.822 49.2197H16.822V49.9317L17.4948 50.1647L17.822 49.2197ZM17.822 46.9531L17.4947 46.0082L16.822 46.2412V46.9531H17.822ZM19.9509 44.75H20.9509V44.7499L19.9509 44.75ZM17.822 42.5459H16.822V43.2579L17.4948 43.4909L17.822 42.5459ZM17.822 40.2793L17.4948 39.3344L16.822 39.5673V40.2793H17.822ZM19.9509 38.0752H20.9509V38.0749L19.9509 38.0752ZM17.822 35.8711H16.822V36.5831L17.4948 36.816L17.822 35.8711ZM17.822 33.6055L17.4948 32.6605L16.822 32.8935V33.6055H17.822ZM19.9509 31.4023H20.9509V31.4023L19.9509 31.4023ZM17.822 29.1982H16.822V29.9102L17.4948 30.1432L17.822 29.1982ZM17.822 26.9688L17.8649 25.9697L16.822 25.9249V26.9688H17.822ZM18.8865 26.9922V27.9922H18.8865L18.8865 26.9922ZM37.9597 15.8223V14.8223H37.2992L37.04 15.4298L37.9597 15.8223ZM487.38 15.8223L486.46 16.2147C489.422 23.1564 497.323 27.9921 506.454 27.9922V26.9922V25.9922C497.972 25.9921 490.891 21.5033 488.299 15.4298L487.38 15.8223ZM506.454 26.9922V27.9922C507.585 27.9922 508.696 27.917 509.779 27.7747L509.648 26.7832L509.518 25.7917C508.52 25.9229 507.496 25.9922 506.454 25.9922V26.9922ZM509.648 26.7832H508.648V29.1982H509.648H510.648V26.7832H509.648ZM509.648 29.1982L509.321 28.2533C507.92 28.7383 506.519 29.8019 506.519 31.4023L507.519 31.4023L508.519 31.4024C508.519 31.1173 508.831 30.5393 509.975 30.1432L509.648 29.1982ZM507.519 31.4023H506.519C506.519 33.0031 507.921 34.0656 509.321 34.5504L509.648 33.6055L509.975 32.6605C508.831 32.2642 508.519 31.6869 508.519 31.4023H507.519ZM509.648 33.6055H508.648V35.8711H509.648H510.648V33.6055H509.648ZM509.648 35.8711L509.321 34.9261C507.92 35.4111 506.52 36.475 506.519 38.0749L507.519 38.0752L508.519 38.0755C508.519 37.7901 508.832 37.212 509.975 36.8161L509.648 35.8711ZM507.519 38.0752H506.519C506.519 39.6756 507.92 40.7393 509.321 41.2243L509.648 40.2793L509.975 39.3343C508.831 38.9382 508.519 38.3602 508.519 38.0752H507.519ZM509.648 40.2793H508.648V42.5459H509.648H510.648V40.2793H509.648ZM509.648 42.5459L509.321 41.6009C507.92 42.0859 506.52 43.1497 506.519 44.7499L507.519 44.75L508.519 44.7501C508.519 44.4649 508.832 43.8868 509.975 43.4909L509.648 42.5459ZM507.519 44.75H506.519C506.519 46.3508 507.921 47.4133 509.321 47.8981L509.648 46.9531L509.975 46.0082C508.831 45.6118 508.519 45.0345 508.519 44.75H507.519ZM509.648 46.9531H508.648V49.2197H509.648H510.648V46.9531H509.648ZM509.648 49.2197L509.321 48.2748C507.92 48.7598 506.519 49.8235 506.519 51.4237L507.519 51.4238L508.519 51.4239C508.519 51.1388 508.832 50.5607 509.975 50.1647L509.648 49.2197ZM507.519 51.4238H506.519C506.519 53.0246 507.921 54.0871 509.321 54.5719L509.648 53.627L509.975 52.682C508.831 52.2857 508.519 51.7084 508.519 51.4238H507.519ZM509.648 53.627H508.648V55.8945H509.648H510.648V53.627H509.648ZM509.648 55.8945L509.321 54.9496C507.92 55.4346 506.519 56.4982 506.519 58.0986H507.519H508.519C508.519 57.8135 508.831 57.2356 509.975 56.8395L509.648 55.8945ZM507.519 58.0986L506.519 58.0986C506.519 59.6994 507.921 60.7619 509.321 61.2467L509.648 60.3018L509.975 59.3568C508.831 58.9605 508.519 58.3832 508.519 58.0986L507.519 58.0986ZM509.648 60.3018H508.648V62.5693H509.648H510.648V60.3018H509.648ZM509.648 62.5693L509.321 61.6244C507.92 62.1094 506.519 63.173 506.519 64.7734H507.519H508.519C508.519 64.4884 508.831 63.9104 509.975 63.5143L509.648 62.5693ZM507.519 64.7734L506.519 64.7736C506.52 66.3741 507.921 67.4367 509.321 67.9215L509.648 66.9766L509.975 66.0316C508.831 65.6354 508.519 65.058 508.519 64.7733L507.519 64.7734ZM509.648 66.9766H508.648V69.2432H509.648H510.648V66.9766H509.648ZM509.648 69.2432L509.321 68.2982C507.92 68.7832 506.519 69.8468 506.519 71.4473H507.519H508.519C508.519 71.1622 508.831 70.5842 509.975 70.1881L509.648 69.2432ZM507.519 71.4473L506.519 71.4474C506.52 73.0479 507.921 74.1105 509.321 74.5953L509.648 73.6504L509.975 72.7054C508.831 72.3092 508.519 71.7318 508.519 71.4471L507.519 71.4473ZM509.648 73.6504H508.648V75.917H509.648H510.648V73.6504H509.648ZM509.648 75.917L509.321 74.972C507.919 75.4572 506.519 76.522 506.519 78.1221H507.519H508.519C508.519 77.8365 508.832 77.2578 509.975 76.862L509.648 75.917ZM507.519 78.1221L506.519 78.1223C506.52 79.7226 507.921 80.7853 509.321 81.2702L509.648 80.3252L509.975 79.3802C508.831 78.9841 508.519 78.4066 508.519 78.1218L507.519 78.1221ZM509.648 80.3252H508.648V82.5908H509.648H510.648V80.3252H509.648ZM509.648 82.5908L509.321 81.6459C507.92 82.1308 506.519 83.1945 506.519 84.7949L507.519 84.7949L508.519 84.795C508.519 84.5098 508.831 83.9318 509.975 83.5358L509.648 82.5908ZM507.519 84.7949H506.519C506.519 86.3957 507.921 87.4582 509.321 87.943L509.648 86.998L509.975 86.0531C508.831 85.6568 508.519 85.0795 508.519 84.7949H507.519ZM509.648 86.998H508.648V89.2656H509.648H510.648V86.998H509.648ZM509.648 89.2656L509.321 88.3207C507.92 88.8056 506.519 89.8693 506.519 91.4697H507.519H508.519C508.519 91.1847 508.831 90.6067 509.975 90.2106L509.648 89.2656ZM507.519 91.4697L506.519 91.4698C506.519 93.0705 507.921 94.133 509.321 94.6178L509.648 93.6729L509.975 92.7279C508.831 92.3316 508.519 91.7543 508.519 91.4697L507.519 91.4697ZM509.648 93.6729H508.648V95.9023H509.648H510.648V93.6729H509.648ZM509.648 95.9023L509.605 94.9033C500.123 95.3104 492.132 100.951 490.024 108.647L490.988 108.911L491.952 109.175C493.781 102.501 500.872 97.2801 509.691 96.9014L509.648 95.9023ZM490.988 108.911V107.911H34.3523V108.911V109.911H490.988V108.911ZM34.3523 108.911L35.3168 108.647C33.3744 101.557 26.4334 96.2099 17.9523 95.0954L17.822 96.0869L17.6917 97.0784C25.5589 98.1122 31.7033 103.027 33.3878 109.175L34.3523 108.911ZM17.822 96.0869H18.822V93.6729H17.822H16.822V96.0869H17.822ZM17.822 93.6729L18.1493 94.6178C19.549 94.133 20.9508 93.0704 20.9509 91.4698L19.9509 91.4697L18.9509 91.4697C18.9509 91.7542 18.6391 92.3316 17.4948 92.7279L17.822 93.6729ZM19.9509 91.4697H20.9509C20.9509 89.8693 19.5498 88.8057 18.1492 88.3207L17.822 89.2656L17.4948 90.2106C18.6387 90.6067 18.9509 91.1848 18.9509 91.4697H19.9509ZM17.822 89.2656H18.822V86.998H17.822H16.822V89.2656H17.822ZM17.822 86.998L18.1493 87.943C19.549 87.4582 20.9509 86.3957 20.9509 84.7949H19.9509H18.9509C18.9509 85.0794 18.6392 85.6567 17.4947 86.0531L17.822 86.998ZM19.9509 84.7949L20.9509 84.7949C20.9509 83.1946 19.5498 82.1309 18.1492 81.6459L17.822 82.5908L17.4948 83.5358C18.6387 83.9319 18.9509 84.51 18.9509 84.795L19.9509 84.7949ZM17.822 82.5908H18.822V80.3252H17.822H16.822V82.5908H17.822ZM17.822 80.3252L18.1493 81.2701C19.5492 80.7853 20.9505 79.7226 20.9509 78.1223L19.9509 78.1221L18.9509 78.1218C18.9508 78.4065 18.6388 78.9841 17.4948 79.3803L17.822 80.3252ZM19.9509 78.1221H20.9509C20.9509 76.522 19.5505 75.4572 18.1492 74.972L17.822 75.917L17.4948 76.8619C18.6382 77.2578 18.9509 77.8366 18.9509 78.1221H19.9509ZM17.822 75.917H18.822V73.6504H17.822H16.822V75.917H17.822ZM17.822 73.6504L18.1493 74.5953C19.5491 74.1105 20.9507 73.0479 20.9509 71.4474L19.9509 71.4473L18.9509 71.4471C18.9509 71.7317 18.639 72.3092 17.4948 72.7055L17.822 73.6504ZM19.9509 71.4473H20.9509C20.9509 69.8469 19.5497 68.7832 18.1493 68.2982L17.822 69.2432L17.4948 70.1881C18.6387 70.5842 18.9509 71.1623 18.9509 71.4473H19.9509ZM17.822 69.2432H18.822V66.9766H17.822H16.822V69.2432H17.822ZM17.822 66.9766L18.1493 67.9215C19.5491 67.4367 20.9507 66.3741 20.9509 64.7736L19.9509 64.7734L18.9509 64.7733C18.9509 65.0579 18.639 65.6353 17.4948 66.0316L17.822 66.9766ZM19.9509 64.7734H20.9509C20.9509 63.173 19.5498 62.1094 18.1493 61.6244L17.822 62.5693L17.4948 63.5143C18.6387 63.9104 18.9509 64.4885 18.9509 64.7734H19.9509ZM17.822 62.5693H18.822V60.3018H17.822H16.822V62.5693H17.822ZM17.822 60.3018L18.1493 61.2467C19.549 60.7619 20.9509 59.6994 20.9509 58.0986L19.9509 58.0986L18.9509 58.0986C18.9509 58.3831 18.6392 58.9604 17.4947 59.3568L17.822 60.3018ZM19.9509 58.0986H20.9509C20.9509 56.4982 19.5498 55.4346 18.1492 54.9496L17.822 55.8945L17.4948 56.8395C18.6387 57.2356 18.9509 57.8137 18.9509 58.0986H19.9509ZM17.822 55.8945H18.822V53.627H17.822H16.822V55.8945H17.822ZM17.822 53.627L18.1493 54.5719C19.5489 54.0871 20.9509 53.0246 20.9509 51.4238H19.9509H18.9509C18.9509 51.7083 18.6392 52.2856 17.4947 52.682L17.822 53.627ZM19.9509 51.4238L20.9509 51.4237C20.9508 49.8235 19.5499 48.7598 18.1492 48.2748L17.822 49.2197L17.4948 50.1647C18.6386 50.5607 18.9509 51.1389 18.9509 51.4239L19.9509 51.4238ZM17.822 49.2197H18.822V46.9531H17.822H16.822V49.2197H17.822ZM17.822 46.9531L18.1493 47.898C19.5489 47.4133 20.9509 46.3508 20.9509 44.75H19.9509H18.9509C18.9509 45.0344 18.6392 45.6118 17.4947 46.0082L17.822 46.9531ZM19.9509 44.75L20.9509 44.7499C20.9507 43.1497 19.5499 42.0859 18.1492 41.6009L17.822 42.5459L17.4948 43.4909C18.6385 43.8869 18.9509 44.4651 18.9509 44.7501L19.9509 44.75ZM17.822 42.5459H18.822V40.2793H17.822H16.822V42.5459H17.822ZM17.822 40.2793L18.1493 41.2242C19.5497 40.7393 20.9509 39.6756 20.9509 38.0752H19.9509H18.9509C18.9509 38.3601 18.6387 38.9382 17.4948 39.3344L17.822 40.2793ZM19.9509 38.0752L20.9509 38.0749C20.9505 36.475 19.55 35.4112 18.1492 34.9261L17.822 35.8711L17.4948 36.816C18.6383 37.212 18.9509 37.7903 18.9509 38.0755L19.9509 38.0752ZM17.822 35.8711H18.822V33.6055H17.822H16.822V35.8711H17.822ZM17.822 33.6055L18.1493 34.5504C19.5491 34.0656 20.9509 33.0031 20.9509 31.4023H19.9509H18.9509C18.9509 31.6868 18.6393 32.2642 17.4948 32.6605L17.822 33.6055ZM19.9509 31.4023L20.9509 31.4023C20.9509 29.8019 19.5499 28.7383 18.1492 28.2533L17.822 29.1982L17.4948 30.1432C18.6387 30.5393 18.9509 31.1173 18.9509 31.4024L19.9509 31.4023ZM17.822 29.1982H18.822V26.9688H17.822H16.822V29.1982H17.822ZM17.822 26.9688L17.7791 27.9678C18.1446 27.9835 18.514 27.9922 18.8865 27.9922V26.9922V25.9922C18.545 25.9922 18.2043 25.9842 17.8649 25.9697L17.822 26.9688ZM18.8865 26.9922L18.8865 27.9922C28.0168 27.9921 35.9173 23.1562 38.8795 16.2148L37.9597 15.8223L37.04 15.4298C34.4482 21.5032 27.3685 25.9921 18.8865 25.9922L18.8865 26.9922ZM37.9597 15.8223V16.8223H487.38V15.8223V14.8223H37.9597V15.8223Z" fill="white" mask="url(#path-2-inside-1_516_972)"/>
<path d="M199.471 58.124V37.7604H212.954V41.3101H203.777V46.1624H212.06V49.7121H203.777V58.124H199.471ZM219.935 58.4124C218.96 58.4124 218.092 58.2433 217.329 57.9053C216.567 57.5606 215.964 57.0535 215.52 56.384C215.082 55.7078 214.864 54.866 214.864 53.8584C214.864 53.0099 215.019 52.2973 215.331 51.7206C215.642 51.1439 216.067 50.6799 216.604 50.3286C217.141 49.9772 217.75 49.7121 218.433 49.5331C219.123 49.3541 219.845 49.2282 220.601 49.1553C221.489 49.0625 222.205 48.9763 222.748 48.8968C223.292 48.8106 223.686 48.6846 223.932 48.5189C224.177 48.3532 224.3 48.1079 224.3 47.7831V47.7235C224.3 47.0937 224.101 46.6065 223.703 46.2618C223.312 45.9171 222.755 45.7448 222.033 45.7448C221.27 45.7448 220.664 45.9138 220.213 46.2519C219.762 46.5833 219.464 47.0009 219.318 47.5047L215.4 47.1865C215.599 46.2585 215.99 45.4564 216.574 44.7803C217.157 44.0975 217.909 43.5738 218.831 43.2092C219.759 42.838 220.833 42.6524 222.052 42.6524C222.901 42.6524 223.713 42.7519 224.489 42.9507C225.271 43.1496 225.963 43.4578 226.567 43.8754C227.176 44.2931 227.657 44.83 228.008 45.4862C228.36 46.1359 228.535 46.9147 228.535 47.8229V58.124H224.518V56.0061H224.399C224.154 56.4834 223.826 56.9043 223.415 57.2689C223.004 57.6269 222.51 57.9086 221.933 58.1141C221.356 58.3129 220.69 58.4124 219.935 58.4124ZM221.148 55.4891C221.771 55.4891 222.321 55.3664 222.798 55.1212C223.275 54.8693 223.65 54.5312 223.922 54.107C224.194 53.6827 224.329 53.2021 224.329 52.6652V51.0445C224.197 51.1307 224.015 51.2102 223.783 51.2831C223.557 51.3494 223.302 51.4124 223.017 51.472C222.732 51.5251 222.447 51.5748 222.162 51.6212C221.877 51.661 221.618 51.6974 221.386 51.7306C220.889 51.8035 220.455 51.9195 220.084 52.0786C219.712 52.2377 219.424 52.4531 219.219 52.7249C219.013 52.99 218.91 53.3215 218.91 53.7192C218.91 54.2959 219.119 54.7367 219.537 55.0416C219.961 55.3399 220.498 55.4891 221.148 55.4891ZM236.057 49.2945V58.124H231.822V42.8513H235.859V45.5459H236.038C236.376 44.6576 236.942 43.955 237.738 43.4379C238.533 42.9143 239.498 42.6524 240.631 42.6524C241.692 42.6524 242.617 42.8844 243.405 43.3485C244.194 43.8125 244.807 44.4753 245.245 45.3371C245.682 46.1922 245.901 47.213 245.901 48.3996V58.124H241.665V49.1553C241.672 48.2206 241.433 47.4914 240.949 46.9678C240.466 46.4375 239.799 46.1723 238.951 46.1723C238.381 46.1723 237.877 46.295 237.44 46.5402C237.009 46.7855 236.671 47.1434 236.425 47.6141C236.187 48.0781 236.064 48.6382 236.057 49.2945ZM257.363 42.8513V46.0331H248.166V42.8513H257.363ZM250.254 39.1922H254.49V53.4308C254.49 53.8219 254.549 54.1269 254.669 54.3456C254.788 54.5577 254.954 54.7069 255.166 54.7931C255.384 54.8792 255.636 54.9223 255.921 54.9223C256.12 54.9223 256.319 54.9057 256.518 54.8726C256.717 54.8328 256.869 54.803 256.975 54.7831L257.642 57.9351C257.429 58.0014 257.131 58.0776 256.747 58.1638C256.362 58.2566 255.895 58.3129 255.345 58.3328C254.324 58.3726 253.429 58.2367 252.66 57.9252C251.898 57.6136 251.304 57.1297 250.88 56.4735C250.456 55.8172 250.247 54.9886 250.254 53.9877V39.1922ZM264.478 58.4124C263.503 58.4124 262.635 58.2433 261.872 57.9053C261.11 57.5606 260.507 57.0535 260.063 56.384C259.625 55.7078 259.406 54.866 259.406 53.8584C259.406 53.0099 259.562 52.2973 259.874 51.7206C260.185 51.1439 260.61 50.6799 261.147 50.3286C261.683 49.9772 262.293 49.7121 262.976 49.5331C263.665 49.3541 264.388 49.2282 265.144 49.1553C266.032 49.0625 266.748 48.9763 267.291 48.8968C267.835 48.8106 268.229 48.6846 268.475 48.5189C268.72 48.3532 268.843 48.1079 268.843 47.7831V47.7235C268.843 47.0937 268.644 46.6065 268.246 46.2618C267.855 45.9171 267.298 45.7448 266.576 45.7448C265.813 45.7448 265.207 45.9138 264.756 46.2519C264.305 46.5833 264.007 47.0009 263.861 47.5047L259.943 47.1865C260.142 46.2585 260.533 45.4564 261.117 44.7803C261.7 44.0975 262.452 43.5738 263.374 43.2092C264.302 42.838 265.376 42.6524 266.595 42.6524C267.444 42.6524 268.256 42.7519 269.031 42.9507C269.814 43.1496 270.506 43.4578 271.11 43.8754C271.719 44.2931 272.2 44.83 272.551 45.4862C272.903 46.1359 273.078 46.9147 273.078 47.8229V58.124H269.061V56.0061H268.942C268.697 56.4834 268.369 56.9043 267.958 57.2689C267.547 57.6269 267.053 57.9086 266.476 58.1141C265.899 58.3129 265.233 58.4124 264.478 58.4124ZM265.691 55.4891C266.314 55.4891 266.864 55.3664 267.341 55.1212C267.818 54.8693 268.193 54.5312 268.465 54.107C268.737 53.6827 268.872 53.2021 268.872 52.6652V51.0445C268.74 51.1307 268.558 51.2102 268.326 51.2831C268.1 51.3494 267.845 51.4124 267.56 51.472C267.275 51.5251 266.99 51.5748 266.705 51.6212C266.42 51.661 266.161 51.6974 265.929 51.7306C265.432 51.8035 264.998 51.9195 264.627 52.0786C264.255 52.2377 263.967 52.4531 263.762 52.7249C263.556 52.99 263.453 53.3215 263.453 53.7192C263.453 54.2959 263.662 54.7367 264.08 55.0416C264.504 55.3399 265.041 55.4891 265.691 55.4891ZM289.072 47.2064L285.194 47.445C285.128 47.1136 284.985 46.8153 284.767 46.5502C284.548 46.2784 284.259 46.0629 283.902 45.9039C283.55 45.7381 283.129 45.6553 282.639 45.6553C281.982 45.6553 281.429 45.7945 280.978 46.0729C280.527 46.3447 280.302 46.7093 280.302 47.1666C280.302 47.5312 280.448 47.8395 280.74 48.0914C281.031 48.3432 281.532 48.5454 282.241 48.6979L285.005 49.2547C286.49 49.5596 287.597 50.0502 288.326 50.7263C289.055 51.4024 289.42 52.2907 289.42 53.3911C289.42 54.392 289.125 55.2703 288.535 56.026C287.952 56.7817 287.15 57.3717 286.129 57.7959C285.115 58.2135 283.945 58.4223 282.619 58.4223C280.597 58.4223 278.986 58.0014 277.786 57.1595C276.593 56.311 275.894 55.1576 275.688 53.6993L279.855 53.4806C279.981 54.097 280.286 54.5677 280.769 54.8925C281.253 55.2107 281.873 55.3698 282.629 55.3698C283.371 55.3698 283.968 55.2272 284.419 54.9422C284.876 54.6505 285.108 54.276 285.115 53.8186C285.108 53.4342 284.946 53.1193 284.627 52.874C284.309 52.6221 283.819 52.4299 283.156 52.2973L280.511 51.7703C279.019 51.472 277.909 50.955 277.18 50.2192C276.457 49.4834 276.096 48.5454 276.096 47.4053C276.096 46.4242 276.361 45.579 276.892 44.8698C277.429 44.1605 278.181 43.6136 279.149 43.2291C280.123 42.8447 281.263 42.6524 282.569 42.6524C284.498 42.6524 286.016 43.0601 287.123 43.8754C288.237 44.6908 288.886 45.8011 289.072 47.2064ZM292.087 58.124V42.8513H296.323V58.124H292.087ZM294.215 40.8825C293.585 40.8825 293.045 40.6737 292.594 40.2561C292.15 39.8319 291.928 39.3248 291.928 38.7348C291.928 38.1515 292.15 37.651 292.594 37.2334C293.045 36.8092 293.585 36.597 294.215 36.597C294.845 36.597 295.382 36.8092 295.826 37.2334C296.277 37.651 296.502 38.1515 296.502 38.7348C296.502 39.3248 296.277 39.8319 295.826 40.2561C295.382 40.6737 294.845 40.8825 294.215 40.8825ZM304.071 58.4124C303.097 58.4124 302.228 58.2433 301.466 57.9053C300.704 57.5606 300.101 57.0535 299.656 56.384C299.219 55.7078 299 54.866 299 53.8584C299 53.0099 299.156 52.2973 299.468 51.7206C299.779 51.1439 300.203 50.6799 300.74 50.3286C301.277 49.9772 301.887 49.7121 302.57 49.5331C303.259 49.3541 303.982 49.2282 304.737 49.1553C305.626 49.0625 306.342 48.9763 306.885 48.8968C307.429 48.8106 307.823 48.6846 308.068 48.5189C308.314 48.3532 308.436 48.1079 308.436 47.7831V47.7235C308.436 47.0937 308.237 46.6065 307.84 46.2618C307.449 45.9171 306.892 45.7448 306.169 45.7448C305.407 45.7448 304.8 45.9138 304.35 46.2519C303.899 46.5833 303.601 47.0009 303.455 47.5047L299.537 47.1865C299.736 46.2585 300.127 45.4564 300.71 44.7803C301.294 44.0975 302.046 43.5738 302.968 43.2092C303.896 42.838 304.969 42.6524 306.189 42.6524C307.038 42.6524 307.85 42.7519 308.625 42.9507C309.407 43.1496 310.1 43.4578 310.703 43.8754C311.313 44.2931 311.794 44.83 312.145 45.4862C312.496 46.1359 312.672 46.9147 312.672 47.8229V58.124H308.655V56.0061H308.536C308.29 56.4834 307.962 56.9043 307.551 57.2689C307.14 57.6269 306.647 57.9086 306.07 58.1141C305.493 58.3129 304.827 58.4124 304.071 58.4124ZM305.284 55.4891C305.907 55.4891 306.458 55.3664 306.935 55.1212C307.412 54.8693 307.787 54.5312 308.058 54.107C308.33 53.6827 308.466 53.2021 308.466 52.6652V51.0445C308.334 51.1307 308.151 51.2102 307.919 51.2831C307.694 51.3494 307.439 51.4124 307.154 51.472C306.869 51.5251 306.584 51.5748 306.299 51.6212C306.013 51.661 305.755 51.6974 305.523 51.7306C305.026 51.8035 304.592 51.9195 304.22 52.0786C303.849 52.2377 303.561 52.4531 303.355 52.7249C303.15 52.99 303.047 53.3215 303.047 53.7192C303.047 54.2959 303.256 54.7367 303.674 55.0416C304.098 55.3399 304.635 55.4891 305.284 55.4891ZM319.498 42.8513L322.302 48.1908L325.176 42.8513H329.521L325.096 50.4877L329.64 58.124H325.315L322.302 52.8442L319.339 58.124H314.964L319.498 50.4877L315.123 42.8513H319.498Z" fill="white"/>
<rect x="443.548" y="26.8496" width="38.5282" height="1.22962" fill="white"/>
<rect x="443.548" y="29.3096" width="38.5282" height="4.09875" fill="white"/>
<rect x="443.548" y="44.0645" width="38.5282" height="2.45925" fill="white"/>
<rect x="443.548" y="59.2305" width="38.5282" height="2.45925" fill="white"/>
<rect x="443.548" y="63.3291" width="38.5282" height="5.32837" fill="white"/>
<rect x="443.548" y="36.6875" width="38.5282" height="1.6395" fill="white"/>
<rect x="443.548" y="47.7529" width="38.5282" height="1.6395" fill="white"/>
<rect x="443.548" y="39.5566" width="38.5282" height="1.22962" fill="white"/>
<rect x="443.548" y="51.0322" width="38.5282" height="1.22962" fill="white"/>
<rect x="443.548" y="42.0146" width="38.5282" height="0.819749" fill="white"/>
<rect x="443.548" y="69.8867" width="38.5282" height="0.819749" fill="white"/>
<rect x="443.548" y="73.9863" width="38.5282" height="0.819749" fill="white"/>
<rect x="443.548" y="53.9014" width="38.5282" height="0.819749" fill="white"/>
<rect x="443.548" y="83.4121" width="38.5282" height="0.819749" fill="white"/>
<rect x="443.548" y="85.0518" width="38.5282" height="0.819749" fill="white"/>
<rect x="443.548" y="71.9355" width="38.5282" height="0.819749" fill="white"/>
<rect x="443.548" y="77.2637" width="38.5282" height="0.819749" fill="white"/>
<rect x="443.548" y="78.9043" width="38.5282" height="2.86912" fill="white"/>
<rect x="443.483" y="90.6416" width="38.384" height="1.35473" fill="white"/>
<rect x="443.548" y="56.7705" width="38.5282" height="0.819749" fill="white"/>
<rect x="443.548" y="92.8389" width="38.5282" height="2.86912" fill="white"/>
<path d="M57.4917 50.7466H44.4008V49.2125L54.6792 42.079V41.9512H44.4008V40.366H57.4917V41.9L47.1877 49.0591V49.187H57.4917V50.7466ZM44.1962 57.7028C44.1962 56.8164 44.4071 56.0387 44.829 55.3697C45.2509 54.7049 45.8411 54.185 46.5996 53.81C47.3581 53.4393 48.2445 53.2539 49.2587 53.2539C50.2814 53.2539 51.1742 53.4393 51.937 53.81C52.6998 54.185 53.2921 54.7049 53.714 55.3697C54.1358 56.0387 54.3468 56.8164 54.3468 57.7028C54.3468 58.5891 54.1358 59.3647 53.714 60.0295C53.2921 60.6985 52.6998 61.2184 51.937 61.5891C51.1742 61.9641 50.2814 62.1516 49.2587 62.1516C48.2445 62.1516 47.3581 61.9641 46.5996 61.5891C45.8411 61.2184 45.2509 60.6985 44.829 60.0295C44.4071 59.3647 44.1962 58.5891 44.1962 57.7028ZM45.5513 57.7028C45.5513 58.3761 45.7239 58.9301 46.0691 59.3647C46.4143 59.7994 46.8681 60.1211 47.4306 60.3299C47.9931 60.5387 48.6025 60.6431 49.2587 60.6431C49.915 60.6431 50.5265 60.5387 51.0932 60.3299C51.66 60.1211 52.1181 59.7994 52.4675 59.3647C52.817 58.9301 52.9917 58.3761 52.9917 57.7028C52.9917 57.0295 52.817 56.4755 52.4675 56.0408C52.1181 55.6062 51.66 55.2845 51.0932 55.0756C50.5265 54.8668 49.915 54.7624 49.2587 54.7624C48.6025 54.7624 47.9931 54.8668 47.4306 55.0756C46.8681 55.2845 46.4143 55.6062 46.0691 56.0408C45.7239 56.4755 45.5513 57.0295 45.5513 57.7028ZM44.2985 65.5538C44.2985 65.2385 44.4114 64.9679 44.6373 64.742C44.8631 64.5162 45.1337 64.4032 45.4491 64.4032C45.7644 64.4032 46.035 64.5162 46.2608 64.742C46.4867 64.9679 46.5996 65.2385 46.5996 65.5538C46.5996 65.8691 46.4867 66.1397 46.2608 66.3656C46.035 66.5914 45.7644 66.7044 45.4491 66.7044C45.2402 66.7044 45.0485 66.6511 44.8738 66.5446C44.6991 66.4423 44.5584 66.3038 44.4519 66.1291C44.3496 65.9586 44.2985 65.7669 44.2985 65.5538ZM44.2218 73.1987C44.2218 72.2356 44.4839 71.4153 45.008 70.7378C45.5364 70.0602 46.3013 69.5424 47.3027 69.1845C48.3084 68.8265 49.5229 68.6476 50.9462 68.6476C52.361 68.6476 53.5691 68.8265 54.5705 69.1845C55.5762 69.5467 56.3432 70.0666 56.8716 70.7441C57.4043 71.426 57.6706 72.2441 57.6706 73.1987C57.6706 74.1532 57.4043 74.9693 56.8716 75.6468C56.3432 76.3287 55.5762 76.8486 54.5705 77.2065C53.5691 77.5687 52.361 77.7498 50.9462 77.7498C49.5229 77.7498 48.3084 77.5709 47.3027 77.2129C46.3013 76.8549 45.5364 76.3372 45.008 75.6596C44.4839 74.9821 44.2218 74.1618 44.2218 73.1987ZM45.628 73.1987C45.628 74.1532 46.0883 74.8947 47.0087 75.4231C47.9292 75.9515 49.2417 76.2157 50.9462 76.2157C52.0797 76.2157 53.0449 76.0943 53.8418 75.8514C54.6387 75.6128 55.2459 75.2676 55.6635 74.8159C56.0812 74.3684 56.29 73.8294 56.29 73.1987C56.29 72.2527 55.8233 71.5133 54.8901 70.9807C53.9611 70.448 52.6465 70.1816 50.9462 70.1816C49.8127 70.1816 48.8496 70.301 48.057 70.5396C47.2644 70.7782 46.6614 71.1213 46.2481 71.5687C45.8347 72.0204 45.628 72.5638 45.628 73.1987ZM44.2218 84.2697C44.2218 83.5197 44.3709 82.8443 44.6692 82.2434C44.9675 81.6426 45.3766 81.1611 45.8965 80.7988C46.4164 80.4366 47.0087 80.2385 47.6735 80.2044V81.7385C47.0812 81.7981 46.5911 82.0666 46.2033 82.5439C45.8198 83.0254 45.628 83.6007 45.628 84.2697C45.628 84.8066 45.7537 85.2839 46.0052 85.7015C46.2566 86.1234 46.6018 86.4537 47.0407 86.6923C47.4839 86.9352 47.9846 87.0566 48.5428 87.0566C49.1138 87.0566 49.6231 86.9309 50.0705 86.6795C50.5222 86.4324 50.878 86.0914 51.138 85.6568C51.3979 85.2221 51.53 84.7257 51.5343 84.1674C51.5385 83.7669 51.4768 83.3557 51.3489 82.9338C51.2253 82.5119 51.0655 82.1646 50.8695 81.8919L51.0485 80.4089L57.4917 81.2015V88.0027H56.0854V82.5311L52.2246 82.0709V82.1476C52.4377 82.416 52.6145 82.7527 52.7552 83.1575C52.8958 83.5623 52.9661 83.9842 52.9661 84.4231C52.9661 85.2243 52.7743 85.938 52.3908 86.5645C52.0116 87.1951 51.4917 87.6895 50.8312 88.0474C50.1706 88.4096 49.4164 88.5907 48.5684 88.5907C47.7331 88.5907 46.9874 88.4032 46.3312 88.0282C45.6792 87.6575 45.1635 87.1461 44.7843 86.4941C44.4093 85.8422 44.2218 85.1007 44.2218 84.2697Z" fill="white"/>
<path d="M224.823 89.853L219.741 92.9219C219.591 92.9957 219.453 93.0255 219.325 93.0115C219.198 92.9966 219.074 92.9527 218.954 92.8799C218.833 92.8053 218.741 92.6998 218.68 92.5635C218.618 92.4273 218.612 92.2784 218.663 92.1169L220.015 86.3627L215.542 82.4846C215.416 82.3819 215.333 82.2592 215.293 82.1164C215.253 81.9736 215.262 81.8368 215.319 81.7062C215.377 81.5755 215.454 81.4682 215.55 81.3842C215.648 81.303 215.778 81.2479 215.942 81.2189L221.845 80.7037L224.147 75.2548C224.21 75.1007 224.302 74.9897 224.421 74.9215C224.541 74.8534 224.675 74.8193 224.823 74.8193C224.971 74.8193 225.106 74.8534 225.226 74.9215C225.347 74.9897 225.438 75.1007 225.499 75.2548L227.801 80.7037L233.702 81.2189C233.867 81.247 233.998 81.3025 234.095 81.3856C234.193 81.4677 234.27 81.5746 234.328 81.7062C234.385 81.8368 234.393 81.9736 234.353 82.1164C234.313 82.2592 234.23 82.3819 234.104 82.4846L229.631 86.3627L230.983 92.1169C231.035 92.2765 231.03 92.4249 230.968 92.5621C230.905 92.6993 230.813 92.8048 230.692 92.8785C230.572 92.9532 230.449 92.9975 230.321 93.0115C230.194 93.0255 230.056 92.9957 229.907 92.9219L224.823 89.853Z" fill="white"/>
<path d="M264.455 89.853L259.373 92.9219C259.224 92.9957 259.085 93.0255 258.957 93.0115C258.83 92.9966 258.706 92.9527 258.586 92.8799C258.465 92.8053 258.373 92.6998 258.312 92.5635C258.25 92.4273 258.244 92.2784 258.295 92.1169L259.647 86.3627L255.174 82.4846C255.048 82.3819 254.965 82.2592 254.925 82.1164C254.885 81.9736 254.894 81.8368 254.952 81.7062C255.009 81.5755 255.086 81.4682 255.183 81.3842C255.28 81.303 255.41 81.2479 255.575 81.2189L261.477 80.7037L263.779 75.2548C263.842 75.1007 263.934 74.9897 264.053 74.9215C264.173 74.8534 264.307 74.8193 264.455 74.8193C264.603 74.8193 264.738 74.8534 264.858 74.9215C264.979 74.9897 265.07 75.1007 265.131 75.2548L267.433 80.7037L273.334 81.2189C273.499 81.247 273.63 81.3025 273.728 81.3856C273.825 81.4677 273.902 81.5746 273.96 81.7062C274.017 81.8368 274.025 81.9736 273.985 82.1164C273.945 82.2592 273.862 82.3819 273.736 82.4846L269.263 86.3627L270.615 92.1169C270.668 92.2765 270.662 92.4249 270.6 92.5621C270.537 92.6993 270.445 92.8048 270.324 92.8785C270.205 92.9532 270.081 92.9975 269.953 93.0115C269.826 93.0255 269.688 92.9957 269.539 92.9219L264.455 89.853Z" fill="white"/>
<path d="M304.087 89.853L299.005 92.9219C298.856 92.9957 298.717 93.0255 298.589 93.0115C298.462 92.9966 298.339 92.9527 298.218 92.8799C298.097 92.8053 298.005 92.6998 297.944 92.5635C297.882 92.4273 297.877 92.2784 297.927 92.1169L299.279 86.3627L294.806 82.4846C294.68 82.3819 294.597 82.2592 294.557 82.1164C294.517 81.9736 294.526 81.8368 294.584 81.7062C294.641 81.5755 294.718 81.4682 294.815 81.3842C294.912 81.303 295.042 81.2479 295.207 81.2189L301.109 80.7037L303.411 75.2548C303.474 75.1007 303.566 74.9897 303.685 74.9215C303.805 74.8534 303.939 74.8193 304.087 74.8193C304.236 74.8193 304.37 74.8534 304.49 74.9215C304.611 74.9897 304.702 75.1007 304.763 75.2548L307.065 80.7037L312.966 81.2189C313.131 81.247 313.263 81.3025 313.36 81.3856C313.457 81.4677 313.534 81.5746 313.592 81.7062C313.649 81.8368 313.657 81.9736 313.617 82.1164C313.577 82.2592 313.494 82.3819 313.368 82.4846L308.895 86.3627L310.247 92.1169C310.3 92.2765 310.294 92.4249 310.232 92.5621C310.169 92.6993 310.077 92.8048 309.956 92.8785C309.837 92.9532 309.713 92.9975 309.585 93.0115C309.458 93.0255 309.32 92.9957 309.171 92.9219L304.087 89.853Z" fill="white"/>
<path d="M343.073 89.9943L338.056 93.0238C337.909 93.0966 337.772 93.1261 337.646 93.1123C337.52 93.0975 337.398 93.0542 337.279 92.9824C337.159 92.9087 337.069 92.8045 337.008 92.67C336.948 92.5355 336.942 92.3885 336.992 92.2291L338.327 86.5487L333.911 82.7203C333.787 82.6189 333.705 82.4978 333.665 82.3568C333.625 82.2158 333.634 82.0809 333.691 81.9519C333.748 81.8229 333.824 81.7169 333.919 81.634C334.015 81.5538 334.144 81.4995 334.306 81.4709L340.133 80.9623L342.405 75.5832C342.468 75.4311 342.558 75.3215 342.676 75.2542C342.794 75.187 342.927 75.1533 343.073 75.1533C343.22 75.1533 343.352 75.187 343.471 75.2542C343.59 75.3215 343.68 75.4311 343.741 75.5832L346.013 80.9623L351.838 81.4709C352.001 81.4985 352.131 81.5534 352.227 81.6354C352.322 81.7164 352.399 81.8219 352.456 81.9519C352.512 82.0809 352.521 82.2158 352.481 82.3568C352.441 82.4978 352.359 82.6189 352.235 82.7203L347.819 86.5487L349.154 92.2291C349.206 92.3867 349.201 92.5332 349.139 92.6686C349.077 92.8041 348.987 92.9082 348.867 92.981C348.749 93.0547 348.627 93.0985 348.501 93.1123C348.375 93.1261 348.239 93.0966 348.091 93.0238L343.073 89.9943Z" fill="white"/>
<path d="M185.837 89.5636L180.82 92.5932C180.673 92.666 180.536 92.6954 180.41 92.6816C180.284 92.6669 180.162 92.6236 180.043 92.5517C179.924 92.478 179.833 92.3739 179.772 92.2394C179.712 92.1048 179.706 91.9579 179.756 91.7985L181.091 86.118L176.675 82.2896C176.551 82.1883 176.469 82.0671 176.429 81.9261C176.39 81.7852 176.398 81.6502 176.455 81.5212C176.513 81.3922 176.589 81.2862 176.683 81.2033C176.779 81.1231 176.908 81.0688 177.07 81.0402L182.897 80.5316L185.17 75.1525C185.232 75.0005 185.322 74.8908 185.44 74.8235C185.558 74.7563 185.691 74.7227 185.837 74.7227C185.984 74.7227 186.116 74.7563 186.235 74.8235C186.354 74.8908 186.444 75.0005 186.505 75.1525L188.777 80.5316L194.602 81.0402C194.765 81.0679 194.895 81.1227 194.991 81.2047C195.087 81.2858 195.163 81.3913 195.22 81.5212C195.276 81.6502 195.285 81.7852 195.245 81.9261C195.205 82.0671 195.123 82.1883 194.999 82.2896L190.583 86.118L191.918 91.7985C191.97 91.956 191.965 92.1025 191.903 92.238C191.841 92.3734 191.751 92.4775 191.631 92.5503C191.513 92.624 191.391 92.6678 191.265 92.6816C191.139 92.6954 191.003 92.666 190.855 92.5932L185.837 89.5636Z" fill="white"/>
<path d="M72.959 18.0273V108.453" stroke="white"/>
<defs>
<filter id="filter0_d_516_972" x="0" y="0" width="527.47" height="128.274" filterUnits="userSpaceOnUse" color-interpolation-filters="sRGB">
<feFlood flood-opacity="0" result="BackgroundImageFix"/>
<feColorMatrix in="SourceAlpha" type="matrix" values="0 0 0 0 0 0 0 0 0 0 0 0 0 0 0 0 0 0 127 0" result="hardAlpha"/>
<feOffset dy="2"/>
<feGaussianBlur stdDeviation="4.5"/>
<feComposite in2="hardAlpha" operator="out"/>
<feColorMatrix type="matrix" values="0 0 0 0 0 0 0 0 0 0 0 0 0 0 0 0 0 0 0.25 0"/>
<feBlend mode="normal" in2="BackgroundImageFix" result="effect1_dropShadow_516_972"/>
<feBlend mode="normal" in="SourceGraphic" in2="effect1_dropShadow_516_972" result="shape"/>
</filter>
<linearGradient id="paint0_linear_516_972" x1="9" y1="62.1372" x2="518.47" y2="62.1372" gradientUnits="userSpaceOnUse">
<stop stop-color="#0A1D3E"/>
<stop offset="0.360577" stop-color="#1D1F5A"/>
<stop offset="0.600962" stop-color="#403382"/>
<stop offset="1" stop-color="#CBA1EB"/>
</linearGradient>
</defs>
</svg>
