<svg width="528" height="129" viewBox="0 0 528 129" fill="none" xmlns="http://www.w3.org/2000/svg">
<g filter="url(#filter0_d_516_706)">
<path d="M495.403 7C498.28 14.709 506.04 20.2324 515.162 20.2324C516.288 20.2324 517.392 20.1473 518.47 19.9854V22.8428C517.152 23.3646 516.265 24.3392 516.265 25.4561C516.265 26.5727 517.152 27.5465 518.47 28.0684V30.748C517.152 31.2699 516.265 32.2445 516.265 33.3613C516.265 34.4781 517.152 35.4518 518.47 35.9736V38.6553C517.152 39.1771 516.265 40.1517 516.265 41.2686C516.265 42.3851 517.152 43.3581 518.47 43.8799V46.5615C517.152 47.0833 516.265 48.058 516.265 49.1748C516.265 50.2916 517.152 51.2652 518.47 51.7871V54.4678C517.152 54.9896 516.265 55.9643 516.265 57.0811C516.265 58.1978 517.152 59.1715 518.47 59.6934V62.374C517.152 62.8959 516.265 63.8705 516.265 64.9873C516.265 66.1039 517.152 67.0768 518.47 67.5986V70.2803C517.152 70.8021 516.265 71.7767 516.265 72.8936C516.265 74.0103 517.152 74.984 518.47 75.5059V78.1865C517.152 78.7083 516.265 79.683 516.265 80.7998C516.265 81.9166 517.152 82.8902 518.47 83.4121V86.0938C517.152 86.6156 516.265 87.5902 516.265 88.707C516.265 89.8238 517.152 90.7975 518.47 91.3193V93.999C517.152 94.5208 516.265 95.4955 516.265 96.6123C516.265 97.7291 517.152 98.7027 518.47 99.2246V101.863C508.991 102.329 501.18 108.763 499.141 117.274H26.124C24.2457 109.433 17.4676 103.355 9 102.083V99.2246C10.318 98.7027 11.2051 97.7291 11.2051 96.6123C11.205 95.4955 10.3182 94.5208 9 93.999V91.3193C10.318 90.7975 11.205 89.8238 11.2051 88.707C11.2051 87.5902 10.3182 86.6156 9 86.0938V83.4131C10.3182 82.8912 11.2051 81.9167 11.2051 80.7998C11.2049 79.683 10.3182 78.7083 9 78.1865V75.5059C10.318 74.984 11.2049 74.0103 11.2051 72.8936C11.2051 71.7766 10.3183 70.8011 9 70.2793V67.5996C10.3179 67.0778 11.2049 66.104 11.2051 64.9873C11.2051 63.8704 10.3183 62.8949 9 62.373V59.6943C10.3182 59.1725 11.2051 58.1979 11.2051 57.0811C11.2049 55.9643 10.3182 54.9895 9 54.4678V51.7871C10.318 51.2652 11.2051 50.2916 11.2051 49.1748C11.205 48.058 10.3182 47.0833 9 46.5615V43.8809C10.3179 43.3591 11.2049 42.3852 11.2051 41.2686C11.2051 40.1516 10.3183 39.1761 9 38.6543V35.9736C10.318 35.4518 11.2051 34.4781 11.2051 33.3613C11.2051 32.2444 10.3182 31.2699 9 30.748V28.0684C10.318 27.5465 11.2049 26.5728 11.2051 25.4561C11.2051 24.3391 10.3183 23.3636 9 22.8418V20.2051C9.36513 20.223 9.7327 20.2324 10.1025 20.2324C19.2249 20.2324 26.9848 14.709 29.8613 7H495.403Z" fill="url(#paint0_linear_516_706)"/>
</g>
<mask id="path-2-inside-1_516_706" fill="white">
<path d="M487.38 15.8223C490.157 22.3297 497.648 26.9921 506.454 26.9922C507.541 26.9922 508.608 26.92 509.648 26.7832V29.1982C508.376 29.6388 507.519 30.4596 507.519 31.4023C507.519 32.345 508.376 33.1649 509.648 33.6055V35.8711C508.376 36.3116 507.519 37.1325 507.519 38.0752C507.519 39.0179 508.376 39.8378 509.648 40.2783V42.5459C508.376 42.9864 507.519 43.8073 507.519 44.75C507.519 45.6927 508.376 46.5126 509.648 46.9531V49.2197C508.376 49.6602 507.519 50.4811 507.519 51.4238C507.519 52.3665 508.376 53.1864 509.648 53.627V55.8945C508.376 56.3351 507.519 57.1559 507.519 58.0986C507.519 59.0413 508.376 59.8612 509.648 60.3018V62.5693C508.376 63.0099 507.519 63.8307 507.519 64.7734C507.52 65.716 508.376 66.5361 509.648 66.9766V69.2422C508.376 69.6827 507.519 70.5045 507.519 71.4473C507.52 72.3898 508.376 73.2099 509.648 73.6504V75.917C508.376 76.3574 507.52 77.1785 507.519 78.1211C507.519 79.0638 508.376 79.8847 509.648 80.3252V82.5908C508.376 83.0313 507.519 83.8522 507.519 84.7949C507.519 85.7376 508.376 86.5575 509.648 86.998V89.2656C508.376 89.7062 507.519 90.527 507.519 91.4697C507.519 92.4123 508.376 93.2323 509.648 93.6729V95.9014C500.497 96.2942 492.956 101.726 490.988 108.911H34.3523C32.539 102.292 25.9962 97.1611 17.822 96.0869V93.6729C19.094 93.2323 19.9508 92.4123 19.9509 91.4697C19.9509 90.5271 19.0942 89.7062 17.822 89.2656V86.998C19.0941 86.5575 19.9509 85.7375 19.9509 84.7949C19.9509 83.8522 19.0943 83.0314 17.822 82.5908V80.3252C19.0942 79.8846 19.9509 79.0637 19.9509 78.1211C19.9507 77.1785 19.0942 76.3575 17.822 75.917V73.6504C19.094 73.2099 19.9507 72.3897 19.9509 71.4473C19.9509 70.5045 19.0944 69.6827 17.822 69.2422V66.9766C19.094 66.536 19.9507 65.7159 19.9509 64.7734C19.9509 63.8308 19.0942 63.0099 17.822 62.5693V60.3018C19.0941 59.8612 19.9508 59.0412 19.9509 58.0986C19.9509 57.156 19.0942 56.3351 17.822 55.8945V53.627C19.0941 53.1864 19.9509 52.3664 19.9509 51.4238C19.9509 50.4812 19.0943 49.6603 17.822 49.2197V46.9531C19.0941 46.5125 19.9509 45.6926 19.9509 44.75C19.9509 43.8073 19.0942 42.9864 17.822 42.5459V40.2783C19.0941 39.8377 19.9509 39.0178 19.9509 38.0752C19.9508 37.1326 19.0942 36.3116 17.822 35.8711V33.6055C19.094 33.1649 19.9508 32.3449 19.9509 31.4023C19.9509 30.4597 19.0942 29.6388 17.822 29.1982V26.9688C18.1744 26.9839 18.5295 26.9922 18.8865 26.9922C27.6925 26.9921 35.1826 22.3295 37.9597 15.8223H487.38Z"/>
</mask>
<path d="M487.38 15.8223L488.299 15.4298L488.04 14.8223H487.38V15.8223ZM506.454 26.9922V27.9922V26.9922ZM509.648 26.7832H510.648V25.6432L509.518 25.7917L509.648 26.7832ZM509.648 29.1982L509.975 30.1432L510.648 29.9103V29.1982H509.648ZM507.519 31.4023H506.519V31.4025L507.519 31.4023ZM509.648 33.6055H510.648V32.8935L509.975 32.6605L509.648 33.6055ZM509.648 35.8711L509.975 36.8161L510.648 36.5831V35.8711H509.648ZM507.519 38.0752L506.519 38.075V38.0752H507.519ZM509.648 40.2783H510.648V39.5664L509.975 39.3334L509.648 40.2783ZM509.648 42.5459L509.975 43.4909L510.648 43.2579V42.5459H509.648ZM507.519 44.75L506.519 44.75V44.75H507.519ZM509.648 46.9531H510.648V46.2411L509.975 46.0082L509.648 46.9531ZM509.648 49.2197L509.975 50.1647L510.648 49.9318V49.2197H509.648ZM507.519 51.4238L506.519 51.4238V51.4238H507.519ZM509.648 53.627H510.648V52.915L509.975 52.682L509.648 53.627ZM509.648 55.8945L509.975 56.8395L510.648 56.6065V55.8945H509.648ZM507.519 58.0986H506.519V58.0987L507.519 58.0986ZM509.648 60.3018H510.648V59.5898L509.975 59.3568L509.648 60.3018ZM509.648 62.5693L509.975 63.5143L510.648 63.2813V62.5693H509.648ZM507.519 64.7734H506.519V64.7737L507.519 64.7734ZM509.648 66.9766H510.648V66.2646L509.975 66.0316L509.648 66.9766ZM509.648 69.2422L509.975 70.1872L510.648 69.9542V69.2422H509.648ZM507.519 71.4473H506.519V71.4475L507.519 71.4473ZM509.648 73.6504H510.648V72.9384L509.975 72.7054L509.648 73.6504ZM509.648 75.917L509.975 76.862L510.648 76.629V75.917H509.648ZM507.519 78.1211L506.519 78.1208V78.1211H507.519ZM509.648 80.3252H510.648V79.6132L509.975 79.3802L509.648 80.3252ZM509.648 82.5908L509.975 83.5358L510.648 83.3028V82.5908H509.648ZM507.519 84.7949H506.519V84.795L507.519 84.7949ZM509.648 86.998H510.648V86.2861L509.975 86.0531L509.648 86.998ZM509.648 89.2656L509.975 90.2106L510.648 89.9776V89.2656H509.648ZM507.519 91.4697H506.519V91.4699L507.519 91.4697ZM509.648 93.6729H510.648V92.9609L509.975 92.7279L509.648 93.6729ZM509.648 95.9014L509.691 96.9004L510.648 96.8594V95.9014H509.648ZM490.988 108.911V109.911H491.751L491.953 109.175L490.988 108.911ZM34.3523 108.911L33.3878 109.175L33.5894 109.911H34.3523V108.911ZM17.822 96.0869H16.822V96.9641L17.6917 97.0784L17.822 96.0869ZM17.822 93.6729L17.4948 92.7279L16.822 92.9609V93.6729H17.822ZM19.9509 91.4697L20.9509 91.4699V91.4697H19.9509ZM17.822 89.2656H16.822V89.9776L17.4948 90.2106L17.822 89.2656ZM17.822 86.998L17.4948 86.0531L16.822 86.2861V86.998H17.822ZM19.9509 84.7949L20.9509 84.795V84.7949H19.9509ZM17.822 82.5908H16.822V83.3028L17.4948 83.5358L17.822 82.5908ZM17.822 80.3252L17.4948 79.3803L16.822 79.6132V80.3252H17.822ZM19.9509 78.1211H20.9509V78.1208L19.9509 78.1211ZM17.822 75.917H16.822V76.629L17.4948 76.8619L17.822 75.917ZM17.822 73.6504L17.4948 72.7055L16.822 72.9384V73.6504H17.822ZM19.9509 71.4473L20.9509 71.4475V71.4473H19.9509ZM17.822 69.2422H16.822V69.9542L17.4948 70.1871L17.822 69.2422ZM17.822 66.9766L17.4948 66.0316L16.822 66.2646V66.9766H17.822ZM19.9509 64.7734L20.9509 64.7737V64.7734H19.9509ZM17.822 62.5693H16.822V63.2813L17.4948 63.5143L17.822 62.5693ZM17.822 60.3018L17.4948 59.3568L16.822 59.5898V60.3018H17.822ZM19.9509 58.0986L20.9509 58.0987V58.0986H19.9509ZM17.822 55.8945H16.822V56.6065L17.4948 56.8395L17.822 55.8945ZM17.822 53.627L17.4947 52.682L16.822 52.915V53.627H17.822ZM19.9509 51.4238H20.9509V51.4238L19.9509 51.4238ZM17.822 49.2197H16.822V49.9317L17.4948 50.1647L17.822 49.2197ZM17.822 46.9531L17.4947 46.0082L16.822 46.2412V46.9531H17.822ZM19.9509 44.75H20.9509V44.75L19.9509 44.75ZM17.822 42.5459H16.822V43.2579L17.4948 43.4908L17.822 42.5459ZM17.822 40.2783L17.4947 39.3334L16.822 39.5664V40.2783H17.822ZM19.9509 38.0752H20.9509V38.075L19.9509 38.0752ZM17.822 35.8711H16.822V36.5831L17.4948 36.816L17.822 35.8711ZM17.822 33.6055L17.4948 32.6605L16.822 32.8935V33.6055H17.822ZM19.9509 31.4023L20.9509 31.4025V31.4023H19.9509ZM17.822 29.1982H16.822V29.9102L17.4948 30.1432L17.822 29.1982ZM17.822 26.9688L17.8649 25.9697L16.822 25.9249V26.9688H17.822ZM18.8865 26.9922V27.9922H18.8865L18.8865 26.9922ZM37.9597 15.8223V14.8223H37.2992L37.04 15.4297L37.9597 15.8223ZM487.38 15.8223L486.46 16.2148C489.422 23.1562 497.323 27.9921 506.454 27.9922V26.9922V25.9922C497.972 25.9921 490.891 21.5032 488.299 15.4298L487.38 15.8223ZM506.454 26.9922V27.9922C507.585 27.9922 508.696 27.917 509.779 27.7747L509.648 26.7832L509.518 25.7917C508.52 25.9229 507.496 25.9922 506.454 25.9922V26.9922ZM509.648 26.7832H508.648V29.1982H509.648H510.648V26.7832H509.648ZM509.648 29.1982L509.321 28.2533C507.92 28.7383 506.519 29.8019 506.519 31.4023H507.519H508.519C508.519 31.1173 508.831 30.5393 509.975 30.1432L509.648 29.1982ZM507.519 31.4023L506.519 31.4025C506.52 33.003 507.921 34.0656 509.321 34.5504L509.648 33.6055L509.975 32.6605C508.831 32.2643 508.519 31.6869 508.519 31.4022L507.519 31.4023ZM509.648 33.6055H508.648V35.8711H509.648H510.648V33.6055H509.648ZM509.648 35.8711L509.321 34.9261C507.92 35.4111 506.52 36.4749 506.519 38.075L507.519 38.0752L508.519 38.0754C508.519 37.7901 508.832 37.212 509.975 36.8161L509.648 35.8711ZM507.519 38.0752H506.519C506.519 39.676 507.921 40.7385 509.321 41.2233L509.648 40.2783L509.975 39.3334C508.831 38.937 508.519 38.3597 508.519 38.0752H507.519ZM509.648 40.2783H508.648V42.5459H509.648H510.648V40.2783H509.648ZM509.648 42.5459L509.321 41.6009C507.92 42.0859 506.519 43.1496 506.519 44.75L507.519 44.75L508.519 44.75C508.519 44.4649 508.831 43.8869 509.975 43.4909L509.648 42.5459ZM507.519 44.75H506.519C506.519 46.3508 507.921 47.4133 509.321 47.8981L509.648 46.9531L509.975 46.0082C508.831 45.6118 508.519 45.0346 508.519 44.75H507.519ZM509.648 46.9531H508.648V49.2197H509.648H510.648V46.9531H509.648ZM509.648 49.2197L509.321 48.2748C507.92 48.7598 506.519 49.8234 506.519 51.4238L507.519 51.4238L508.519 51.4238C508.519 51.1387 508.831 50.5607 509.975 50.1647L509.648 49.2197ZM507.519 51.4238H506.519C506.519 53.0246 507.921 54.0871 509.321 54.5719L509.648 53.627L509.975 52.682C508.831 52.2857 508.519 51.7084 508.519 51.4238H507.519ZM509.648 53.627H508.648V55.8945H509.648H510.648V53.627H509.648ZM509.648 55.8945L509.321 54.9496C507.92 55.4346 506.519 56.4982 506.519 58.0986H507.519H508.519C508.519 57.8136 508.831 57.2356 509.975 56.8395L509.648 55.8945ZM507.519 58.0986L506.519 58.0987C506.519 59.6994 507.921 60.7619 509.321 61.2467L509.648 60.3018L509.975 59.3568C508.831 58.9605 508.519 58.3832 508.519 58.0985L507.519 58.0986ZM509.648 60.3018H508.648V62.5693H509.648H510.648V60.3018H509.648ZM509.648 62.5693L509.321 61.6244C507.92 62.1094 506.519 63.173 506.519 64.7734H507.519H508.519C508.519 64.4884 508.831 63.9104 509.975 63.5143L509.648 62.5693ZM507.519 64.7734L506.519 64.7737C506.52 66.3741 507.921 67.4367 509.321 67.9215L509.648 66.9766L509.975 66.0316C508.831 65.6354 508.519 65.058 508.519 64.7732L507.519 64.7734ZM509.648 66.9766H508.648V69.2422H509.648H510.648V66.9766H509.648ZM509.648 69.2422L509.321 68.2972C507.919 68.7824 506.519 69.8472 506.519 71.4473H507.519H508.519C508.519 71.1617 508.832 70.583 509.975 70.1872L509.648 69.2422ZM507.519 71.4473L506.519 71.4475C506.52 73.0478 507.921 74.1105 509.321 74.5953L509.648 73.6504L509.975 72.7054C508.831 72.3093 508.519 71.7318 508.519 71.447L507.519 71.4473ZM509.648 73.6504H508.648V75.917H509.648H510.648V73.6504H509.648ZM509.648 75.917L509.321 74.972C507.92 75.457 506.52 76.5209 506.519 78.1208L507.519 78.1211L508.519 78.1214C508.519 77.836 508.832 77.2579 509.975 76.862L509.648 75.917ZM507.519 78.1211H506.519C506.519 79.7215 507.92 80.7852 509.321 81.2702L509.648 80.3252L509.975 79.3802C508.831 78.9841 508.519 78.4061 508.519 78.1211H507.519ZM509.648 80.3252H508.648V82.5908H509.648H510.648V80.3252H509.648ZM509.648 82.5908L509.321 81.6459C507.92 82.1308 506.519 83.1945 506.519 84.7949H507.519H508.519C508.519 84.5098 508.831 83.9319 509.975 83.5358L509.648 82.5908ZM507.519 84.7949L506.519 84.795C506.519 86.3957 507.921 87.4582 509.321 87.943L509.648 86.998L509.975 86.0531C508.831 85.6568 508.519 85.0795 508.519 84.7949L507.519 84.7949ZM509.648 86.998H508.648V89.2656H509.648H510.648V86.998H509.648ZM509.648 89.2656L509.321 88.3207C507.92 88.8056 506.519 89.8693 506.519 91.4697H507.519H508.519C508.519 91.1847 508.831 90.6067 509.975 90.2106L509.648 89.2656ZM507.519 91.4697L506.519 91.4699C506.52 93.0704 507.921 94.133 509.321 94.6178L509.648 93.6729L509.975 92.7279C508.831 92.3317 508.519 91.7543 508.519 91.4696L507.519 91.4697ZM509.648 93.6729H508.648V95.9014H509.648H510.648V93.6729H509.648ZM509.648 95.9014L509.605 94.9023C500.123 95.3094 492.132 100.951 490.024 108.647L490.988 108.911L491.953 109.175C493.781 102.501 500.872 97.2791 509.691 96.9004L509.648 95.9014ZM490.988 108.911V107.911H34.3523V108.911V109.911H490.988V108.911ZM34.3523 108.911L35.3168 108.647C33.3745 101.557 26.4335 96.21 17.9523 95.0954L17.822 96.0869L17.6917 97.0784C25.559 98.1123 31.7034 103.027 33.3878 109.175L34.3523 108.911ZM17.822 96.0869H18.822V93.6729H17.822H16.822V96.0869H17.822ZM17.822 93.6729L18.1493 94.6178C19.5491 94.133 20.9507 93.0703 20.9509 91.4699L19.9509 91.4697L18.9509 91.4696C18.9509 91.7542 18.639 92.3316 17.4948 92.7279L17.822 93.6729ZM19.9509 91.4697H20.9509C20.9509 89.8693 19.5497 88.8057 18.1493 88.3207L17.822 89.2656L17.4948 90.2106C18.6387 90.6067 18.9509 91.1848 18.9509 91.4697H19.9509ZM17.822 89.2656H18.822V86.998H17.822H16.822V89.2656H17.822ZM17.822 86.998L18.1493 87.943C19.549 87.4582 20.9509 86.3957 20.9509 84.795L19.9509 84.7949L18.9509 84.7949C18.9509 85.0794 18.6392 85.6568 17.4948 86.0531L17.822 86.998ZM19.9509 84.7949H20.9509C20.9509 83.1945 19.5498 82.1309 18.1492 81.6459L17.822 82.5908L17.4948 83.5358C18.6387 83.9319 18.9509 84.51 18.9509 84.7949H19.9509ZM17.822 82.5908H18.822V80.3252H17.822H16.822V82.5908H17.822ZM17.822 80.3252L18.1493 81.2701C19.5497 80.7851 20.9509 79.7215 20.9509 78.1211H19.9509H18.9509C18.9509 78.406 18.6387 78.9841 17.4948 79.3803L17.822 80.3252ZM19.9509 78.1211L20.9509 78.1208C20.9505 76.5209 19.55 75.4571 18.1492 74.972L17.822 75.917L17.4948 76.8619C18.6383 77.2579 18.9509 77.8362 18.9509 78.1214L19.9509 78.1211ZM17.822 75.917H18.822V73.6504H17.822H16.822V75.917H17.822ZM17.822 73.6504L18.1493 74.5953C19.5491 74.1105 20.9505 73.0478 20.9509 71.4475L19.9509 71.4473L18.9509 71.447C18.9509 71.7317 18.6388 72.3092 17.4948 72.7055L17.822 73.6504ZM19.9509 71.4473H20.9509C20.9509 69.8472 19.5505 68.7824 18.1492 68.2972L17.822 69.2422L17.4948 70.1871C18.6382 70.583 18.9509 71.1618 18.9509 71.4473H19.9509ZM17.822 69.2422H18.822V66.9766H17.822H16.822V69.2422H17.822ZM17.822 66.9766L18.1493 67.9215C19.5491 67.4367 20.9506 66.374 20.9509 64.7737L19.9509 64.7734L18.9509 64.7732C18.9509 65.0579 18.6389 65.6354 17.4948 66.0316L17.822 66.9766ZM19.9509 64.7734H20.9509C20.9509 63.173 19.5497 62.1094 18.1493 61.6244L17.822 62.5693L17.4948 63.5143C18.6387 63.9104 18.9509 64.4885 18.9509 64.7734H19.9509ZM17.822 62.5693H18.822V60.3018H17.822H16.822V62.5693H17.822ZM17.822 60.3018L18.1493 61.2467C19.549 60.7619 20.9508 59.6993 20.9509 58.0987L19.9509 58.0986L18.9509 58.0985C18.9509 58.3831 18.6391 58.9605 17.4948 59.3568L17.822 60.3018ZM19.9509 58.0986H20.9509C20.9509 56.4982 19.5498 55.4346 18.1492 54.9496L17.822 55.8945L17.4948 56.8395C18.6387 57.2356 18.9509 57.8137 18.9509 58.0986H19.9509ZM17.822 55.8945H18.822V53.627H17.822H16.822V55.8945H17.822ZM17.822 53.627L18.1493 54.5719C19.549 54.0871 20.9509 53.0246 20.9509 51.4238H19.9509H18.9509C18.9509 51.7083 18.6392 52.2856 17.4947 52.682L17.822 53.627ZM19.9509 51.4238L20.9509 51.4238C20.9509 49.8234 19.5498 48.7598 18.1492 48.2748L17.822 49.2197L17.4948 50.1647C18.6387 50.5608 18.9509 51.1389 18.9509 51.4238L19.9509 51.4238ZM17.822 49.2197H18.822V46.9531H17.822H16.822V49.2197H17.822ZM17.822 46.9531L18.1493 47.8981C19.549 47.4133 20.9509 46.3508 20.9509 44.75H19.9509H18.9509C18.9509 45.0344 18.6392 45.6118 17.4947 46.0082L17.822 46.9531ZM19.9509 44.75L20.9509 44.75C20.9508 43.1496 19.5498 42.0859 18.1492 41.6009L17.822 42.5459L17.4948 43.4908C18.6387 43.8869 18.9509 44.465 18.9509 44.75L19.9509 44.75ZM17.822 42.5459H18.822V40.2783H17.822H16.822V42.5459H17.822ZM17.822 40.2783L18.1493 41.2232C19.5489 40.7385 20.9509 39.676 20.9509 38.0752H19.9509H18.9509C18.9509 38.3596 18.6392 38.937 17.4947 39.3334L17.822 40.2783ZM19.9509 38.0752L20.9509 38.075C20.9507 36.4749 19.5499 35.4111 18.1492 34.9261L17.822 35.8711L17.4948 36.816C18.6385 37.2121 18.9509 37.7903 18.9509 38.0754L19.9509 38.0752ZM17.822 35.8711H18.822V33.6055H17.822H16.822V35.8711H17.822ZM17.822 33.6055L18.1493 34.5504C19.549 34.0656 20.9507 33.003 20.9509 31.4025L19.9509 31.4023L18.9509 31.4022C18.9509 31.6868 18.639 32.2642 17.4948 32.6605L17.822 33.6055ZM19.9509 31.4023H20.9509C20.9509 29.802 19.5497 28.7383 18.1493 28.2533L17.822 29.1982L17.4948 30.1432C18.6387 30.5393 18.9509 31.1174 18.9509 31.4023H19.9509ZM17.822 29.1982H18.822V26.9688H17.822H16.822V29.1982H17.822ZM17.822 26.9688L17.7791 27.9678C18.1446 27.9835 18.514 27.9922 18.8865 27.9922V26.9922V25.9922C18.545 25.9922 18.2043 25.9842 17.8649 25.9697L17.822 26.9688ZM18.8865 26.9922L18.8865 27.9922C28.0167 27.9921 35.9172 23.156 38.8795 16.2148L37.9597 15.8223L37.04 15.4297C34.4481 21.503 27.3684 25.9921 18.8865 25.9922L18.8865 26.9922ZM37.9597 15.8223V16.8223H487.38V15.8223V14.8223H37.9597V15.8223Z" fill="white" mask="url(#path-2-inside-1_516_706)"/>
<path d="M208.342 58V37.6364H212.647V46.0384H221.388V37.6364H225.683V58H221.388V49.5881H212.647V58H208.342ZM236.054 58.2983C234.509 58.2983 233.174 57.9702 232.047 57.3139C230.926 56.651 230.061 55.7296 229.451 54.5497C228.842 53.3632 228.537 51.9877 228.537 50.4233C228.537 48.8456 228.842 47.4669 229.451 46.2869C230.061 45.1004 230.926 44.179 232.047 43.5227C233.174 42.8598 234.509 42.5284 236.054 42.5284C237.598 42.5284 238.931 42.8598 240.051 43.5227C241.178 44.179 242.046 45.1004 242.656 46.2869C243.266 47.4669 243.571 48.8456 243.571 50.4233C243.571 51.9877 243.266 53.3632 242.656 54.5497C242.046 55.7296 241.178 56.651 240.051 57.3139C238.931 57.9702 237.598 58.2983 236.054 58.2983ZM236.074 55.017C236.776 55.017 237.363 54.8182 237.834 54.4205C238.304 54.0161 238.659 53.4659 238.897 52.7699C239.143 52.0739 239.265 51.2817 239.265 50.3935C239.265 49.5052 239.143 48.7131 238.897 48.017C238.659 47.321 238.304 46.7708 237.834 46.3665C237.363 45.9621 236.776 45.7599 236.074 45.7599C235.364 45.7599 234.768 45.9621 234.284 46.3665C233.807 46.7708 233.445 47.321 233.2 48.017C232.961 48.7131 232.842 49.5052 232.842 50.3935C232.842 51.2817 232.961 52.0739 233.2 52.7699C233.445 53.4659 233.807 54.0161 234.284 54.4205C234.768 54.8182 235.364 55.017 236.074 55.017ZM246.325 58V42.7273H250.432V45.392H250.591C250.869 44.4441 251.336 43.7282 251.993 43.2443C252.649 42.7538 253.405 42.5085 254.26 42.5085C254.472 42.5085 254.701 42.5218 254.946 42.5483C255.191 42.5748 255.406 42.6113 255.592 42.6577V46.4162C255.393 46.3565 255.118 46.3035 254.767 46.2571C254.415 46.2107 254.094 46.1875 253.802 46.1875C253.179 46.1875 252.622 46.3234 252.132 46.5952C251.648 46.8603 251.263 47.2315 250.978 47.7088C250.7 48.1861 250.561 48.7363 250.561 49.3594V58H246.325ZM257.782 58V42.7273H261.889V45.392H262.048C262.326 44.4441 262.793 43.7282 263.45 43.2443C264.106 42.7538 264.862 42.5085 265.717 42.5085C265.929 42.5085 266.158 42.5218 266.403 42.5483C266.648 42.5748 266.864 42.6113 267.049 42.6577V46.4162C266.85 46.3565 266.575 46.3035 266.224 46.2571C265.872 46.2107 265.551 46.1875 265.259 46.1875C264.636 46.1875 264.079 46.3234 263.589 46.5952C263.105 46.8603 262.721 47.2315 262.435 47.7088C262.157 48.1861 262.018 48.7363 262.018 49.3594V58H257.782ZM275.429 58.2983C273.884 58.2983 272.549 57.9702 271.422 57.3139C270.301 56.651 269.436 55.7296 268.826 54.5497C268.217 53.3632 267.912 51.9877 267.912 50.4233C267.912 48.8456 268.217 47.4669 268.826 46.2869C269.436 45.1004 270.301 44.179 271.422 43.5227C272.549 42.8598 273.884 42.5284 275.429 42.5284C276.973 42.5284 278.306 42.8598 279.426 43.5227C280.553 44.179 281.421 45.1004 282.031 46.2869C282.641 47.4669 282.946 48.8456 282.946 50.4233C282.946 51.9877 282.641 53.3632 282.031 54.5497C281.421 55.7296 280.553 56.651 279.426 57.3139C278.306 57.9702 276.973 58.2983 275.429 58.2983ZM275.449 55.017C276.151 55.017 276.738 54.8182 277.209 54.4205C277.679 54.0161 278.034 53.4659 278.272 52.7699C278.518 52.0739 278.64 51.2817 278.64 50.3935C278.64 49.5052 278.518 48.7131 278.272 48.017C278.034 47.321 277.679 46.7708 277.209 46.3665C276.738 45.9621 276.151 45.7599 275.449 45.7599C274.739 45.7599 274.143 45.9621 273.659 46.3665C273.182 46.7708 272.82 47.321 272.575 48.017C272.336 48.7131 272.217 49.5052 272.217 50.3935C272.217 51.2817 272.336 52.0739 272.575 52.7699C272.82 53.4659 273.182 54.0161 273.659 54.4205C274.143 54.8182 274.739 55.017 275.449 55.017ZM285.7 58V42.7273H289.807V45.392H289.966C290.244 44.4441 290.711 43.7282 291.368 43.2443C292.024 42.7538 292.78 42.5085 293.635 42.5085C293.847 42.5085 294.076 42.5218 294.321 42.5483C294.566 42.5748 294.781 42.6113 294.967 42.6577V46.4162C294.768 46.3565 294.493 46.3035 294.142 46.2571C293.79 46.2107 293.469 46.1875 293.177 46.1875C292.554 46.1875 291.997 46.3234 291.507 46.5952C291.023 46.8603 290.638 47.2315 290.353 47.7088C290.075 48.1861 289.936 48.7363 289.936 49.3594V58H285.7ZM297.157 58V42.7273H301.393V58H297.157ZM299.285 40.7585C298.655 40.7585 298.115 40.5497 297.664 40.1321C297.22 39.7079 296.998 39.2008 296.998 38.6108C296.998 38.0275 297.22 37.527 297.664 37.1094C298.115 36.6851 298.655 36.473 299.285 36.473C299.915 36.473 300.452 36.6851 300.896 37.1094C301.346 37.527 301.572 38.0275 301.572 38.6108C301.572 39.2008 301.346 39.7079 300.896 40.1321C300.452 40.5497 299.915 40.7585 299.285 40.7585ZM309.022 49.1705V58H304.786V42.7273H308.823V45.4219H309.002C309.34 44.5336 309.907 43.831 310.702 43.3139C311.498 42.7902 312.462 42.5284 313.596 42.5284C314.656 42.5284 315.581 42.7604 316.37 43.2244C317.159 43.6884 317.772 44.3513 318.209 45.2131C318.647 46.0682 318.866 47.089 318.866 48.2756V58H314.63V49.0312C314.636 48.0966 314.398 47.3674 313.914 46.8438C313.43 46.3134 312.764 46.0483 311.915 46.0483C311.345 46.0483 310.841 46.1709 310.404 46.4162C309.973 46.6615 309.635 47.0194 309.39 47.4901C309.151 47.9541 309.028 48.5142 309.022 49.1705Z" fill="white"/>
<rect x="443.548" y="26.8496" width="38.5282" height="1.22962" fill="white"/>
<rect x="443.548" y="29.3096" width="38.5282" height="4.09875" fill="white"/>
<rect x="443.548" y="44.0645" width="38.5282" height="2.45925" fill="white"/>
<rect x="443.548" y="59.2305" width="38.5282" height="2.45925" fill="white"/>
<rect x="443.548" y="63.3291" width="38.5282" height="5.32837" fill="white"/>
<rect x="443.548" y="36.6875" width="38.5282" height="1.6395" fill="white"/>
<rect x="443.548" y="47.7539" width="38.5282" height="1.6395" fill="white"/>
<rect x="443.548" y="39.5566" width="38.5282" height="1.22962" fill="white"/>
<rect x="443.548" y="51.0332" width="38.5282" height="1.22962" fill="white"/>
<rect x="443.548" y="42.0146" width="38.5282" height="0.819749" fill="white"/>
<rect x="443.548" y="69.8867" width="38.5282" height="0.819749" fill="white"/>
<rect x="443.548" y="73.9863" width="38.5282" height="0.819749" fill="white"/>
<rect x="443.548" y="53.9014" width="38.5282" height="0.819749" fill="white"/>
<rect x="443.548" y="83.4121" width="38.5282" height="0.819749" fill="white"/>
<rect x="443.548" y="85.0518" width="38.5282" height="0.819749" fill="white"/>
<rect x="443.548" y="71.9355" width="38.5282" height="0.819749" fill="white"/>
<rect x="443.548" y="77.2637" width="38.5282" height="0.819749" fill="white"/>
<rect x="443.548" y="78.9043" width="38.5282" height="2.86912" fill="white"/>
<rect x="443.483" y="90.6416" width="38.384" height="1.35473" fill="white"/>
<rect x="443.548" y="56.7705" width="38.5282" height="0.819749" fill="white"/>
<rect x="443.548" y="92.8389" width="38.5282" height="2.86912" fill="white"/>
<path d="M224.822 89.853L219.74 92.9219C219.591 92.9957 219.452 93.0255 219.324 93.0115C219.198 92.9966 219.074 92.9527 218.953 92.8799C218.832 92.8053 218.741 92.6998 218.679 92.5635C218.617 92.4273 218.612 92.2784 218.662 92.1169L220.015 86.3627L215.542 82.4846C215.416 82.3819 215.332 82.2592 215.292 82.1164C215.252 81.9736 215.261 81.8368 215.319 81.7062C215.377 81.5755 215.454 81.4682 215.55 81.3842C215.647 81.303 215.778 81.2479 215.942 81.2189L221.845 80.7037L224.146 75.2548C224.21 75.1007 224.301 74.9897 224.421 74.9215C224.54 74.8534 224.674 74.8193 224.822 74.8193C224.971 74.8193 225.105 74.8534 225.226 74.9215C225.346 74.9897 225.437 75.1007 225.499 75.2548L227.8 80.7037L233.702 81.2189C233.867 81.247 233.998 81.3025 234.095 81.3856C234.192 81.4677 234.27 81.5746 234.327 81.7062C234.384 81.8368 234.393 81.9736 234.353 82.1164C234.312 82.2592 234.229 82.3819 234.103 82.4846L229.63 86.3627L230.983 92.1169C231.035 92.2765 231.03 92.4249 230.967 92.5621C230.905 92.6993 230.813 92.8048 230.691 92.8785C230.572 92.9532 230.448 92.9975 230.32 93.0115C230.194 93.0255 230.055 92.9957 229.906 92.9219L224.822 89.853Z" fill="white"/>
<path d="M264.455 89.853L259.372 92.9219C259.223 92.9957 259.084 93.0255 258.957 93.0115C258.83 92.9966 258.706 92.9527 258.586 92.8799C258.464 92.8053 258.373 92.6998 258.311 92.5635C258.25 92.4273 258.244 92.2784 258.294 92.1169L259.647 86.3627L255.174 82.4846C255.048 82.3819 254.965 82.2592 254.924 82.1164C254.884 81.9736 254.893 81.8368 254.951 81.7062C255.009 81.5755 255.086 81.4682 255.182 81.3842C255.279 81.303 255.41 81.2479 255.574 81.2189L261.477 80.7037L263.778 75.2548C263.842 75.1007 263.933 74.9897 264.053 74.9215C264.172 74.8534 264.306 74.8193 264.455 74.8193C264.603 74.8193 264.737 74.8534 264.858 74.9215C264.978 74.9897 265.069 75.1007 265.131 75.2548L267.432 80.7037L273.334 81.2189C273.499 81.247 273.63 81.3025 273.727 81.3856C273.824 81.4677 273.902 81.5746 273.959 81.7062C274.016 81.8368 274.025 81.9736 273.985 82.1164C273.945 82.2592 273.861 82.3819 273.735 82.4846L269.262 86.3627L270.615 92.1169C270.667 92.2765 270.662 92.4249 270.599 92.5621C270.537 92.6993 270.445 92.8048 270.324 92.8785C270.204 92.9532 270.08 92.9975 269.953 93.0115C269.826 93.0255 269.687 92.9957 269.538 92.9219L264.455 89.853Z" fill="white"/>
<path d="M304.087 89.853L299.004 92.9219C298.855 92.9957 298.717 93.0255 298.589 93.0115C298.462 92.9966 298.338 92.9527 298.218 92.8799C298.096 92.8053 298.005 92.6998 297.943 92.5635C297.882 92.4273 297.876 92.2784 297.926 92.1169L299.279 86.3627L294.806 82.4846C294.68 82.3819 294.597 82.2592 294.557 82.1164C294.516 81.9736 294.525 81.8368 294.583 81.7062C294.641 81.5755 294.718 81.4682 294.814 81.3842C294.911 81.303 295.042 81.2479 295.206 81.2189L301.109 80.7037L303.41 75.2548C303.474 75.1007 303.565 74.9897 303.685 74.9215C303.804 74.8534 303.938 74.8193 304.087 74.8193C304.235 74.8193 304.369 74.8534 304.49 74.9215C304.61 74.9897 304.701 75.1007 304.763 75.2548L307.065 80.7037L312.966 81.2189C313.131 81.247 313.262 81.3025 313.359 81.3856C313.456 81.4677 313.534 81.5746 313.592 81.7062C313.648 81.8368 313.657 81.9736 313.617 82.1164C313.577 82.2592 313.494 82.3819 313.368 82.4846L308.894 86.3627L310.247 92.1169C310.299 92.2765 310.294 92.4249 310.231 92.5621C310.169 92.6993 310.077 92.8048 309.956 92.8785C309.836 92.9532 309.712 92.9975 309.585 93.0115C309.458 93.0255 309.32 92.9957 309.17 92.9219L304.087 89.853Z" fill="white"/>
<path d="M343.073 89.9943L338.056 93.0238C337.908 93.0966 337.771 93.1261 337.645 93.1123C337.52 93.0975 337.398 93.0542 337.279 92.9824C337.159 92.9087 337.069 92.8045 337.008 92.67C336.947 92.5355 336.942 92.3885 336.991 92.2291L338.326 86.5487L333.911 82.7203C333.786 82.6189 333.704 82.4978 333.665 82.3568C333.625 82.2158 333.634 82.0809 333.691 81.9519C333.748 81.8229 333.824 81.7169 333.919 81.634C334.015 81.5538 334.144 81.4995 334.306 81.4709L340.133 80.9623L342.405 75.5832C342.468 75.4311 342.558 75.3215 342.676 75.2542C342.794 75.187 342.926 75.1533 343.073 75.1533C343.219 75.1533 343.352 75.187 343.471 75.2542C343.589 75.3215 343.679 75.4311 343.74 75.5832L346.012 80.9623L351.838 81.4709C352.001 81.4985 352.13 81.5534 352.226 81.6354C352.322 81.7164 352.398 81.8219 352.456 81.9519C352.512 82.0809 352.52 82.2158 352.48 82.3568C352.441 82.4978 352.359 82.6189 352.234 82.7203L347.819 86.5487L349.154 92.2291C349.205 92.3867 349.2 92.5332 349.139 92.6686C349.077 92.8041 348.986 92.9082 348.866 92.981C348.748 93.0547 348.626 93.0985 348.5 93.1123C348.375 93.1261 348.238 93.0966 348.091 93.0238L343.073 89.9943Z" fill="white"/>
<path d="M185.837 89.5636L180.82 92.5932C180.672 92.666 180.535 92.6954 180.409 92.6816C180.284 92.6669 180.162 92.6236 180.043 92.5517C179.923 92.478 179.833 92.3739 179.772 92.2394C179.711 92.1048 179.706 91.9579 179.755 91.7985L181.09 86.118L176.675 82.2896C176.55 82.1883 176.468 82.0671 176.429 81.9261C176.389 81.7852 176.398 81.6502 176.455 81.5212C176.512 81.3922 176.588 81.2862 176.683 81.2033C176.779 81.1231 176.908 81.0688 177.07 81.0402L182.897 80.5316L185.169 75.1525C185.232 75.0005 185.322 74.8908 185.44 74.8235C185.558 74.7563 185.69 74.7227 185.837 74.7227C185.983 74.7227 186.116 74.7563 186.235 74.8235C186.353 74.8908 186.443 75.0005 186.504 75.1525L188.776 80.5316L194.602 81.0402C194.765 81.0679 194.894 81.1227 194.99 81.2047C195.086 81.2858 195.163 81.3913 195.22 81.5212C195.276 81.6502 195.284 81.7852 195.245 81.9261C195.205 82.0671 195.123 82.1883 194.998 82.2896L190.583 86.118L191.918 91.7985C191.969 91.956 191.964 92.1025 191.903 92.238C191.841 92.3734 191.75 92.4775 191.63 92.5503C191.512 92.624 191.39 92.6678 191.264 92.6816C191.139 92.6954 191.002 92.666 190.855 92.5932L185.837 89.5636Z" fill="white"/>
<path d="M431.353 16.9248V107.35" stroke="white"/>
<path d="M425.839 18.0273V108.453" stroke="white"/>
<path d="M72.9594 18.0273V108.453" stroke="white"/>
<path d="M56.6465 47.8794H43.5555V46.3454L53.834 39.2118V39.084H43.5555V37.4988H56.6465V39.0329L46.3425 46.1919V46.3198H56.6465V47.8794ZM43.351 54.8356C43.351 53.9492 43.5619 53.1715 43.9838 52.5025C44.4057 51.8377 44.9959 51.3178 45.7544 50.9428C46.5129 50.5721 47.3993 50.3867 48.4135 50.3867C49.4362 50.3867 50.329 50.5721 51.0918 50.9428C51.8545 51.3178 52.4469 51.8377 52.8688 52.5025C53.2906 53.1715 53.5016 53.9492 53.5016 54.8356C53.5016 55.722 53.2906 56.4975 52.8688 57.1623C52.4469 57.8313 51.8545 58.3512 51.0918 58.722C50.329 59.097 49.4362 59.2845 48.4135 59.2845C47.3993 59.2845 46.5129 59.097 45.7544 58.722C44.9959 58.3512 44.4057 57.8313 43.9838 57.1623C43.5619 56.4975 43.351 55.722 43.351 54.8356ZM44.7061 54.8356C44.7061 55.5089 44.8787 56.0629 45.2239 56.4975C45.569 56.9322 46.0229 57.2539 46.5854 57.4627C47.1479 57.6715 47.7572 57.7759 48.4135 57.7759C49.0697 57.7759 49.6813 57.6715 50.248 57.4627C50.8148 57.2539 51.2729 56.9322 51.6223 56.4975C51.9717 56.0629 52.1465 55.5089 52.1465 54.8356C52.1465 54.1623 51.9717 53.6083 51.6223 53.1737C51.2729 52.739 50.8148 52.4173 50.248 52.2085C49.6813 51.9997 49.0697 51.8952 48.4135 51.8952C47.7572 51.8952 47.1479 51.9997 46.5854 52.2085C46.0229 52.4173 45.569 52.739 45.2239 53.1737C44.8787 53.6083 44.7061 54.1623 44.7061 54.8356ZM43.4533 62.6866C43.4533 62.3713 43.5662 62.1007 43.792 61.8748C44.0179 61.649 44.2885 61.5361 44.6038 61.5361C44.9192 61.5361 45.1898 61.649 45.4156 61.8748C45.6415 62.1007 45.7544 62.3713 45.7544 62.6866C45.7544 63.002 45.6415 63.2726 45.4156 63.4984C45.1898 63.7243 44.9192 63.8372 44.6038 63.8372C44.395 63.8372 44.2033 63.7839 44.0286 63.6774C43.8538 63.5751 43.7132 63.4366 43.6067 63.2619C43.5044 63.0915 43.4533 62.8997 43.4533 62.6866ZM43.3766 70.3315C43.3766 69.3684 43.6386 68.5481 44.1628 67.8706C44.6912 67.193 45.4561 66.6753 46.4575 66.3173C47.4632 65.9593 48.6777 65.7804 50.101 65.7804C51.5158 65.7804 52.7239 65.9593 53.7253 66.3173C54.731 66.6795 55.498 67.1994 56.0264 67.877C56.5591 68.5588 56.8254 69.377 56.8254 70.3315C56.8254 71.2861 56.5591 72.1021 56.0264 72.7797C55.498 73.4615 54.731 73.9814 53.7253 74.3393C52.7239 74.7015 51.5158 74.8826 50.101 74.8826C48.6777 74.8826 47.4632 74.7037 46.4575 74.3457C45.4561 73.9878 44.6912 73.47 44.1628 72.7924C43.6386 72.1149 43.3766 71.2946 43.3766 70.3315ZM44.7828 70.3315C44.7828 71.2861 45.243 72.0275 46.1635 72.5559C47.084 73.0843 48.3965 73.3486 50.101 73.3486C51.2345 73.3486 52.1997 73.2271 52.9966 72.9842C53.7935 72.7456 54.4007 72.4004 54.8183 71.9487C55.2359 71.5013 55.4447 70.9622 55.4447 70.3315C55.4447 69.3855 54.9781 68.6461 54.0449 68.1135C53.1159 67.5808 51.8013 67.3145 50.101 67.3145C48.9675 67.3145 48.0044 67.4338 47.2118 67.6724C46.4192 67.9111 45.8162 68.2541 45.4028 68.7015C44.9895 69.1532 44.7828 69.6966 44.7828 70.3315ZM46.2402 77.0048H47.5442L56.6465 82.7576V83.7037H54.6266V83.0645L47.7487 78.7179H47.6465V86.465H46.2402V77.0048ZM43.5555 83.1667H46.6365H47.2438H56.6465V84.6753H43.5555L43.5555 83.1667Z" fill="white"/>
<defs>
<filter id="filter0_d_516_706" x="0" y="0" width="527.47" height="128.274" filterUnits="userSpaceOnUse" color-interpolation-filters="sRGB">
<feFlood flood-opacity="0" result="BackgroundImageFix"/>
<feColorMatrix in="SourceAlpha" type="matrix" values="0 0 0 0 0 0 0 0 0 0 0 0 0 0 0 0 0 0 127 0" result="hardAlpha"/>
<feOffset dy="2"/>
<feGaussianBlur stdDeviation="4.5"/>
<feComposite in2="hardAlpha" operator="out"/>
<feColorMatrix type="matrix" values="0 0 0 0 0 0 0 0 0 0 0 0 0 0 0 0 0 0 0.25 0"/>
<feBlend mode="normal" in2="BackgroundImageFix" result="effect1_dropShadow_516_706"/>
<feBlend mode="normal" in="SourceGraphic" in2="effect1_dropShadow_516_706" result="shape"/>
</filter>
<linearGradient id="paint0_linear_516_706" x1="9" y1="62.1372" x2="518.47" y2="62.1372" gradientUnits="userSpaceOnUse">
<stop stop-color="#171C3B"/>
<stop offset="0.389423" stop-color="#272940"/>
<stop offset="0.759615" stop-color="#404F6E"/>
<stop offset="1" stop-color="#8198B7"/>
</linearGradient>
</defs>
</svg>
