<svg width="528" height="129" viewBox="0 0 528 129" fill="none" xmlns="http://www.w3.org/2000/svg">
<g filter="url(#filter0_d_516_803)">
<path d="M495.403 7C498.28 14.7091 506.04 20.2324 515.162 20.2324C516.288 20.2324 517.392 20.1473 518.47 19.9854V22.8428C517.152 23.3645 516.265 24.3393 516.265 25.4561C516.265 26.5729 517.152 27.5475 518.47 28.0693V30.749C517.152 31.2708 516.265 32.2447 516.265 33.3613C516.265 34.4781 517.152 35.4518 518.47 35.9736V38.6553C517.152 39.1771 516.265 40.1517 516.265 41.2686C516.265 42.3853 517.152 43.359 518.47 43.8809V46.5625C517.152 47.0844 516.265 48.059 516.265 49.1758C516.265 50.2923 517.152 51.2653 518.47 51.7871V54.4688C517.152 54.9906 516.265 55.9652 516.265 57.082C516.265 58.1986 517.152 59.1715 518.47 59.6934V62.374C517.152 62.8959 516.265 63.8704 516.265 64.9873C516.265 66.1041 517.152 67.0778 518.47 67.5996V70.2803C517.152 70.8021 516.265 71.7767 516.265 72.8936C516.265 74.0103 517.152 74.984 518.47 75.5059V78.1875C517.152 78.7094 516.265 79.6839 516.265 80.8008C516.265 81.9175 517.152 82.8913 518.47 83.4131V86.0938C517.152 86.6155 516.265 87.5902 516.265 88.707C516.265 89.8238 517.152 90.7975 518.47 91.3193V94C517.152 94.5219 516.265 95.4965 516.265 96.6133C516.265 97.7298 517.152 98.7028 518.47 99.2246V101.863C508.991 102.329 501.18 108.763 499.141 117.274H26.124C24.2456 109.433 17.4676 103.355 9 102.083V99.2256C10.3179 98.7038 11.2048 97.7299 11.2051 96.6133C11.2051 95.4963 10.3183 94.5208 9 93.999V91.3193C10.318 90.7975 11.2051 89.8238 11.2051 88.707C11.205 87.5902 10.3182 86.6155 9 86.0938V83.4131C10.318 82.8913 11.2049 81.9175 11.2051 80.8008C11.2051 79.6838 10.3183 78.7083 9 78.1865V75.5059C10.318 74.984 11.2051 74.0103 11.2051 72.8936C11.205 71.7767 10.3182 70.8021 9 70.2803V67.5996C10.318 67.0778 11.205 66.1041 11.2051 64.9873C11.2051 63.8704 10.3182 62.8959 9 62.374V59.6943C10.318 59.1725 11.2049 58.1987 11.2051 57.082C11.2051 55.9651 10.3183 54.9896 9 54.4678V51.7881C10.3179 51.2663 11.2048 50.2924 11.2051 49.1758C11.2051 48.0588 10.3183 47.0833 9 46.5615V43.8809C10.318 43.359 11.205 42.3853 11.2051 41.2686C11.2051 40.1517 10.3182 39.1771 9 38.6553V35.9746C10.3181 35.4528 11.2051 34.4782 11.2051 33.3613C11.2049 32.2446 10.3181 31.2698 9 30.748V28.0693C10.3182 27.5475 11.2051 26.5729 11.2051 25.4561C11.2049 24.3392 10.3182 23.3645 9 22.8428V20.2051C9.36513 20.223 9.7327 20.2324 10.1025 20.2324C19.225 20.2324 26.9848 14.7091 29.8613 7H495.403Z" fill="url(#paint0_linear_516_803)"/>
</g>
<mask id="path-2-inside-1_516_803" fill="white">
<path d="M487.38 15.8223C490.157 22.3298 497.648 26.9921 506.454 26.9922C507.541 26.9922 508.608 26.92 509.648 26.7832V29.1982C508.376 29.6388 507.519 30.4596 507.519 31.4023C507.519 32.345 508.376 33.1649 509.648 33.6055V35.8721C508.376 36.3126 507.519 37.1334 507.519 38.0762C507.52 39.0187 508.376 39.8388 509.648 40.2793V42.5459C508.376 42.9863 507.52 43.8074 507.519 44.75C507.519 45.6927 508.376 46.5136 509.648 46.9541V49.2197C508.376 49.6602 507.52 50.4812 507.519 51.4238C507.519 52.3665 508.376 53.1864 509.648 53.627V55.8945C508.376 56.335 507.519 57.1559 507.519 58.0986C507.519 59.0413 508.376 59.8612 509.648 60.3018V62.5693C508.376 63.0099 507.519 63.8307 507.519 64.7734C507.519 65.7161 508.376 66.536 509.648 66.9766V69.2432C508.376 69.6837 507.519 70.5045 507.519 71.4473C507.519 72.3899 508.376 73.2098 509.648 73.6504V75.918C508.376 76.3585 507.519 77.1793 507.519 78.1221C507.519 79.0647 508.376 79.8847 509.648 80.3252V82.5908C508.376 83.0313 507.519 83.8522 507.519 84.7949C507.519 85.7376 508.376 86.5575 509.648 86.998V89.2656C508.376 89.7061 507.519 90.527 507.519 91.4697C507.519 92.4124 508.376 93.2323 509.648 93.6729V95.9014C500.497 96.2942 492.956 101.726 490.988 108.911H34.3523C32.5389 102.292 25.9962 97.1611 17.822 96.0869V93.6729C19.0941 93.2323 19.9509 92.4123 19.9509 91.4697C19.9509 90.5271 19.0942 89.7062 17.822 89.2656V86.998C19.0941 86.5575 19.9509 85.7375 19.9509 84.7949C19.9508 83.8523 19.0942 83.0313 17.822 82.5908V80.3252C19.094 79.8847 19.9508 79.0646 19.9509 78.1221C19.9509 77.1794 19.0942 76.3585 17.822 75.918V73.6504C19.0941 73.2098 19.9509 72.3899 19.9509 71.4473C19.9509 70.5046 19.0943 69.6837 17.822 69.2432V66.9766C19.0941 66.536 19.9509 65.716 19.9509 64.7734C19.9509 63.8308 19.0943 63.0099 17.822 62.5693V60.3018C19.0941 59.8612 19.9509 59.0412 19.9509 58.0986C19.9508 57.156 19.0942 56.3351 17.822 55.8945V53.627C19.094 53.1864 19.9509 52.3664 19.9509 51.4238C19.9507 50.4813 19.0942 49.6602 17.822 49.2197V46.9541C19.0942 46.5135 19.9509 45.6927 19.9509 44.75C19.9507 43.8075 19.0941 42.9864 17.822 42.5459V40.2793C19.094 39.8388 19.9507 39.0187 19.9509 38.0762C19.9509 37.1335 19.0942 36.3126 17.822 35.8721V33.6055C19.0941 33.1649 19.9509 32.3449 19.9509 31.4023C19.9509 30.4597 19.0942 29.6388 17.822 29.1982V26.9688C18.1744 26.9839 18.5295 26.9922 18.8865 26.9922C27.6926 26.9921 35.1827 22.3296 37.9597 15.8223H487.38Z"/>
</mask>
<path d="M487.38 15.8223L488.299 15.4298L488.04 14.8223H487.38V15.8223ZM506.454 26.9922V27.9922V26.9922ZM509.648 26.7832H510.648V25.6432L509.518 25.7917L509.648 26.7832ZM509.648 29.1982L509.975 30.1432L510.648 29.9103V29.1982H509.648ZM507.519 31.4023L506.519 31.4023V31.4023H507.519ZM509.648 33.6055H510.648V32.8935L509.975 32.6605L509.648 33.6055ZM509.648 35.8721L509.975 36.817L510.648 36.5841V35.8721H509.648ZM507.519 38.0762H506.519V38.0764L507.519 38.0762ZM509.648 40.2793H510.648V39.5673L509.975 39.3343L509.648 40.2793ZM509.648 42.5459L509.975 43.4909L510.648 43.2579V42.5459H509.648ZM507.519 44.75L506.519 44.7497V44.75H507.519ZM509.648 46.9541H510.648V46.2421L509.975 46.0091L509.648 46.9541ZM509.648 49.2197L509.975 50.1647L510.648 49.9318V49.2197H509.648ZM507.519 51.4238L506.519 51.4236V51.4238H507.519ZM509.648 53.627H510.648V52.915L509.975 52.682L509.648 53.627ZM509.648 55.8945L509.975 56.8395L510.648 56.6066V55.8945H509.648ZM507.519 58.0986L506.519 58.0985V58.0986H507.519ZM509.648 60.3018H510.648V59.5898L509.975 59.3568L509.648 60.3018ZM509.648 62.5693L509.975 63.5143L510.648 63.2814V62.5693H509.648ZM507.519 64.7734L506.519 64.7734V64.7734H507.519ZM509.648 66.9766H510.648V66.2646L509.975 66.0316L509.648 66.9766ZM509.648 69.2432L509.975 70.1881L510.648 69.9552V69.2432H509.648ZM507.519 71.4473H506.519V71.4473L507.519 71.4473ZM509.648 73.6504H510.648V72.9384L509.975 72.7054L509.648 73.6504ZM509.648 75.918L509.975 76.8629L510.648 76.63V75.918H509.648ZM507.519 78.1221H506.519V78.1222L507.519 78.1221ZM509.648 80.3252H510.648V79.6132L509.975 79.3802L509.648 80.3252ZM509.648 82.5908L509.975 83.5358L510.648 83.3029V82.5908H509.648ZM507.519 84.7949L506.519 84.7947V84.7949H507.519ZM509.648 86.998H510.648V86.2861L509.975 86.0531L509.648 86.998ZM509.648 89.2656L509.975 90.2106L510.648 89.9777V89.2656H509.648ZM507.519 91.4697L506.519 91.4697V91.4697H507.519ZM509.648 93.6729H510.648V92.9609L509.975 92.7279L509.648 93.6729ZM509.648 95.9014L509.691 96.9004L510.648 96.8594V95.9014H509.648ZM490.988 108.911V109.911H491.751L491.952 109.175L490.988 108.911ZM34.3523 108.911L33.3878 109.175L33.5894 109.911H34.3523V108.911ZM17.822 96.0869H16.822V96.9641L17.6917 97.0784L17.822 96.0869ZM17.822 93.6729L17.4947 92.7279L16.822 92.9609V93.6729H17.822ZM19.9509 91.4697H20.9509V91.4697L19.9509 91.4697ZM17.822 89.2656H16.822V89.9776L17.4948 90.2106L17.822 89.2656ZM17.822 86.998L17.4947 86.0531L16.822 86.2861V86.998H17.822ZM19.9509 84.7949H20.9509V84.7947L19.9509 84.7949ZM17.822 82.5908H16.822V83.3028L17.4948 83.5358L17.822 82.5908ZM17.822 80.3252L17.4948 79.3803L16.822 79.6133V80.3252H17.822ZM19.9509 78.1221L20.9509 78.1222V78.1221H19.9509ZM17.822 75.918H16.822V76.6299L17.4948 76.8629L17.822 75.918ZM17.822 73.6504L17.4947 72.7055L16.822 72.9385V73.6504H17.822ZM19.9509 71.4473L20.9509 71.4473V71.4473H19.9509ZM17.822 69.2432H16.822V69.9551L17.4948 70.1881L17.822 69.2432ZM17.822 66.9766L17.4947 66.0316L16.822 66.2646V66.9766H17.822ZM19.9509 64.7734H20.9509V64.7734L19.9509 64.7734ZM17.822 62.5693H16.822V63.2813L17.4948 63.5143L17.822 62.5693ZM17.822 60.3018L17.4947 59.3568L16.822 59.5898V60.3018H17.822ZM19.9509 58.0986H20.9509V58.0985L19.9509 58.0986ZM17.822 55.8945H16.822V56.6065L17.4948 56.8395L17.822 55.8945ZM17.822 53.627L17.4947 52.682L16.822 52.915V53.627H17.822ZM19.9509 51.4238H20.9509V51.4236L19.9509 51.4238ZM17.822 49.2197H16.822V49.9317L17.4948 50.1647L17.822 49.2197ZM17.822 46.9541L17.4948 46.0092L16.822 46.2421V46.9541H17.822ZM19.9509 44.75H20.9509V44.7497L19.9509 44.75ZM17.822 42.5459H16.822V43.2579L17.4948 43.4909L17.822 42.5459ZM17.822 40.2793L17.4948 39.3344L16.822 39.5673V40.2793H17.822ZM19.9509 38.0762L20.9509 38.0764V38.0762H19.9509ZM17.822 35.8721H16.822V36.584L17.4948 36.817L17.822 35.8721ZM17.822 33.6055L17.4947 32.6605L16.822 32.8935V33.6055H17.822ZM19.9509 31.4023H20.9509V31.4023L19.9509 31.4023ZM17.822 29.1982H16.822V29.9102L17.4948 30.1432L17.822 29.1982ZM17.822 26.9688L17.8649 25.9697L16.822 25.9249V26.9688H17.822ZM18.8865 26.9922V27.9922H18.8865L18.8865 26.9922ZM37.9597 15.8223V14.8223H37.2992L37.04 15.4298L37.9597 15.8223ZM487.38 15.8223L486.46 16.2148C489.422 23.1563 497.323 27.9921 506.454 27.9922V26.9922V25.9922C497.972 25.9921 490.891 21.5033 488.299 15.4298L487.38 15.8223ZM506.454 26.9922V27.9922C507.585 27.9922 508.696 27.917 509.779 27.7747L509.648 26.7832L509.518 25.7917C508.52 25.9229 507.496 25.9922 506.454 25.9922V26.9922ZM509.648 26.7832H508.648V29.1982H509.648H510.648V26.7832H509.648ZM509.648 29.1982L509.321 28.2533C507.92 28.7383 506.519 29.802 506.519 31.4023L507.519 31.4023L508.519 31.4024C508.519 31.1173 508.831 30.5392 509.975 30.1432L509.648 29.1982ZM507.519 31.4023H506.519C506.519 33.0032 507.921 34.0656 509.321 34.5504L509.648 33.6055L509.975 32.6605C508.831 32.2642 508.519 31.6869 508.519 31.4023H507.519ZM509.648 33.6055H508.648V35.8721H509.648H510.648V33.6055H509.648ZM509.648 35.8721L509.321 34.9271C507.92 35.4121 506.519 36.4757 506.519 38.0762H507.519H508.519C508.519 37.7911 508.831 37.2131 509.975 36.817L509.648 35.8721ZM507.519 38.0762L506.519 38.0764C506.52 39.6768 507.921 40.7394 509.321 41.2243L509.648 40.2793L509.975 39.3343C508.831 38.9382 508.519 38.3607 508.519 38.0759L507.519 38.0762ZM509.648 40.2793H508.648V42.5459H509.648H510.648V40.2793H509.648ZM509.648 42.5459L509.321 41.6009C507.92 42.0859 506.52 43.1498 506.519 44.7497L507.519 44.75L508.519 44.7503C508.519 44.465 508.832 43.8868 509.975 43.4909L509.648 42.5459ZM507.519 44.75H506.519C506.519 46.3504 507.92 47.4141 509.321 47.8991L509.648 46.9541L509.975 46.0091C508.831 45.6131 508.519 45.035 508.519 44.75H507.519ZM509.648 46.9541H508.648V49.2197H509.648H510.648V46.9541H509.648ZM509.648 49.2197L509.321 48.2747C507.92 48.7598 506.52 49.8236 506.519 51.4236L507.519 51.4238L508.519 51.4241C508.519 51.1388 508.832 50.5606 509.975 50.1647L509.648 49.2197ZM507.519 51.4238H506.519C506.519 53.0246 507.921 54.0871 509.321 54.5719L509.648 53.627L509.975 52.682C508.831 52.2857 508.519 51.7084 508.519 51.4238H507.519ZM509.648 53.627H508.648V55.8945H509.648H510.648V53.627H509.648ZM509.648 55.8945L509.321 54.9496C507.92 55.4346 506.519 56.4983 506.519 58.0985L507.519 58.0986L508.519 58.0988C508.519 57.8136 508.832 57.2355 509.975 56.8395L509.648 55.8945ZM507.519 58.0986H506.519C506.519 59.6994 507.921 60.7619 509.321 61.2467L509.648 60.3018L509.975 59.3568C508.831 58.9605 508.519 58.3832 508.519 58.0986H507.519ZM509.648 60.3018H508.648V62.5693H509.648H510.648V60.3018H509.648ZM509.648 62.5693L509.321 61.6244C507.92 62.1094 506.519 63.173 506.519 64.7734L507.519 64.7734L508.519 64.7734C508.519 64.4884 508.831 63.9104 509.975 63.5143L509.648 62.5693ZM507.519 64.7734H506.519C506.519 66.3742 507.921 67.4367 509.321 67.9215L509.648 66.9766L509.975 66.0316C508.831 65.6353 508.519 65.058 508.519 64.7734H507.519ZM509.648 66.9766H508.648V69.2432H509.648H510.648V66.9766H509.648ZM509.648 69.2432L509.321 68.2982C507.92 68.7832 506.519 69.8468 506.519 71.4473H507.519H508.519C508.519 71.1622 508.831 70.5842 509.975 70.1881L509.648 69.2432ZM507.519 71.4473L506.519 71.4473C506.519 73.0481 507.921 74.1106 509.321 74.5953L509.648 73.6504L509.975 72.7054C508.831 72.3091 508.519 71.7318 508.519 71.4472L507.519 71.4473ZM509.648 73.6504H508.648V75.918H509.648H510.648V73.6504H509.648ZM509.648 75.918L509.321 74.973C507.92 75.458 506.519 76.5216 506.519 78.1221H507.519H508.519C508.519 77.837 508.831 77.259 509.975 76.8629L509.648 75.918ZM507.519 78.1221L506.519 78.1222C506.52 79.7228 507.921 80.7854 509.321 81.2701L509.648 80.3252L509.975 79.3802C508.831 78.984 508.519 78.4066 508.519 78.1219L507.519 78.1221ZM509.648 80.3252H508.648V82.5908H509.648H510.648V80.3252H509.648ZM509.648 82.5908L509.321 81.6458C507.92 82.1309 506.52 83.1946 506.519 84.7947L507.519 84.7949L508.519 84.7951C508.519 84.5099 508.832 83.9317 509.975 83.5358L509.648 82.5908ZM507.519 84.7949H506.519C506.519 86.3957 507.921 87.4582 509.321 87.943L509.648 86.998L509.975 86.0531C508.831 85.6568 508.519 85.0795 508.519 84.7949H507.519ZM509.648 86.998H508.648V89.2656H509.648H510.648V86.998H509.648ZM509.648 89.2656L509.321 88.3207C507.92 88.8057 506.519 89.8693 506.519 91.4697L507.519 91.4697L508.519 91.4698C508.519 91.1847 508.831 90.6066 509.975 90.2106L509.648 89.2656ZM507.519 91.4697H506.519C506.519 93.0705 507.921 94.133 509.321 94.6178L509.648 93.6729L509.975 92.7279C508.831 92.3316 508.519 91.7543 508.519 91.4697H507.519ZM509.648 93.6729H508.648V95.9014H509.648H510.648V93.6729H509.648ZM509.648 95.9014L509.605 94.9023C500.123 95.3094 492.132 100.951 490.024 108.647L490.988 108.911L491.952 109.175C493.781 102.501 500.872 97.2791 509.691 96.9004L509.648 95.9014ZM490.988 108.911V107.911H34.3523V108.911V109.911H490.988V108.911ZM34.3523 108.911L35.3168 108.647C33.3744 101.557 26.4334 96.21 17.9523 95.0954L17.822 96.0869L17.6917 97.0784C25.5589 98.1122 31.7034 103.027 33.3878 109.175L34.3523 108.911ZM17.822 96.0869H18.822V93.6729H17.822H16.822V96.0869H17.822ZM17.822 93.6729L18.1493 94.6178C19.5489 94.133 20.9509 93.0705 20.9509 91.4697H19.9509H18.9509C18.9509 91.7542 18.6392 92.3315 17.4947 92.7279L17.822 93.6729ZM19.9509 91.4697L20.9509 91.4697C20.9508 89.8694 19.5498 88.8057 18.1492 88.3207L17.822 89.2656L17.4948 90.2106C18.6386 90.6067 18.9509 91.1848 18.9509 91.4698L19.9509 91.4697ZM17.822 89.2656H18.822V86.998H17.822H16.822V89.2656H17.822ZM17.822 86.998L18.1493 87.943C19.5489 87.4582 20.9509 86.3957 20.9509 84.7949H19.9509H18.9509C18.9509 85.0793 18.6392 85.6567 17.4947 86.0531L17.822 86.998ZM19.9509 84.7949L20.9509 84.7947C20.9506 83.1947 19.5499 82.1309 18.1492 81.6459L17.822 82.5908L17.4948 83.5358C18.6385 83.9318 18.9509 84.51 18.9509 84.7951L19.9509 84.7949ZM17.822 82.5908H18.822V80.3252H17.822H16.822V82.5908H17.822ZM17.822 80.3252L18.1493 81.2701C19.5491 80.7853 20.9507 79.7227 20.9509 78.1222L19.9509 78.1221L18.9509 78.1219C18.9509 78.4065 18.639 78.984 17.4948 79.3803L17.822 80.3252ZM19.9509 78.1221H20.9509C20.9509 76.5217 19.5497 75.458 18.1493 74.973L17.822 75.918L17.4948 76.8629C18.6387 77.259 18.9509 77.8371 18.9509 78.1221H19.9509ZM17.822 75.918H18.822V73.6504H17.822H16.822V75.918H17.822ZM17.822 73.6504L18.1493 74.5953C19.549 74.1105 20.9509 73.048 20.9509 71.4473L19.9509 71.4473L18.9509 71.4472C18.9509 71.7317 18.6392 72.3091 17.4947 72.7055L17.822 73.6504ZM19.9509 71.4473H20.9509C20.9509 69.8469 19.5498 68.7832 18.1492 68.2982L17.822 69.2432L17.4948 70.1881C18.6387 70.5842 18.9509 71.1623 18.9509 71.4473H19.9509ZM17.822 69.2432H18.822V66.9766H17.822H16.822V69.2432H17.822ZM17.822 66.9766L18.1493 67.9215C19.549 67.4367 20.9509 66.3742 20.9509 64.7734H19.9509H18.9509C18.9509 65.0579 18.6392 65.6352 17.4947 66.0316L17.822 66.9766ZM19.9509 64.7734L20.9509 64.7734C20.9509 63.173 19.5498 62.1094 18.1492 61.6244L17.822 62.5693L17.4948 63.5143C18.6387 63.9104 18.9509 64.4885 18.9509 64.7734L19.9509 64.7734ZM17.822 62.5693H18.822V60.3018H17.822H16.822V62.5693H17.822ZM17.822 60.3018L18.1493 61.2467C19.5489 60.7619 20.9509 59.6994 20.9509 58.0986H19.9509H18.9509C18.9509 58.3831 18.6392 58.9604 17.4947 59.3568L17.822 60.3018ZM19.9509 58.0986L20.9509 58.0985C20.9507 56.4983 19.5499 55.4346 18.1492 54.9496L17.822 55.8945L17.4948 56.8395C18.6385 57.2355 18.9509 57.8137 18.9509 58.0988L19.9509 58.0986ZM17.822 55.8945H18.822V53.627H17.822H16.822V55.8945H17.822ZM17.822 53.627L18.1493 54.5719C19.5489 54.0871 20.9509 53.0246 20.9509 51.4238H19.9509H18.9509C18.9509 51.7082 18.6392 52.2856 17.4947 52.682L17.822 53.627ZM19.9509 51.4238L20.9509 51.4236C20.9505 49.8236 19.55 48.7598 18.1492 48.2748L17.822 49.2197L17.4948 50.1647C18.6384 50.5606 18.9509 51.1389 18.9509 51.4241L19.9509 51.4238ZM17.822 49.2197H18.822V46.9541H17.822H16.822V49.2197H17.822ZM17.822 46.9541L18.1493 47.899C19.5497 47.4141 20.9509 46.3504 20.9509 44.75H19.9509H18.9509C18.9509 45.0349 18.6387 45.613 17.4948 46.0092L17.822 46.9541ZM19.9509 44.75L20.9509 44.7497C20.9505 43.1498 19.55 42.086 18.1492 41.6009L17.822 42.5459L17.4948 43.4909C18.6383 43.8868 18.9509 44.4651 18.9509 44.7503L19.9509 44.75ZM17.822 42.5459H18.822V40.2793H17.822H16.822V42.5459H17.822ZM17.822 40.2793L18.1493 41.2242C19.5491 40.7394 20.9505 39.6767 20.9509 38.0764L19.9509 38.0762L18.9509 38.0759C18.9509 38.3606 18.6389 38.9381 17.4948 39.3344L17.822 40.2793ZM19.9509 38.0762H20.9509C20.9509 36.4758 19.5497 35.4121 18.1493 34.9271L17.822 35.8721L17.4948 36.817C18.6387 37.2132 18.9509 37.7912 18.9509 38.0762H19.9509ZM17.822 35.8721H18.822V33.6055H17.822H16.822V35.8721H17.822ZM17.822 33.6055L18.1493 34.5504C19.5489 34.0656 20.9509 33.0031 20.9509 31.4023H19.9509H18.9509C18.9509 31.6868 18.6392 32.2641 17.4947 32.6605L17.822 33.6055ZM19.9509 31.4023L20.9509 31.4023C20.9508 29.802 19.5498 28.7383 18.1492 28.2533L17.822 29.1982L17.4948 30.1432C18.6386 30.5393 18.9509 31.1174 18.9509 31.4024L19.9509 31.4023ZM17.822 29.1982H18.822V26.9688H17.822H16.822V29.1982H17.822ZM17.822 26.9688L17.7791 27.9678C18.1446 27.9835 18.514 27.9922 18.8865 27.9922V26.9922V25.9922C18.545 25.9922 18.2043 25.9842 17.8649 25.9697L17.822 26.9688ZM18.8865 26.9922L18.8865 27.9922C28.0168 27.9921 35.9172 23.1561 38.8795 16.2148L37.9597 15.8223L37.04 15.4298C34.4481 21.5031 27.3684 25.9921 18.8865 25.9922L18.8865 26.9922ZM37.9597 15.8223V16.8223H487.38V15.8223V14.8223H37.9597V15.8223Z" fill="white" mask="url(#path-2-inside-1_516_803)"/>
<path d="M192.95 58.124V37.7604H200.984C202.522 37.7604 203.834 38.0355 204.922 38.5857C206.015 39.1292 206.847 39.9015 207.417 40.9024C207.994 41.8968 208.282 43.0667 208.282 44.4124C208.282 45.7646 207.991 46.928 207.407 47.9024C206.824 48.8702 205.979 49.6127 204.872 50.1297C203.771 50.6468 202.439 50.9053 200.875 50.9053H195.495V47.445H200.179C201.001 47.445 201.683 47.3324 202.227 47.107C202.771 46.8816 203.175 46.5435 203.44 46.0928C203.712 45.642 203.848 45.0819 203.848 44.4124C203.848 43.7362 203.712 43.1662 203.44 42.7021C203.175 42.2381 202.767 41.8868 202.217 41.6482C201.673 41.4029 200.987 41.2803 200.159 41.2803H197.255V58.124H192.95ZM203.947 48.857L209.008 58.124H204.255L199.304 48.857H203.947ZM217.9 58.4223C216.355 58.4223 215.02 58.0942 213.893 57.4379C212.773 56.7751 211.907 55.8537 211.298 54.6737C210.688 53.4872 210.383 52.1117 210.383 50.5473C210.383 48.9697 210.688 47.5909 211.298 46.411C211.907 45.2244 212.773 44.303 213.893 43.6467C215.02 42.9839 216.355 42.6524 217.9 42.6524C219.444 42.6524 220.777 42.9839 221.897 43.6467C223.024 44.303 223.892 45.2244 224.502 46.411C225.112 47.5909 225.417 48.9697 225.417 50.5473C225.417 52.1117 225.112 53.4872 224.502 54.6737C223.892 55.8537 223.024 56.7751 221.897 57.4379C220.777 58.0942 219.444 58.4223 217.9 58.4223ZM217.92 55.1411C218.622 55.1411 219.209 54.9422 219.68 54.5445C220.15 54.1401 220.505 53.5899 220.744 52.8939C220.989 52.1979 221.112 51.4057 221.112 50.5175C221.112 49.6292 220.989 48.8371 220.744 48.1411C220.505 47.445 220.15 46.8949 219.68 46.4905C219.209 46.0861 218.622 45.884 217.92 45.884C217.211 45.884 216.614 46.0861 216.13 46.4905C215.653 46.8949 215.291 47.445 215.046 48.1411C214.808 48.8371 214.688 49.6292 214.688 50.5175C214.688 51.4057 214.808 52.1979 215.046 52.8939C215.291 53.5899 215.653 54.1401 216.13 54.5445C216.614 54.9422 217.211 55.1411 217.92 55.1411ZM228.171 58.124V42.8513H232.208V45.5459H232.387C232.705 44.651 233.236 43.945 233.978 43.428C234.72 42.911 235.609 42.6524 236.643 42.6524C237.69 42.6524 238.582 42.9143 239.318 43.4379C240.053 43.955 240.544 44.6576 240.789 45.5459H240.948C241.26 44.6709 241.823 43.9716 242.639 43.4479C243.461 42.9176 244.432 42.6524 245.552 42.6524C246.977 42.6524 248.134 43.1065 249.022 44.0146C249.917 44.9162 250.364 46.1955 250.364 47.8527V58.124H246.139V48.6879C246.139 47.8395 245.913 47.2031 245.462 46.7789C245.012 46.3546 244.448 46.1425 243.772 46.1425C243.003 46.1425 242.403 46.3878 241.972 46.8783C241.541 47.3622 241.326 48.0019 241.326 48.7973V58.124H237.22V48.5985C237.22 47.8494 237.004 47.2528 236.573 46.8087C236.149 46.3646 235.589 46.1425 234.893 46.1425C234.422 46.1425 233.998 46.2618 233.62 46.5004C233.249 46.7325 232.954 47.0606 232.735 47.4848C232.516 47.9024 232.407 48.393 232.407 48.9564V58.124H228.171ZM258.065 58.4124C257.091 58.4124 256.223 58.2433 255.46 57.9053C254.698 57.5606 254.095 57.0535 253.651 56.384C253.213 55.7078 252.994 54.866 252.994 53.8584C252.994 53.0099 253.15 52.2973 253.462 51.7206C253.773 51.1439 254.198 50.6799 254.734 50.3286C255.271 49.9772 255.881 49.7121 256.564 49.5331C257.253 49.3541 257.976 49.2282 258.732 49.1553C259.62 49.0625 260.336 48.9763 260.879 48.8968C261.423 48.8106 261.817 48.6846 262.063 48.5189C262.308 48.3532 262.43 48.1079 262.43 47.7831V47.7235C262.43 47.0937 262.232 46.6065 261.834 46.2618C261.443 45.9171 260.886 45.7448 260.163 45.7448C259.401 45.7448 258.795 45.9138 258.344 46.2519C257.893 46.5833 257.595 47.0009 257.449 47.5047L253.531 47.1865C253.73 46.2585 254.121 45.4564 254.705 44.7803C255.288 44.0975 256.04 43.5738 256.962 43.2092C257.89 42.838 258.964 42.6524 260.183 42.6524C261.032 42.6524 261.844 42.7519 262.619 42.9507C263.402 43.1496 264.094 43.4578 264.698 43.8754C265.307 44.2931 265.788 44.83 266.139 45.4862C266.491 46.1359 266.666 46.9147 266.666 47.8229V58.124H262.649V56.0061H262.53C262.285 56.4834 261.956 56.9043 261.546 57.2689C261.135 57.6269 260.641 57.9086 260.064 58.1141C259.487 58.3129 258.821 58.4124 258.065 58.4124ZM259.278 55.4891C259.902 55.4891 260.452 55.3664 260.929 55.1212C261.406 54.8693 261.781 54.5312 262.053 54.107C262.324 53.6827 262.46 53.2021 262.46 52.6652V51.0445C262.328 51.1307 262.145 51.2102 261.913 51.2831C261.688 51.3494 261.433 51.4124 261.148 51.472C260.863 51.5251 260.578 51.5748 260.293 51.6212C260.008 51.661 259.749 51.6974 259.517 51.7306C259.02 51.8035 258.586 51.9195 258.215 52.0786C257.843 52.2377 257.555 52.4531 257.349 52.7249C257.144 52.99 257.041 53.3215 257.041 53.7192C257.041 54.2959 257.25 54.7367 257.668 55.0416C258.092 55.3399 258.629 55.4891 259.278 55.4891ZM274.188 49.2945V58.124H269.952V42.8513H273.989V45.5459H274.168C274.506 44.6576 275.073 43.955 275.869 43.4379C276.664 42.9143 277.629 42.6524 278.762 42.6524C279.823 42.6524 280.747 42.8844 281.536 43.3485C282.325 43.8125 282.938 44.4753 283.376 45.3371C283.813 46.1922 284.032 47.213 284.032 48.3996V58.124H279.796V49.1553C279.803 48.2206 279.564 47.4914 279.08 46.9678C278.596 46.4375 277.93 46.1723 277.082 46.1723C276.512 46.1723 276.008 46.295 275.57 46.5402C275.139 46.7855 274.801 47.1434 274.556 47.6141C274.318 48.0781 274.195 48.6382 274.188 49.2945ZM295.494 42.8513V46.0331H286.297V42.8513H295.494ZM288.385 39.1922H292.62V53.4308C292.62 53.8219 292.68 54.1269 292.799 54.3456C292.919 54.5577 293.084 54.7069 293.297 54.7931C293.515 54.8792 293.767 54.9223 294.052 54.9223C294.251 54.9223 294.45 54.9057 294.649 54.8726C294.848 54.8328 295 54.803 295.106 54.7831L295.772 57.9351C295.56 58.0014 295.262 58.0776 294.878 58.1638C294.493 58.2566 294.026 58.3129 293.476 58.3328C292.455 58.3726 291.56 58.2367 290.791 57.9252C290.029 57.6136 289.435 57.1297 289.011 56.4735C288.587 55.8172 288.378 54.9886 288.385 53.9877V39.1922ZM298.253 58.124V42.8513H302.489V58.124H298.253ZM300.381 40.8825C299.751 40.8825 299.211 40.6737 298.76 40.2561C298.316 39.8319 298.094 39.3248 298.094 38.7348C298.094 38.1515 298.316 37.651 298.76 37.2334C299.211 36.8092 299.751 36.597 300.381 36.597C301.011 36.597 301.548 36.8092 301.992 37.2334C302.443 37.651 302.668 38.1515 302.668 38.7348C302.668 39.3248 302.443 39.8319 301.992 40.2561C301.548 40.6737 301.011 40.8825 300.381 40.8825ZM312.783 58.4223C311.218 58.4223 309.873 58.0909 308.746 57.428C307.626 56.7585 306.764 55.8305 306.161 54.6439C305.564 53.4574 305.266 52.0918 305.266 50.5473C305.266 48.9829 305.567 47.6108 306.171 46.4308C306.78 45.2443 307.645 44.3196 308.766 43.6567C309.886 42.9872 311.218 42.6524 312.763 42.6524C314.095 42.6524 315.262 42.8944 316.263 43.3783C317.264 43.8622 318.056 44.5416 318.639 45.4166C319.223 46.2916 319.544 47.3191 319.604 48.499H315.607C315.494 47.7367 315.196 47.1235 314.712 46.6595C314.234 46.1889 313.608 45.9536 312.832 45.9536C312.176 45.9536 311.603 46.1325 311.112 46.4905C310.628 46.8418 310.251 47.3556 309.979 48.0317C309.707 48.7078 309.571 49.5265 309.571 50.4877C309.571 51.4621 309.704 52.2907 309.969 52.9735C310.241 53.6562 310.622 54.1766 311.112 54.5345C311.603 54.8925 312.176 55.0715 312.832 55.0715C313.316 55.0715 313.751 54.972 314.135 54.7732C314.526 54.5743 314.848 54.286 315.099 53.9081C315.358 53.5236 315.527 53.0629 315.607 52.526H319.604C319.537 53.6927 319.219 54.7201 318.649 55.6084C318.086 56.49 317.307 57.1794 316.313 57.6766C315.318 58.1737 314.142 58.4223 312.783 58.4223ZM326.671 58.4124C325.696 58.4124 324.828 58.2433 324.066 57.9053C323.303 57.5606 322.7 57.0535 322.256 56.384C321.819 55.7078 321.6 54.866 321.6 53.8584C321.6 53.0099 321.756 52.2973 322.067 51.7206C322.379 51.1439 322.803 50.6799 323.34 50.3286C323.877 49.9772 324.487 49.7121 325.169 49.5331C325.859 49.3541 326.581 49.2282 327.337 49.1553C328.225 49.0625 328.941 48.9763 329.485 48.8968C330.028 48.8106 330.423 48.6846 330.668 48.5189C330.913 48.3532 331.036 48.1079 331.036 47.7831V47.7235C331.036 47.0937 330.837 46.6065 330.439 46.2618C330.048 45.9171 329.491 45.7448 328.769 45.7448C328.007 45.7448 327.4 45.9138 326.949 46.2519C326.499 46.5833 326.2 47.0009 326.054 47.5047L322.137 47.1865C322.336 46.2585 322.727 45.4564 323.31 44.7803C323.893 44.0975 324.646 43.5738 325.567 43.2092C326.495 42.838 327.569 42.6524 328.789 42.6524C329.637 42.6524 330.449 42.7519 331.225 42.9507C332.007 43.1496 332.7 43.4578 333.303 43.8754C333.913 44.2931 334.393 44.83 334.745 45.4862C335.096 46.1359 335.272 46.9147 335.272 47.8229V58.124H331.255V56.0061H331.135C330.89 56.4834 330.562 56.9043 330.151 57.2689C329.74 57.6269 329.246 57.9086 328.669 58.1141C328.093 58.3129 327.427 58.4124 326.671 58.4124ZM327.884 55.4891C328.507 55.4891 329.057 55.3664 329.535 55.1212C330.012 54.8693 330.386 54.5312 330.658 54.107C330.93 53.6827 331.066 53.2021 331.066 52.6652V51.0445C330.933 51.1307 330.751 51.2102 330.519 51.2831C330.293 51.3494 330.038 51.4124 329.753 51.472C329.468 51.5251 329.183 51.5748 328.898 51.6212C328.613 51.661 328.355 51.6974 328.123 51.7306C327.625 51.8035 327.191 51.9195 326.82 52.0786C326.449 52.2377 326.16 52.4531 325.955 52.7249C325.749 52.99 325.647 53.3215 325.647 53.7192C325.647 54.2959 325.856 54.7367 326.273 55.0416C326.697 55.3399 327.234 55.4891 327.884 55.4891Z" fill="white"/>
<rect x="443.548" y="26.8496" width="38.5282" height="1.22962" fill="white"/>
<rect x="443.548" y="29.3096" width="38.5282" height="4.09875" fill="white"/>
<rect x="443.548" y="44.0645" width="38.5282" height="2.45925" fill="white"/>
<rect x="443.548" y="59.2305" width="38.5282" height="2.45925" fill="white"/>
<rect x="443.548" y="63.3291" width="38.5282" height="5.32837" fill="white"/>
<rect x="443.548" y="36.6875" width="38.5282" height="1.6395" fill="white"/>
<rect x="443.548" y="47.7539" width="38.5282" height="1.6395" fill="white"/>
<rect x="443.548" y="39.5566" width="38.5282" height="1.22962" fill="white"/>
<rect x="443.548" y="51.0332" width="38.5282" height="1.22962" fill="white"/>
<rect x="443.548" y="42.0146" width="38.5282" height="0.819749" fill="white"/>
<rect x="443.548" y="69.8867" width="38.5282" height="0.819749" fill="white"/>
<rect x="443.548" y="73.9863" width="38.5282" height="0.819749" fill="white"/>
<rect x="443.548" y="53.9014" width="38.5282" height="0.819749" fill="white"/>
<rect x="443.548" y="83.4121" width="38.5282" height="0.819749" fill="white"/>
<rect x="443.548" y="85.0527" width="38.5282" height="0.819749" fill="white"/>
<rect x="443.548" y="71.9355" width="38.5282" height="0.819749" fill="white"/>
<rect x="443.548" y="77.2637" width="38.5282" height="0.819749" fill="white"/>
<rect x="443.548" y="78.9043" width="38.5282" height="2.86912" fill="white"/>
<rect x="443.483" y="90.6416" width="38.384" height="1.35473" fill="white"/>
<rect x="443.548" y="56.7705" width="38.5282" height="0.819749" fill="white"/>
<rect x="443.548" y="92.8389" width="38.5282" height="2.86912" fill="white"/>
<path d="M224.822 89.853L219.74 92.9219C219.591 92.9957 219.452 93.0255 219.324 93.0115C219.198 92.9966 219.074 92.9527 218.953 92.8799C218.832 92.8053 218.741 92.6998 218.679 92.5635C218.617 92.4273 218.612 92.2784 218.662 92.1169L220.015 86.3627L215.542 82.4846C215.416 82.3819 215.332 82.2592 215.292 82.1164C215.252 81.9736 215.261 81.8368 215.319 81.7062C215.377 81.5755 215.454 81.4682 215.55 81.3842C215.647 81.303 215.778 81.2479 215.942 81.2189L221.845 80.7037L224.146 75.2548C224.21 75.1007 224.301 74.9897 224.421 74.9215C224.54 74.8534 224.674 74.8193 224.822 74.8193C224.971 74.8193 225.105 74.8534 225.226 74.9215C225.346 74.9897 225.437 75.1007 225.499 75.2548L227.8 80.7037L233.702 81.2189C233.867 81.247 233.998 81.3025 234.095 81.3856C234.192 81.4677 234.27 81.5746 234.327 81.7062C234.384 81.8368 234.393 81.9736 234.353 82.1164C234.312 82.2592 234.229 82.3819 234.103 82.4846L229.63 86.3627L230.983 92.1169C231.035 92.2765 231.03 92.4249 230.967 92.5621C230.905 92.6993 230.813 92.8048 230.691 92.8785C230.572 92.9532 230.448 92.9975 230.32 93.0115C230.194 93.0255 230.055 92.9957 229.906 92.9219L224.822 89.853Z" fill="white"/>
<path d="M264.455 89.853L259.372 92.9219C259.223 92.9957 259.084 93.0255 258.957 93.0115C258.83 92.9966 258.706 92.9527 258.586 92.8799C258.464 92.8053 258.373 92.6998 258.311 92.5635C258.25 92.4273 258.244 92.2784 258.294 92.1169L259.647 86.3627L255.174 82.4846C255.048 82.3819 254.965 82.2592 254.924 82.1164C254.884 81.9736 254.893 81.8368 254.951 81.7062C255.009 81.5755 255.086 81.4682 255.182 81.3842C255.279 81.303 255.41 81.2479 255.574 81.2189L261.477 80.7037L263.778 75.2548C263.842 75.1007 263.933 74.9897 264.053 74.9215C264.172 74.8534 264.306 74.8193 264.455 74.8193C264.603 74.8193 264.737 74.8534 264.858 74.9215C264.978 74.9897 265.069 75.1007 265.131 75.2548L267.432 80.7037L273.334 81.2189C273.499 81.247 273.63 81.3025 273.727 81.3856C273.824 81.4677 273.902 81.5746 273.959 81.7062C274.016 81.8368 274.025 81.9736 273.985 82.1164C273.945 82.2592 273.861 82.3819 273.735 82.4846L269.262 86.3627L270.615 92.1169C270.667 92.2765 270.662 92.4249 270.599 92.5621C270.537 92.6993 270.445 92.8048 270.324 92.8785C270.204 92.9532 270.08 92.9975 269.953 93.0115C269.826 93.0255 269.687 92.9957 269.538 92.9219L264.455 89.853Z" fill="white"/>
<path d="M304.087 89.853L299.004 92.9219C298.855 92.9957 298.717 93.0255 298.589 93.0115C298.462 92.9966 298.338 92.9527 298.218 92.8799C298.096 92.8053 298.005 92.6998 297.943 92.5635C297.882 92.4273 297.876 92.2784 297.926 92.1169L299.279 86.3627L294.806 82.4846C294.68 82.3819 294.597 82.2592 294.557 82.1164C294.516 81.9736 294.525 81.8368 294.583 81.7062C294.641 81.5755 294.718 81.4682 294.814 81.3842C294.911 81.303 295.042 81.2479 295.206 81.2189L301.109 80.7037L303.41 75.2548C303.474 75.1007 303.565 74.9897 303.685 74.9215C303.804 74.8534 303.938 74.8193 304.087 74.8193C304.235 74.8193 304.369 74.8534 304.49 74.9215C304.61 74.9897 304.701 75.1007 304.763 75.2548L307.065 80.7037L312.966 81.2189C313.131 81.247 313.262 81.3025 313.359 81.3856C313.456 81.4677 313.534 81.5746 313.592 81.7062C313.648 81.8368 313.657 81.9736 313.617 82.1164C313.577 82.2592 313.494 82.3819 313.368 82.4846L308.894 86.3627L310.247 92.1169C310.299 92.2765 310.294 92.4249 310.231 92.5621C310.169 92.6993 310.077 92.8048 309.956 92.8785C309.836 92.9532 309.712 92.9975 309.585 93.0115C309.458 93.0255 309.32 92.9957 309.17 92.9219L304.087 89.853Z" fill="white"/>
<path d="M343.073 89.9943L338.056 93.0238C337.908 93.0966 337.771 93.1261 337.645 93.1123C337.52 93.0975 337.398 93.0542 337.279 92.9824C337.159 92.9087 337.069 92.8045 337.008 92.67C336.947 92.5355 336.942 92.3885 336.991 92.2291L338.326 86.5487L333.911 82.7203C333.786 82.6189 333.704 82.4978 333.665 82.3568C333.625 82.2158 333.634 82.0809 333.691 81.9519C333.748 81.8229 333.824 81.7169 333.919 81.634C334.015 81.5538 334.144 81.4995 334.306 81.4709L340.133 80.9623L342.405 75.5832C342.468 75.4311 342.558 75.3215 342.676 75.2542C342.794 75.187 342.926 75.1533 343.073 75.1533C343.219 75.1533 343.352 75.187 343.471 75.2542C343.589 75.3215 343.679 75.4311 343.74 75.5832L346.012 80.9623L351.838 81.4709C352.001 81.4985 352.13 81.5534 352.226 81.6354C352.322 81.7164 352.398 81.8219 352.456 81.9519C352.512 82.0809 352.52 82.2158 352.48 82.3568C352.441 82.4978 352.359 82.6189 352.234 82.7203L347.819 86.5487L349.154 92.2291C349.205 92.3867 349.2 92.5332 349.139 92.6686C349.077 92.8041 348.986 92.9082 348.866 92.981C348.748 93.0547 348.626 93.0985 348.5 93.1123C348.375 93.1261 348.238 93.0966 348.091 93.0238L343.073 89.9943Z" fill="white"/>
<path d="M185.837 89.5636L180.82 92.5932C180.672 92.666 180.535 92.6954 180.409 92.6816C180.284 92.6669 180.162 92.6236 180.043 92.5517C179.923 92.478 179.833 92.3739 179.772 92.2394C179.711 92.1048 179.706 91.9579 179.755 91.7985L181.09 86.118L176.675 82.2896C176.55 82.1883 176.468 82.0671 176.429 81.9261C176.389 81.7852 176.398 81.6502 176.455 81.5212C176.512 81.3922 176.588 81.2862 176.683 81.2033C176.779 81.1231 176.908 81.0688 177.07 81.0402L182.897 80.5316L185.169 75.1525C185.232 75.0005 185.322 74.8908 185.44 74.8235C185.558 74.7563 185.69 74.7227 185.837 74.7227C185.983 74.7227 186.116 74.7563 186.235 74.8235C186.353 74.8908 186.443 75.0005 186.504 75.1525L188.776 80.5316L194.602 81.0402C194.765 81.0679 194.894 81.1227 194.99 81.2047C195.086 81.2858 195.163 81.3913 195.22 81.5212C195.276 81.6502 195.284 81.7852 195.245 81.9261C195.205 82.0671 195.123 82.1883 194.998 82.2896L190.583 86.118L191.918 91.7985C191.969 91.956 191.964 92.1025 191.903 92.238C191.841 92.3734 191.75 92.4775 191.63 92.5503C191.512 92.624 191.39 92.6678 191.264 92.6816C191.139 92.6954 191.002 92.666 190.855 92.5932L185.837 89.5636Z" fill="white"/>
<path d="M431.353 16.9248V107.35" stroke="white"/>
<path d="M425.839 18.0273V108.453" stroke="white"/>
<path d="M72.9594 18.0273V108.453" stroke="white"/>
<path d="M56.6465 49.4703H43.5555V47.9362L53.834 40.8027V40.6748H43.5555V39.0896H56.6465V40.6237L46.3425 47.7828V47.9106H56.6465V49.4703ZM43.351 56.4264C43.351 55.54 43.5619 54.7623 43.9838 54.0933C44.4057 53.4285 44.9959 52.9087 45.7544 52.5337C46.5129 52.1629 47.3993 51.9775 48.4135 51.9775C49.4362 51.9775 50.329 52.1629 51.0918 52.5337C51.8545 52.9087 52.4469 53.4285 52.8688 54.0933C53.2906 54.7623 53.5016 55.54 53.5016 56.4264C53.5016 57.3128 53.2906 58.0883 52.8688 58.7531C52.4469 59.4221 51.8545 59.942 51.0918 60.3128C50.329 60.6878 49.4362 60.8753 48.4135 60.8753C47.3993 60.8753 46.5129 60.6878 45.7544 60.3128C44.9959 59.942 44.4057 59.4221 43.9838 58.7531C43.5619 58.0883 43.351 57.3128 43.351 56.4264ZM44.7061 56.4264C44.7061 57.0997 44.8787 57.6537 45.2239 58.0883C45.569 58.523 46.0229 58.8447 46.5854 59.0535C47.1479 59.2623 47.7572 59.3668 48.4135 59.3668C49.0697 59.3668 49.6813 59.2623 50.248 59.0535C50.8148 58.8447 51.2729 58.523 51.6223 58.0883C51.9717 57.6537 52.1465 57.0997 52.1465 56.4264C52.1465 55.7531 51.9717 55.1991 51.6223 54.7645C51.2729 54.3298 50.8148 54.0081 50.248 53.7993C49.6813 53.5905 49.0697 53.4861 48.4135 53.4861C47.7572 53.4861 47.1479 53.5905 46.5854 53.7993C46.0229 54.0081 45.569 54.3298 45.2239 54.7645C44.8787 55.1991 44.7061 55.7531 44.7061 56.4264ZM43.4533 64.2774C43.4533 63.9621 43.5662 63.6915 43.792 63.4657C44.0179 63.2398 44.2885 63.1269 44.6038 63.1269C44.9192 63.1269 45.1898 63.2398 45.4156 63.4657C45.6415 63.6915 45.7544 63.9621 45.7544 64.2774C45.7544 64.5928 45.6415 64.8634 45.4156 65.0892C45.1898 65.3151 44.9192 65.428 44.6038 65.428C44.395 65.428 44.2033 65.3747 44.0286 65.2682C43.8538 65.1659 43.7132 65.0274 43.6067 64.8527C43.5044 64.6823 43.4533 64.4905 43.4533 64.2774ZM43.3766 71.9223C43.3766 70.9593 43.6386 70.1389 44.1628 69.4614C44.6912 68.7838 45.4561 68.2661 46.4575 67.9081C47.4632 67.5502 48.6777 67.3712 50.101 67.3712C51.5158 67.3712 52.7239 67.5502 53.7253 67.9081C54.731 68.2703 55.498 68.7902 56.0264 69.4678C56.5591 70.1496 56.8254 70.9678 56.8254 71.9223C56.8254 72.8769 56.5591 73.6929 56.0264 74.3705C55.498 75.0523 54.731 75.5722 53.7253 75.9301C52.7239 76.2924 51.5158 76.4735 50.101 76.4735C48.6777 76.4735 47.4632 76.2945 46.4575 75.9365C45.4561 75.5786 44.6912 75.0608 44.1628 74.3833C43.6386 73.7057 43.3766 72.8854 43.3766 71.9223ZM44.7828 71.9223C44.7828 72.8769 45.243 73.6184 46.1635 74.1468C47.084 74.6752 48.3965 74.9394 50.101 74.9394C51.2345 74.9394 52.1997 74.8179 52.9966 74.575C53.7935 74.3364 54.4007 73.9912 54.8183 73.5395C55.2359 73.0921 55.4447 72.553 55.4447 71.9223C55.4447 70.9763 54.9781 70.237 54.0449 69.7043C53.1159 69.1716 51.8013 68.9053 50.101 68.9053C48.9675 68.9053 48.0044 69.0246 47.2118 69.2632C46.4192 69.5019 45.8162 69.8449 45.4028 70.2924C44.9895 70.7441 44.7828 71.2874 44.7828 71.9223ZM56.6465 83.5047H43.5555V81.9195H54.9845V81.8428L52.8624 78.6468H54.4732L56.6465 81.9195V83.5047Z" fill="white"/>
<defs>
<filter id="filter0_d_516_803" x="0" y="0" width="527.47" height="128.274" filterUnits="userSpaceOnUse" color-interpolation-filters="sRGB">
<feFlood flood-opacity="0" result="BackgroundImageFix"/>
<feColorMatrix in="SourceAlpha" type="matrix" values="0 0 0 0 0 0 0 0 0 0 0 0 0 0 0 0 0 0 127 0" result="hardAlpha"/>
<feOffset dy="2"/>
<feGaussianBlur stdDeviation="4.5"/>
<feComposite in2="hardAlpha" operator="out"/>
<feColorMatrix type="matrix" values="0 0 0 0 0 0 0 0 0 0 0 0 0 0 0 0 0 0 0.25 0"/>
<feBlend mode="normal" in2="BackgroundImageFix" result="effect1_dropShadow_516_803"/>
<feBlend mode="normal" in="SourceGraphic" in2="effect1_dropShadow_516_803" result="shape"/>
</filter>
<linearGradient id="paint0_linear_516_803" x1="9" y1="62.1372" x2="518.47" y2="62.1372" gradientUnits="userSpaceOnUse">
<stop stop-color="#710A0B"/>
<stop offset="0.336538" stop-color="#AB0F1C"/>
<stop offset="0.701923" stop-color="#D26D75"/>
<stop offset="1" stop-color="#F5CAC3"/>
</linearGradient>
</defs>
</svg>
