<svg width="528" height="129" viewBox="0 0 528 129" fill="none" xmlns="http://www.w3.org/2000/svg">
<g filter="url(#filter0_d_516_1071)">
<path d="M495.403 7C498.28 14.7092 506.04 20.2324 515.162 20.2324C516.288 20.2324 517.392 20.1473 518.47 19.9854V22.8428C517.152 23.3645 516.265 24.3393 516.265 25.4561C516.265 26.5729 517.152 27.5475 518.47 28.0693V30.749C517.152 31.2709 516.265 32.2455 516.265 33.3623C516.265 34.479 517.152 35.4528 518.47 35.9746V38.6553C517.152 39.1771 516.265 40.1518 516.265 41.2686C516.265 42.3853 517.152 43.359 518.47 43.8809V46.5625C517.152 47.0843 516.265 48.0589 516.265 49.1758C516.265 50.2925 517.152 51.2662 518.47 51.7881V54.4688C517.152 54.9906 516.265 55.9652 516.265 57.082C516.265 58.1988 517.152 59.1725 518.47 59.6943V62.374C517.152 62.8958 516.265 63.8705 516.265 64.9873C516.265 66.1041 517.152 67.0777 518.47 67.5996V70.2812C517.152 70.803 516.265 71.7769 516.265 72.8936C516.265 74.0103 517.152 74.984 518.47 75.5059V78.1875C517.152 78.7093 516.265 79.6839 516.265 80.8008C516.265 81.9176 517.152 82.8912 518.47 83.4131V86.0947C517.152 86.6166 516.265 87.5912 516.265 88.708C516.265 89.8246 517.152 90.7975 518.47 91.3193V94C517.152 94.5218 516.265 95.4964 516.265 96.6133C516.265 97.73 517.152 98.7037 518.47 99.2256V101.863C508.991 102.329 501.18 108.763 499.141 117.274H26.124C24.2455 109.433 17.4675 103.355 9 102.083V99.2256C10.318 98.7037 11.205 97.73 11.2051 96.6133C11.2051 95.4964 10.3182 94.5218 9 94V91.3203C10.3179 90.7985 11.2049 89.8247 11.2051 88.708C11.2051 87.5911 10.3183 86.6156 9 86.0938V83.4131C10.318 82.8912 11.2051 81.9176 11.2051 80.8008C11.2051 79.6839 10.3182 78.7093 9 78.1875V75.5068C10.3181 74.985 11.2051 74.0104 11.2051 72.8936C11.2048 71.7768 10.3181 70.802 9 70.2803V67.6006C10.3182 67.0787 11.2051 66.1042 11.2051 64.9873C11.2049 63.8705 10.3182 62.8958 9 62.374V59.6943C10.318 59.1725 11.2051 58.1988 11.2051 57.082C11.2051 55.9651 10.3182 54.9906 9 54.4688V51.7881C10.318 51.2662 11.205 50.2925 11.2051 49.1758C11.2051 48.0589 10.3182 47.0843 9 46.5625V43.8818C10.3182 43.36 11.2051 42.3854 11.2051 41.2686C11.2049 40.1518 10.3182 39.1771 9 38.6553V35.9746C10.318 35.4528 11.2049 34.479 11.2051 33.3623C11.2051 32.2453 10.3183 31.2699 9 30.748V28.0693C10.3182 27.5475 11.2051 26.5729 11.2051 25.4561C11.2049 24.3392 10.3182 23.3645 9 22.8428V20.2051C9.36513 20.223 9.7327 20.2324 10.1025 20.2324C19.225 20.2324 26.9848 14.7092 29.8613 7H495.403Z" fill="url(#paint0_linear_516_1071)"/>
</g>
<mask id="path-2-inside-1_516_1071" fill="white">
<path d="M487.38 15.8223C490.157 22.3299 497.647 26.9931 506.454 26.9932C507.541 26.9932 508.608 26.9209 509.648 26.7842V29.1982C508.376 29.6388 507.519 30.4596 507.519 31.4023C507.519 32.345 508.376 33.1649 509.648 33.6055V35.8711C508.376 36.3115 507.52 37.1326 507.519 38.0752C507.519 39.0179 508.376 39.8388 509.648 40.2793V42.5459C508.376 42.9864 507.519 43.8073 507.519 44.75C507.519 45.6927 508.376 46.5126 509.648 46.9531V49.2197C508.376 49.6602 507.519 50.4811 507.519 51.4238C507.519 52.3665 508.376 53.1864 509.648 53.627V55.8945C508.376 56.335 507.519 57.1559 507.519 58.0986C507.519 59.0413 508.376 59.8612 509.648 60.3018V62.5693C508.376 63.0099 507.519 63.8307 507.519 64.7734C507.519 65.7161 508.376 66.536 509.648 66.9766V69.2432C508.376 69.6837 507.519 70.5045 507.519 71.4473C507.519 72.3899 508.376 73.2099 509.648 73.6504V75.918C508.376 76.3585 507.519 77.1793 507.519 78.1221C507.52 79.0646 508.376 79.8847 509.648 80.3252V82.5908C508.376 83.0313 507.519 83.8522 507.519 84.7949C507.519 85.7376 508.376 86.5575 509.648 86.998V89.2656C508.376 89.7062 507.519 90.527 507.519 91.4697C507.519 92.4124 508.376 93.2323 509.648 93.6729V95.9023C500.497 96.2952 492.957 101.726 490.988 108.911H34.3523C32.5388 102.292 25.9961 97.1611 17.822 96.0869V93.6729C19.0941 93.2323 19.9509 92.4123 19.9509 91.4697C19.9509 90.527 19.0943 89.7062 17.822 89.2656V86.998C19.0941 86.5575 19.9509 85.7375 19.9509 84.7949C19.9508 83.8523 19.0942 83.0313 17.822 82.5908V80.3252C19.094 79.8847 19.9507 79.0646 19.9509 78.1221C19.9509 77.1794 19.0942 76.3585 17.822 75.918V73.6504C19.094 73.2098 19.9508 72.3898 19.9509 71.4473C19.9509 70.5046 19.0942 69.6837 17.822 69.2432V66.9766C19.0941 66.536 19.9508 65.716 19.9509 64.7734C19.9509 63.8308 19.0942 63.0099 17.822 62.5693V60.3018C19.0941 59.8612 19.9509 59.0412 19.9509 58.0986C19.9509 57.156 19.0943 56.3351 17.822 55.8945V53.627C19.0941 53.1864 19.9509 52.3664 19.9509 51.4238C19.9508 50.4812 19.0942 49.6602 17.822 49.2197V46.9531C19.0941 46.5125 19.9509 45.6926 19.9509 44.75C19.9508 43.8074 19.0942 42.9864 17.822 42.5459V40.2793C19.0942 39.8387 19.9509 39.0178 19.9509 38.0752C19.9506 37.1327 19.0941 36.3116 17.822 35.8711V33.6055C19.0941 33.1649 19.9509 32.3449 19.9509 31.4023C19.9509 30.4597 19.0942 29.6388 17.822 29.1982V26.9688C18.1744 26.9839 18.5295 26.9932 18.8865 26.9932C27.6927 26.993 35.1827 22.3297 37.9597 15.8223H487.38Z"/>
</mask>
<path d="M487.38 15.8223C490.157 22.3299 497.647 26.9931 506.454 26.9932C507.541 26.9932 508.608 26.9209 509.648 26.7842V29.1982C508.376 29.6388 507.519 30.4596 507.519 31.4023C507.519 32.345 508.376 33.1649 509.648 33.6055V35.8711C508.376 36.3115 507.52 37.1326 507.519 38.0752C507.519 39.0179 508.376 39.8388 509.648 40.2793V42.5459C508.376 42.9864 507.519 43.8073 507.519 44.75C507.519 45.6927 508.376 46.5126 509.648 46.9531V49.2197C508.376 49.6602 507.519 50.4811 507.519 51.4238C507.519 52.3665 508.376 53.1864 509.648 53.627V55.8945C508.376 56.335 507.519 57.1559 507.519 58.0986C507.519 59.0413 508.376 59.8612 509.648 60.3018V62.5693C508.376 63.0099 507.519 63.8307 507.519 64.7734C507.519 65.7161 508.376 66.536 509.648 66.9766V69.2432C508.376 69.6837 507.519 70.5045 507.519 71.4473C507.519 72.3899 508.376 73.2099 509.648 73.6504V75.918C508.376 76.3585 507.519 77.1793 507.519 78.1221C507.52 79.0646 508.376 79.8847 509.648 80.3252V82.5908C508.376 83.0313 507.519 83.8522 507.519 84.7949C507.519 85.7376 508.376 86.5575 509.648 86.998V89.2656C508.376 89.7062 507.519 90.527 507.519 91.4697C507.519 92.4124 508.376 93.2323 509.648 93.6729V95.9023C500.497 96.2952 492.957 101.726 490.988 108.911H34.3523C32.5388 102.292 25.9961 97.1611 17.822 96.0869V93.6729C19.0941 93.2323 19.9509 92.4123 19.9509 91.4697C19.9509 90.527 19.0943 89.7062 17.822 89.2656V86.998C19.0941 86.5575 19.9509 85.7375 19.9509 84.7949C19.9508 83.8523 19.0942 83.0313 17.822 82.5908V80.3252C19.094 79.8847 19.9507 79.0646 19.9509 78.1221C19.9509 77.1794 19.0942 76.3585 17.822 75.918V73.6504C19.094 73.2098 19.9508 72.3898 19.9509 71.4473C19.9509 70.5046 19.0942 69.6837 17.822 69.2432V66.9766C19.0941 66.536 19.9508 65.716 19.9509 64.7734C19.9509 63.8308 19.0942 63.0099 17.822 62.5693V60.3018C19.0941 59.8612 19.9509 59.0412 19.9509 58.0986C19.9509 57.156 19.0943 56.3351 17.822 55.8945V53.627C19.0941 53.1864 19.9509 52.3664 19.9509 51.4238C19.9508 50.4812 19.0942 49.6602 17.822 49.2197V46.9531C19.0941 46.5125 19.9509 45.6926 19.9509 44.75C19.9508 43.8074 19.0942 42.9864 17.822 42.5459V40.2793C19.0942 39.8387 19.9509 39.0178 19.9509 38.0752C19.9506 37.1327 19.0941 36.3116 17.822 35.8711V33.6055C19.0941 33.1649 19.9509 32.3449 19.9509 31.4023C19.9509 30.4597 19.0942 29.6388 17.822 29.1982V26.9688C18.1744 26.9839 18.5295 26.9932 18.8865 26.9932C27.6927 26.993 35.1827 22.3297 37.9597 15.8223H487.38Z" fill="url(#paint1_linear_516_1071)"/>
<path d="M487.38 15.8223L488.299 15.4298L488.04 14.8223H487.38V15.8223ZM506.454 26.9932V27.9932V26.9932ZM509.648 26.7842H510.648V25.6442L509.518 25.7927L509.648 26.7842ZM509.648 29.1982L509.975 30.1432L510.648 29.9103V29.1982H509.648ZM507.519 31.4023L506.519 31.4023V31.4023H507.519ZM509.648 33.6055H510.648V32.8935L509.975 32.6605L509.648 33.6055ZM509.648 35.8711L509.975 36.8161L510.648 36.5831V35.8711H509.648ZM507.519 38.0752L506.519 38.0749V38.0752H507.519ZM509.648 40.2793H510.648V39.5673L509.975 39.3343L509.648 40.2793ZM509.648 42.5459L509.975 43.4909L510.648 43.2579V42.5459H509.648ZM507.519 44.75L506.519 44.7498V44.75H507.519ZM509.648 46.9531H510.648V46.2412L509.975 46.0082L509.648 46.9531ZM509.648 49.2197L509.975 50.1647L510.648 49.9318V49.2197H509.648ZM507.519 51.4238L506.519 51.4237V51.4238H507.519ZM509.648 53.627H510.648V52.915L509.975 52.682L509.648 53.627ZM509.648 55.8945L509.975 56.8395L510.648 56.6066V55.8945H509.648ZM507.519 58.0986L506.519 58.0986V58.0986H507.519ZM509.648 60.3018H510.648V59.5898L509.975 59.3568L509.648 60.3018ZM509.648 62.5693L509.975 63.5143L510.648 63.2814V62.5693H509.648ZM507.519 64.7734H506.519V64.7735L507.519 64.7734ZM509.648 66.9766H510.648V66.2646L509.975 66.0316L509.648 66.9766ZM509.648 69.2432L509.975 70.1881L510.648 69.9552V69.2432H509.648ZM507.519 71.4473H506.519V71.4474L507.519 71.4473ZM509.648 73.6504H510.648V72.9384L509.975 72.7054L509.648 73.6504ZM509.648 75.918L509.975 76.8629L510.648 76.63V75.918H509.648ZM507.519 78.1221H506.519V78.1223L507.519 78.1221ZM509.648 80.3252H510.648V79.6132L509.975 79.3802L509.648 80.3252ZM509.648 82.5908L509.975 83.5358L510.648 83.3028V82.5908H509.648ZM507.519 84.7949L506.519 84.7948V84.7949H507.519ZM509.648 86.998H510.648V86.2861L509.975 86.0531L509.648 86.998ZM509.648 89.2656L509.975 90.2106L510.648 89.9776V89.2656H509.648ZM507.519 91.4697H506.519V91.4697L507.519 91.4697ZM509.648 93.6729H510.648V92.9609L509.975 92.7279L509.648 93.6729ZM509.648 95.9023L509.691 96.9014L510.648 96.8603V95.9023H509.648ZM490.988 108.911V109.911H491.751L491.952 109.175L490.988 108.911ZM34.3523 108.911L33.3878 109.175L33.5894 109.911H34.3523V108.911ZM17.822 96.0869H16.822V96.9641L17.6917 97.0784L17.822 96.0869ZM17.822 93.6729L17.4947 92.7279L16.822 92.9609V93.6729H17.822ZM19.9509 91.4697L20.9509 91.4697V91.4697H19.9509ZM17.822 89.2656H16.822V89.9776L17.4948 90.2106L17.822 89.2656ZM17.822 86.998L17.4947 86.0531L16.822 86.2861V86.998H17.822ZM19.9509 84.7949H20.9509V84.7948L19.9509 84.7949ZM17.822 82.5908H16.822V83.3028L17.4948 83.5358L17.822 82.5908ZM17.822 80.3252L17.4948 79.3803L16.822 79.6132V80.3252H17.822ZM19.9509 78.1221L20.9509 78.1223V78.1221H19.9509ZM17.822 75.918H16.822V76.6299L17.4948 76.8629L17.822 75.918ZM17.822 73.6504L17.4948 72.7055L16.822 72.9384V73.6504H17.822ZM19.9509 71.4473L20.9509 71.4474V71.4473H19.9509ZM17.822 69.2432H16.822V69.9551L17.4948 70.1881L17.822 69.2432ZM17.822 66.9766L17.4948 66.0316L16.822 66.2646V66.9766H17.822ZM19.9509 64.7734L20.9509 64.7735V64.7734H19.9509ZM17.822 62.5693H16.822V63.2813L17.4948 63.5143L17.822 62.5693ZM17.822 60.3018L17.4947 59.3568L16.822 59.5898V60.3018H17.822ZM19.9509 58.0986H20.9509V58.0986L19.9509 58.0986ZM17.822 55.8945H16.822V56.6065L17.4948 56.8395L17.822 55.8945ZM17.822 53.627L17.4947 52.682L16.822 52.915V53.627H17.822ZM19.9509 51.4238H20.9509V51.4237L19.9509 51.4238ZM17.822 49.2197H16.822V49.9317L17.4948 50.1647L17.822 49.2197ZM17.822 46.9531L17.4947 46.0082L16.822 46.2412V46.9531H17.822ZM19.9509 44.75H20.9509V44.7498L19.9509 44.75ZM17.822 42.5459H16.822V43.2579L17.4948 43.4909L17.822 42.5459ZM17.822 40.2793L17.4948 39.3344L16.822 39.5673V40.2793H17.822ZM19.9509 38.0752H20.9509V38.0749L19.9509 38.0752ZM17.822 35.8711H16.822V36.5831L17.4948 36.8161L17.822 35.8711ZM17.822 33.6055L17.4947 32.6605L16.822 32.8935V33.6055H17.822ZM19.9509 31.4023H20.9509V31.4023L19.9509 31.4023ZM17.822 29.1982H16.822V29.9102L17.4948 30.1432L17.822 29.1982ZM17.822 26.9688L17.8649 25.9697L16.822 25.9249V26.9688H17.822ZM18.8865 26.9932V27.9932H18.8865L18.8865 26.9932ZM37.9597 15.8223V14.8223H37.2992L37.04 15.4298L37.9597 15.8223ZM487.38 15.8223L486.46 16.2147C489.422 23.1563 497.323 27.9931 506.454 27.9932V26.9932V25.9932C497.972 25.9931 490.891 21.5034 488.299 15.4298L487.38 15.8223ZM506.454 26.9932V27.9932C507.585 27.9932 508.696 27.918 509.779 27.7757L509.648 26.7842L509.518 25.7927C508.52 25.9239 507.496 25.9932 506.454 25.9932V26.9932ZM509.648 26.7842H508.648V29.1982H509.648H510.648V26.7842H509.648ZM509.648 29.1982L509.321 28.2533C507.92 28.7383 506.519 29.802 506.519 31.4023L507.519 31.4023L508.519 31.4024C508.519 31.1173 508.831 30.5392 509.975 30.1432L509.648 29.1982ZM507.519 31.4023H506.519C506.519 33.0032 507.921 34.0656 509.321 34.5504L509.648 33.6055L509.975 32.6605C508.831 32.2642 508.519 31.6869 508.519 31.4023H507.519ZM509.648 33.6055H508.648V35.8711H509.648H510.648V33.6055H509.648ZM509.648 35.8711L509.321 34.9261C507.92 35.4111 506.52 36.475 506.519 38.0749L507.519 38.0752L508.519 38.0755C508.519 37.7902 508.832 37.2119 509.975 36.8161L509.648 35.8711ZM507.519 38.0752H506.519C506.519 39.6756 507.92 40.7393 509.321 41.2243L509.648 40.2793L509.975 39.3343C508.831 38.9382 508.519 38.3602 508.519 38.0752H507.519ZM509.648 40.2793H508.648V42.5459H509.648H510.648V40.2793H509.648ZM509.648 42.5459L509.321 41.6009C507.92 42.0859 506.52 43.1497 506.519 44.7498L507.519 44.75L508.519 44.7502C508.519 44.4649 508.832 43.8868 509.975 43.4909L509.648 42.5459ZM507.519 44.75H506.519C506.519 46.3508 507.921 47.4133 509.321 47.8981L509.648 46.9531L509.975 46.0082C508.831 45.6118 508.519 45.0345 508.519 44.75H507.519ZM509.648 46.9531H508.648V49.2197H509.648H510.648V46.9531H509.648ZM509.648 49.2197L509.321 48.2748C507.92 48.7598 506.52 49.8235 506.519 51.4237L507.519 51.4238L508.519 51.424C508.519 51.1388 508.832 50.5607 509.975 50.1647L509.648 49.2197ZM507.519 51.4238H506.519C506.519 53.0246 507.921 54.0871 509.321 54.5719L509.648 53.627L509.975 52.682C508.831 52.2857 508.519 51.7084 508.519 51.4238H507.519ZM509.648 53.627H508.648V55.8945H509.648H510.648V53.627H509.648ZM509.648 55.8945L509.321 54.9496C507.92 55.4346 506.519 56.4982 506.519 58.0986L507.519 58.0986L508.519 58.0987C508.519 57.8136 508.831 57.2355 509.975 56.8395L509.648 55.8945ZM507.519 58.0986H506.519C506.519 59.6994 507.921 60.7619 509.321 61.2467L509.648 60.3018L509.975 59.3568C508.831 58.9605 508.519 58.3832 508.519 58.0986H507.519ZM509.648 60.3018H508.648V62.5693H509.648H510.648V60.3018H509.648ZM509.648 62.5693L509.321 61.6244C507.92 62.1094 506.519 63.173 506.519 64.7734H507.519H508.519C508.519 64.4884 508.831 63.9104 509.975 63.5143L509.648 62.5693ZM507.519 64.7734L506.519 64.7735C506.519 66.3742 507.921 67.4367 509.321 67.9215L509.648 66.9766L509.975 66.0316C508.831 65.6353 508.519 65.058 508.519 64.7734L507.519 64.7734ZM509.648 66.9766H508.648V69.2432H509.648H510.648V66.9766H509.648ZM509.648 69.2432L509.321 68.2982C507.92 68.7832 506.519 69.8468 506.519 71.4473H507.519H508.519C508.519 71.1622 508.831 70.5842 509.975 70.1881L509.648 69.2432ZM507.519 71.4473L506.519 71.4474C506.519 73.048 507.921 74.1106 509.321 74.5953L509.648 73.6504L509.975 72.7054C508.831 72.3092 508.519 71.7318 508.519 71.4471L507.519 71.4473ZM509.648 73.6504H508.648V75.918H509.648H510.648V73.6504H509.648ZM509.648 75.918L509.321 74.973C507.92 75.458 506.519 76.5216 506.519 78.1221H507.519H508.519C508.519 77.837 508.831 77.259 509.975 76.8629L509.648 75.918ZM507.519 78.1221L506.519 78.1223C506.52 79.7227 507.921 80.7853 509.321 81.2701L509.648 80.3252L509.975 79.3802C508.831 78.9841 508.519 78.4066 508.519 78.1218L507.519 78.1221ZM509.648 80.3252H508.648V82.5908H509.648H510.648V80.3252H509.648ZM509.648 82.5908L509.321 81.6459C507.92 82.1309 506.519 83.1946 506.519 84.7948L507.519 84.7949L508.519 84.795C508.519 84.5098 508.831 83.9318 509.975 83.5358L509.648 82.5908ZM507.519 84.7949H506.519C506.519 86.3957 507.921 87.4582 509.321 87.943L509.648 86.998L509.975 86.0531C508.831 85.6568 508.519 85.0795 508.519 84.7949H507.519ZM509.648 86.998H508.648V89.2656H509.648H510.648V86.998H509.648ZM509.648 89.2656L509.321 88.3207C507.92 88.8056 506.519 89.8693 506.519 91.4697H507.519H508.519C508.519 91.1846 508.831 90.6067 509.975 90.2106L509.648 89.2656ZM507.519 91.4697L506.519 91.4697C506.519 93.0705 507.921 94.133 509.321 94.6178L509.648 93.6729L509.975 92.7279C508.831 92.3316 508.519 91.7543 508.519 91.4697L507.519 91.4697ZM509.648 93.6729H508.648V95.9023H509.648H510.648V93.6729H509.648ZM509.648 95.9023L509.605 94.9033C500.123 95.3104 492.132 100.951 490.024 108.647L490.988 108.911L491.952 109.175C493.781 102.501 500.872 97.2801 509.691 96.9014L509.648 95.9023ZM490.988 108.911V107.911H34.3523V108.911V109.911H490.988V108.911ZM34.3523 108.911L35.3168 108.647C33.3744 101.557 26.4334 96.2099 17.9523 95.0954L17.822 96.0869L17.6917 97.0784C25.5588 98.1122 31.7033 103.027 33.3878 109.175L34.3523 108.911ZM17.822 96.0869H18.822V93.6729H17.822H16.822V96.0869H17.822ZM17.822 93.6729L18.1493 94.6178C19.549 94.133 20.9509 93.0705 20.9509 91.4697L19.9509 91.4697L18.9509 91.4697C18.9509 91.7542 18.6392 92.3316 17.4947 92.7279L17.822 93.6729ZM19.9509 91.4697H20.9509C20.9509 89.8693 19.5498 88.8057 18.1492 88.3207L17.822 89.2656L17.4948 90.2106C18.6387 90.6067 18.9509 91.1848 18.9509 91.4697H19.9509ZM17.822 89.2656H18.822V86.998H17.822H16.822V89.2656H17.822ZM17.822 86.998L18.1493 87.943C19.5489 87.4582 20.9509 86.3957 20.9509 84.7949H19.9509H18.9509C18.9509 85.0794 18.6392 85.6567 17.4947 86.0531L17.822 86.998ZM19.9509 84.7949L20.9509 84.7948C20.9508 83.1946 19.5499 82.1309 18.1492 81.6459L17.822 82.5908L17.4948 83.5358C18.6386 83.9318 18.9509 84.51 18.9509 84.795L19.9509 84.7949ZM17.822 82.5908H18.822V80.3252H17.822H16.822V82.5908H17.822ZM17.822 80.3252L18.1493 81.2701C19.5491 80.7853 20.9506 79.7226 20.9509 78.1223L19.9509 78.1221L18.9509 78.1218C18.9509 78.4065 18.6389 78.984 17.4948 79.3803L17.822 80.3252ZM19.9509 78.1221H20.9509C20.9509 76.5217 19.5497 75.458 18.1493 74.973L17.822 75.918L17.4948 76.8629C18.6387 77.2591 18.9509 77.8371 18.9509 78.1221H19.9509ZM17.822 75.918H18.822V73.6504H17.822H16.822V75.918H17.822ZM17.822 73.6504L18.1493 74.5953C19.549 74.1105 20.9507 73.0479 20.9509 71.4474L19.9509 71.4473L18.9509 71.4471C18.9509 71.7317 18.6391 72.3091 17.4948 72.7055L17.822 73.6504ZM19.9509 71.4473H20.9509C20.9509 69.8469 19.5498 68.7832 18.1493 68.2982L17.822 69.2432L17.4948 70.1881C18.6387 70.5842 18.9509 71.1623 18.9509 71.4473H19.9509ZM17.822 69.2432H18.822V66.9766H17.822H16.822V69.2432H17.822ZM17.822 66.9766L18.1493 67.9215C19.549 67.4367 20.9508 66.3741 20.9509 64.7735L19.9509 64.7734L18.9509 64.7734C18.9509 65.0579 18.6391 65.6353 17.4948 66.0316L17.822 66.9766ZM19.9509 64.7734H20.9509C20.9509 63.173 19.5498 62.1094 18.1492 61.6244L17.822 62.5693L17.4948 63.5143C18.6387 63.9104 18.9509 64.4885 18.9509 64.7734H19.9509ZM17.822 62.5693H18.822V60.3018H17.822H16.822V62.5693H17.822ZM17.822 60.3018L18.1493 61.2467C19.549 60.7619 20.9509 59.6994 20.9509 58.0986H19.9509H18.9509C18.9509 58.3831 18.6392 58.9604 17.4947 59.3568L17.822 60.3018ZM19.9509 58.0986L20.9509 58.0986C20.9509 56.4983 19.5498 55.4346 18.1492 54.9496L17.822 55.8945L17.4948 56.8395C18.6387 57.2356 18.9509 57.8137 18.9509 58.0987L19.9509 58.0986ZM17.822 55.8945H18.822V53.627H17.822H16.822V55.8945H17.822ZM17.822 53.627L18.1493 54.5719C19.5489 54.0871 20.9509 53.0246 20.9509 51.4238H19.9509H18.9509C18.9509 51.7083 18.6392 52.2856 17.4947 52.682L17.822 53.627ZM19.9509 51.4238L20.9509 51.4237C20.9507 49.8236 19.5499 48.7598 18.1492 48.2748L17.822 49.2197L17.4948 50.1647C18.6385 50.5607 18.9509 51.1389 18.9509 51.424L19.9509 51.4238ZM17.822 49.2197H18.822V46.9531H17.822H16.822V49.2197H17.822ZM17.822 46.9531L18.1493 47.898C19.5489 47.4133 20.9509 46.3508 20.9509 44.75H19.9509H18.9509C18.9509 45.0344 18.6392 45.6118 17.4947 46.0082L17.822 46.9531ZM19.9509 44.75L20.9509 44.7498C20.9506 43.1498 19.5499 42.086 18.1492 41.6009L17.822 42.5459L17.4948 43.4909C18.6385 43.8869 18.9509 44.4651 18.9509 44.7502L19.9509 44.75ZM17.822 42.5459H18.822V40.2793H17.822H16.822V42.5459H17.822ZM17.822 40.2793L18.1493 41.2242C19.5497 40.7393 20.9509 39.6756 20.9509 38.0752H19.9509H18.9509C18.9509 38.3601 18.6387 38.9382 17.4948 39.3344L17.822 40.2793ZM19.9509 38.0752L20.9509 38.0749C20.9504 36.4751 19.55 35.4112 18.1492 34.9261L17.822 35.8711L17.4948 36.8161C18.6383 37.212 18.9508 37.7903 18.9509 38.0755L19.9509 38.0752ZM17.822 35.8711H18.822V33.6055H17.822H16.822V35.8711H17.822ZM17.822 33.6055L18.1493 34.5504C19.5489 34.0656 20.9509 33.0031 20.9509 31.4023H19.9509H18.9509C18.9509 31.6868 18.6392 32.2641 17.4947 32.6605L17.822 33.6055ZM19.9509 31.4023L20.9509 31.4023C20.9508 29.802 19.5498 28.7383 18.1492 28.2533L17.822 29.1982L17.4948 30.1432C18.6386 30.5393 18.9509 31.1174 18.9509 31.4024L19.9509 31.4023ZM17.822 29.1982H18.822V26.9688H17.822H16.822V29.1982H17.822ZM17.822 26.9688L17.7791 27.9678C18.1426 27.9834 18.5123 27.9932 18.8865 27.9932V26.9932V25.9932C18.5467 25.9932 18.2062 25.9843 17.8649 25.9697L17.822 26.9688ZM18.8865 26.9932L18.8865 27.9932C28.0169 27.993 35.9173 23.1561 38.8795 16.2148L37.9597 15.8223L37.04 15.4298C34.4482 21.5032 27.3684 25.993 18.8865 25.9932L18.8865 26.9932ZM37.9597 15.8223V16.8223H487.38V15.8223V14.8223H37.9597V15.8223Z" fill="white" mask="url(#path-2-inside-1_516_1071)"/>
<path d="M228.291 43.6169C228.212 42.8148 227.87 42.1917 227.267 41.7476C226.664 41.3035 225.845 41.0814 224.811 41.0814C224.109 41.0814 223.515 41.1808 223.031 41.3797C222.547 41.5719 222.176 41.8404 221.918 42.1851C221.666 42.5298 221.54 42.9209 221.54 43.3584C221.527 43.723 221.603 44.0412 221.769 44.3129C221.941 44.5847 222.176 44.82 222.475 45.0189C222.773 45.2111 223.118 45.3802 223.509 45.526C223.9 45.6652 224.317 45.7845 224.761 45.884L226.591 46.3215C227.479 46.5203 228.295 46.7855 229.037 47.1169C229.779 47.4484 230.422 47.856 230.966 48.3399C231.51 48.8238 231.93 49.3939 232.229 50.0502C232.534 50.7064 232.689 51.4588 232.696 52.3073C232.689 53.5535 232.371 54.634 231.742 55.5487C231.118 56.4569 230.217 57.1628 229.037 57.6666C227.864 58.1638 226.448 58.4124 224.791 58.4124C223.147 58.4124 221.716 58.1605 220.496 57.6567C219.283 57.1529 218.335 56.4072 217.652 55.4195C216.976 54.4252 216.621 53.1955 216.588 51.7306H220.754C220.801 52.4133 220.996 52.9834 221.341 53.4408C221.692 53.8915 222.16 54.2329 222.743 54.4649C223.333 54.6903 223.999 54.803 224.742 54.803C225.471 54.803 226.104 54.6969 226.641 54.4848C227.184 54.2727 227.605 53.9777 227.904 53.5999C228.202 53.222 228.351 52.7878 228.351 52.2973C228.351 51.8399 228.215 51.4555 227.943 51.1439C227.678 50.8324 227.287 50.5672 226.77 50.3485C226.26 50.1297 225.633 49.9308 224.891 49.7519L222.673 49.195C220.957 48.7774 219.601 48.1245 218.607 47.2362C217.612 46.348 217.118 45.1515 217.125 43.6467C217.118 42.4138 217.447 41.3366 218.109 40.4152C218.779 39.4938 219.697 38.7746 220.864 38.2575C222.03 37.7405 223.356 37.482 224.841 37.482C226.352 37.482 227.672 37.7405 228.798 38.2575C229.932 38.7746 230.814 39.4938 231.443 40.4152C232.073 41.3366 232.398 42.4039 232.418 43.6169H228.291ZM242.413 58.4223C240.849 58.4223 239.503 58.0909 238.376 57.428C237.256 56.7585 236.394 55.8305 235.791 54.6439C235.194 53.4574 234.896 52.0918 234.896 50.5473C234.896 48.9829 235.198 47.6108 235.801 46.4308C236.411 45.2443 237.276 44.3196 238.396 43.6567C239.516 42.9872 240.849 42.6524 242.393 42.6524C243.726 42.6524 244.892 42.8944 245.893 43.3783C246.894 43.8622 247.686 44.5416 248.27 45.4166C248.853 46.2916 249.174 47.3191 249.234 48.499H245.237C245.124 47.7367 244.826 47.1235 244.342 46.6595C243.865 46.1889 243.238 45.9536 242.463 45.9536C241.807 45.9536 241.233 46.1325 240.743 46.4905C240.259 46.8418 239.881 47.3556 239.609 48.0317C239.337 48.7078 239.201 49.5265 239.201 50.4877C239.201 51.4621 239.334 52.2907 239.599 52.9735C239.871 53.6562 240.252 54.1766 240.743 54.5345C241.233 54.8925 241.807 55.0715 242.463 55.0715C242.947 55.0715 243.381 54.972 243.765 54.7732C244.156 54.5743 244.478 54.286 244.73 53.9081C244.988 53.5236 245.157 53.0629 245.237 52.526H249.234C249.168 53.6927 248.85 54.7201 248.28 55.6084C247.716 56.49 246.937 57.1794 245.943 57.6766C244.949 58.1737 243.772 58.4223 242.413 58.4223ZM251.946 58.124V42.8513H256.182V58.124H251.946ZM254.074 40.8825C253.444 40.8825 252.904 40.6737 252.453 40.2561C252.009 39.8319 251.787 39.3248 251.787 38.7348C251.787 38.1515 252.009 37.651 252.453 37.2334C252.904 36.8092 253.444 36.597 254.074 36.597C254.704 36.597 255.241 36.8092 255.685 37.2334C256.136 37.651 256.361 38.1515 256.361 38.7348C256.361 39.3248 256.136 39.8319 255.685 40.2561C255.241 40.6737 254.704 40.8825 254.074 40.8825ZM267.788 42.8513V46.0331H258.362V42.8513H267.788ZM260.52 58.124V41.7476C260.52 40.6406 260.735 39.7225 261.166 38.9933C261.603 38.2642 262.2 37.7173 262.956 37.3527C263.711 36.9881 264.57 36.8058 265.531 36.8058C266.181 36.8058 266.774 36.8556 267.311 36.955C267.854 37.0544 268.259 37.1439 268.524 37.2235L267.768 40.4053C267.602 40.3522 267.397 40.3025 267.152 40.2561C266.913 40.2097 266.668 40.1865 266.416 40.1865C265.793 40.1865 265.359 40.3324 265.113 40.624C264.868 40.9091 264.745 41.3101 264.745 41.8271V58.124H260.52ZM276.73 58.4223C275.185 58.4223 273.849 58.0942 272.722 57.4379C271.602 56.7751 270.737 55.8537 270.127 54.6737C269.517 53.4872 269.212 52.1117 269.212 50.5473C269.212 48.9697 269.517 47.5909 270.127 46.411C270.737 45.2244 271.602 44.303 272.722 43.6467C273.849 42.9839 275.185 42.6524 276.73 42.6524C278.274 42.6524 279.606 42.9839 280.727 43.6467C281.854 44.303 282.722 45.2244 283.332 46.411C283.942 47.5909 284.247 48.9697 284.247 50.5473C284.247 52.1117 283.942 53.4872 283.332 54.6737C282.722 55.8537 281.854 56.7751 280.727 57.4379C279.606 58.0942 278.274 58.4223 276.73 58.4223ZM276.749 55.1411C277.452 55.1411 278.039 54.9422 278.509 54.5445C278.98 54.1401 279.335 53.5899 279.573 52.8939C279.819 52.1979 279.941 51.4057 279.941 50.5175C279.941 49.6292 279.819 48.8371 279.573 48.1411C279.335 47.445 278.98 46.8949 278.509 46.4905C278.039 46.0861 277.452 45.884 276.749 45.884C276.04 45.884 275.444 46.0861 274.96 46.4905C274.482 46.8949 274.121 47.445 273.876 48.1411C273.637 48.8371 273.518 49.6292 273.518 50.5175C273.518 51.4057 273.637 52.1979 273.876 52.8939C274.121 53.5899 274.482 54.1401 274.96 54.5445C275.444 54.9422 276.04 55.1411 276.749 55.1411ZM287.001 58.124V42.8513H291.107V45.5161H291.266C291.545 44.5682 292.012 43.8522 292.668 43.3683C293.325 42.8778 294.08 42.6325 294.935 42.6325C295.148 42.6325 295.376 42.6458 295.622 42.6723C295.867 42.6988 296.082 42.7353 296.268 42.7817V46.5402C296.069 46.4806 295.794 46.4275 295.443 46.3811C295.091 46.3347 294.77 46.3115 294.478 46.3115C293.855 46.3115 293.298 46.4474 292.808 46.7192C292.324 46.9843 291.939 47.3556 291.654 47.8328C291.376 48.3101 291.237 48.8603 291.237 49.4834V58.124H287.001ZM302.375 58.4124C301.401 58.4124 300.533 58.2433 299.77 57.9053C299.008 57.5606 298.405 57.0535 297.961 56.384C297.523 55.7078 297.304 54.866 297.304 53.8584C297.304 53.0099 297.46 52.2973 297.772 51.7206C298.083 51.1439 298.508 50.6799 299.044 50.3286C299.581 49.9772 300.191 49.7121 300.874 49.5331C301.563 49.3541 302.286 49.2282 303.042 49.1553C303.93 49.0625 304.646 48.9763 305.189 48.8968C305.733 48.8106 306.127 48.6846 306.373 48.5189C306.618 48.3532 306.741 48.1079 306.741 47.7831V47.7235C306.741 47.0937 306.542 46.6065 306.144 46.2618C305.753 45.9171 305.196 45.7448 304.473 45.7448C303.711 45.7448 303.105 45.9138 302.654 46.2519C302.203 46.5833 301.905 47.0009 301.759 47.5047L297.841 47.1865C298.04 46.2585 298.431 45.4564 299.015 44.7803C299.598 44.0975 300.35 43.5738 301.272 43.2092C302.2 42.838 303.274 42.6524 304.493 42.6524C305.342 42.6524 306.154 42.7519 306.929 42.9507C307.712 43.1496 308.404 43.4578 309.008 43.8754C309.617 44.2931 310.098 44.83 310.449 45.4862C310.801 46.1359 310.976 46.9147 310.976 47.8229V58.124H306.959V56.0061H306.84C306.595 56.4834 306.267 56.9043 305.856 57.2689C305.445 57.6269 304.951 57.9086 304.374 58.1141C303.797 58.3129 303.131 58.4124 302.375 58.4124ZM303.589 55.4891C304.212 55.4891 304.762 55.3664 305.239 55.1212C305.716 54.8693 306.091 54.5312 306.363 54.107C306.634 53.6827 306.77 53.2021 306.77 52.6652V51.0445C306.638 51.1307 306.455 51.2102 306.223 51.2831C305.998 51.3494 305.743 51.4124 305.458 51.472C305.173 51.5251 304.888 51.5748 304.603 51.6212C304.318 51.661 304.059 51.6974 303.827 51.7306C303.33 51.8035 302.896 51.9195 302.525 52.0786C302.153 52.2377 301.865 52.4531 301.66 52.7249C301.454 52.99 301.351 53.3215 301.351 53.7192C301.351 54.2959 301.56 54.7367 301.978 55.0416C302.402 55.3399 302.939 55.4891 303.589 55.4891Z" fill="white"/>
<rect x="443.549" y="26.8496" width="38.5282" height="1.22962" fill="white"/>
<rect x="443.549" y="29.3096" width="38.5282" height="4.09875" fill="white"/>
<rect x="443.549" y="44.0645" width="38.5282" height="2.45925" fill="white"/>
<rect x="443.549" y="59.2305" width="38.5282" height="2.45925" fill="white"/>
<rect x="443.549" y="63.3291" width="38.5282" height="5.32837" fill="white"/>
<rect x="443.549" y="36.6875" width="38.5282" height="1.6395" fill="white"/>
<rect x="443.549" y="47.7539" width="38.5282" height="1.6395" fill="white"/>
<rect x="443.549" y="39.5566" width="38.5282" height="1.22962" fill="white"/>
<rect x="443.549" y="51.0322" width="38.5282" height="1.22962" fill="white"/>
<rect x="443.549" y="42.0146" width="38.5282" height="0.819749" fill="white"/>
<rect x="443.549" y="69.8867" width="38.5282" height="0.819749" fill="white"/>
<rect x="443.549" y="73.9863" width="38.5282" height="0.819749" fill="white"/>
<rect x="443.549" y="53.9014" width="38.5282" height="0.819749" fill="white"/>
<rect x="443.549" y="83.4121" width="38.5282" height="0.819749" fill="white"/>
<rect x="443.549" y="85.0518" width="38.5282" height="0.819749" fill="white"/>
<rect x="443.549" y="71.9355" width="38.5282" height="0.819749" fill="white"/>
<rect x="443.549" y="77.2637" width="38.5282" height="0.819749" fill="white"/>
<rect x="443.549" y="78.9043" width="38.5282" height="2.86912" fill="white"/>
<rect x="443.483" y="90.6416" width="38.384" height="1.35473" fill="white"/>
<rect x="443.549" y="56.7705" width="38.5282" height="0.819749" fill="white"/>
<rect x="443.549" y="92.8389" width="38.5282" height="2.86912" fill="white"/>
<path d="M224.823 89.853L219.741 92.9219C219.591 92.9957 219.453 93.0255 219.325 93.0115C219.198 92.9966 219.074 92.9527 218.954 92.8799C218.833 92.8053 218.741 92.6998 218.68 92.5635C218.618 92.4273 218.612 92.2784 218.663 92.1169L220.015 86.3627L215.542 82.4846C215.416 82.3819 215.333 82.2592 215.293 82.1164C215.253 81.9736 215.262 81.8368 215.319 81.7062C215.377 81.5755 215.454 81.4682 215.55 81.3842C215.648 81.303 215.778 81.2479 215.942 81.2189L221.845 80.7037L224.147 75.2548C224.21 75.1007 224.302 74.9897 224.421 74.9215C224.541 74.8534 224.675 74.8193 224.823 74.8193C224.971 74.8193 225.106 74.8534 225.226 74.9215C225.347 74.9897 225.438 75.1007 225.499 75.2548L227.801 80.7037L233.702 81.2189C233.867 81.247 233.998 81.3025 234.095 81.3856C234.193 81.4677 234.27 81.5746 234.328 81.7062C234.385 81.8368 234.393 81.9736 234.353 82.1164C234.313 82.2592 234.23 82.3819 234.104 82.4846L229.631 86.3627L230.983 92.1169C231.035 92.2765 231.03 92.4249 230.968 92.5621C230.905 92.6993 230.813 92.8048 230.692 92.8785C230.572 92.9532 230.449 92.9975 230.321 93.0115C230.194 93.0255 230.056 92.9957 229.907 92.9219L224.823 89.853Z" fill="white"/>
<path d="M264.455 89.853L259.373 92.9219C259.224 92.9957 259.085 93.0255 258.957 93.0115C258.83 92.9966 258.706 92.9527 258.586 92.8799C258.465 92.8053 258.373 92.6998 258.312 92.5635C258.25 92.4273 258.244 92.2784 258.295 92.1169L259.647 86.3627L255.174 82.4846C255.048 82.3819 254.965 82.2592 254.925 82.1164C254.885 81.9736 254.894 81.8368 254.952 81.7062C255.009 81.5755 255.086 81.4682 255.183 81.3842C255.28 81.303 255.41 81.2479 255.575 81.2189L261.477 80.7037L263.779 75.2548C263.842 75.1007 263.934 74.9897 264.053 74.9215C264.173 74.8534 264.307 74.8193 264.455 74.8193C264.603 74.8193 264.738 74.8534 264.858 74.9215C264.979 74.9897 265.07 75.1007 265.131 75.2548L267.433 80.7037L273.334 81.2189C273.499 81.247 273.63 81.3025 273.728 81.3856C273.825 81.4677 273.902 81.5746 273.96 81.7062C274.017 81.8368 274.025 81.9736 273.985 82.1164C273.945 82.2592 273.862 82.3819 273.736 82.4846L269.263 86.3627L270.615 92.1169C270.668 92.2765 270.662 92.4249 270.6 92.5621C270.537 92.6993 270.445 92.8048 270.324 92.8785C270.205 92.9532 270.081 92.9975 269.953 93.0115C269.826 93.0255 269.688 92.9957 269.539 92.9219L264.455 89.853Z" fill="white"/>
<path d="M304.087 89.853L299.005 92.9219C298.856 92.9957 298.717 93.0255 298.589 93.0115C298.462 92.9966 298.339 92.9527 298.218 92.8799C298.097 92.8053 298.005 92.6998 297.944 92.5635C297.882 92.4273 297.877 92.2784 297.927 92.1169L299.279 86.3627L294.806 82.4846C294.68 82.3819 294.597 82.2592 294.557 82.1164C294.517 81.9736 294.526 81.8368 294.584 81.7062C294.641 81.5755 294.718 81.4682 294.815 81.3842C294.912 81.303 295.042 81.2479 295.207 81.2189L301.109 80.7037L303.411 75.2548C303.474 75.1007 303.566 74.9897 303.685 74.9215C303.805 74.8534 303.939 74.8193 304.087 74.8193C304.236 74.8193 304.37 74.8534 304.49 74.9215C304.611 74.9897 304.702 75.1007 304.763 75.2548L307.065 80.7037L312.966 81.2189C313.131 81.247 313.263 81.3025 313.36 81.3856C313.457 81.4677 313.534 81.5746 313.592 81.7062C313.649 81.8368 313.657 81.9736 313.617 82.1164C313.577 82.2592 313.494 82.3819 313.368 82.4846L308.895 86.3627L310.247 92.1169C310.3 92.2765 310.294 92.4249 310.232 92.5621C310.169 92.6993 310.077 92.8048 309.956 92.8785C309.837 92.9532 309.713 92.9975 309.585 93.0115C309.458 93.0255 309.32 92.9957 309.171 92.9219L304.087 89.853Z" fill="white"/>
<path d="M343.073 89.9943L338.056 93.0238C337.909 93.0966 337.772 93.1261 337.646 93.1123C337.52 93.0975 337.398 93.0542 337.279 92.9824C337.159 92.9087 337.069 92.8045 337.008 92.67C336.948 92.5355 336.942 92.3885 336.992 92.2291L338.327 86.5487L333.911 82.7203C333.787 82.6189 333.705 82.4978 333.665 82.3568C333.625 82.2158 333.634 82.0809 333.691 81.9519C333.748 81.8229 333.824 81.7169 333.919 81.634C334.015 81.5538 334.144 81.4995 334.306 81.4709L340.133 80.9623L342.405 75.5832C342.468 75.4311 342.558 75.3215 342.676 75.2542C342.794 75.187 342.927 75.1533 343.073 75.1533C343.22 75.1533 343.352 75.187 343.471 75.2542C343.59 75.3215 343.68 75.4311 343.741 75.5832L346.013 80.9623L351.838 81.4709C352.001 81.4985 352.131 81.5534 352.227 81.6354C352.322 81.7164 352.399 81.8219 352.456 81.9519C352.512 82.0809 352.521 82.2158 352.481 82.3568C352.441 82.4978 352.359 82.6189 352.235 82.7203L347.819 86.5487L349.154 92.2291C349.206 92.3867 349.201 92.5332 349.139 92.6686C349.077 92.8041 348.987 92.9082 348.867 92.981C348.749 93.0547 348.627 93.0985 348.501 93.1123C348.375 93.1261 348.239 93.0966 348.091 93.0238L343.073 89.9943Z" fill="white"/>
<path d="M185.837 89.5636L180.82 92.5932C180.673 92.666 180.536 92.6954 180.41 92.6816C180.284 92.6669 180.162 92.6236 180.043 92.5517C179.924 92.478 179.833 92.3739 179.772 92.2394C179.712 92.1048 179.706 91.9579 179.756 91.7985L181.091 86.118L176.675 82.2896C176.551 82.1883 176.469 82.0671 176.429 81.9261C176.39 81.7852 176.398 81.6502 176.455 81.5212C176.513 81.3922 176.589 81.2862 176.683 81.2033C176.779 81.1231 176.908 81.0688 177.07 81.0402L182.897 80.5316L185.17 75.1525C185.232 75.0005 185.322 74.8908 185.44 74.8235C185.558 74.7563 185.691 74.7227 185.837 74.7227C185.984 74.7227 186.116 74.7563 186.235 74.8235C186.354 74.8908 186.444 75.0005 186.505 75.1525L188.777 80.5316L194.602 81.0402C194.765 81.0679 194.895 81.1227 194.991 81.2047C195.087 81.2858 195.163 81.3913 195.22 81.5212C195.276 81.6502 195.285 81.7852 195.245 81.9261C195.205 82.0671 195.123 82.1883 194.999 82.2896L190.583 86.118L191.918 91.7985C191.97 91.956 191.965 92.1025 191.903 92.238C191.841 92.3734 191.751 92.4775 191.631 92.5503C191.513 92.624 191.391 92.6678 191.265 92.6816C191.139 92.6954 191.003 92.666 190.855 92.5932L185.837 89.5636Z" fill="white"/>
<path d="M431.353 16.9248V107.35" stroke="white"/>
<path d="M425.839 18.0273V108.453" stroke="white"/>
<path d="M72.959 18.0273V108.453" stroke="white"/>
<path d="M56.6466 47.9234H43.5557V46.3893L53.8341 39.2558V39.1279H43.5557V37.5427H56.6466V39.0768L46.3426 46.2359V46.3637H56.6466V47.9234ZM43.3511 54.8795C43.3511 53.9932 43.5621 53.2155 43.9839 52.5464C44.4058 51.8817 44.996 51.3618 45.7545 50.9868C46.5131 50.616 47.3994 50.4307 48.4136 50.4307C49.4363 50.4307 50.3291 50.616 51.0919 50.9868C51.8547 51.3618 52.447 51.8817 52.8689 52.5464C53.2907 53.2155 53.5017 53.9932 53.5017 54.8795C53.5017 55.7659 53.2907 56.5415 52.8689 57.2062C52.447 57.8753 51.8547 58.3952 51.0919 58.7659C50.3291 59.1409 49.4363 59.3284 48.4136 59.3284C47.3994 59.3284 46.5131 59.1409 45.7545 58.7659C44.996 58.3952 44.4058 57.8753 43.9839 57.2062C43.5621 56.5415 43.3511 55.7659 43.3511 54.8795ZM44.7062 54.8795C44.7062 55.5528 44.8788 56.1068 45.224 56.5415C45.5692 56.9761 46.023 57.2979 46.5855 57.5067C47.148 57.7155 47.7574 57.8199 48.4136 57.8199C49.0699 57.8199 49.6814 57.7155 50.2481 57.5067C50.8149 57.2979 51.273 56.9761 51.6224 56.5415C51.9719 56.1068 52.1466 55.5528 52.1466 54.8795C52.1466 54.2062 51.9719 53.6523 51.6224 53.2176C51.273 52.7829 50.8149 52.4612 50.2481 52.2524C49.6814 52.0436 49.0699 51.9392 48.4136 51.9392C47.7574 51.9392 47.148 52.0436 46.5855 52.2524C46.023 52.4612 45.5692 52.7829 45.224 53.2176C44.8788 53.6523 44.7062 54.2062 44.7062 54.8795ZM43.4534 62.7306C43.4534 62.4152 43.5663 62.1446 43.7922 61.9188C44.018 61.6929 44.2886 61.58 44.604 61.58C44.9193 61.58 45.1899 61.6929 45.4157 61.9188C45.6416 62.1446 45.7545 62.4152 45.7545 62.7306C45.7545 63.0459 45.6416 63.3165 45.4157 63.5424C45.1899 63.7682 44.9193 63.8811 44.604 63.8811C44.3952 63.8811 44.2034 63.8279 44.0287 63.7213C43.854 63.6191 43.7133 63.4806 43.6068 63.3058C43.5045 63.1354 43.4534 62.9436 43.4534 62.7306ZM43.3767 70.3755C43.3767 69.4124 43.6388 68.5921 44.1629 67.9145C44.6913 67.237 45.4562 66.7192 46.4577 66.3612C47.4633 66.0033 48.6778 65.8243 50.1011 65.8243C51.5159 65.8243 52.724 66.0033 53.7254 66.3612C54.7311 66.7235 55.4981 67.2433 56.0265 67.9209C56.5592 68.6027 56.8256 69.4209 56.8256 70.3755C56.8256 71.33 56.5592 72.146 56.0265 72.8236C55.4981 73.5054 54.7311 74.0253 53.7254 74.3833C52.724 74.7455 51.5159 74.9266 50.1011 74.9266C48.6778 74.9266 47.4633 74.7476 46.4577 74.3897C45.4562 74.0317 44.6913 73.5139 44.1629 72.8364C43.6388 72.1588 43.3767 71.3385 43.3767 70.3755ZM44.7829 70.3755C44.7829 71.33 45.2432 72.0715 46.1636 72.5999C47.0841 73.1283 48.3966 73.3925 50.1011 73.3925C51.2346 73.3925 52.1998 73.271 52.9967 73.0282C53.7936 72.7895 54.4008 72.4443 54.8184 71.9926C55.2361 71.5452 55.4449 71.0061 55.4449 70.3755C55.4449 69.4294 54.9782 68.6901 54.045 68.1574C53.116 67.6247 51.8014 67.3584 50.1011 67.3584C48.9676 67.3584 48.0045 67.4777 47.2119 67.7164C46.4193 67.955 45.8163 68.298 45.403 68.7455C44.9896 69.1972 44.7829 69.7405 44.7829 70.3755ZM43.3767 81.7789C43.3767 80.9351 43.5216 80.183 43.8113 79.5225C44.1011 78.8662 44.5038 78.3442 45.0194 77.9564C45.5393 77.5729 46.1423 77.3641 46.8284 77.33V78.9408C46.4065 78.9749 46.0422 79.1198 45.7354 79.3755C45.4328 79.6311 45.1984 79.9656 45.0322 80.379C44.866 80.7924 44.7829 81.2505 44.7829 81.7533C44.7829 82.3158 44.8809 82.8144 45.077 83.249C45.273 83.6837 45.5457 84.0246 45.8952 84.2718C46.2446 84.5189 46.6494 84.6425 47.1096 84.6425C47.5912 84.6425 48.0152 84.5232 48.3817 84.2845C48.7524 84.0459 49.0422 83.6965 49.251 83.2362C49.4598 82.776 49.5642 82.2135 49.5642 81.5487V80.5005H50.9704V81.5487C50.9704 82.0686 51.0642 82.5246 51.2517 82.9166C51.4392 83.313 51.7034 83.6219 52.0443 83.8435C52.3852 84.0693 52.7858 84.1823 53.246 84.1823C53.6892 84.1823 54.0748 84.0843 54.403 83.8882C54.7311 83.6922 54.9868 83.4152 55.17 83.0573C55.3532 82.7036 55.4449 82.286 55.4449 81.8044C55.4449 81.3527 55.3618 80.9266 55.1956 80.526C55.0336 80.1297 54.7971 79.8058 54.4861 79.5544C54.1792 79.303 53.8085 79.1666 53.3738 79.1453V77.6112C54.0599 77.6368 54.6608 77.8435 55.1764 78.2313C55.6963 78.6191 56.1011 79.1262 56.3909 79.7526C56.6807 80.3833 56.8256 81.0757 56.8256 81.83C56.8256 82.6397 56.6615 83.3343 56.3334 83.9138C56.0095 84.4933 55.5812 84.9387 55.0486 85.2497C54.5159 85.5608 53.9406 85.7164 53.3227 85.7164C52.5855 85.7164 51.9569 85.5225 51.4371 85.1347C50.9172 84.7512 50.5571 84.2291 50.3568 83.5686H50.2545C50.1182 84.3953 49.7666 85.0409 49.1998 85.5054C48.6373 85.9699 47.9406 86.2022 47.1096 86.2022C46.398 86.2022 45.7588 86.0083 45.192 85.6205C44.6295 85.237 44.1863 84.7128 43.8625 84.048C43.5386 83.3833 43.3767 82.6269 43.3767 81.7789Z" fill="white"/>
<defs>
<filter id="filter0_d_516_1071" x="0" y="0" width="527.47" height="128.274" filterUnits="userSpaceOnUse" color-interpolation-filters="sRGB">
<feFlood flood-opacity="0" result="BackgroundImageFix"/>
<feColorMatrix in="SourceAlpha" type="matrix" values="0 0 0 0 0 0 0 0 0 0 0 0 0 0 0 0 0 0 127 0" result="hardAlpha"/>
<feOffset dy="2"/>
<feGaussianBlur stdDeviation="4.5"/>
<feComposite in2="hardAlpha" operator="out"/>
<feColorMatrix type="matrix" values="0 0 0 0 0 0 0 0 0 0 0 0 0 0 0 0 0 0 0.25 0"/>
<feBlend mode="normal" in2="BackgroundImageFix" result="effect1_dropShadow_516_1071"/>
<feBlend mode="normal" in="SourceGraphic" in2="effect1_dropShadow_516_1071" result="shape"/>
</filter>
<linearGradient id="paint0_linear_516_1071" x1="9" y1="62.1372" x2="518.47" y2="62.1372" gradientUnits="userSpaceOnUse">
<stop stop-color="#2C3157"/>
<stop offset="0.298077" stop-color="#286138"/>
<stop offset="0.730769" stop-color="#44B0B0"/>
<stop offset="1" stop-color="#67FFF2"/>
</linearGradient>
<linearGradient id="paint1_linear_516_1071" x1="17.822" y1="62.3667" x2="509.648" y2="62.3667" gradientUnits="userSpaceOnUse">
<stop stop-color="#2C3157"/>
<stop offset="0.298077" stop-color="#286138"/>
<stop offset="0.730769" stop-color="#44B0B0"/>
<stop offset="1" stop-color="#67FFF2"/>
</linearGradient>
</defs>
</svg>
